<?xml version="1.0" encoding="utf-8" standalone="no"?>
<!DOCTYPE svg PUBLIC "-//W3C//DTD SVG 1.1//EN"
  "http://www.w3.org/Graphics/SVG/1.1/DTD/svg11.dtd">
<!-- Created with matplotlib (http://matplotlib.org/) -->
<svg height="302pt" version="1.1" viewBox="0 0 360 302" width="360pt" xmlns="http://www.w3.org/2000/svg" xmlns:xlink="http://www.w3.org/1999/xlink">
 <defs>
  <style type="text/css">
*{stroke-linecap:butt;stroke-linejoin:round;}
  </style>
 </defs>
 <g id="figure_1">
  <g id="patch_1">
   <path d="M 0 302.4 
L 360 302.4 
L 360 0 
L 0 0 
z
" style="fill:#ffffff;"/>
  </g>
  <g id="patch_2">
   <path d="M 13.32 289.08 
L 346.68 289.08 
L 346.68 13.32 
L 13.32 13.32 
z
" style="fill:#ffffff;"/>
  </g>
  <g id="pane3d_1">
   <g id="patch_3">
    <path d="M 57.512019 228.146758 
L 152.921395 160.536655 
L 151.33293 31.344843 
L 50.603856 92.091131 
" style="fill:#f2f2f2;opacity:0.5;stroke:#f2f2f2;stroke-linejoin:miter;"/>
   </g>
  </g>
  <g id="pane3d_2">
   <g id="patch_4">
    <path d="M 152.921395 160.536655 
L 307.475615 198.335066 
L 313.941978 65.247528 
L 151.33293 31.344843 
" style="fill:#e6e6e6;opacity:0.5;stroke:#e6e6e6;stroke-linejoin:miter;"/>
   </g>
  </g>
  <g id="pane3d_3">
   <g id="patch_5">
    <path d="M 57.512019 228.146758 
L 220.123942 272.169167 
L 307.475615 198.335066 
L 152.921395 160.536655 
" style="fill:#ececec;opacity:0.5;stroke:#ececec;stroke-linejoin:miter;"/>
   </g>
  </g>
  <g id="axis3d_1">
   <g id="line2d_1">
    <path d="M 57.512019 228.146758 
L 220.123942 272.169167 
" style="fill:none;stroke:#000000;stroke-linecap:square;stroke-width:0.8;"/>
   </g>
   <g id="text_1">
    <!-- Prim. Alignment Score -->
    <defs>
     <path d="M 19.671875 64.796875 
L 19.671875 37.40625 
L 32.078125 37.40625 
Q 38.96875 37.40625 42.71875 40.96875 
Q 46.484375 44.53125 46.484375 51.125 
Q 46.484375 57.671875 42.71875 61.234375 
Q 38.96875 64.796875 32.078125 64.796875 
z
M 9.8125 72.90625 
L 32.078125 72.90625 
Q 44.34375 72.90625 50.609375 67.359375 
Q 56.890625 61.8125 56.890625 51.125 
Q 56.890625 40.328125 50.609375 34.8125 
Q 44.34375 29.296875 32.078125 29.296875 
L 19.671875 29.296875 
L 19.671875 0 
L 9.8125 0 
z
" id="DejaVuSans-50"/>
     <path d="M 41.109375 46.296875 
Q 39.59375 47.171875 37.8125 47.578125 
Q 36.03125 48 33.890625 48 
Q 26.265625 48 22.1875 43.046875 
Q 18.109375 38.09375 18.109375 28.8125 
L 18.109375 0 
L 9.078125 0 
L 9.078125 54.6875 
L 18.109375 54.6875 
L 18.109375 46.1875 
Q 20.953125 51.171875 25.484375 53.578125 
Q 30.03125 56 36.53125 56 
Q 37.453125 56 38.578125 55.875 
Q 39.703125 55.765625 41.0625 55.515625 
z
" id="DejaVuSans-72"/>
     <path d="M 9.421875 54.6875 
L 18.40625 54.6875 
L 18.40625 0 
L 9.421875 0 
z
M 9.421875 75.984375 
L 18.40625 75.984375 
L 18.40625 64.59375 
L 9.421875 64.59375 
z
" id="DejaVuSans-69"/>
     <path d="M 52 44.1875 
Q 55.375 50.25 60.0625 53.125 
Q 64.75 56 71.09375 56 
Q 79.640625 56 84.28125 50.015625 
Q 88.921875 44.046875 88.921875 33.015625 
L 88.921875 0 
L 79.890625 0 
L 79.890625 32.71875 
Q 79.890625 40.578125 77.09375 44.375 
Q 74.3125 48.1875 68.609375 48.1875 
Q 61.625 48.1875 57.5625 43.546875 
Q 53.515625 38.921875 53.515625 30.90625 
L 53.515625 0 
L 44.484375 0 
L 44.484375 32.71875 
Q 44.484375 40.625 41.703125 44.40625 
Q 38.921875 48.1875 33.109375 48.1875 
Q 26.21875 48.1875 22.15625 43.53125 
Q 18.109375 38.875 18.109375 30.90625 
L 18.109375 0 
L 9.078125 0 
L 9.078125 54.6875 
L 18.109375 54.6875 
L 18.109375 46.1875 
Q 21.1875 51.21875 25.484375 53.609375 
Q 29.78125 56 35.6875 56 
Q 41.65625 56 45.828125 52.96875 
Q 50 49.953125 52 44.1875 
z
" id="DejaVuSans-6d"/>
     <path d="M 10.6875 12.40625 
L 21 12.40625 
L 21 0 
L 10.6875 0 
z
" id="DejaVuSans-2e"/>
     <path id="DejaVuSans-20"/>
     <path d="M 34.1875 63.1875 
L 20.796875 26.90625 
L 47.609375 26.90625 
z
M 28.609375 72.90625 
L 39.796875 72.90625 
L 67.578125 0 
L 57.328125 0 
L 50.6875 18.703125 
L 17.828125 18.703125 
L 11.1875 0 
L 0.78125 0 
z
" id="DejaVuSans-41"/>
     <path d="M 9.421875 75.984375 
L 18.40625 75.984375 
L 18.40625 0 
L 9.421875 0 
z
" id="DejaVuSans-6c"/>
     <path d="M 45.40625 27.984375 
Q 45.40625 37.75 41.375 43.109375 
Q 37.359375 48.484375 30.078125 48.484375 
Q 22.859375 48.484375 18.828125 43.109375 
Q 14.796875 37.75 14.796875 27.984375 
Q 14.796875 18.265625 18.828125 12.890625 
Q 22.859375 7.515625 30.078125 7.515625 
Q 37.359375 7.515625 41.375 12.890625 
Q 45.40625 18.265625 45.40625 27.984375 
z
M 54.390625 6.78125 
Q 54.390625 -7.171875 48.1875 -13.984375 
Q 42 -20.796875 29.203125 -20.796875 
Q 24.46875 -20.796875 20.265625 -20.09375 
Q 16.0625 -19.390625 12.109375 -17.921875 
L 12.109375 -9.1875 
Q 16.0625 -11.328125 19.921875 -12.34375 
Q 23.78125 -13.375 27.78125 -13.375 
Q 36.625 -13.375 41.015625 -8.765625 
Q 45.40625 -4.15625 45.40625 5.171875 
L 45.40625 9.625 
Q 42.625 4.78125 38.28125 2.390625 
Q 33.9375 0 27.875 0 
Q 17.828125 0 11.671875 7.65625 
Q 5.515625 15.328125 5.515625 27.984375 
Q 5.515625 40.671875 11.671875 48.328125 
Q 17.828125 56 27.875 56 
Q 33.9375 56 38.28125 53.609375 
Q 42.625 51.21875 45.40625 46.390625 
L 45.40625 54.6875 
L 54.390625 54.6875 
z
" id="DejaVuSans-67"/>
     <path d="M 54.890625 33.015625 
L 54.890625 0 
L 45.90625 0 
L 45.90625 32.71875 
Q 45.90625 40.484375 42.875 44.328125 
Q 39.84375 48.1875 33.796875 48.1875 
Q 26.515625 48.1875 22.3125 43.546875 
Q 18.109375 38.921875 18.109375 30.90625 
L 18.109375 0 
L 9.078125 0 
L 9.078125 54.6875 
L 18.109375 54.6875 
L 18.109375 46.1875 
Q 21.34375 51.125 25.703125 53.5625 
Q 30.078125 56 35.796875 56 
Q 45.21875 56 50.046875 50.171875 
Q 54.890625 44.34375 54.890625 33.015625 
z
" id="DejaVuSans-6e"/>
     <path d="M 56.203125 29.59375 
L 56.203125 25.203125 
L 14.890625 25.203125 
Q 15.484375 15.921875 20.484375 11.0625 
Q 25.484375 6.203125 34.421875 6.203125 
Q 39.59375 6.203125 44.453125 7.46875 
Q 49.3125 8.734375 54.109375 11.28125 
L 54.109375 2.78125 
Q 49.265625 0.734375 44.1875 -0.34375 
Q 39.109375 -1.421875 33.890625 -1.421875 
Q 20.796875 -1.421875 13.15625 6.1875 
Q 5.515625 13.8125 5.515625 26.8125 
Q 5.515625 40.234375 12.765625 48.109375 
Q 20.015625 56 32.328125 56 
Q 43.359375 56 49.78125 48.890625 
Q 56.203125 41.796875 56.203125 29.59375 
z
M 47.21875 32.234375 
Q 47.125 39.59375 43.09375 43.984375 
Q 39.0625 48.390625 32.421875 48.390625 
Q 24.90625 48.390625 20.390625 44.140625 
Q 15.875 39.890625 15.1875 32.171875 
z
" id="DejaVuSans-65"/>
     <path d="M 18.3125 70.21875 
L 18.3125 54.6875 
L 36.8125 54.6875 
L 36.8125 47.703125 
L 18.3125 47.703125 
L 18.3125 18.015625 
Q 18.3125 11.328125 20.140625 9.421875 
Q 21.96875 7.515625 27.59375 7.515625 
L 36.8125 7.515625 
L 36.8125 0 
L 27.59375 0 
Q 17.1875 0 13.234375 3.875 
Q 9.28125 7.765625 9.28125 18.015625 
L 9.28125 47.703125 
L 2.6875 47.703125 
L 2.6875 54.6875 
L 9.28125 54.6875 
L 9.28125 70.21875 
z
" id="DejaVuSans-74"/>
     <path d="M 53.515625 70.515625 
L 53.515625 60.890625 
Q 47.90625 63.578125 42.921875 64.890625 
Q 37.9375 66.21875 33.296875 66.21875 
Q 25.25 66.21875 20.875 63.09375 
Q 16.5 59.96875 16.5 54.203125 
Q 16.5 49.359375 19.40625 46.890625 
Q 22.3125 44.4375 30.421875 42.921875 
L 36.375 41.703125 
Q 47.40625 39.59375 52.65625 34.296875 
Q 57.90625 29 57.90625 20.125 
Q 57.90625 9.515625 50.796875 4.046875 
Q 43.703125 -1.421875 29.984375 -1.421875 
Q 24.8125 -1.421875 18.96875 -0.25 
Q 13.140625 0.921875 6.890625 3.21875 
L 6.890625 13.375 
Q 12.890625 10.015625 18.65625 8.296875 
Q 24.421875 6.59375 29.984375 6.59375 
Q 38.421875 6.59375 43.015625 9.90625 
Q 47.609375 13.234375 47.609375 19.390625 
Q 47.609375 24.75 44.3125 27.78125 
Q 41.015625 30.8125 33.5 32.328125 
L 27.484375 33.5 
Q 16.453125 35.6875 11.515625 40.375 
Q 6.59375 45.0625 6.59375 53.421875 
Q 6.59375 63.09375 13.40625 68.65625 
Q 20.21875 74.21875 32.171875 74.21875 
Q 37.3125 74.21875 42.625 73.28125 
Q 47.953125 72.359375 53.515625 70.515625 
z
" id="DejaVuSans-53"/>
     <path d="M 48.78125 52.59375 
L 48.78125 44.1875 
Q 44.96875 46.296875 41.140625 47.34375 
Q 37.3125 48.390625 33.40625 48.390625 
Q 24.65625 48.390625 19.8125 42.84375 
Q 14.984375 37.3125 14.984375 27.296875 
Q 14.984375 17.28125 19.8125 11.734375 
Q 24.65625 6.203125 33.40625 6.203125 
Q 37.3125 6.203125 41.140625 7.25 
Q 44.96875 8.296875 48.78125 10.40625 
L 48.78125 2.09375 
Q 45.015625 0.34375 40.984375 -0.53125 
Q 36.96875 -1.421875 32.421875 -1.421875 
Q 20.0625 -1.421875 12.78125 6.34375 
Q 5.515625 14.109375 5.515625 27.296875 
Q 5.515625 40.671875 12.859375 48.328125 
Q 20.21875 56 33.015625 56 
Q 37.15625 56 41.109375 55.140625 
Q 45.0625 54.296875 48.78125 52.59375 
z
" id="DejaVuSans-63"/>
     <path d="M 30.609375 48.390625 
Q 23.390625 48.390625 19.1875 42.75 
Q 14.984375 37.109375 14.984375 27.296875 
Q 14.984375 17.484375 19.15625 11.84375 
Q 23.34375 6.203125 30.609375 6.203125 
Q 37.796875 6.203125 41.984375 11.859375 
Q 46.1875 17.53125 46.1875 27.296875 
Q 46.1875 37.015625 41.984375 42.703125 
Q 37.796875 48.390625 30.609375 48.390625 
z
M 30.609375 56 
Q 42.328125 56 49.015625 48.375 
Q 55.71875 40.765625 55.71875 27.296875 
Q 55.71875 13.875 49.015625 6.21875 
Q 42.328125 -1.421875 30.609375 -1.421875 
Q 18.84375 -1.421875 12.171875 6.21875 
Q 5.515625 13.875 5.515625 27.296875 
Q 5.515625 40.765625 12.171875 48.375 
Q 18.84375 56 30.609375 56 
z
" id="DejaVuSans-6f"/>
    </defs>
    <g transform="translate(78.026183 272.884873)rotate(-344.851946)scale(0.08 -0.08)">
     <use xlink:href="#DejaVuSans-50"/>
     <use x="60.287109" xlink:href="#DejaVuSans-72"/>
     <use x="101.400391" xlink:href="#DejaVuSans-69"/>
     <use x="129.183594" xlink:href="#DejaVuSans-6d"/>
     <use x="226.595703" xlink:href="#DejaVuSans-2e"/>
     <use x="258.382812" xlink:href="#DejaVuSans-20"/>
     <use x="290.169922" xlink:href="#DejaVuSans-41"/>
     <use x="358.578125" xlink:href="#DejaVuSans-6c"/>
     <use x="386.361328" xlink:href="#DejaVuSans-69"/>
     <use x="414.144531" xlink:href="#DejaVuSans-67"/>
     <use x="477.621094" xlink:href="#DejaVuSans-6e"/>
     <use x="541" xlink:href="#DejaVuSans-6d"/>
     <use x="638.412109" xlink:href="#DejaVuSans-65"/>
     <use x="699.935547" xlink:href="#DejaVuSans-6e"/>
     <use x="763.314453" xlink:href="#DejaVuSans-74"/>
     <use x="802.523438" xlink:href="#DejaVuSans-20"/>
     <use x="834.310547" xlink:href="#DejaVuSans-53"/>
     <use x="897.787109" xlink:href="#DejaVuSans-63"/>
     <use x="952.767578" xlink:href="#DejaVuSans-6f"/>
     <use x="1013.949219" xlink:href="#DejaVuSans-72"/>
     <use x="1055.03125" xlink:href="#DejaVuSans-65"/>
    </g>
   </g>
   <g id="Line3DCollection_1">
    <path d="M 67.425892 230.830649 
L 162.373737 162.848358 
L 161.257576 33.414052 
" style="fill:none;stroke:#b0b0b0;stroke-width:0.8;"/>
    <path d="M 101.002072 239.920414 
L 194.358071 170.670577 
L 194.859671 40.41982 
" style="fill:none;stroke:#b0b0b0;stroke-width:0.8;"/>
    <path d="M 135.23118 249.186942 
L 226.918778 178.633757 
L 229.098409 47.558323 
" style="fill:none;stroke:#b0b0b0;stroke-width:0.8;"/>
    <path d="M 170.132451 258.635437 
L 260.07158 186.741741 
L 263.992057 54.833369 
" style="fill:none;stroke:#b0b0b0;stroke-width:0.8;"/>
    <path d="M 205.725879 268.271313 
L 293.832774 194.998517 
L 299.559587 62.248914 
" style="fill:none;stroke:#b0b0b0;stroke-width:0.8;"/>
   </g>
   <g id="xtick_1">
    <g id="line2d_2">
     <path d="M 68.243917 230.244946 
L 65.786792 232.004238 
" style="fill:none;stroke:#000000;stroke-linecap:square;stroke-width:0.8;"/>
    </g>
    <g id="text_2">
     <!-- 0 -->
     <defs>
      <path d="M 31.78125 66.40625 
Q 24.171875 66.40625 20.328125 58.90625 
Q 16.5 51.421875 16.5 36.375 
Q 16.5 21.390625 20.328125 13.890625 
Q 24.171875 6.390625 31.78125 6.390625 
Q 39.453125 6.390625 43.28125 13.890625 
Q 47.125 21.390625 47.125 36.375 
Q 47.125 51.421875 43.28125 58.90625 
Q 39.453125 66.40625 31.78125 66.40625 
z
M 31.78125 74.21875 
Q 44.046875 74.21875 50.515625 64.515625 
Q 56.984375 54.828125 56.984375 36.375 
Q 56.984375 17.96875 50.515625 8.265625 
Q 44.046875 -1.421875 31.78125 -1.421875 
Q 19.53125 -1.421875 13.0625 8.265625 
Q 6.59375 17.96875 6.59375 36.375 
Q 6.59375 54.828125 13.0625 64.515625 
Q 19.53125 74.21875 31.78125 74.21875 
z
" id="DejaVuSans-30"/>
     </defs>
     <g transform="translate(57.889188 251.619552)scale(0.08 -0.08)">
      <use xlink:href="#DejaVuSans-30"/>
     </g>
    </g>
   </g>
   <g id="xtick_2">
    <g id="line2d_3">
     <path d="M 101.806935 239.323381 
L 99.389315 241.116729 
" style="fill:none;stroke:#000000;stroke-linecap:square;stroke-width:0.8;"/>
    </g>
    <g id="text_3">
     <!-- 10 -->
     <defs>
      <path d="M 12.40625 8.296875 
L 28.515625 8.296875 
L 28.515625 63.921875 
L 10.984375 60.40625 
L 10.984375 69.390625 
L 28.421875 72.90625 
L 38.28125 72.90625 
L 38.28125 8.296875 
L 54.390625 8.296875 
L 54.390625 0 
L 12.40625 0 
z
" id="DejaVuSans-31"/>
     </defs>
     <g transform="translate(88.916612 260.868482)scale(0.08 -0.08)">
      <use xlink:href="#DejaVuSans-31"/>
      <use x="63.623047" xlink:href="#DejaVuSans-30"/>
     </g>
    </g>
   </g>
   <g id="xtick_3">
    <g id="line2d_4">
     <path d="M 136.022213 248.578246 
L 133.646107 250.406648 
" style="fill:none;stroke:#000000;stroke-linecap:square;stroke-width:0.8;"/>
    </g>
    <g id="text_4">
     <!-- 20 -->
     <defs>
      <path d="M 19.1875 8.296875 
L 53.609375 8.296875 
L 53.609375 0 
L 7.328125 0 
L 7.328125 8.296875 
Q 12.9375 14.109375 22.625 23.890625 
Q 32.328125 33.6875 34.8125 36.53125 
Q 39.546875 41.84375 41.421875 45.53125 
Q 43.3125 49.21875 43.3125 52.78125 
Q 43.3125 58.59375 39.234375 62.25 
Q 35.15625 65.921875 28.609375 65.921875 
Q 23.96875 65.921875 18.8125 64.3125 
Q 13.671875 62.703125 7.8125 59.421875 
L 7.8125 69.390625 
Q 13.765625 71.78125 18.9375 73 
Q 24.125 74.21875 28.421875 74.21875 
Q 39.75 74.21875 46.484375 68.546875 
Q 53.21875 62.890625 53.21875 53.421875 
Q 53.21875 48.921875 51.53125 44.890625 
Q 49.859375 40.875 45.40625 35.40625 
Q 44.1875 33.984375 37.640625 27.21875 
Q 31.109375 20.453125 19.1875 8.296875 
z
" id="DejaVuSans-32"/>
     </defs>
     <g transform="translate(123.143142 270.297613)scale(0.08 -0.08)">
      <use xlink:href="#DejaVuSans-32"/>
      <use x="63.623047" xlink:href="#DejaVuSans-30"/>
     </g>
    </g>
   </g>
   <g id="xtick_4">
    <g id="line2d_5">
     <path d="M 170.908952 258.014733 
L 168.576466 259.879228 
" style="fill:none;stroke:#000000;stroke-linecap:square;stroke-width:0.8;"/>
    </g>
    <g id="text_5">
     <!-- 30 -->
     <defs>
      <path d="M 40.578125 39.3125 
Q 47.65625 37.796875 51.625 33 
Q 55.609375 28.21875 55.609375 21.1875 
Q 55.609375 10.40625 48.1875 4.484375 
Q 40.765625 -1.421875 27.09375 -1.421875 
Q 22.515625 -1.421875 17.65625 -0.515625 
Q 12.796875 0.390625 7.625 2.203125 
L 7.625 11.71875 
Q 11.71875 9.328125 16.59375 8.109375 
Q 21.484375 6.890625 26.8125 6.890625 
Q 36.078125 6.890625 40.9375 10.546875 
Q 45.796875 14.203125 45.796875 21.1875 
Q 45.796875 27.640625 41.28125 31.265625 
Q 36.765625 34.90625 28.71875 34.90625 
L 20.21875 34.90625 
L 20.21875 43.015625 
L 29.109375 43.015625 
Q 36.375 43.015625 40.234375 45.921875 
Q 44.09375 48.828125 44.09375 54.296875 
Q 44.09375 59.90625 40.109375 62.90625 
Q 36.140625 65.921875 28.71875 65.921875 
Q 24.65625 65.921875 20.015625 65.03125 
Q 15.375 64.15625 9.8125 62.3125 
L 9.8125 71.09375 
Q 15.4375 72.65625 20.34375 73.4375 
Q 25.25 74.21875 29.59375 74.21875 
Q 40.828125 74.21875 47.359375 69.109375 
Q 53.90625 64.015625 53.90625 55.328125 
Q 53.90625 49.265625 50.4375 45.09375 
Q 46.96875 40.921875 40.578125 39.3125 
z
" id="DejaVuSans-33"/>
     </defs>
     <g transform="translate(158.043084 279.912263)scale(0.08 -0.08)">
      <use xlink:href="#DejaVuSans-33"/>
      <use x="63.623047" xlink:href="#DejaVuSans-30"/>
     </g>
    </g>
   </g>
   <g id="xtick_5">
    <g id="line2d_6">
     <path d="M 206.487114 267.638243 
L 204.200455 269.53991 
" style="fill:none;stroke:#000000;stroke-linecap:square;stroke-width:0.8;"/>
    </g>
    <g id="text_6">
     <!-- 40 -->
     <defs>
      <path d="M 37.796875 64.3125 
L 12.890625 25.390625 
L 37.796875 25.390625 
z
M 35.203125 72.90625 
L 47.609375 72.90625 
L 47.609375 25.390625 
L 58.015625 25.390625 
L 58.015625 17.1875 
L 47.609375 17.1875 
L 47.609375 0 
L 37.796875 0 
L 37.796875 17.1875 
L 4.890625 17.1875 
L 4.890625 26.703125 
z
" id="DejaVuSans-34"/>
     </defs>
     <g transform="translate(193.636509 289.717963)scale(0.08 -0.08)">
      <use xlink:href="#DejaVuSans-34"/>
      <use x="63.623047" xlink:href="#DejaVuSans-30"/>
     </g>
    </g>
   </g>
  </g>
  <g id="axis3d_2">
   <g id="line2d_7">
    <path d="M 307.475615 198.335066 
L 220.123942 272.169167 
" style="fill:none;stroke:#000000;stroke-linecap:square;stroke-width:0.8;"/>
   </g>
   <g id="text_7">
    <!-- Sec. Alignment Score -->
    <g transform="translate(259.652663 290.220205)rotate(-40.206204)scale(0.08 -0.08)">
     <use xlink:href="#DejaVuSans-53"/>
     <use x="63.476562" xlink:href="#DejaVuSans-65"/>
     <use x="125" xlink:href="#DejaVuSans-63"/>
     <use x="179.980469" xlink:href="#DejaVuSans-2e"/>
     <use x="211.767578" xlink:href="#DejaVuSans-20"/>
     <use x="243.554688" xlink:href="#DejaVuSans-41"/>
     <use x="311.962891" xlink:href="#DejaVuSans-6c"/>
     <use x="339.746094" xlink:href="#DejaVuSans-69"/>
     <use x="367.529297" xlink:href="#DejaVuSans-67"/>
     <use x="431.005859" xlink:href="#DejaVuSans-6e"/>
     <use x="494.384766" xlink:href="#DejaVuSans-6d"/>
     <use x="591.796875" xlink:href="#DejaVuSans-65"/>
     <use x="653.320312" xlink:href="#DejaVuSans-6e"/>
     <use x="716.699219" xlink:href="#DejaVuSans-74"/>
     <use x="755.908203" xlink:href="#DejaVuSans-20"/>
     <use x="787.695312" xlink:href="#DejaVuSans-53"/>
     <use x="851.171875" xlink:href="#DejaVuSans-63"/>
     <use x="906.152344" xlink:href="#DejaVuSans-6f"/>
     <use x="967.333984" xlink:href="#DejaVuSans-72"/>
     <use x="1008.416016" xlink:href="#DejaVuSans-65"/>
    </g>
   </g>
   <g id="Line3DCollection_2">
    <path d="M 57.501114 87.931629 
L 64.021327 223.534057 
L 226.102162 267.116069 
" style="fill:none;stroke:#b0b0b0;stroke-width:0.8;"/>
    <path d="M 73.001813 78.583683 
L 78.66283 213.158625 
L 239.539075 255.758503 
" style="fill:none;stroke:#b0b0b0;stroke-width:0.8;"/>
    <path d="M 88.144913 69.451393 
L 92.983516 203.010533 
L 252.66818 244.661112 
" style="fill:none;stroke:#b0b0b0;stroke-width:0.8;"/>
    <path d="M 102.942646 60.527382 
L 106.993814 193.082392 
L 265.499934 233.815058 
" style="fill:none;stroke:#b0b0b0;stroke-width:0.8;"/>
    <path d="M 117.406695 51.804605 
L 120.703709 183.367127 
L 278.044325 223.211897 
" style="fill:none;stroke:#b0b0b0;stroke-width:0.8;"/>
    <path d="M 131.54822 43.276331 
L 134.122758 173.857964 
L 290.310899 212.843561 
" style="fill:none;stroke:#b0b0b0;stroke-width:0.8;"/>
    <path d="M 145.377891 34.936126 
L 147.260121 164.548413 
L 302.308785 202.702334 
" style="fill:none;stroke:#b0b0b0;stroke-width:0.8;"/>
   </g>
   <g id="xtick_6">
    <g id="line2d_8">
     <path d="M 224.745688 266.751326 
L 228.818142 267.84637 
" style="fill:none;stroke:#000000;stroke-linecap:square;stroke-width:0.8;"/>
    </g>
    <g id="text_8">
     <!-- 0 -->
     <g transform="translate(235.686092 286.085104)scale(0.08 -0.08)">
      <use xlink:href="#DejaVuSans-30"/>
     </g>
    </g>
   </g>
   <g id="xtick_7">
    <g id="line2d_9">
     <path d="M 238.193371 255.402161 
L 242.233458 256.471973 
" style="fill:none;stroke:#000000;stroke-linecap:square;stroke-width:0.8;"/>
    </g>
    <g id="text_9">
     <!-- 10 -->
     <g transform="translate(246.430618 274.584116)scale(0.08 -0.08)">
      <use xlink:href="#DejaVuSans-31"/>
      <use x="63.623047" xlink:href="#DejaVuSans-30"/>
     </g>
    </g>
   </g>
   <g id="xtick_8">
    <g id="line2d_10">
     <path d="M 251.33311 244.312885 
L 255.341237 245.358326 
" style="fill:none;stroke:#000000;stroke-linecap:square;stroke-width:0.8;"/>
    </g>
    <g id="text_10">
     <!-- 20 -->
     <g transform="translate(259.415867 263.346455)scale(0.08 -0.08)">
      <use xlink:href="#DejaVuSans-32"/>
      <use x="63.623047" xlink:href="#DejaVuSans-30"/>
     </g>
    </g>
   </g>
   <g id="xtick_9">
    <g id="line2d_11">
     <path d="M 264.175364 233.474672 
L 268.151933 234.496564 
" style="fill:none;stroke:#000000;stroke-linecap:square;stroke-width:0.8;"/>
    </g>
    <g id="text_11">
     <!-- 30 -->
     <g transform="translate(272.107172 252.363179)scale(0.08 -0.08)">
      <use xlink:href="#DejaVuSans-33"/>
      <use x="63.623047" xlink:href="#DejaVuSans-30"/>
     </g>
    </g>
   </g>
   <g id="xtick_10">
    <g id="line2d_12">
     <path d="M 276.730123 222.87909 
L 280.675535 223.878222 
" style="fill:none;stroke:#000000;stroke-linecap:square;stroke-width:0.8;"/>
    </g>
    <g id="text_12">
     <!-- 40 -->
     <g transform="translate(284.5144 241.625747)scale(0.08 -0.08)">
      <use xlink:href="#DejaVuSans-34"/>
      <use x="63.623047" xlink:href="#DejaVuSans-30"/>
     </g>
    </g>
   </g>
   <g id="xtick_11">
    <g id="line2d_13">
     <path d="M 289.006933 212.518082 
L 292.921585 213.495206 
" style="fill:none;stroke:#000000;stroke-linecap:square;stroke-width:0.8;"/>
    </g>
   </g>
   <g id="xtick_12">
    <g id="line2d_14">
     <path d="M 301.014924 202.383945 
L 304.899209 203.339778 
" style="fill:none;stroke:#000000;stroke-linecap:square;stroke-width:0.8;"/>
    </g>
   </g>
  </g>
  <g id="axis3d_3">
   <g id="line2d_15">
    <path d="M 307.475615 198.335066 
L 313.941978 65.247528 
" style="fill:none;stroke:#000000;stroke-linecap:square;stroke-width:0.8;"/>
   </g>
   <g id="text_13">
    <!-- Number of Reads -->
    <defs>
     <path d="M 9.8125 72.90625 
L 23.09375 72.90625 
L 55.421875 11.921875 
L 55.421875 72.90625 
L 64.984375 72.90625 
L 64.984375 0 
L 51.703125 0 
L 19.390625 60.984375 
L 19.390625 0 
L 9.8125 0 
z
" id="DejaVuSans-4e"/>
     <path d="M 8.5 21.578125 
L 8.5 54.6875 
L 17.484375 54.6875 
L 17.484375 21.921875 
Q 17.484375 14.15625 20.5 10.265625 
Q 23.53125 6.390625 29.59375 6.390625 
Q 36.859375 6.390625 41.078125 11.03125 
Q 45.3125 15.671875 45.3125 23.6875 
L 45.3125 54.6875 
L 54.296875 54.6875 
L 54.296875 0 
L 45.3125 0 
L 45.3125 8.40625 
Q 42.046875 3.421875 37.71875 1 
Q 33.40625 -1.421875 27.6875 -1.421875 
Q 18.265625 -1.421875 13.375 4.4375 
Q 8.5 10.296875 8.5 21.578125 
z
M 31.109375 56 
z
" id="DejaVuSans-75"/>
     <path d="M 48.6875 27.296875 
Q 48.6875 37.203125 44.609375 42.84375 
Q 40.53125 48.484375 33.40625 48.484375 
Q 26.265625 48.484375 22.1875 42.84375 
Q 18.109375 37.203125 18.109375 27.296875 
Q 18.109375 17.390625 22.1875 11.75 
Q 26.265625 6.109375 33.40625 6.109375 
Q 40.53125 6.109375 44.609375 11.75 
Q 48.6875 17.390625 48.6875 27.296875 
z
M 18.109375 46.390625 
Q 20.953125 51.265625 25.265625 53.625 
Q 29.59375 56 35.59375 56 
Q 45.5625 56 51.78125 48.09375 
Q 58.015625 40.1875 58.015625 27.296875 
Q 58.015625 14.40625 51.78125 6.484375 
Q 45.5625 -1.421875 35.59375 -1.421875 
Q 29.59375 -1.421875 25.265625 0.953125 
Q 20.953125 3.328125 18.109375 8.203125 
L 18.109375 0 
L 9.078125 0 
L 9.078125 75.984375 
L 18.109375 75.984375 
z
" id="DejaVuSans-62"/>
     <path d="M 37.109375 75.984375 
L 37.109375 68.5 
L 28.515625 68.5 
Q 23.6875 68.5 21.796875 66.546875 
Q 19.921875 64.59375 19.921875 59.515625 
L 19.921875 54.6875 
L 34.71875 54.6875 
L 34.71875 47.703125 
L 19.921875 47.703125 
L 19.921875 0 
L 10.890625 0 
L 10.890625 47.703125 
L 2.296875 47.703125 
L 2.296875 54.6875 
L 10.890625 54.6875 
L 10.890625 58.5 
Q 10.890625 67.625 15.140625 71.796875 
Q 19.390625 75.984375 28.609375 75.984375 
z
" id="DejaVuSans-66"/>
     <path d="M 44.390625 34.1875 
Q 47.5625 33.109375 50.5625 29.59375 
Q 53.5625 26.078125 56.59375 19.921875 
L 66.609375 0 
L 56 0 
L 46.6875 18.703125 
Q 43.0625 26.03125 39.671875 28.421875 
Q 36.28125 30.8125 30.421875 30.8125 
L 19.671875 30.8125 
L 19.671875 0 
L 9.8125 0 
L 9.8125 72.90625 
L 32.078125 72.90625 
Q 44.578125 72.90625 50.734375 67.671875 
Q 56.890625 62.453125 56.890625 51.90625 
Q 56.890625 45.015625 53.6875 40.46875 
Q 50.484375 35.9375 44.390625 34.1875 
z
M 19.671875 64.796875 
L 19.671875 38.921875 
L 32.078125 38.921875 
Q 39.203125 38.921875 42.84375 42.21875 
Q 46.484375 45.515625 46.484375 51.90625 
Q 46.484375 58.296875 42.84375 61.546875 
Q 39.203125 64.796875 32.078125 64.796875 
z
" id="DejaVuSans-52"/>
     <path d="M 34.28125 27.484375 
Q 23.390625 27.484375 19.1875 25 
Q 14.984375 22.515625 14.984375 16.5 
Q 14.984375 11.71875 18.140625 8.90625 
Q 21.296875 6.109375 26.703125 6.109375 
Q 34.1875 6.109375 38.703125 11.40625 
Q 43.21875 16.703125 43.21875 25.484375 
L 43.21875 27.484375 
z
M 52.203125 31.203125 
L 52.203125 0 
L 43.21875 0 
L 43.21875 8.296875 
Q 40.140625 3.328125 35.546875 0.953125 
Q 30.953125 -1.421875 24.3125 -1.421875 
Q 15.921875 -1.421875 10.953125 3.296875 
Q 6 8.015625 6 15.921875 
Q 6 25.140625 12.171875 29.828125 
Q 18.359375 34.515625 30.609375 34.515625 
L 43.21875 34.515625 
L 43.21875 35.40625 
Q 43.21875 41.609375 39.140625 45 
Q 35.0625 48.390625 27.6875 48.390625 
Q 23 48.390625 18.546875 47.265625 
Q 14.109375 46.140625 10.015625 43.890625 
L 10.015625 52.203125 
Q 14.9375 54.109375 19.578125 55.046875 
Q 24.21875 56 28.609375 56 
Q 40.484375 56 46.34375 49.84375 
Q 52.203125 43.703125 52.203125 31.203125 
z
" id="DejaVuSans-61"/>
     <path d="M 45.40625 46.390625 
L 45.40625 75.984375 
L 54.390625 75.984375 
L 54.390625 0 
L 45.40625 0 
L 45.40625 8.203125 
Q 42.578125 3.328125 38.25 0.953125 
Q 33.9375 -1.421875 27.875 -1.421875 
Q 17.96875 -1.421875 11.734375 6.484375 
Q 5.515625 14.40625 5.515625 27.296875 
Q 5.515625 40.1875 11.734375 48.09375 
Q 17.96875 56 27.875 56 
Q 33.9375 56 38.25 53.625 
Q 42.578125 51.265625 45.40625 46.390625 
z
M 14.796875 27.296875 
Q 14.796875 17.390625 18.875 11.75 
Q 22.953125 6.109375 30.078125 6.109375 
Q 37.203125 6.109375 41.296875 11.75 
Q 45.40625 17.390625 45.40625 27.296875 
Q 45.40625 37.203125 41.296875 42.84375 
Q 37.203125 48.484375 30.078125 48.484375 
Q 22.953125 48.484375 18.875 42.84375 
Q 14.796875 37.203125 14.796875 27.296875 
z
" id="DejaVuSans-64"/>
     <path d="M 44.28125 53.078125 
L 44.28125 44.578125 
Q 40.484375 46.53125 36.375 47.5 
Q 32.28125 48.484375 27.875 48.484375 
Q 21.1875 48.484375 17.84375 46.4375 
Q 14.5 44.390625 14.5 40.28125 
Q 14.5 37.15625 16.890625 35.375 
Q 19.28125 33.59375 26.515625 31.984375 
L 29.59375 31.296875 
Q 39.15625 29.25 43.1875 25.515625 
Q 47.21875 21.78125 47.21875 15.09375 
Q 47.21875 7.46875 41.1875 3.015625 
Q 35.15625 -1.421875 24.609375 -1.421875 
Q 20.21875 -1.421875 15.453125 -0.5625 
Q 10.6875 0.296875 5.421875 2 
L 5.421875 11.28125 
Q 10.40625 8.6875 15.234375 7.390625 
Q 20.0625 6.109375 24.8125 6.109375 
Q 31.15625 6.109375 34.5625 8.28125 
Q 37.984375 10.453125 37.984375 14.40625 
Q 37.984375 18.0625 35.515625 20.015625 
Q 33.0625 21.96875 24.703125 23.78125 
L 21.578125 24.515625 
Q 13.234375 26.265625 9.515625 29.90625 
Q 5.8125 33.546875 5.8125 39.890625 
Q 5.8125 47.609375 11.28125 51.796875 
Q 16.75 56 26.8125 56 
Q 31.78125 56 36.171875 55.265625 
Q 40.578125 54.546875 44.28125 53.078125 
z
" id="DejaVuSans-73"/>
    </defs>
    <g transform="translate(350.052631 164.029405)rotate(-87.218341)scale(0.08 -0.08)">
     <use xlink:href="#DejaVuSans-4e"/>
     <use x="74.804688" xlink:href="#DejaVuSans-75"/>
     <use x="138.183594" xlink:href="#DejaVuSans-6d"/>
     <use x="235.595703" xlink:href="#DejaVuSans-62"/>
     <use x="299.072266" xlink:href="#DejaVuSans-65"/>
     <use x="360.595703" xlink:href="#DejaVuSans-72"/>
     <use x="401.708984" xlink:href="#DejaVuSans-20"/>
     <use x="433.496094" xlink:href="#DejaVuSans-6f"/>
     <use x="494.677734" xlink:href="#DejaVuSans-66"/>
     <use x="529.882812" xlink:href="#DejaVuSans-20"/>
     <use x="561.669922" xlink:href="#DejaVuSans-52"/>
     <use x="631.089844" xlink:href="#DejaVuSans-65"/>
     <use x="692.613281" xlink:href="#DejaVuSans-61"/>
     <use x="753.892578" xlink:href="#DejaVuSans-64"/>
     <use x="817.369141" xlink:href="#DejaVuSans-73"/>
    </g>
   </g>
   <g id="Line3DCollection_3">
    <path d="M 307.598604 195.80376 
L 152.891118 158.074189 
L 57.380849 225.563367 
" style="fill:none;stroke:#b0b0b0;stroke-width:0.8;"/>
    <path d="M 308.305321 181.258463 
L 152.717191 143.928416 
L 56.626955 210.715496 
" style="fill:none;stroke:#b0b0b0;stroke-width:0.8;"/>
    <path d="M 309.020199 166.545185 
L 152.541338 129.62613 
L 55.864066 195.690468 
" style="fill:none;stroke:#b0b0b0;stroke-width:0.8;"/>
    <path d="M 309.743381 151.660997 
L 152.363529 115.164722 
L 55.09202 180.485092 
" style="fill:none;stroke:#b0b0b0;stroke-width:0.8;"/>
    <path d="M 310.475013 136.602905 
L 152.183731 100.54152 
L 54.310651 165.096103 
" style="fill:none;stroke:#b0b0b0;stroke-width:0.8;"/>
    <path d="M 311.215244 121.367844 
L 152.00191 85.753793 
L 53.519789 149.520153 
" style="fill:none;stroke:#b0b0b0;stroke-width:0.8;"/>
    <path d="M 311.964225 105.952674 
L 151.818032 70.79875 
L 52.71926 133.753815 
" style="fill:none;stroke:#b0b0b0;stroke-width:0.8;"/>
    <path d="M 312.722114 90.354184 
L 151.632061 55.673534 
L 51.908887 117.793577 
" style="fill:none;stroke:#b0b0b0;stroke-width:0.8;"/>
    <path d="M 313.489069 74.569083 
L 151.443963 40.375225 
L 51.088485 101.63584 
" style="fill:none;stroke:#b0b0b0;stroke-width:0.8;"/>
   </g>
   <g id="xtick_13">
    <g id="line2d_16">
     <path d="M 306.307791 195.488961 
L 310.182915 196.434014 
" style="fill:none;stroke:#000000;stroke-linecap:square;stroke-width:0.8;"/>
    </g>
    <g id="text_14">
     <!-- 0.0M -->
     <defs>
      <path d="M 9.8125 72.90625 
L 24.515625 72.90625 
L 43.109375 23.296875 
L 61.8125 72.90625 
L 76.515625 72.90625 
L 76.515625 0 
L 66.890625 0 
L 66.890625 64.015625 
L 48.09375 14.015625 
L 38.1875 14.015625 
L 19.390625 64.015625 
L 19.390625 0 
L 9.8125 0 
z
" id="DejaVuSans-4d"/>
     </defs>
     <g transform="translate(315.311007 199.798189)scale(0.08 -0.08)">
      <use xlink:href="#DejaVuSans-30"/>
      <use x="63.623047" xlink:href="#DejaVuSans-2e"/>
      <use x="95.410156" xlink:href="#DejaVuSans-30"/>
      <use x="159.033203" xlink:href="#DejaVuSans-4d"/>
     </g>
    </g>
   </g>
   <g id="xtick_14">
    <g id="line2d_17">
     <path d="M 307.006853 180.946924 
L 310.904972 181.882194 
" style="fill:none;stroke:#000000;stroke-linecap:square;stroke-width:0.8;"/>
    </g>
    <g id="text_15">
     <!-- 0.2M -->
     <g transform="translate(316.116478 185.274499)scale(0.08 -0.08)">
      <use xlink:href="#DejaVuSans-30"/>
      <use x="63.623047" xlink:href="#DejaVuSans-2e"/>
      <use x="95.410156" xlink:href="#DejaVuSans-32"/>
      <use x="159.033203" xlink:href="#DejaVuSans-4d"/>
     </g>
    </g>
   </g>
   <g id="xtick_15">
    <g id="line2d_18">
     <path d="M 307.713986 166.237001 
L 311.635374 167.162199 
" style="fill:none;stroke:#000000;stroke-linecap:square;stroke-width:0.8;"/>
    </g>
    <g id="text_16">
     <!-- 0.4M -->
     <g transform="translate(316.931229 170.583465)scale(0.08 -0.08)">
      <use xlink:href="#DejaVuSans-30"/>
      <use x="63.623047" xlink:href="#DejaVuSans-2e"/>
      <use x="95.410156" xlink:href="#DejaVuSans-34"/>
      <use x="159.033203" xlink:href="#DejaVuSans-4d"/>
     </g>
    </g>
   </g>
   <g id="xtick_16">
    <g id="line2d_19">
     <path d="M 308.42933 151.356269 
L 312.374266 152.271097 
" style="fill:none;stroke:#000000;stroke-linecap:square;stroke-width:0.8;"/>
    </g>
    <g id="text_17">
     <!-- 0.6M -->
     <defs>
      <path d="M 33.015625 40.375 
Q 26.375 40.375 22.484375 35.828125 
Q 18.609375 31.296875 18.609375 23.390625 
Q 18.609375 15.53125 22.484375 10.953125 
Q 26.375 6.390625 33.015625 6.390625 
Q 39.65625 6.390625 43.53125 10.953125 
Q 47.40625 15.53125 47.40625 23.390625 
Q 47.40625 31.296875 43.53125 35.828125 
Q 39.65625 40.375 33.015625 40.375 
z
M 52.59375 71.296875 
L 52.59375 62.3125 
Q 48.875 64.0625 45.09375 64.984375 
Q 41.3125 65.921875 37.59375 65.921875 
Q 27.828125 65.921875 22.671875 59.328125 
Q 17.53125 52.734375 16.796875 39.40625 
Q 19.671875 43.65625 24.015625 45.921875 
Q 28.375 48.1875 33.59375 48.1875 
Q 44.578125 48.1875 50.953125 41.515625 
Q 57.328125 34.859375 57.328125 23.390625 
Q 57.328125 12.15625 50.6875 5.359375 
Q 44.046875 -1.421875 33.015625 -1.421875 
Q 20.359375 -1.421875 13.671875 8.265625 
Q 6.984375 17.96875 6.984375 36.375 
Q 6.984375 53.65625 15.1875 63.9375 
Q 23.390625 74.21875 37.203125 74.21875 
Q 40.921875 74.21875 44.703125 73.484375 
Q 48.484375 72.75 52.59375 71.296875 
z
" id="DejaVuSans-36"/>
     </defs>
     <g transform="translate(317.755421 155.72218)scale(0.08 -0.08)">
      <use xlink:href="#DejaVuSans-30"/>
      <use x="63.623047" xlink:href="#DejaVuSans-2e"/>
      <use x="95.410156" xlink:href="#DejaVuSans-36"/>
      <use x="159.033203" xlink:href="#DejaVuSans-4d"/>
     </g>
    </g>
   </g>
   <g id="xtick_17">
    <g id="line2d_20">
     <path d="M 309.153028 136.301735 
L 313.121798 137.205887 
" style="fill:none;stroke:#000000;stroke-linecap:square;stroke-width:0.8;"/>
    </g>
    <g id="text_18">
     <!-- 0.8M -->
     <defs>
      <path d="M 31.78125 34.625 
Q 24.75 34.625 20.71875 30.859375 
Q 16.703125 27.09375 16.703125 20.515625 
Q 16.703125 13.921875 20.71875 10.15625 
Q 24.75 6.390625 31.78125 6.390625 
Q 38.8125 6.390625 42.859375 10.171875 
Q 46.921875 13.96875 46.921875 20.515625 
Q 46.921875 27.09375 42.890625 30.859375 
Q 38.875 34.625 31.78125 34.625 
z
M 21.921875 38.8125 
Q 15.578125 40.375 12.03125 44.71875 
Q 8.5 49.078125 8.5 55.328125 
Q 8.5 64.0625 14.71875 69.140625 
Q 20.953125 74.21875 31.78125 74.21875 
Q 42.671875 74.21875 48.875 69.140625 
Q 55.078125 64.0625 55.078125 55.328125 
Q 55.078125 49.078125 51.53125 44.71875 
Q 48 40.375 41.703125 38.8125 
Q 48.828125 37.15625 52.796875 32.3125 
Q 56.78125 27.484375 56.78125 20.515625 
Q 56.78125 9.90625 50.3125 4.234375 
Q 43.84375 -1.421875 31.78125 -1.421875 
Q 19.734375 -1.421875 13.25 4.234375 
Q 6.78125 9.90625 6.78125 20.515625 
Q 6.78125 27.484375 10.78125 32.3125 
Q 14.796875 37.15625 21.921875 38.8125 
z
M 18.3125 54.390625 
Q 18.3125 48.734375 21.84375 45.5625 
Q 25.390625 42.390625 31.78125 42.390625 
Q 38.140625 42.390625 41.71875 45.5625 
Q 45.3125 48.734375 45.3125 54.390625 
Q 45.3125 60.0625 41.71875 63.234375 
Q 38.140625 66.40625 31.78125 66.40625 
Q 25.390625 66.40625 21.84375 63.234375 
Q 18.3125 60.0625 18.3125 54.390625 
z
" id="DejaVuSans-38"/>
     </defs>
     <g transform="translate(318.589221 140.687665)scale(0.08 -0.08)">
      <use xlink:href="#DejaVuSans-30"/>
      <use x="63.623047" xlink:href="#DejaVuSans-2e"/>
      <use x="95.410156" xlink:href="#DejaVuSans-38"/>
      <use x="159.033203" xlink:href="#DejaVuSans-4d"/>
     </g>
    </g>
   </g>
   <g id="xtick_18">
    <g id="line2d_21">
     <path d="M 309.885229 121.070336 
L 313.878121 121.963496 
" style="fill:none;stroke:#000000;stroke-linecap:square;stroke-width:0.8;"/>
    </g>
    <g id="text_19">
     <!-- 1.0M -->
     <g transform="translate(319.432798 125.476875)scale(0.08 -0.08)">
      <use xlink:href="#DejaVuSans-31"/>
      <use x="63.623047" xlink:href="#DejaVuSans-2e"/>
      <use x="95.410156" xlink:href="#DejaVuSans-30"/>
      <use x="159.033203" xlink:href="#DejaVuSans-4d"/>
     </g>
    </g>
   </g>
   <g id="xtick_19">
    <g id="line2d_22">
     <path d="M 310.626083 105.658937 
L 314.643391 106.540782 
" style="fill:none;stroke:#000000;stroke-linecap:square;stroke-width:0.8;"/>
    </g>
    <g id="text_20">
     <!-- 1.2M -->
     <g transform="translate(320.286323 110.08669)scale(0.08 -0.08)">
      <use xlink:href="#DejaVuSans-31"/>
      <use x="63.623047" xlink:href="#DejaVuSans-2e"/>
      <use x="95.410156" xlink:href="#DejaVuSans-32"/>
      <use x="159.033203" xlink:href="#DejaVuSans-4d"/>
     </g>
    </g>
   </g>
   <g id="xtick_20">
    <g id="line2d_23">
     <path d="M 311.375744 90.064327 
L 315.417769 90.934524 
" style="fill:none;stroke:#000000;stroke-linecap:square;stroke-width:0.8;"/>
    </g>
    <g id="text_21">
     <!-- 1.4M -->
     <g transform="translate(321.149974 94.513919)scale(0.08 -0.08)">
      <use xlink:href="#DejaVuSans-31"/>
      <use x="63.623047" xlink:href="#DejaVuSans-2e"/>
      <use x="95.410156" xlink:href="#DejaVuSans-34"/>
      <use x="159.033203" xlink:href="#DejaVuSans-4d"/>
     </g>
    </g>
   </g>
   <g id="xtick_21">
    <g id="line2d_24">
     <path d="M 312.134371 74.283222 
L 316.201418 75.141428 
" style="fill:none;stroke:#000000;stroke-linecap:square;stroke-width:0.8;"/>
    </g>
    <g id="text_22">
     <!-- 1.6M -->
     <g transform="translate(322.023933 78.755293)scale(0.08 -0.08)">
      <use xlink:href="#DejaVuSans-31"/>
      <use x="63.623047" xlink:href="#DejaVuSans-2e"/>
      <use x="95.410156" xlink:href="#DejaVuSans-36"/>
      <use x="159.033203" xlink:href="#DejaVuSans-4d"/>
     </g>
    </g>
   </g>
  </g>
  <g id="axes_1">
   <g id="Poly3DCollection_1">
    <path clip-path="url(#paedddad34d)" d="M 271.692276 192.621332 
L 275.086106 193.454134 
L 275.086111 193.453989 
L 271.692281 192.621188 
z
" style="fill:#801a1a;"/>
    <path clip-path="url(#paedddad34d)" d="M 269.264358 194.595168 
L 271.692276 192.621332 
L 271.692281 192.621188 
L 269.264363 194.595024 
z
" style="fill:#ff3333;"/>
    <path clip-path="url(#paedddad34d)" d="M 269.264358 194.595168 
L 272.663353 195.431605 
L 275.086106 193.454134 
L 271.692276 192.621332 
z
" style="fill:#9f2020;"/>
    <path clip-path="url(#paedddad34d)" d="M 269.264363 194.595024 
L 272.663358 195.431461 
L 275.086111 193.453989 
L 271.692281 192.621188 
z
" style="fill:#9f2020;"/>
    <path clip-path="url(#paedddad34d)" d="M 272.663353 195.431605 
L 275.086106 193.454134 
L 275.086111 193.453989 
L 272.663358 195.431461 
z
" style="fill:#ff3333;"/>
    <path clip-path="url(#paedddad34d)" d="M 269.264358 194.595168 
L 272.663353 195.431605 
L 272.663358 195.431461 
L 269.264363 194.595024 
z
" style="fill:#801a1a;"/>
    <path clip-path="url(#paedddad34d)" d="M 73.790947 223.611634 
L 77.112812 224.502428 
L 80.052116 222.396533 
L 76.734919 221.509734 
z
" style="fill:#9f2020;"/>
    <path clip-path="url(#paedddad34d)" d="M 76.734919 221.509734 
L 80.052116 222.396533 
L 78.966769 196.348229 
L 75.616176 195.477173 
z
" style="fill:#801a1a;"/>
    <path clip-path="url(#paedddad34d)" d="M 73.790947 223.611634 
L 76.734919 221.509734 
L 75.616176 195.477173 
L 72.639031 197.541788 
z
" style="fill:#ff3333;"/>
    <path clip-path="url(#paedddad34d)" d="M 77.112812 224.502428 
L 80.052116 222.396533 
L 78.966769 196.348229 
L 75.994385 198.41681 
z
" style="fill:#ff3333;"/>
    <path clip-path="url(#paedddad34d)" d="M 73.790947 223.611634 
L 77.112812 224.502428 
L 75.994385 198.41681 
L 72.639031 197.541788 
z
" style="fill:#801a1a;"/>
    <path clip-path="url(#paedddad34d)" d="M 72.639031 197.541788 
L 75.994385 198.41681 
L 78.966769 196.348229 
L 75.616176 195.477173 
z
" style="fill:#9f2020;"/>
    <path clip-path="url(#paedddad34d)" d="M 175.559106 247.928776 
L 179.066581 248.866442 
L 179.0665 248.829201 
L 175.558972 247.891557 
z
" style="fill:#801a1a;"/>
    <path clip-path="url(#paedddad34d)" d="M 172.760269 250.151324 
L 175.559106 247.928776 
L 175.558972 247.891557 
L 172.760092 250.114053 
z
" style="fill:#ff3333;"/>
    <path clip-path="url(#paedddad34d)" d="M 172.760269 250.151324 
L 176.273126 251.093335 
L 179.066581 248.866442 
L 175.559106 247.928776 
z
" style="fill:#9f2020;"/>
    <path clip-path="url(#paedddad34d)" d="M 172.760092 250.114053 
L 176.273002 251.056041 
L 179.0665 248.829201 
L 175.558972 247.891557 
z
" style="fill:#9f2020;"/>
    <path clip-path="url(#paedddad34d)" d="M 179.066581 248.866442 
L 182.580907 249.80594 
L 182.579888 248.491613 
L 179.063702 247.552901 
z
" style="fill:#801a1a;"/>
    <path clip-path="url(#paedddad34d)" d="M 176.273126 251.093335 
L 179.066581 248.866442 
L 179.0665 248.829201 
L 176.273002 251.056041 
z
" style="fill:#ff3333;"/>
    <path clip-path="url(#paedddad34d)" d="M 176.273126 251.093335 
L 179.066581 248.866442 
L 179.063702 247.552901 
L 176.268757 249.777933 
z
" style="fill:#ff3333;"/>
    <path clip-path="url(#paedddad34d)" d="M 182.580907 249.80594 
L 186.102105 250.747275 
L 186.10217 250.645844 
L 182.580829 249.70457 
z
" style="fill:#801a1a;"/>
    <path clip-path="url(#paedddad34d)" d="M 176.273126 251.093335 
L 179.792861 252.03719 
L 182.580907 249.80594 
L 179.066581 248.866442 
z
" style="fill:#9f2020;"/>
    <path clip-path="url(#paedddad34d)" d="M 172.760269 250.151324 
L 176.273126 251.093335 
L 176.273002 251.056041 
L 172.760092 250.114053 
z
" style="fill:#801a1a;"/>
    <path clip-path="url(#paedddad34d)" d="M 179.792861 252.03719 
L 182.580907 249.80594 
L 182.580829 249.70457 
L 179.792668 251.935676 
z
" style="fill:#ff3333;"/>
    <path clip-path="url(#paedddad34d)" d="M 176.268757 249.777933 
L 179.790357 250.721001 
L 182.579888 248.491613 
L 179.063702 247.552901 
z
" style="fill:#9f2020;"/>
    <path clip-path="url(#paedddad34d)" d="M 179.792861 252.03719 
L 182.580907 249.80594 
L 182.579888 248.491613 
L 179.790357 250.721001 
z
" style="fill:#ff3333;"/>
    <path clip-path="url(#paedddad34d)" d="M 186.102105 250.747275 
L 189.630193 251.690452 
L 189.631282 251.163914 
L 186.102444 250.221052 
z
" style="fill:#801a1a;"/>
    <path clip-path="url(#paedddad34d)" d="M 179.792861 252.03719 
L 183.319493 252.982894 
L 186.102105 250.747275 
L 182.580907 249.80594 
z
" style="fill:#9f2020;"/>
    <path clip-path="url(#paedddad34d)" d="M 179.792668 251.935676 
L 183.319445 252.88132 
L 186.10217 250.645844 
L 182.580829 249.70457 
z
" style="fill:#9f2020;"/>
    <path clip-path="url(#paedddad34d)" d="M 176.273126 251.093335 
L 179.792861 252.03719 
L 179.790357 250.721001 
L 176.268757 249.777933 
z
" style="fill:#801a1a;"/>
    <path clip-path="url(#paedddad34d)" d="M 183.319493 252.982894 
L 186.102105 250.747275 
L 186.10217 250.645844 
L 183.319445 252.88132 
z
" style="fill:#ff3333;"/>
    <path clip-path="url(#paedddad34d)" d="M 183.319493 252.982894 
L 186.102105 250.747275 
L 186.102444 250.221052 
L 183.319241 252.455926 
z
" style="fill:#ff3333;"/>
    <path clip-path="url(#paedddad34d)" d="M 183.319493 252.982894 
L 186.853043 253.930454 
L 189.630193 251.690452 
L 186.102105 250.747275 
z
" style="fill:#9f2020;"/>
    <path clip-path="url(#paedddad34d)" d="M 179.792861 252.03719 
L 183.319493 252.982894 
L 183.319445 252.88132 
L 179.792668 251.935676 
z
" style="fill:#801a1a;"/>
    <path clip-path="url(#paedddad34d)" d="M 183.319241 252.455926 
L 186.853544 253.403171 
L 189.631282 251.163914 
L 186.102444 250.221052 
z
" style="fill:#9f2020;"/>
    <path clip-path="url(#paedddad34d)" d="M 189.630193 251.690452 
L 193.165192 252.635477 
L 193.178022 248.966451 
L 189.637778 248.023623 
z
" style="fill:#801a1a;"/>
    <path clip-path="url(#paedddad34d)" d="M 186.853043 253.930454 
L 189.630193 251.690452 
L 189.631282 251.163914 
L 186.853544 253.403171 
z
" style="fill:#ff3333;"/>
    <path clip-path="url(#paedddad34d)" d="M 186.853043 253.930454 
L 190.393532 254.879874 
L 193.165192 252.635477 
L 189.630193 251.690452 
z
" style="fill:#9f2020;"/>
    <path clip-path="url(#paedddad34d)" d="M 193.165192 252.635477 
L 196.707124 253.582355 
L 196.711788 252.636104 
L 193.168499 251.689792 
z
" style="fill:#801a1a;"/>
    <path clip-path="url(#paedddad34d)" d="M 186.853043 253.930454 
L 189.630193 251.690452 
L 189.637778 248.023623 
L 186.856527 250.258422 
z
" style="fill:#ff3333;"/>
    <path clip-path="url(#paedddad34d)" d="M 183.319493 252.982894 
L 186.853043 253.930454 
L 186.853544 253.403171 
L 183.319241 252.455926 
z
" style="fill:#801a1a;"/>
    <path clip-path="url(#paedddad34d)" d="M 190.393532 254.879874 
L 193.165192 252.635477 
L 193.168499 251.689792 
L 190.395786 253.93285 
z
" style="fill:#ff3333;"/>
    <path clip-path="url(#paedddad34d)" d="M 190.393532 254.879874 
L 193.940979 255.83116 
L 196.707124 253.582355 
L 193.165192 252.635477 
z
" style="fill:#9f2020;"/>
    <path clip-path="url(#paedddad34d)" d="M 190.393532 254.879874 
L 193.165192 252.635477 
L 193.178022 248.966451 
L 190.402276 251.205641 
z
" style="fill:#ff3333;"/>
    <path clip-path="url(#paedddad34d)" d="M 196.707124 253.582355 
L 200.256008 254.531091 
L 200.273649 251.75939 
L 196.720777 250.812313 
z
" style="fill:#801a1a;"/>
    <path clip-path="url(#paedddad34d)" d="M 190.395786 253.93285 
L 193.944594 254.883569 
L 196.711788 252.636104 
L 193.168499 251.689792 
z
" style="fill:#9f2020;"/>
    <path clip-path="url(#paedddad34d)" d="M 186.856527 250.258422 
L 190.402276 251.205641 
L 193.178022 248.966451 
L 189.637778 248.023623 
z
" style="fill:#9f2020;"/>
    <path clip-path="url(#paedddad34d)" d="M 193.940979 255.83116 
L 196.707124 253.582355 
L 196.711788 252.636104 
L 193.944594 254.883569 
z
" style="fill:#ff3333;"/>
    <path clip-path="url(#paedddad34d)" d="M 186.853043 253.930454 
L 190.393532 254.879874 
L 190.402276 251.205641 
L 186.856527 250.258422 
z
" style="fill:#801a1a;"/>
    <path clip-path="url(#paedddad34d)" d="M 193.940979 255.83116 
L 197.495405 256.784318 
L 200.256008 254.531091 
L 196.707124 253.582355 
z
" style="fill:#9f2020;"/>
    <path clip-path="url(#paedddad34d)" d="M 193.940979 255.83116 
L 196.707124 253.582355 
L 196.720777 250.812313 
L 193.951562 253.057189 
z
" style="fill:#ff3333;"/>
    <path clip-path="url(#paedddad34d)" d="M 200.256008 254.531091 
L 203.811864 255.481691 
L 203.822241 254.152094 
L 200.264465 253.202289 
z
" style="fill:#801a1a;"/>
    <path clip-path="url(#paedddad34d)" d="M 190.393532 254.879874 
L 193.940979 255.83116 
L 193.944594 254.883569 
L 190.395786 253.93285 
z
" style="fill:#801a1a;"/>
    <path clip-path="url(#paedddad34d)" d="M 197.495405 256.784318 
L 200.256008 254.531091 
L 200.264465 253.202289 
L 197.502397 255.453633 
z
" style="fill:#ff3333;"/>
    <path clip-path="url(#paedddad34d)" d="M 197.495405 256.784318 
L 201.056832 257.739353 
L 203.811864 255.481691 
L 200.256008 254.531091 
z
" style="fill:#9f2020;"/>
    <path clip-path="url(#paedddad34d)" d="M 197.495405 256.784318 
L 200.256008 254.531091 
L 200.273649 251.75939 
L 197.509989 254.008685 
z
" style="fill:#ff3333;"/>
    <path clip-path="url(#paedddad34d)" d="M 193.951562 253.057189 
L 197.509989 254.008685 
L 200.273649 251.75939 
L 196.720777 250.812313 
z
" style="fill:#9f2020;"/>
    <path clip-path="url(#paedddad34d)" d="M 197.502397 255.453633 
L 201.065749 256.407871 
L 203.822241 254.152094 
L 200.264465 253.202289 
z
" style="fill:#9f2020;"/>
    <path clip-path="url(#paedddad34d)" d="M 193.940979 255.83116 
L 197.495405 256.784318 
L 197.509989 254.008685 
L 193.951562 253.057189 
z
" style="fill:#801a1a;"/>
    <path clip-path="url(#paedddad34d)" d="M 201.056832 257.739353 
L 203.811864 255.481691 
L 203.822241 254.152094 
L 201.065749 256.407871 
z
" style="fill:#ff3333;"/>
    <path clip-path="url(#paedddad34d)" d="M 207.374714 256.434161 
L 210.944577 257.388506 
L 210.96541 255.440872 
L 207.392716 254.487692 
z
" style="fill:#801a1a;"/>
    <path clip-path="url(#paedddad34d)" d="M 197.495405 256.784318 
L 201.056832 257.739353 
L 201.065749 256.407871 
L 197.502397 255.453633 
z
" style="fill:#801a1a;"/>
    <path clip-path="url(#paedddad34d)" d="M 204.625279 258.69627 
L 207.374714 256.434161 
L 207.392716 254.487692 
L 204.641153 256.74704 
z
" style="fill:#ff3333;"/>
    <path clip-path="url(#paedddad34d)" d="M 204.625279 258.69627 
L 208.200767 259.655076 
L 210.944577 257.388506 
L 207.374714 256.434161 
z
" style="fill:#9f2020;"/>
    <path clip-path="url(#paedddad34d)" d="M 204.641153 256.74704 
L 208.219481 257.704679 
L 210.96541 255.440872 
L 207.392716 254.487692 
z
" style="fill:#9f2020;"/>
    <path clip-path="url(#paedddad34d)" d="M 208.200767 259.655076 
L 210.944577 257.388506 
L 210.96541 255.440872 
L 208.219481 257.704679 
z
" style="fill:#ff3333;"/>
    <path clip-path="url(#paedddad34d)" d="M 204.625279 258.69627 
L 208.200767 259.655076 
L 208.219481 257.704679 
L 204.641153 256.74704 
z
" style="fill:#801a1a;"/>
   </g>
   <g id="Poly3DCollection_2">
    <path clip-path="url(#paedddad34d)" d="M 211.783317 260.615775 
L 215.37295 261.578374 
L 218.105429 259.302844 
L 214.521475 258.344732 
z
" style="fill:#3d9e32;"/>
    <path clip-path="url(#paedddad34d)" d="M 214.521475 258.344732 
L 218.105429 259.302844 
L 219.924627 125.574756 
L 216.144944 124.70371 
z
" style="fill:#307e28;"/>
    <path clip-path="url(#paedddad34d)" d="M 211.783317 260.615775 
L 214.521475 258.344732 
L 216.144944 124.70371 
L 213.262326 126.768529 
z
" style="fill:#61fc50;"/>
    <path clip-path="url(#paedddad34d)" d="M 215.37295 261.578374 
L 218.105429 259.302844 
L 219.924627 125.574756 
L 217.04833 127.643875 
z
" style="fill:#61fc50;"/>
    <path clip-path="url(#paedddad34d)" d="M 211.783317 260.615775 
L 215.37295 261.578374 
L 217.04833 127.643875 
L 213.262326 126.768529 
z
" style="fill:#307e28;"/>
    <path clip-path="url(#paedddad34d)" d="M 213.262326 126.768529 
L 217.04833 127.643875 
L 219.924627 125.574756 
L 216.144944 124.70371 
z
" style="fill:#3d9e32;"/>
   </g>
   <g id="text_23">
    <!-- Alignment Scores -->
    <g transform="translate(118.506094 29.3808)scale(0.14 -0.14)">
     <use xlink:href="#DejaVuSans-41"/>
     <use x="68.408203" xlink:href="#DejaVuSans-6c"/>
     <use x="96.191406" xlink:href="#DejaVuSans-69"/>
     <use x="123.974609" xlink:href="#DejaVuSans-67"/>
     <use x="187.451172" xlink:href="#DejaVuSans-6e"/>
     <use x="250.830078" xlink:href="#DejaVuSans-6d"/>
     <use x="348.242188" xlink:href="#DejaVuSans-65"/>
     <use x="409.765625" xlink:href="#DejaVuSans-6e"/>
     <use x="473.144531" xlink:href="#DejaVuSans-74"/>
     <use x="512.353516" xlink:href="#DejaVuSans-20"/>
     <use x="544.140625" xlink:href="#DejaVuSans-53"/>
     <use x="607.617188" xlink:href="#DejaVuSans-63"/>
     <use x="662.597656" xlink:href="#DejaVuSans-6f"/>
     <use x="723.779297" xlink:href="#DejaVuSans-72"/>
     <use x="764.861328" xlink:href="#DejaVuSans-65"/>
     <use x="826.384766" xlink:href="#DejaVuSans-73"/>
    </g>
   </g>
   <g id="legend_1">
    <g id="patch_6">
     <path d="M 18.22 39.469375 
L 99.582969 39.469375 
Q 100.982969 39.469375 100.982969 38.069375 
L 100.982969 18.22 
Q 100.982969 16.82 99.582969 16.82 
L 18.22 16.82 
Q 16.82 16.82 16.82 18.22 
L 16.82 38.069375 
Q 16.82 39.469375 18.22 39.469375 
z
" style="fill:#ffffff;opacity:0.8;stroke:#cccccc;stroke-linejoin:miter;"/>
    </g>
    <g id="patch_7">
     <path d="M 19.62 24.938906 
L 33.62 24.938906 
L 33.62 20.038906 
L 19.62 20.038906 
z
" style="fill:#61fc50;"/>
    </g>
    <g id="text_24">
     <!-- Reads Accepted -->
     <defs>
      <path d="M 18.109375 8.203125 
L 18.109375 -20.796875 
L 9.078125 -20.796875 
L 9.078125 54.6875 
L 18.109375 54.6875 
L 18.109375 46.390625 
Q 20.953125 51.265625 25.265625 53.625 
Q 29.59375 56 35.59375 56 
Q 45.5625 56 51.78125 48.09375 
Q 58.015625 40.1875 58.015625 27.296875 
Q 58.015625 14.40625 51.78125 6.484375 
Q 45.5625 -1.421875 35.59375 -1.421875 
Q 29.59375 -1.421875 25.265625 0.953125 
Q 20.953125 3.328125 18.109375 8.203125 
z
M 48.6875 27.296875 
Q 48.6875 37.203125 44.609375 42.84375 
Q 40.53125 48.484375 33.40625 48.484375 
Q 26.265625 48.484375 22.1875 42.84375 
Q 18.109375 37.203125 18.109375 27.296875 
Q 18.109375 17.390625 22.1875 11.75 
Q 26.265625 6.109375 33.40625 6.109375 
Q 40.53125 6.109375 44.609375 11.75 
Q 48.6875 17.390625 48.6875 27.296875 
z
" id="DejaVuSans-70"/>
     </defs>
     <g transform="translate(39.22 24.938906)scale(0.07 -0.07)">
      <use xlink:href="#DejaVuSans-52"/>
      <use x="69.419922" xlink:href="#DejaVuSans-65"/>
      <use x="130.943359" xlink:href="#DejaVuSans-61"/>
      <use x="192.222656" xlink:href="#DejaVuSans-64"/>
      <use x="255.699219" xlink:href="#DejaVuSans-73"/>
      <use x="307.798828" xlink:href="#DejaVuSans-20"/>
      <use x="339.585938" xlink:href="#DejaVuSans-41"/>
      <use x="407.978516" xlink:href="#DejaVuSans-63"/>
      <use x="462.958984" xlink:href="#DejaVuSans-63"/>
      <use x="517.939453" xlink:href="#DejaVuSans-65"/>
      <use x="579.462891" xlink:href="#DejaVuSans-70"/>
      <use x="642.939453" xlink:href="#DejaVuSans-74"/>
      <use x="682.148438" xlink:href="#DejaVuSans-65"/>
      <use x="743.671875" xlink:href="#DejaVuSans-64"/>
     </g>
    </g>
    <g id="patch_8">
     <path d="M 19.62 35.213594 
L 33.62 35.213594 
L 33.62 30.313594 
L 19.62 30.313594 
z
" style="fill:#ff3333;"/>
    </g>
    <g id="text_25">
     <!-- Reads Discarded -->
     <defs>
      <path d="M 19.671875 64.796875 
L 19.671875 8.109375 
L 31.59375 8.109375 
Q 46.6875 8.109375 53.6875 14.9375 
Q 60.6875 21.78125 60.6875 36.53125 
Q 60.6875 51.171875 53.6875 57.984375 
Q 46.6875 64.796875 31.59375 64.796875 
z
M 9.8125 72.90625 
L 30.078125 72.90625 
Q 51.265625 72.90625 61.171875 64.09375 
Q 71.09375 55.28125 71.09375 36.53125 
Q 71.09375 17.671875 61.125 8.828125 
Q 51.171875 0 30.078125 0 
L 9.8125 0 
z
" id="DejaVuSans-44"/>
     </defs>
     <g transform="translate(39.22 35.213594)scale(0.07 -0.07)">
      <use xlink:href="#DejaVuSans-52"/>
      <use x="69.419922" xlink:href="#DejaVuSans-65"/>
      <use x="130.943359" xlink:href="#DejaVuSans-61"/>
      <use x="192.222656" xlink:href="#DejaVuSans-64"/>
      <use x="255.699219" xlink:href="#DejaVuSans-73"/>
      <use x="307.798828" xlink:href="#DejaVuSans-20"/>
      <use x="339.585938" xlink:href="#DejaVuSans-44"/>
      <use x="416.587891" xlink:href="#DejaVuSans-69"/>
      <use x="444.371094" xlink:href="#DejaVuSans-73"/>
      <use x="496.470703" xlink:href="#DejaVuSans-63"/>
      <use x="551.451172" xlink:href="#DejaVuSans-61"/>
      <use x="612.730469" xlink:href="#DejaVuSans-72"/>
      <use x="653.828125" xlink:href="#DejaVuSans-64"/>
      <use x="717.304688" xlink:href="#DejaVuSans-65"/>
      <use x="778.828125" xlink:href="#DejaVuSans-64"/>
     </g>
    </g>
   </g>
  </g>
 </g>
 <defs>
  <clipPath id="paedddad34d">
   <rect height="275.76" width="333.36" x="13.32" y="13.32"/>
  </clipPath>
 </defs>
</svg>
