<?xml version="1.0" encoding="utf-8" standalone="no"?>
<!DOCTYPE svg PUBLIC "-//W3C//DTD SVG 1.1//EN"
  "http://www.w3.org/Graphics/SVG/1.1/DTD/svg11.dtd">
<!-- Created with matplotlib (http://matplotlib.org/) -->
<svg height="266pt" version="1.1" viewBox="0 0 252 266" width="252pt" xmlns="http://www.w3.org/2000/svg" xmlns:xlink="http://www.w3.org/1999/xlink">
 <defs>
  <style type="text/css">
*{stroke-linecap:butt;stroke-linejoin:round;}
  </style>
 </defs>
 <g id="figure_1">
  <g id="patch_1">
   <path d="M 0 266.4 
L 252 266.4 
L 252 0 
L 0 0 
z
" style="fill:#ffffff;"/>
  </g>
  <g id="axes_1">
   <g id="patch_2">
    <path d="M 51.01625 223 
L 238.68 223 
L 238.68 25.44 
L 51.01625 25.44 
z
" style="fill:#ffffff;"/>
   </g>
   <g id="PathCollection_1">
    <path clip-path="url(#pb81aed39fe)" d="M 172.496834 137.616446 
L 173.268444 137.616446 
L 174.040054 137.616446 
L 174.811664 137.616446 
L 175.583274 137.616446 
L 176.354884 137.616446 
L 177.126493 137.616446 
L 177.898103 137.616446 
L 178.669713 137.616446 
L 179.441323 137.616446 
L 180.212933 137.616446 
L 180.984543 137.616446 
L 181.756153 137.616446 
L 182.527763 137.616446 
L 183.299373 137.616446 
L 184.070983 137.616446 
L 184.842593 137.616446 
L 185.614203 137.616446 
L 186.385813 137.616446 
L 187.157423 137.616446 
L 187.929033 137.616446 
L 188.700643 137.616446 
L 189.472253 137.616446 
L 190.243863 137.616446 
L 191.015473 137.616446 
L 191.787083 137.616446 
L 192.558693 137.616446 
L 193.330303 137.616446 
L 194.101913 137.616446 
L 194.873523 137.616446 
L 195.645133 137.616446 
L 196.416743 137.616446 
L 197.188353 137.616446 
L 197.959963 137.616446 
L 198.731573 137.616446 
L 199.503183 137.616446 
L 200.274793 137.616446 
L 201.046403 137.616446 
L 201.818013 137.616446 
L 202.589623 137.616446 
L 203.361233 137.616446 
L 204.132843 137.616446 
L 204.904452 137.616446 
L 205.676062 137.616446 
L 206.447672 137.616446 
L 207.219282 137.616446 
L 207.990892 137.616446 
L 208.762502 137.616446 
L 209.534112 137.616446 
L 210.305722 137.616446 
L 211.077332 137.616446 
L 211.848942 137.616446 
L 212.620552 137.616446 
L 213.392162 137.616446 
L 214.163772 137.616446 
L 214.935382 137.616446 
L 215.706992 137.616446 
L 216.478602 137.616446 
L 217.250212 137.616446 
L 218.021822 137.616446 
L 218.793432 137.616446 
L 219.565042 137.616446 
L 220.336652 137.616446 
L 221.108262 137.616446 
L 221.879872 137.616446 
L 222.651482 137.616446 
L 223.423092 137.616446 
L 224.194702 137.616446 
L 224.966312 137.616446 
L 225.737922 137.616446 
L 226.509532 137.616446 
L 227.281142 137.616446 
L 228.052752 137.616446 
L 228.824362 137.616446 
L 229.595972 137.616446 
L 230.367582 137.616446 
L 231.139192 137.616446 
L 231.910802 137.616446 
L 232.682411 137.616446 
L 233.454021 137.616446 
L 234.225631 137.616446 
L 234.997241 137.616446 
L 235.768851 137.616446 
L 236.540461 137.616446 
L 237.312071 137.616446 
L 238.083681 137.616446 
L 238.855291 137.616446 
L 239.626901 137.616446 
L 240.398511 137.616446 
L 241.170121 137.616446 
L 241.941731 137.616446 
L 242.713341 137.616446 
L 243.484951 137.616446 
L 244.256561 137.616446 
L 245.028171 137.616446 
L 245.799781 137.616446 
L 246.571391 137.616446 
L 247.343001 137.616446 
L 248.114611 137.616446 
L 248.114611 136.704296 
L 248.114611 135.792146 
L 248.114611 134.879996 
L 248.114611 133.967846 
L 248.114611 133.055696 
L 248.114611 132.143546 
L 248.114611 131.231395 
L 248.114611 130.319245 
L 248.114611 129.407095 
L 248.114611 128.494945 
L 248.114611 127.582795 
L 248.114611 126.670645 
L 248.114611 125.758495 
L 248.114611 124.846345 
L 248.114611 123.934195 
L 248.114611 123.022045 
L 248.114611 122.109894 
L 248.114611 121.197744 
L 248.114611 120.285594 
L 248.114611 119.373444 
L 248.114611 118.461294 
L 248.114611 117.549144 
L 248.114611 116.636994 
L 248.114611 115.724844 
L 248.114611 114.812694 
L 248.114611 113.900544 
L 248.114611 112.988393 
L 248.114611 112.076243 
L 248.114611 111.164093 
L 248.114611 110.251943 
L 248.114611 109.339793 
L 248.114611 108.427643 
L 248.114611 107.515493 
L 248.114611 106.603343 
L 248.114611 105.691193 
L 248.114611 104.779043 
L 248.114611 103.866892 
L 248.114611 102.954742 
L 248.114611 102.042592 
L 248.114611 101.130442 
L 248.114611 100.218292 
L 248.114611 99.306142 
L 248.114611 98.393992 
L 248.114611 97.481842 
L 248.114611 96.569692 
L 248.114611 95.657542 
L 248.114611 94.745391 
L 248.114611 93.833241 
L 248.114611 92.921091 
L 248.114611 92.008941 
L 248.114611 91.096791 
L 248.114611 90.184641 
L 248.114611 89.272491 
L 248.114611 88.360341 
L 248.114611 87.448191 
L 248.114611 86.536041 
L 248.114611 85.62389 
L 248.114611 84.71174 
L 248.114611 83.79959 
L 248.114611 82.88744 
L 248.114611 81.97529 
L 248.114611 81.06314 
L 248.114611 80.15099 
L 248.114611 79.23884 
L 248.114611 78.32669 
L 248.114611 77.41454 
L 248.114611 76.502389 
L 248.114611 75.590239 
L 248.114611 74.678089 
L 248.114611 73.765939 
L 248.114611 72.853789 
L 248.114611 71.941639 
L 248.114611 71.029489 
L 248.114611 70.117339 
L 248.114611 69.205189 
L 248.114611 68.293039 
L 248.114611 67.380889 
L 248.114611 66.468738 
L 248.114611 65.556588 
L 248.114611 64.644438 
L 248.114611 63.732288 
L 248.114611 62.820138 
L 248.114611 61.907988 
L 248.114611 60.995838 
L 248.114611 60.083688 
L 248.114611 59.171538 
L 248.114611 58.259388 
L 248.114611 57.347237 
L 248.114611 56.435087 
L 248.114611 55.522937 
L 248.114611 54.610787 
L 248.114611 53.698637 
L 248.114611 52.786487 
L 248.114611 51.874337 
L 248.114611 50.962187 
L 248.114611 50.050037 
L 248.114611 49.137887 
L 248.114611 48.225736 
L 248.114611 47.313586 
L 247.343001 47.313586 
L 246.571391 47.313586 
L 245.799781 47.313586 
L 245.028171 47.313586 
L 244.256561 47.313586 
L 243.484951 47.313586 
L 242.713341 47.313586 
L 241.941731 47.313586 
L 241.170121 47.313586 
L 240.398511 47.313586 
L 239.626901 47.313586 
L 238.855291 47.313586 
L 238.083681 47.313586 
L 237.312071 47.313586 
L 236.540461 47.313586 
L 235.768851 47.313586 
L 234.997241 47.313586 
L 234.225631 47.313586 
L 233.454021 47.313586 
L 232.682411 47.313586 
L 231.910802 47.313586 
L 231.139192 47.313586 
L 230.367582 47.313586 
L 229.595972 47.313586 
L 228.824362 47.313586 
L 228.052752 47.313586 
L 227.281142 47.313586 
L 226.509532 47.313586 
L 225.737922 47.313586 
L 224.966312 47.313586 
L 224.194702 47.313586 
L 223.423092 47.313586 
L 222.651482 47.313586 
L 221.879872 47.313586 
L 221.108262 47.313586 
L 220.336652 47.313586 
L 219.565042 47.313586 
L 218.793432 47.313586 
L 218.021822 47.313586 
L 217.250212 47.313586 
L 216.478602 47.313586 
L 215.706992 47.313586 
L 214.935382 47.313586 
L 214.163772 47.313586 
L 213.392162 47.313586 
L 212.620552 47.313586 
L 211.848942 47.313586 
L 211.077332 47.313586 
L 210.305722 47.313586 
L 209.534112 47.313586 
L 208.762502 47.313586 
L 207.990892 47.313586 
L 207.219282 47.313586 
L 206.447672 47.313586 
L 205.676062 47.313586 
L 204.904452 47.313586 
L 204.132843 47.313586 
L 203.361233 47.313586 
L 202.589623 47.313586 
L 201.818013 47.313586 
L 201.046403 47.313586 
L 200.274793 47.313586 
L 199.503183 47.313586 
L 198.731573 47.313586 
L 197.959963 47.313586 
L 197.188353 47.313586 
L 196.416743 47.313586 
L 195.645133 47.313586 
L 194.873523 47.313586 
L 194.101913 47.313586 
L 193.330303 47.313586 
L 192.558693 47.313586 
L 191.787083 47.313586 
L 191.015473 47.313586 
L 190.243863 47.313586 
L 189.472253 47.313586 
L 188.700643 47.313586 
L 187.929033 47.313586 
L 187.157423 47.313586 
L 186.385813 47.313586 
L 185.614203 47.313586 
L 184.842593 47.313586 
L 184.070983 47.313586 
L 183.299373 47.313586 
L 182.527763 47.313586 
L 181.756153 47.313586 
L 180.984543 47.313586 
L 180.212933 47.313586 
L 179.441323 47.313586 
L 178.669713 47.313586 
L 177.898103 47.313586 
L 177.126493 47.313586 
L 176.354884 47.313586 
L 175.583274 47.313586 
L 174.811664 47.313586 
L 174.040054 47.313586 
L 173.268444 47.313586 
L 172.496834 47.313586 
L 171.725224 47.313586 
L 171.725224 48.225736 
L 171.725224 49.137887 
L 171.725224 50.050037 
L 171.725224 50.962187 
L 171.725224 51.874337 
L 171.725224 52.786487 
L 171.725224 53.698637 
L 171.725224 54.610787 
L 171.725224 55.522937 
L 171.725224 56.435087 
L 171.725224 57.347237 
L 171.725224 58.259388 
L 171.725224 59.171538 
L 171.725224 60.083688 
L 171.725224 60.995838 
L 171.725224 61.907988 
L 171.725224 62.820138 
L 171.725224 63.732288 
L 171.725224 64.644438 
L 171.725224 65.556588 
L 171.725224 66.468738 
L 171.725224 67.380889 
L 171.725224 68.293039 
L 171.725224 69.205189 
L 171.725224 70.117339 
L 171.725224 71.029489 
L 171.725224 71.941639 
L 171.725224 72.853789 
L 171.725224 73.765939 
L 171.725224 74.678089 
L 171.725224 75.590239 
L 171.725224 76.502389 
L 171.725224 77.41454 
L 171.725224 78.32669 
L 171.725224 79.23884 
L 171.725224 80.15099 
L 171.725224 81.06314 
L 171.725224 81.97529 
L 171.725224 82.88744 
L 171.725224 83.79959 
L 171.725224 84.71174 
L 171.725224 85.62389 
L 171.725224 86.536041 
L 171.725224 87.448191 
L 171.725224 88.360341 
L 171.725224 89.272491 
L 171.725224 90.184641 
L 171.725224 91.096791 
L 171.725224 92.008941 
L 171.725224 92.921091 
L 171.725224 93.833241 
L 171.725224 94.745391 
L 171.725224 95.657542 
L 171.725224 96.569692 
L 171.725224 97.481842 
L 171.725224 98.393992 
L 171.725224 99.306142 
L 171.725224 100.218292 
L 171.725224 101.130442 
L 171.725224 102.042592 
L 171.725224 102.954742 
L 171.725224 103.866892 
L 171.725224 104.779043 
L 171.725224 105.691193 
L 171.725224 106.603343 
L 171.725224 107.515493 
L 171.725224 108.427643 
L 171.725224 109.339793 
L 171.725224 110.251943 
L 171.725224 111.164093 
L 171.725224 112.076243 
L 171.725224 112.988393 
L 171.725224 113.900544 
L 171.725224 114.812694 
L 171.725224 115.724844 
L 171.725224 116.636994 
L 171.725224 117.549144 
L 171.725224 118.461294 
L 171.725224 119.373444 
L 171.725224 120.285594 
L 171.725224 121.197744 
L 171.725224 122.109894 
L 171.725224 123.022045 
L 171.725224 123.934195 
L 171.725224 124.846345 
L 171.725224 125.758495 
L 171.725224 126.670645 
L 171.725224 127.582795 
L 171.725224 128.494945 
L 171.725224 129.407095 
L 171.725224 130.319245 
L 171.725224 131.231395 
L 171.725224 132.143546 
L 171.725224 133.055696 
L 171.725224 133.967846 
L 171.725224 134.879996 
L 171.725224 135.792146 
L 171.725224 136.704296 
L 171.725224 137.616446 
z
M 199.536234 117.549144 
L 199.503183 117.500042 
L 199.139467 116.636994 
L 198.881129 115.724844 
L 198.731573 115.247732 
L 198.617917 114.812694 
L 198.280912 113.900544 
L 197.959963 113.2449 
L 197.843231 112.988393 
L 197.283013 112.076243 
L 197.188353 111.954435 
L 196.595461 111.164093 
L 196.416743 110.964947 
L 195.800557 110.251943 
L 195.645133 110.093658 
L 194.941618 109.339793 
L 194.873523 109.271784 
L 194.101913 108.449779 
L 194.082485 108.427643 
L 193.330303 107.570374 
L 193.285933 107.515493 
L 192.594743 106.603343 
L 192.558693 106.5495 
L 192.024886 105.691193 
L 191.787083 105.21476 
L 191.581859 104.779043 
L 191.256098 103.866892 
L 191.038937 102.954742 
L 191.015473 102.797579 
L 190.903788 102.042592 
L 190.839015 101.130442 
L 190.82862 100.218292 
L 190.859576 99.306142 
L 190.924636 98.393992 
L 191.015473 97.551315 
L 191.022015 97.481842 
L 191.143159 96.569692 
L 191.304786 95.657542 
L 191.518356 94.745391 
L 191.787083 93.86829 
L 191.796833 93.833241 
L 192.114736 92.921091 
L 192.517127 92.008941 
L 192.558693 91.928183 
L 192.960099 91.096791 
L 193.330303 90.446109 
L 193.470554 90.184641 
L 194.016939 89.272491 
L 194.101913 89.139588 
L 194.57268 88.360341 
L 194.873523 87.890612 
L 195.140501 87.448191 
L 195.645133 86.643493 
L 195.708506 86.536041 
L 196.248085 85.62389 
L 196.416743 85.34402 
L 196.775695 84.71174 
L 197.188353 84.015912 
L 197.309876 83.79959 
L 197.842945 82.88744 
L 197.959963 82.69687 
L 198.385354 81.97529 
L 198.731573 81.437628 
L 198.9656 81.06314 
L 199.503183 80.278383 
L 199.588851 80.15099 
L 200.255485 79.23884 
L 200.274793 79.213936 
L 200.963746 78.32669 
L 201.046403 78.226728 
L 201.727195 77.41454 
L 201.818013 77.310816 
L 202.543917 76.502389 
L 202.589623 76.452605 
L 203.361233 75.634264 
L 203.404138 75.590239 
L 204.132843 74.839003 
L 204.296933 74.678089 
L 204.904452 74.065265 
L 205.217924 73.765939 
L 205.676062 73.30583 
L 206.151967 72.853789 
L 206.447672 72.552856 
L 207.081143 71.941639 
L 207.219282 71.797161 
L 207.990495 71.029489 
L 207.990892 71.029059 
L 208.762502 70.221424 
L 208.867576 70.117339 
L 209.534112 69.406323 
L 209.734082 69.205189 
L 210.305722 68.600578 
L 210.61749 68.293039 
L 211.077332 67.829497 
L 211.563729 67.380889 
L 211.848942 67.118496 
L 212.620552 66.4849 
L 212.642257 66.468738 
L 213.392162 65.916473 
L 213.972921 65.556588 
L 214.163772 65.43901 
L 214.935382 65.027089 
L 215.706992 64.695417 
L 215.850301 64.644438 
L 216.478602 64.41399 
L 217.250212 64.19356 
L 218.021822 64.0306 
L 218.793432 63.919118 
L 219.565042 63.854892 
L 220.336652 63.835318 
L 221.108262 63.859372 
L 221.879872 63.927712 
L 222.651482 64.04291 
L 223.423092 64.209864 
L 224.194702 64.436448 
L 224.746024 64.644438 
L 224.966312 64.727433 
L 225.737922 65.083893 
L 226.509532 65.545246 
L 226.526024 65.556588 
L 227.281142 66.107998 
L 227.686304 66.468738 
L 228.052752 66.825431 
L 228.544513 67.380889 
L 228.824362 67.735865 
L 229.219714 68.293039 
L 229.595972 68.90374 
L 229.769812 69.205189 
L 230.230839 70.117339 
L 230.367582 70.429164 
L 230.626893 71.029489 
L 230.963038 71.941639 
L 231.139192 72.503637 
L 231.252142 72.853789 
L 231.507293 73.765939 
L 231.718443 74.678089 
L 231.890959 75.590239 
L 231.910802 75.717422 
L 232.044158 76.502389 
L 232.163469 77.41454 
L 232.246608 78.32669 
L 232.292694 79.23884 
L 232.300098 80.15099 
L 232.266775 81.06314 
L 232.190379 81.97529 
L 232.068155 82.88744 
L 231.910802 83.725533 
L 231.898868 83.79959 
L 231.710129 84.71174 
L 231.473227 85.62389 
L 231.181789 86.536041 
L 231.139192 86.652197 
L 230.879019 87.448191 
L 230.524403 88.360341 
L 230.367582 88.716676 
L 230.144059 89.272491 
L 229.723763 90.184641 
L 229.595972 90.438474 
L 229.286512 91.096791 
L 228.824362 91.967751 
L 228.803695 92.008941 
L 228.327987 92.921091 
L 228.052752 93.409815 
L 227.824951 93.833241 
L 227.305142 94.745391 
L 227.281142 94.787617 
L 226.806835 95.657542 
L 226.509532 96.180561 
L 226.296052 96.569692 
L 225.781832 97.481842 
L 225.737922 97.560585 
L 225.286797 98.393992 
L 224.966312 98.961 
L 224.77493 99.306142 
L 224.250801 100.218292 
L 224.194702 100.315128 
L 223.724822 101.130442 
L 223.423092 101.628119 
L 223.169707 102.042592 
L 222.651482 102.856787 
L 222.587831 102.954742 
L 221.99454 103.866892 
L 221.879872 104.044092 
L 221.391151 104.779043 
L 221.108262 105.211834 
L 220.785109 105.691193 
L 220.336652 106.385062 
L 220.191078 106.603343 
L 219.623742 107.515493 
L 219.565042 107.617979 
L 219.091305 108.427643 
L 218.793432 108.957306 
L 218.573235 109.339793 
L 218.051114 110.251943 
L 218.021822 110.301995 
L 217.501853 111.164093 
L 217.250212 111.541118 
L 216.876253 112.076243 
L 216.478602 112.579119 
L 216.1329 112.988393 
L 215.706992 113.434902 
L 215.221885 113.900544 
L 214.935382 114.149275 
L 214.163772 114.75353 
L 214.08019 114.812694 
L 213.392162 115.273199 
L 212.620552 115.72111 
L 212.613326 115.724844 
L 211.848942 116.117853 
L 211.077332 116.460254 
L 210.61697 116.636994 
L 210.305722 116.762306 
L 209.534112 117.031417 
L 208.762502 117.264047 
L 207.990892 117.465897 
L 207.615908 117.549144 
L 207.219282 117.648515 
L 206.447672 117.813548 
L 205.676062 117.959565 
L 204.904452 118.090301 
L 204.132843 118.208051 
L 203.361233 118.312306 
L 202.589623 118.396796 
L 201.818013 118.443051 
L 201.046403 118.405913 
L 200.274793 118.179203 
z
" style="fill:none;"/>
   </g>
   <g id="PathCollection_2">
    <path clip-path="url(#pb81aed39fe)" d="M 200.274793 118.179203 
L 201.046403 118.405913 
L 201.818013 118.443051 
L 202.589623 118.396796 
L 203.361233 118.312306 
L 204.132843 118.208051 
L 204.904452 118.090301 
L 205.676062 117.959565 
L 206.447672 117.813548 
L 207.219282 117.648515 
L 207.615908 117.549144 
L 207.990892 117.465897 
L 208.762502 117.264047 
L 209.534112 117.031417 
L 210.305722 116.762306 
L 210.61697 116.636994 
L 211.077332 116.460254 
L 211.848942 116.117853 
L 212.613326 115.724844 
L 212.620552 115.72111 
L 213.392162 115.273199 
L 214.08019 114.812694 
L 214.163772 114.75353 
L 214.935382 114.149275 
L 215.221885 113.900544 
L 215.706992 113.434902 
L 216.1329 112.988393 
L 216.478602 112.579119 
L 216.876253 112.076243 
L 217.250212 111.541118 
L 217.501853 111.164093 
L 218.021822 110.301995 
L 218.051114 110.251943 
L 218.573235 109.339793 
L 218.793432 108.957306 
L 219.091305 108.427643 
L 219.565042 107.617979 
L 219.623742 107.515493 
L 220.191078 106.603343 
L 220.336652 106.385062 
L 220.785109 105.691193 
L 221.108262 105.211834 
L 221.391151 104.779043 
L 221.879872 104.044092 
L 221.99454 103.866892 
L 222.587831 102.954742 
L 222.651482 102.856787 
L 223.169707 102.042592 
L 223.423092 101.628119 
L 223.724822 101.130442 
L 224.194702 100.315128 
L 224.250801 100.218292 
L 224.77493 99.306142 
L 224.966312 98.961 
L 225.286797 98.393992 
L 225.737922 97.560585 
L 225.781832 97.481842 
L 226.296052 96.569692 
L 226.509532 96.180561 
L 226.806835 95.657542 
L 227.281142 94.787617 
L 227.305142 94.745391 
L 227.824951 93.833241 
L 228.052752 93.409815 
L 228.327987 92.921091 
L 228.803695 92.008941 
L 228.824362 91.967751 
L 229.286512 91.096791 
L 229.595972 90.438474 
L 229.723763 90.184641 
L 230.144059 89.272491 
L 230.367582 88.716676 
L 230.524403 88.360341 
L 230.879019 87.448191 
L 231.139192 86.652197 
L 231.181789 86.536041 
L 231.473227 85.62389 
L 231.710129 84.71174 
L 231.898868 83.79959 
L 231.910802 83.725533 
L 232.068155 82.88744 
L 232.190379 81.97529 
L 232.266775 81.06314 
L 232.300098 80.15099 
L 232.292694 79.23884 
L 232.246608 78.32669 
L 232.163469 77.41454 
L 232.044158 76.502389 
L 231.910802 75.717422 
L 231.890959 75.590239 
L 231.718443 74.678089 
L 231.507293 73.765939 
L 231.252142 72.853789 
L 231.139192 72.503637 
L 230.963038 71.941639 
L 230.626893 71.029489 
L 230.367582 70.429164 
L 230.230839 70.117339 
L 229.769812 69.205189 
L 229.595972 68.90374 
L 229.219714 68.293039 
L 228.824362 67.735865 
L 228.544513 67.380889 
L 228.052752 66.825431 
L 227.686304 66.468738 
L 227.281142 66.107998 
L 226.526024 65.556588 
L 226.509532 65.545246 
L 225.737922 65.083893 
L 224.966312 64.727433 
L 224.746024 64.644438 
L 224.194702 64.436448 
L 223.423092 64.209864 
L 222.651482 64.04291 
L 221.879872 63.927712 
L 221.108262 63.859372 
L 220.336652 63.835318 
L 219.565042 63.854892 
L 218.793432 63.919118 
L 218.021822 64.0306 
L 217.250212 64.19356 
L 216.478602 64.41399 
L 215.850301 64.644438 
L 215.706992 64.695417 
L 214.935382 65.027089 
L 214.163772 65.43901 
L 213.972921 65.556588 
L 213.392162 65.916473 
L 212.642257 66.468738 
L 212.620552 66.4849 
L 211.848942 67.118496 
L 211.563729 67.380889 
L 211.077332 67.829497 
L 210.61749 68.293039 
L 210.305722 68.600578 
L 209.734082 69.205189 
L 209.534112 69.406323 
L 208.867576 70.117339 
L 208.762502 70.221424 
L 207.990892 71.029059 
L 207.990495 71.029489 
L 207.219282 71.797161 
L 207.081143 71.941639 
L 206.447672 72.552856 
L 206.151967 72.853789 
L 205.676062 73.30583 
L 205.217924 73.765939 
L 204.904452 74.065265 
L 204.296933 74.678089 
L 204.132843 74.839003 
L 203.404138 75.590239 
L 203.361233 75.634264 
L 202.589623 76.452605 
L 202.543917 76.502389 
L 201.818013 77.310816 
L 201.727195 77.41454 
L 201.046403 78.226728 
L 200.963746 78.32669 
L 200.274793 79.213936 
L 200.255485 79.23884 
L 199.588851 80.15099 
L 199.503183 80.278383 
L 198.9656 81.06314 
L 198.731573 81.437628 
L 198.385354 81.97529 
L 197.959963 82.69687 
L 197.842945 82.88744 
L 197.309876 83.79959 
L 197.188353 84.015912 
L 196.775695 84.71174 
L 196.416743 85.34402 
L 196.248085 85.62389 
L 195.708506 86.536041 
L 195.645133 86.643493 
L 195.140501 87.448191 
L 194.873523 87.890612 
L 194.57268 88.360341 
L 194.101913 89.139588 
L 194.016939 89.272491 
L 193.470554 90.184641 
L 193.330303 90.446109 
L 192.960099 91.096791 
L 192.558693 91.928183 
L 192.517127 92.008941 
L 192.114736 92.921091 
L 191.796833 93.833241 
L 191.787083 93.86829 
L 191.518356 94.745391 
L 191.304786 95.657542 
L 191.143159 96.569692 
L 191.022015 97.481842 
L 191.015473 97.551315 
L 190.924636 98.393992 
L 190.859576 99.306142 
L 190.82862 100.218292 
L 190.839015 101.130442 
L 190.903788 102.042592 
L 191.015473 102.797579 
L 191.038937 102.954742 
L 191.256098 103.866892 
L 191.581859 104.779043 
L 191.787083 105.21476 
L 192.024886 105.691193 
L 192.558693 106.5495 
L 192.594743 106.603343 
L 193.285933 107.515493 
L 193.330303 107.570374 
L 194.082485 108.427643 
L 194.101913 108.449779 
L 194.873523 109.271784 
L 194.941618 109.339793 
L 195.645133 110.093658 
L 195.800557 110.251943 
L 196.416743 110.964947 
L 196.595461 111.164093 
L 197.188353 111.954435 
L 197.283013 112.076243 
L 197.843231 112.988393 
L 197.959963 113.2449 
L 198.280912 113.900544 
L 198.617917 114.812694 
L 198.731573 115.247732 
L 198.881129 115.724844 
L 199.139467 116.636994 
L 199.503183 117.500042 
L 199.536234 117.549144 
z
M 205.190874 110.251943 
L 204.904452 110.104697 
L 204.132843 109.620978 
L 203.747446 109.339793 
L 203.361233 109.076234 
L 202.589623 108.48587 
L 202.51873 108.427643 
L 201.818013 107.888678 
L 201.365757 107.515493 
L 201.046403 107.265074 
L 200.274793 106.620634 
L 200.254741 106.603343 
L 199.503183 105.964748 
L 199.200185 105.691193 
L 198.731573 105.259532 
L 198.245287 104.779043 
L 197.959963 104.479567 
L 197.419745 103.866892 
L 197.188353 103.57496 
L 196.734166 102.954742 
L 196.416743 102.445597 
L 196.183318 102.042592 
L 195.751133 101.130442 
L 195.645133 100.852265 
L 195.415317 100.218292 
L 195.166121 99.306142 
L 194.996298 98.393992 
L 194.898859 97.481842 
L 194.873523 96.64804 
L 194.871079 96.569692 
L 194.873523 96.523228 
L 194.914195 95.657542 
L 195.03048 94.745391 
L 195.224169 93.833241 
L 195.499903 92.921091 
L 195.645133 92.549628 
L 195.841 92.008941 
L 196.244991 91.096791 
L 196.416743 90.761445 
L 196.692973 90.184641 
L 197.185424 89.272491 
L 197.188353 89.267366 
L 197.67524 88.360341 
L 197.959963 87.862133 
L 198.182761 87.448191 
L 198.696958 86.536041 
L 198.731573 86.475554 
L 199.193803 85.62389 
L 199.503183 85.081894 
L 199.70493 84.71174 
L 200.230496 83.79959 
L 200.274793 83.725686 
L 200.760646 82.88744 
L 201.046403 82.433479 
L 201.328081 81.97529 
L 201.818013 81.245134 
L 201.938606 81.06314 
L 202.589623 80.161742 
L 202.597388 80.15099 
L 203.303677 79.23884 
L 203.361233 79.169294 
L 204.074366 78.32669 
L 204.132843 78.261026 
L 204.904452 77.424941 
L 204.914404 77.41454 
L 205.676062 76.639292 
L 205.818895 76.502389 
L 206.447672 75.90076 
L 206.796654 75.590239 
L 207.219282 75.204726 
L 207.845539 74.678089 
L 207.990892 74.549401 
L 208.762502 73.908252 
L 208.947322 73.765939 
L 209.534112 73.275119 
L 210.08693 72.853789 
L 210.305722 72.669322 
L 211.077332 72.066085 
L 211.249575 71.941639 
L 211.848942 71.456227 
L 212.43087 71.029489 
L 212.620552 70.874817 
L 213.392162 70.299743 
L 213.664866 70.117339 
L 214.163772 69.754215 
L 214.935382 69.265037 
L 215.04382 69.205189 
L 215.706992 68.819336 
L 216.478602 68.450891 
L 216.892617 68.293039 
L 217.250212 68.152753 
L 218.021822 67.92623 
L 218.793432 67.77679 
L 219.565042 67.70219 
L 220.336652 67.702074 
L 221.108262 67.778117 
L 221.879872 67.934365 
L 222.651482 68.177772 
L 222.921163 68.293039 
L 223.423092 68.51558 
L 224.194702 68.964278 
L 224.5282 69.205189 
L 224.966312 69.545959 
L 225.569603 70.117339 
L 225.737922 70.293179 
L 226.343204 71.029489 
L 226.509532 71.258452 
L 226.952773 71.941639 
L 227.281142 72.530438 
L 227.448092 72.853789 
L 227.857436 73.765939 
L 228.052752 74.27844 
L 228.199986 74.678089 
L 228.490257 75.590239 
L 228.728697 76.502389 
L 228.824362 76.941931 
L 228.929182 77.41454 
L 229.09345 78.32669 
L 229.214861 79.23884 
L 229.293273 80.15099 
L 229.327887 81.06314 
L 229.317445 81.97529 
L 229.260217 82.88744 
L 229.15383 83.79959 
L 228.995008 84.71174 
L 228.824362 85.437065 
L 228.784963 85.62389 
L 228.542562 86.536041 
L 228.24078 87.448191 
L 228.052752 87.927557 
L 227.894499 88.360341 
L 227.507363 89.272491 
L 227.281142 89.741077 
L 227.076548 90.184641 
L 226.60575 91.096791 
L 226.509532 91.271244 
L 226.114272 92.008941 
L 225.737922 92.657521 
L 225.5879 92.921091 
L 225.045594 93.833241 
L 224.966312 93.964406 
L 224.500315 94.745391 
L 224.194702 95.242193 
L 223.940683 95.657542 
L 223.423092 96.48477 
L 223.369835 96.569692 
L 222.799281 97.481842 
L 222.651482 97.714391 
L 222.213908 98.393992 
L 221.879872 98.898519 
L 221.603008 99.306142 
L 221.108262 100.013877 
L 220.959687 100.218292 
L 220.336652 101.05413 
L 220.276723 101.130442 
L 219.565042 102.022622 
L 219.548058 102.042592 
L 218.793432 102.930122 
L 218.770899 102.954742 
L 218.021822 103.790857 
L 217.94799 103.866892 
L 217.250212 104.619166 
L 217.088747 104.779043 
L 216.478602 105.427455 
L 216.207392 105.691193 
L 215.706992 106.224747 
L 215.316951 106.603343 
L 214.935382 107.014572 
L 214.419938 107.515493 
L 214.163772 107.791317 
L 213.497441 108.427643 
L 213.392162 108.536778 
L 212.620552 109.233209 
L 212.47988 109.339793 
L 211.848942 109.843224 
L 211.202945 110.251943 
L 211.077332 110.332622 
L 210.305722 110.710361 
L 209.534112 110.963912 
L 208.762502 111.098879 
L 207.990892 111.119192 
L 207.219282 111.027474 
L 206.447672 110.825323 
L 205.676062 110.513516 
z
" style="fill:#fedecf;"/>
   </g>
   <g id="PathCollection_3">
    <path clip-path="url(#pb81aed39fe)" d="M 205.676062 110.513516 
L 206.447672 110.825323 
L 207.219282 111.027474 
L 207.990892 111.119192 
L 208.762502 111.098879 
L 209.534112 110.963912 
L 210.305722 110.710361 
L 211.077332 110.332622 
L 211.202945 110.251943 
L 211.848942 109.843224 
L 212.47988 109.339793 
L 212.620552 109.233209 
L 213.392162 108.536778 
L 213.497441 108.427643 
L 214.163772 107.791317 
L 214.419938 107.515493 
L 214.935382 107.014572 
L 215.316951 106.603343 
L 215.706992 106.224747 
L 216.207392 105.691193 
L 216.478602 105.427455 
L 217.088747 104.779043 
L 217.250212 104.619166 
L 217.94799 103.866892 
L 218.021822 103.790857 
L 218.770899 102.954742 
L 218.793432 102.930122 
L 219.548058 102.042592 
L 219.565042 102.022622 
L 220.276723 101.130442 
L 220.336652 101.05413 
L 220.959687 100.218292 
L 221.108262 100.013877 
L 221.603008 99.306142 
L 221.879872 98.898519 
L 222.213908 98.393992 
L 222.651482 97.714391 
L 222.799281 97.481842 
L 223.369835 96.569692 
L 223.423092 96.48477 
L 223.940683 95.657542 
L 224.194702 95.242193 
L 224.500315 94.745391 
L 224.966312 93.964406 
L 225.045594 93.833241 
L 225.5879 92.921091 
L 225.737922 92.657521 
L 226.114272 92.008941 
L 226.509532 91.271244 
L 226.60575 91.096791 
L 227.076548 90.184641 
L 227.281142 89.741077 
L 227.507363 89.272491 
L 227.894499 88.360341 
L 228.052752 87.927557 
L 228.24078 87.448191 
L 228.542562 86.536041 
L 228.784963 85.62389 
L 228.824362 85.437065 
L 228.995008 84.71174 
L 229.15383 83.79959 
L 229.260217 82.88744 
L 229.317445 81.97529 
L 229.327887 81.06314 
L 229.293273 80.15099 
L 229.214861 79.23884 
L 229.09345 78.32669 
L 228.929182 77.41454 
L 228.824362 76.941931 
L 228.728697 76.502389 
L 228.490257 75.590239 
L 228.199986 74.678089 
L 228.052752 74.27844 
L 227.857436 73.765939 
L 227.448092 72.853789 
L 227.281142 72.530438 
L 226.952773 71.941639 
L 226.509532 71.258452 
L 226.343204 71.029489 
L 225.737922 70.293179 
L 225.569603 70.117339 
L 224.966312 69.545959 
L 224.5282 69.205189 
L 224.194702 68.964278 
L 223.423092 68.51558 
L 222.921163 68.293039 
L 222.651482 68.177772 
L 221.879872 67.934365 
L 221.108262 67.778117 
L 220.336652 67.702074 
L 219.565042 67.70219 
L 218.793432 67.77679 
L 218.021822 67.92623 
L 217.250212 68.152753 
L 216.892617 68.293039 
L 216.478602 68.450891 
L 215.706992 68.819336 
L 215.04382 69.205189 
L 214.935382 69.265037 
L 214.163772 69.754215 
L 213.664866 70.117339 
L 213.392162 70.299743 
L 212.620552 70.874817 
L 212.43087 71.029489 
L 211.848942 71.456227 
L 211.249575 71.941639 
L 211.077332 72.066085 
L 210.305722 72.669322 
L 210.08693 72.853789 
L 209.534112 73.275119 
L 208.947322 73.765939 
L 208.762502 73.908252 
L 207.990892 74.549401 
L 207.845539 74.678089 
L 207.219282 75.204726 
L 206.796654 75.590239 
L 206.447672 75.90076 
L 205.818895 76.502389 
L 205.676062 76.639292 
L 204.914404 77.41454 
L 204.904452 77.424941 
L 204.132843 78.261026 
L 204.074366 78.32669 
L 203.361233 79.169294 
L 203.303677 79.23884 
L 202.597388 80.15099 
L 202.589623 80.161742 
L 201.938606 81.06314 
L 201.818013 81.245134 
L 201.328081 81.97529 
L 201.046403 82.433479 
L 200.760646 82.88744 
L 200.274793 83.725686 
L 200.230496 83.79959 
L 199.70493 84.71174 
L 199.503183 85.081894 
L 199.193803 85.62389 
L 198.731573 86.475554 
L 198.696958 86.536041 
L 198.182761 87.448191 
L 197.959963 87.862133 
L 197.67524 88.360341 
L 197.188353 89.267366 
L 197.185424 89.272491 
L 196.692973 90.184641 
L 196.416743 90.761445 
L 196.244991 91.096791 
L 195.841 92.008941 
L 195.645133 92.549628 
L 195.499903 92.921091 
L 195.224169 93.833241 
L 195.03048 94.745391 
L 194.914195 95.657542 
L 194.873523 96.523228 
L 194.871079 96.569692 
L 194.873523 96.64804 
L 194.898859 97.481842 
L 194.996298 98.393992 
L 195.166121 99.306142 
L 195.415317 100.218292 
L 195.645133 100.852265 
L 195.751133 101.130442 
L 196.183318 102.042592 
L 196.416743 102.445597 
L 196.734166 102.954742 
L 197.188353 103.57496 
L 197.419745 103.866892 
L 197.959963 104.479567 
L 198.245287 104.779043 
L 198.731573 105.259532 
L 199.200185 105.691193 
L 199.503183 105.964748 
L 200.254741 106.603343 
L 200.274793 106.620634 
L 201.046403 107.265074 
L 201.365757 107.515493 
L 201.818013 107.888678 
L 202.51873 108.427643 
L 202.589623 108.48587 
L 203.361233 109.076234 
L 203.747446 109.339793 
L 204.132843 109.620978 
L 204.904452 110.104697 
L 205.190874 110.251943 
z
M 205.523064 105.691193 
L 204.904452 105.436073 
L 204.132843 105.038017 
L 203.708712 104.779043 
L 203.361233 104.576343 
L 202.589623 104.054883 
L 202.341856 103.866892 
L 201.818013 103.471291 
L 201.215178 102.954742 
L 201.046403 102.805915 
L 200.274819 102.042592 
L 200.274793 102.042564 
L 199.503183 101.137505 
L 199.497698 101.130442 
L 198.8656 100.218292 
L 198.731573 99.986814 
L 198.364619 99.306142 
L 197.987693 98.393992 
L 197.959963 98.304326 
L 197.714539 97.481842 
L 197.547988 96.569692 
L 197.482466 95.657542 
L 197.513159 94.745391 
L 197.636289 93.833241 
L 197.848489 92.921091 
L 197.959963 92.578993 
L 198.13187 92.008941 
L 198.478417 91.096791 
L 198.731573 90.532984 
L 198.877832 90.184641 
L 199.308584 89.272491 
L 199.503183 88.893929 
L 199.761992 88.360341 
L 200.236551 87.448191 
L 200.274793 87.377349 
L 200.707392 86.536041 
L 201.046403 85.9135 
L 201.197732 85.62389 
L 201.698618 84.71174 
L 201.818013 84.5051 
L 202.213849 83.79959 
L 202.589623 83.180135 
L 202.763683 82.88744 
L 203.353776 81.97529 
L 203.361233 81.964471 
L 203.981269 81.06314 
L 204.132843 80.860699 
L 204.67082 80.15099 
L 204.904452 79.865393 
L 205.431821 79.23884 
L 205.676062 78.966095 
L 206.275537 78.32669 
L 206.447672 78.15072 
L 207.214901 77.41454 
L 207.219282 77.410413 
L 207.990892 76.718182 
L 208.253934 76.502389 
L 208.762502 76.079183 
L 209.413452 75.590239 
L 209.534112 75.495533 
L 210.305722 74.934501 
L 210.699074 74.678089 
L 211.077332 74.410872 
L 211.848942 73.920252 
L 212.118756 73.765939 
L 212.620552 73.444756 
L 213.392162 73.006443 
L 213.695292 72.853789 
L 214.163772 72.584264 
L 214.935382 72.196914 
L 215.529731 71.941639 
L 215.706992 71.854563 
L 216.478602 71.539107 
L 217.250212 71.290103 
L 218.021822 71.108928 
L 218.584949 71.029489 
L 218.793432 70.996649 
L 219.565042 70.962852 
L 220.336652 71.02232 
L 220.372098 71.029489 
L 221.108262 71.176454 
L 221.879872 71.443976 
L 222.651482 71.844613 
L 222.794434 71.941639 
L 223.423092 72.389194 
L 223.925554 72.853789 
L 224.194702 73.121368 
L 224.725434 73.765939 
L 224.966312 74.090109 
L 225.34252 74.678089 
L 225.737922 75.388151 
L 225.839242 75.590239 
L 226.246761 76.502389 
L 226.509532 77.212998 
L 226.580344 77.41454 
L 226.856449 78.32669 
L 227.0705 79.23884 
L 227.22565 80.15099 
L 227.281142 80.652568 
L 227.328125 81.06314 
L 227.376043 81.97529 
L 227.364397 82.88744 
L 227.292032 83.79959 
L 227.281142 83.873284 
L 227.168964 84.71174 
L 226.988098 85.62389 
L 226.74461 86.536041 
L 226.509532 87.232188 
L 226.440636 87.448191 
L 226.093527 88.360341 
L 225.737922 89.14504 
L 225.68189 89.272491 
L 225.234771 90.184641 
L 224.966312 90.67577 
L 224.738923 91.096791 
L 224.202446 92.008941 
L 224.194702 92.021697 
L 223.649658 92.921091 
L 223.423092 93.279028 
L 223.070277 93.833241 
L 222.651482 94.473681 
L 222.471479 94.745391 
L 221.879872 95.623844 
L 221.856691 95.657542 
L 221.231102 96.569692 
L 221.108262 96.746803 
L 220.581637 97.481842 
L 220.336652 97.818418 
L 219.898325 98.393992 
L 219.565042 98.824365 
L 219.16924 99.306142 
L 218.793432 99.757052 
L 218.379824 100.218292 
L 218.021822 100.614762 
L 217.514079 101.130442 
L 217.250212 101.400088 
L 216.556471 102.042592 
L 216.478602 102.116493 
L 215.706992 102.784535 
L 215.486232 102.954742 
L 214.935382 103.403231 
L 214.284767 103.866892 
L 214.163772 103.960121 
L 213.392162 104.485637 
L 212.885124 104.779043 
L 212.620552 104.949346 
L 211.848942 105.366186 
L 211.092944 105.691193 
L 211.077332 105.698812 
L 210.305722 105.985412 
L 209.534112 106.177544 
L 208.762502 106.276678 
L 207.990892 106.283702 
L 207.219282 106.199311 
L 206.447672 106.024271 
L 205.676062 105.759545 
z
" style="fill:#fcc2aa;"/>
   </g>
   <g id="PathCollection_4">
    <path clip-path="url(#pb81aed39fe)" d="M 205.676062 105.759545 
L 206.447672 106.024271 
L 207.219282 106.199311 
L 207.990892 106.283702 
L 208.762502 106.276678 
L 209.534112 106.177544 
L 210.305722 105.985412 
L 211.077332 105.698812 
L 211.092944 105.691193 
L 211.848942 105.366186 
L 212.620552 104.949346 
L 212.885124 104.779043 
L 213.392162 104.485637 
L 214.163772 103.960121 
L 214.284767 103.866892 
L 214.935382 103.403231 
L 215.486232 102.954742 
L 215.706992 102.784535 
L 216.478602 102.116493 
L 216.556471 102.042592 
L 217.250212 101.400088 
L 217.514079 101.130442 
L 218.021822 100.614762 
L 218.379824 100.218292 
L 218.793432 99.757052 
L 219.16924 99.306142 
L 219.565042 98.824365 
L 219.898325 98.393992 
L 220.336652 97.818418 
L 220.581637 97.481842 
L 221.108262 96.746803 
L 221.231102 96.569692 
L 221.856691 95.657542 
L 221.879872 95.623844 
L 222.471479 94.745391 
L 222.651482 94.473681 
L 223.070277 93.833241 
L 223.423092 93.279028 
L 223.649658 92.921091 
L 224.194702 92.021697 
L 224.202446 92.008941 
L 224.738923 91.096791 
L 224.966312 90.67577 
L 225.234771 90.184641 
L 225.68189 89.272491 
L 225.737922 89.14504 
L 226.093527 88.360341 
L 226.440636 87.448191 
L 226.509532 87.232188 
L 226.74461 86.536041 
L 226.988098 85.62389 
L 227.168964 84.71174 
L 227.281142 83.873284 
L 227.292032 83.79959 
L 227.364397 82.88744 
L 227.376043 81.97529 
L 227.328125 81.06314 
L 227.281142 80.652568 
L 227.22565 80.15099 
L 227.0705 79.23884 
L 226.856449 78.32669 
L 226.580344 77.41454 
L 226.509532 77.212998 
L 226.246761 76.502389 
L 225.839242 75.590239 
L 225.737922 75.388151 
L 225.34252 74.678089 
L 224.966312 74.090109 
L 224.725434 73.765939 
L 224.194702 73.121368 
L 223.925554 72.853789 
L 223.423092 72.389194 
L 222.794434 71.941639 
L 222.651482 71.844613 
L 221.879872 71.443976 
L 221.108262 71.176454 
L 220.372098 71.029489 
L 220.336652 71.02232 
L 219.565042 70.962852 
L 218.793432 70.996649 
L 218.584949 71.029489 
L 218.021822 71.108928 
L 217.250212 71.290103 
L 216.478602 71.539107 
L 215.706992 71.854563 
L 215.529731 71.941639 
L 214.935382 72.196914 
L 214.163772 72.584264 
L 213.695292 72.853789 
L 213.392162 73.006443 
L 212.620552 73.444756 
L 212.118756 73.765939 
L 211.848942 73.920252 
L 211.077332 74.410872 
L 210.699074 74.678089 
L 210.305722 74.934501 
L 209.534112 75.495533 
L 209.413452 75.590239 
L 208.762502 76.079183 
L 208.253934 76.502389 
L 207.990892 76.718182 
L 207.219282 77.410413 
L 207.214901 77.41454 
L 206.447672 78.15072 
L 206.275537 78.32669 
L 205.676062 78.966095 
L 205.431821 79.23884 
L 204.904452 79.865393 
L 204.67082 80.15099 
L 204.132843 80.860699 
L 203.981269 81.06314 
L 203.361233 81.964471 
L 203.353776 81.97529 
L 202.763683 82.88744 
L 202.589623 83.180135 
L 202.213849 83.79959 
L 201.818013 84.5051 
L 201.698618 84.71174 
L 201.197732 85.62389 
L 201.046403 85.9135 
L 200.707392 86.536041 
L 200.274793 87.377349 
L 200.236551 87.448191 
L 199.761992 88.360341 
L 199.503183 88.893929 
L 199.308584 89.272491 
L 198.877832 90.184641 
L 198.731573 90.532984 
L 198.478417 91.096791 
L 198.13187 92.008941 
L 197.959963 92.578993 
L 197.848489 92.921091 
L 197.636289 93.833241 
L 197.513159 94.745391 
L 197.482466 95.657542 
L 197.547988 96.569692 
L 197.714539 97.481842 
L 197.959963 98.304326 
L 197.987693 98.393992 
L 198.364619 99.306142 
L 198.731573 99.986814 
L 198.8656 100.218292 
L 199.497698 101.130442 
L 199.503183 101.137505 
L 200.274793 102.042564 
L 200.274819 102.042592 
L 201.046403 102.805915 
L 201.215178 102.954742 
L 201.818013 103.471291 
L 202.341856 103.866892 
L 202.589623 104.054883 
L 203.361233 104.576343 
L 203.708712 104.779043 
L 204.132843 105.038017 
L 204.904452 105.436073 
L 205.523064 105.691193 
z
M 206.241099 102.954742 
L 205.676062 102.762686 
L 204.904452 102.416636 
L 204.242349 102.042592 
L 204.132843 101.980908 
L 203.361233 101.466783 
L 202.934546 101.130442 
L 202.589623 100.845239 
L 201.935876 100.218292 
L 201.818013 100.093827 
L 201.158496 99.306142 
L 201.046403 99.148897 
L 200.558698 98.393992 
L 200.274793 97.827577 
L 200.113648 97.481842 
L 199.806683 96.569692 
L 199.628749 95.657542 
L 199.567939 94.745391 
L 199.613059 93.833241 
L 199.753352 92.921091 
L 199.978553 92.008941 
L 200.274793 91.110324 
L 200.278969 91.096791 
L 200.62295 90.184641 
L 201.018485 89.272491 
L 201.046403 89.213884 
L 201.432861 88.360341 
L 201.818013 87.576579 
L 201.878449 87.448191 
L 202.332701 86.536041 
L 202.589623 86.050859 
L 202.808571 85.62389 
L 203.307531 84.71174 
L 203.361233 84.618829 
L 203.825492 83.79959 
L 204.132843 83.29994 
L 204.384255 82.88744 
L 204.904452 82.105988 
L 204.991765 81.97529 
L 205.657146 81.06314 
L 205.676062 81.039084 
L 206.394145 80.15099 
L 206.447672 80.089557 
L 207.219282 79.243821 
L 207.224067 79.23884 
L 207.990892 78.484137 
L 208.163817 78.32669 
L 208.762502 77.79902 
L 209.243394 77.41454 
L 209.534112 77.183075 
L 210.305722 76.626928 
L 210.497249 76.502389 
L 211.077332 76.112229 
L 211.848942 75.657626 
L 211.977526 75.590239 
L 212.620552 75.227205 
L 213.392162 74.850963 
L 213.804609 74.678089 
L 214.163772 74.509591 
L 214.935382 74.203138 
L 215.706992 73.952131 
L 216.437645 73.765939 
L 216.478602 73.753841 
L 217.250212 73.593569 
L 218.021822 73.502403 
L 218.793432 73.487374 
L 219.565042 73.559251 
L 220.336652 73.733202 
L 220.427682 73.765939 
L 221.108262 74.008013 
L 221.879872 74.424499 
L 222.22641 74.678089 
L 222.651482 75.003528 
L 223.238623 75.590239 
L 223.423092 75.791343 
L 223.959593 76.502389 
L 224.194702 76.859743 
L 224.512668 77.41454 
L 224.943951 78.32669 
L 224.966312 78.383135 
L 225.282497 79.23884 
L 225.534794 80.15099 
L 225.708056 81.06314 
L 225.737922 81.325903 
L 225.812542 81.97529 
L 225.845753 82.88744 
L 225.807402 83.79959 
L 225.737922 84.375382 
L 225.700289 84.71174 
L 225.530742 85.62389 
L 225.292077 86.536041 
L 224.981166 87.448191 
L 224.966312 87.484776 
L 224.619686 88.360341 
L 224.194702 89.258162 
L 224.187974 89.272491 
L 223.713382 90.184641 
L 223.423092 90.687737 
L 223.185352 91.096791 
L 222.651482 91.951599 
L 222.61508 92.008941 
L 222.017464 92.921091 
L 221.879872 93.125438 
L 221.392424 93.833241 
L 221.108262 94.238877 
L 220.742518 94.745391 
L 220.336652 95.302237 
L 220.067212 95.657542 
L 219.565042 96.315197 
L 219.360524 96.569692 
L 218.793432 97.270166 
L 218.610602 97.481842 
L 218.021822 98.158089 
L 217.79932 98.393992 
L 217.250212 98.972648 
L 216.901782 99.306142 
L 216.478602 99.711251 
L 215.885843 100.218292 
L 215.706992 100.373038 
L 214.935382 100.968271 
L 214.694943 101.130442 
L 214.163772 101.501216 
L 213.392162 101.960722 
L 213.229915 102.042592 
L 212.620552 102.369573 
L 211.848942 102.706714 
L 211.120014 102.954742 
L 211.077332 102.970627 
L 210.305722 103.180243 
L 209.534112 103.31064 
L 208.762502 103.361921 
L 207.990892 103.333191 
L 207.219282 103.222747 
L 206.447672 103.02816 
z
" style="fill:#fca588;"/>
   </g>
   <g id="PathCollection_5">
    <path clip-path="url(#pb81aed39fe)" d="M 206.447672 103.02816 
L 207.219282 103.222747 
L 207.990892 103.333191 
L 208.762502 103.361921 
L 209.534112 103.31064 
L 210.305722 103.180243 
L 211.077332 102.970627 
L 211.120014 102.954742 
L 211.848942 102.706714 
L 212.620552 102.369573 
L 213.229915 102.042592 
L 213.392162 101.960722 
L 214.163772 101.501216 
L 214.694943 101.130442 
L 214.935382 100.968271 
L 215.706992 100.373038 
L 215.885843 100.218292 
L 216.478602 99.711251 
L 216.901782 99.306142 
L 217.250212 98.972648 
L 217.79932 98.393992 
L 218.021822 98.158089 
L 218.610602 97.481842 
L 218.793432 97.270166 
L 219.360524 96.569692 
L 219.565042 96.315197 
L 220.067212 95.657542 
L 220.336652 95.302237 
L 220.742518 94.745391 
L 221.108262 94.238877 
L 221.392424 93.833241 
L 221.879872 93.125438 
L 222.017464 92.921091 
L 222.61508 92.008941 
L 222.651482 91.951599 
L 223.185352 91.096791 
L 223.423092 90.687737 
L 223.713382 90.184641 
L 224.187974 89.272491 
L 224.194702 89.258162 
L 224.619686 88.360341 
L 224.966312 87.484776 
L 224.981166 87.448191 
L 225.292077 86.536041 
L 225.530742 85.62389 
L 225.700289 84.71174 
L 225.737922 84.375382 
L 225.807402 83.79959 
L 225.845753 82.88744 
L 225.812542 81.97529 
L 225.737922 81.325903 
L 225.708056 81.06314 
L 225.534794 80.15099 
L 225.282497 79.23884 
L 224.966312 78.383135 
L 224.943951 78.32669 
L 224.512668 77.41454 
L 224.194702 76.859743 
L 223.959593 76.502389 
L 223.423092 75.791343 
L 223.238623 75.590239 
L 222.651482 75.003528 
L 222.22641 74.678089 
L 221.879872 74.424499 
L 221.108262 74.008013 
L 220.427682 73.765939 
L 220.336652 73.733202 
L 219.565042 73.559251 
L 218.793432 73.487374 
L 218.021822 73.502403 
L 217.250212 73.593569 
L 216.478602 73.753841 
L 216.437645 73.765939 
L 215.706992 73.952131 
L 214.935382 74.203138 
L 214.163772 74.509591 
L 213.804609 74.678089 
L 213.392162 74.850963 
L 212.620552 75.227205 
L 211.977526 75.590239 
L 211.848942 75.657626 
L 211.077332 76.112229 
L 210.497249 76.502389 
L 210.305722 76.626928 
L 209.534112 77.183075 
L 209.243394 77.41454 
L 208.762502 77.79902 
L 208.163817 78.32669 
L 207.990892 78.484137 
L 207.224067 79.23884 
L 207.219282 79.243821 
L 206.447672 80.089557 
L 206.394145 80.15099 
L 205.676062 81.039084 
L 205.657146 81.06314 
L 204.991765 81.97529 
L 204.904452 82.105988 
L 204.384255 82.88744 
L 204.132843 83.29994 
L 203.825492 83.79959 
L 203.361233 84.618829 
L 203.307531 84.71174 
L 202.808571 85.62389 
L 202.589623 86.050859 
L 202.332701 86.536041 
L 201.878449 87.448191 
L 201.818013 87.576579 
L 201.432861 88.360341 
L 201.046403 89.213884 
L 201.018485 89.272491 
L 200.62295 90.184641 
L 200.278969 91.096791 
L 200.274793 91.110324 
L 199.978553 92.008941 
L 199.753352 92.921091 
L 199.613059 93.833241 
L 199.567939 94.745391 
L 199.628749 95.657542 
L 199.806683 96.569692 
L 200.113648 97.481842 
L 200.274793 97.827577 
L 200.558698 98.393992 
L 201.046403 99.148897 
L 201.158496 99.306142 
L 201.818013 100.093827 
L 201.935876 100.218292 
L 202.589623 100.845239 
L 202.934546 101.130442 
L 203.361233 101.466783 
L 204.132843 101.980908 
L 204.242349 102.042592 
L 204.904452 102.416636 
L 205.676062 102.762686 
L 206.241099 102.954742 
z
M 208.409816 101.130442 
L 207.990892 101.095325 
L 207.219282 100.949178 
L 206.447672 100.715536 
L 205.676062 100.387249 
L 205.364315 100.218292 
L 204.904452 99.959749 
L 204.132843 99.416361 
L 203.999971 99.306142 
L 203.361233 98.719059 
L 203.059867 98.393992 
L 202.589623 97.790618 
L 202.37753 97.481842 
L 201.896088 96.569692 
L 201.818013 96.356497 
L 201.581925 95.657542 
L 201.413117 94.745391 
L 201.371886 93.833241 
L 201.441535 92.921091 
L 201.606435 92.008941 
L 201.818013 91.227383 
L 201.851428 91.096791 
L 202.153703 90.184641 
L 202.508945 89.272491 
L 202.589623 89.088746 
L 202.896645 88.360341 
L 203.317527 87.448191 
L 203.361233 87.359831 
L 203.756631 86.536041 
L 204.132843 85.806633 
L 204.225046 85.62389 
L 204.716719 84.71174 
L 204.904452 84.38853 
L 205.243592 83.79959 
L 205.676062 83.111718 
L 205.817598 82.88744 
L 206.447672 81.978466 
L 206.449916 81.97529 
L 207.154703 81.06314 
L 207.219282 80.986479 
L 207.957349 80.15099 
L 207.990892 80.115724 
L 208.762502 79.351035 
L 208.885077 79.23884 
L 209.534112 78.6748 
L 209.979247 78.32669 
L 210.305722 78.0775 
L 211.077332 77.551745 
L 211.304819 77.41454 
L 211.848942 77.081788 
L 212.620552 76.674722 
L 213.003066 76.502389 
L 213.392162 76.316839 
L 214.163772 76.008452 
L 214.935382 75.759567 
L 215.618464 75.590239 
L 215.706992 75.565771 
L 216.478602 75.41864 
L 217.250212 75.338904 
L 218.021822 75.332633 
L 218.793432 75.409872 
L 219.565042 75.585591 
L 219.578184 75.590239 
L 220.336652 75.860358 
L 221.108262 76.277433 
L 221.417691 76.502389 
L 221.879872 76.864063 
L 222.421617 77.41454 
L 222.651482 77.6805 
L 223.115032 78.32669 
L 223.423092 78.85022 
L 223.62458 79.23884 
L 223.998 80.15099 
L 224.194702 80.822997 
L 224.261262 81.06314 
L 224.429768 81.97529 
L 224.508461 82.88744 
L 224.50268 83.79959 
L 224.415443 84.71174 
L 224.24782 85.62389 
L 224.194702 85.821592 
L 224.008085 86.536041 
L 223.693952 87.448191 
L 223.423092 88.085763 
L 223.306565 88.360341 
L 222.856155 89.272491 
L 222.651482 89.64088 
L 222.344446 90.184641 
L 221.879872 90.936719 
L 221.778386 91.096791 
L 221.168626 92.008941 
L 221.108262 92.096515 
L 220.521357 92.921091 
L 220.336652 93.175272 
L 219.839346 93.833241 
L 219.565042 94.192704 
L 219.122503 94.745391 
L 218.793432 95.154452 
L 218.363997 95.657542 
L 218.021822 96.056834 
L 217.548962 96.569692 
L 217.250212 96.892249 
L 216.652998 97.481842 
L 216.478602 97.653382 
L 215.706992 98.33741 
L 215.635491 98.393992 
L 214.935382 98.950282 
L 214.416787 99.306142 
L 214.163772 99.482295 
L 213.392162 99.943112 
L 212.835301 100.218292 
L 212.620552 100.328188 
L 211.848942 100.647321 
L 211.077332 100.888591 
L 210.305722 101.054239 
L 209.655384 101.130442 
L 209.534112 101.145701 
L 208.762502 101.161027 
z
" style="fill:#fc8767;"/>
   </g>
   <g id="PathCollection_6">
    <path clip-path="url(#pb81aed39fe)" d="M 208.762502 101.161027 
L 209.534112 101.145701 
L 209.655384 101.130442 
L 210.305722 101.054239 
L 211.077332 100.888591 
L 211.848942 100.647321 
L 212.620552 100.328188 
L 212.835301 100.218292 
L 213.392162 99.943112 
L 214.163772 99.482295 
L 214.416787 99.306142 
L 214.935382 98.950282 
L 215.635491 98.393992 
L 215.706992 98.33741 
L 216.478602 97.653382 
L 216.652998 97.481842 
L 217.250212 96.892249 
L 217.548962 96.569692 
L 218.021822 96.056834 
L 218.363997 95.657542 
L 218.793432 95.154452 
L 219.122503 94.745391 
L 219.565042 94.192704 
L 219.839346 93.833241 
L 220.336652 93.175272 
L 220.521357 92.921091 
L 221.108262 92.096515 
L 221.168626 92.008941 
L 221.778386 91.096791 
L 221.879872 90.936719 
L 222.344446 90.184641 
L 222.651482 89.64088 
L 222.856155 89.272491 
L 223.306565 88.360341 
L 223.423092 88.085763 
L 223.693952 87.448191 
L 224.008085 86.536041 
L 224.194702 85.821592 
L 224.24782 85.62389 
L 224.415443 84.71174 
L 224.50268 83.79959 
L 224.508461 82.88744 
L 224.429768 81.97529 
L 224.261262 81.06314 
L 224.194702 80.822997 
L 223.998 80.15099 
L 223.62458 79.23884 
L 223.423092 78.85022 
L 223.115032 78.32669 
L 222.651482 77.6805 
L 222.421617 77.41454 
L 221.879872 76.864063 
L 221.417691 76.502389 
L 221.108262 76.277433 
L 220.336652 75.860358 
L 219.578184 75.590239 
L 219.565042 75.585591 
L 218.793432 75.409872 
L 218.021822 75.332633 
L 217.250212 75.338904 
L 216.478602 75.41864 
L 215.706992 75.565771 
L 215.618464 75.590239 
L 214.935382 75.759567 
L 214.163772 76.008452 
L 213.392162 76.316839 
L 213.003066 76.502389 
L 212.620552 76.674722 
L 211.848942 77.081788 
L 211.304819 77.41454 
L 211.077332 77.551745 
L 210.305722 78.0775 
L 209.979247 78.32669 
L 209.534112 78.6748 
L 208.885077 79.23884 
L 208.762502 79.351035 
L 207.990892 80.115724 
L 207.957349 80.15099 
L 207.219282 80.986479 
L 207.154703 81.06314 
L 206.449916 81.97529 
L 206.447672 81.978466 
L 205.817598 82.88744 
L 205.676062 83.111718 
L 205.243592 83.79959 
L 204.904452 84.38853 
L 204.716719 84.71174 
L 204.225046 85.62389 
L 204.132843 85.806633 
L 203.756631 86.536041 
L 203.361233 87.359831 
L 203.317527 87.448191 
L 202.896645 88.360341 
L 202.589623 89.088746 
L 202.508945 89.272491 
L 202.153703 90.184641 
L 201.851428 91.096791 
L 201.818013 91.227383 
L 201.606435 92.008941 
L 201.441535 92.921091 
L 201.371886 93.833241 
L 201.413117 94.745391 
L 201.581925 95.657542 
L 201.818013 96.356497 
L 201.896088 96.569692 
L 202.37753 97.481842 
L 202.589623 97.790618 
L 203.059867 98.393992 
L 203.361233 98.719059 
L 203.999971 99.306142 
L 204.132843 99.416361 
L 204.904452 99.959749 
L 205.364315 100.218292 
L 205.676062 100.387249 
L 206.447672 100.715536 
L 207.219282 100.949178 
L 207.990892 101.095325 
L 208.409816 101.130442 
z
M 206.050031 98.393992 
L 205.676062 98.168415 
L 204.904452 97.566172 
L 204.814932 97.481842 
L 204.132843 96.70543 
L 204.032199 96.569692 
L 203.519663 95.657542 
L 203.361233 95.222263 
L 203.206234 94.745391 
L 203.056166 93.833241 
L 203.039843 92.921091 
L 203.134883 92.008941 
L 203.321529 91.096791 
L 203.361233 90.961568 
L 203.580436 90.184641 
L 203.895996 89.272491 
L 204.132843 88.680212 
L 204.257113 88.360341 
L 204.652209 87.448191 
L 204.904452 86.91407 
L 205.079613 86.536041 
L 205.536871 85.62389 
L 205.676062 85.367094 
L 206.028825 84.71174 
L 206.447672 83.999248 
L 206.565636 83.79959 
L 207.158107 82.88744 
L 207.219282 82.801576 
L 207.825131 81.97529 
L 207.990892 81.77031 
L 208.591685 81.06314 
L 208.762502 80.879341 
L 209.490489 80.15099 
L 209.534112 80.110426 
L 210.305722 79.449611 
L 210.581159 79.23884 
L 211.077332 78.876321 
L 211.848942 78.385072 
L 211.954566 78.32669 
L 212.620552 77.961776 
L 213.392162 77.609087 
L 213.91607 77.41454 
L 214.163772 77.3192 
L 214.935382 77.08868 
L 215.706992 76.925472 
L 216.478602 76.831212 
L 217.250212 76.810667 
L 218.021822 76.872381 
L 218.793432 77.029636 
L 219.565042 77.301862 
L 219.788691 77.41454 
L 220.336652 77.71145 
L 221.108262 78.300859 
L 221.135366 78.32669 
L 221.879872 79.154912 
L 221.94176 79.23884 
L 222.491844 80.15099 
L 222.651482 80.509177 
L 222.872731 81.06314 
L 223.118859 81.97529 
L 223.250787 82.88744 
L 223.279714 83.79959 
L 223.213071 84.71174 
L 223.055558 85.62389 
L 222.80999 86.536041 
L 222.651482 86.976302 
L 222.480449 87.448191 
L 222.072236 88.360341 
L 221.879872 88.729025 
L 221.588892 89.272491 
L 221.108262 90.072472 
L 221.038361 90.184641 
L 220.428526 91.096791 
L 220.336652 91.227905 
L 219.765807 92.008941 
L 219.565042 92.276126 
L 219.056157 92.921091 
L 218.793432 93.249872 
L 218.299955 93.833241 
L 218.021822 94.160384 
L 217.489576 94.745391 
L 217.250212 95.007743 
L 216.606677 95.657542 
L 216.478602 95.786456 
L 215.706992 96.491708 
L 215.611661 96.569692 
L 214.935382 97.1214 
L 214.42687 97.481842 
L 214.163772 97.668641 
L 213.392162 98.136277 
L 212.876087 98.393992 
L 212.620552 98.523346 
L 211.848942 98.832788 
L 211.077332 99.060049 
L 210.305722 99.206089 
L 209.534112 99.269904 
L 208.762502 99.248557 
L 207.990892 99.137105 
L 207.219282 98.928353 
L 206.447672 98.612441 
z
" style="fill:#fb694a;"/>
   </g>
   <g id="PathCollection_7">
    <path clip-path="url(#pb81aed39fe)" d="M 206.447672 98.612441 
L 207.219282 98.928353 
L 207.990892 99.137105 
L 208.762502 99.248557 
L 209.534112 99.269904 
L 210.305722 99.206089 
L 211.077332 99.060049 
L 211.848942 98.832788 
L 212.620552 98.523346 
L 212.876087 98.393992 
L 213.392162 98.136277 
L 214.163772 97.668641 
L 214.42687 97.481842 
L 214.935382 97.1214 
L 215.611661 96.569692 
L 215.706992 96.491708 
L 216.478602 95.786456 
L 216.606677 95.657542 
L 217.250212 95.007743 
L 217.489576 94.745391 
L 218.021822 94.160384 
L 218.299955 93.833241 
L 218.793432 93.249872 
L 219.056157 92.921091 
L 219.565042 92.276126 
L 219.765807 92.008941 
L 220.336652 91.227905 
L 220.428526 91.096791 
L 221.038361 90.184641 
L 221.108262 90.072472 
L 221.588892 89.272491 
L 221.879872 88.729025 
L 222.072236 88.360341 
L 222.480449 87.448191 
L 222.651482 86.976302 
L 222.80999 86.536041 
L 223.055558 85.62389 
L 223.213071 84.71174 
L 223.279714 83.79959 
L 223.250787 82.88744 
L 223.118859 81.97529 
L 222.872731 81.06314 
L 222.651482 80.509177 
L 222.491844 80.15099 
L 221.94176 79.23884 
L 221.879872 79.154912 
L 221.135366 78.32669 
L 221.108262 78.300859 
L 220.336652 77.71145 
L 219.788691 77.41454 
L 219.565042 77.301862 
L 218.793432 77.029636 
L 218.021822 76.872381 
L 217.250212 76.810667 
L 216.478602 76.831212 
L 215.706992 76.925472 
L 214.935382 77.08868 
L 214.163772 77.3192 
L 213.91607 77.41454 
L 213.392162 77.609087 
L 212.620552 77.961776 
L 211.954566 78.32669 
L 211.848942 78.385072 
L 211.077332 78.876321 
L 210.581159 79.23884 
L 210.305722 79.449611 
L 209.534112 80.110426 
L 209.490489 80.15099 
L 208.762502 80.879341 
L 208.591685 81.06314 
L 207.990892 81.77031 
L 207.825131 81.97529 
L 207.219282 82.801576 
L 207.158107 82.88744 
L 206.565636 83.79959 
L 206.447672 83.999248 
L 206.028825 84.71174 
L 205.676062 85.367094 
L 205.536871 85.62389 
L 205.079613 86.536041 
L 204.904452 86.91407 
L 204.652209 87.448191 
L 204.257113 88.360341 
L 204.132843 88.680212 
L 203.895996 89.272491 
L 203.580436 90.184641 
L 203.361233 90.961568 
L 203.321529 91.096791 
L 203.134883 92.008941 
L 203.039843 92.921091 
L 203.056166 93.833241 
L 203.206234 94.745391 
L 203.361233 95.222263 
L 203.519663 95.657542 
L 204.032199 96.569692 
L 204.132843 96.70543 
L 204.814932 97.481842 
L 204.904452 97.566172 
L 205.676062 98.168415 
L 206.050031 98.393992 
z
M 206.690296 96.569692 
L 206.447672 96.395376 
L 205.685922 95.657542 
L 205.676062 95.644776 
L 205.118859 94.745391 
L 204.904452 94.175922 
L 204.794508 93.833241 
L 204.658833 92.921091 
L 204.663158 92.008941 
L 204.778589 91.096791 
L 204.904452 90.540563 
L 204.983115 90.184641 
L 205.257475 89.272491 
L 205.583443 88.360341 
L 205.676062 88.135703 
L 205.955459 87.448191 
L 206.364251 86.536041 
L 206.447672 86.367306 
L 206.81379 85.62389 
L 207.219282 84.872473 
L 207.306695 84.71174 
L 207.85604 83.79959 
L 207.990892 83.597799 
L 208.480495 82.88744 
L 208.762502 82.520833 
L 209.204834 81.97529 
L 209.534112 81.610287 
L 210.067899 81.06314 
L 210.305722 80.841207 
L 211.077332 80.192875 
L 211.133523 80.15099 
L 211.848942 79.654227 
L 212.553057 79.23884 
L 212.620552 79.200543 
L 213.392162 78.833926 
L 214.163772 78.544041 
L 214.935382 78.329425 
L 214.950966 78.32669 
L 215.706992 78.191433 
L 216.478602 78.13479 
L 217.250212 78.166497 
L 218.021822 78.298062 
L 218.115995 78.32669 
L 218.793432 78.550075 
L 219.565042 78.948946 
L 219.967386 79.23884 
L 220.336652 79.553966 
L 220.874704 80.15099 
L 221.108262 80.487149 
L 221.442279 81.06314 
L 221.804793 81.97529 
L 221.879872 82.292934 
L 222.007812 82.88744 
L 222.08021 83.79959 
L 222.037298 84.71174 
L 221.887636 85.62389 
L 221.879872 85.652293 
L 221.634476 86.536041 
L 221.287692 87.448191 
L 221.108262 87.829049 
L 220.848541 88.360341 
L 220.336652 89.258462 
L 220.328256 89.272491 
L 219.726787 90.184641 
L 219.565042 90.41376 
L 219.056311 91.096791 
L 218.793432 91.436287 
L 218.322764 92.008941 
L 218.021822 92.36818 
L 217.526562 92.921091 
L 217.250212 93.22711 
L 216.658808 93.833241 
L 216.478602 94.017172 
L 215.706992 94.735509 
L 215.695192 94.745391 
L 214.935382 95.378 
L 214.552415 95.657542 
L 214.163772 95.939504 
L 213.392162 96.416116 
L 213.089923 96.569692 
L 212.620552 96.807337 
L 211.848942 97.110168 
L 211.077332 97.324771 
L 210.305722 97.448728 
L 209.534112 97.476969 
L 208.762502 97.401446 
L 207.990892 97.210574 
L 207.219282 96.888363 
z
" style="fill:#f24734;"/>
   </g>
   <g id="PathCollection_8">
    <path clip-path="url(#pb81aed39fe)" d="M 207.219282 96.888363 
L 207.990892 97.210574 
L 208.762502 97.401446 
L 209.534112 97.476969 
L 210.305722 97.448728 
L 211.077332 97.324771 
L 211.848942 97.110168 
L 212.620552 96.807337 
L 213.089923 96.569692 
L 213.392162 96.416116 
L 214.163772 95.939504 
L 214.552415 95.657542 
L 214.935382 95.378 
L 215.695192 94.745391 
L 215.706992 94.735509 
L 216.478602 94.017172 
L 216.658808 93.833241 
L 217.250212 93.22711 
L 217.526562 92.921091 
L 218.021822 92.36818 
L 218.322764 92.008941 
L 218.793432 91.436287 
L 219.056311 91.096791 
L 219.565042 90.41376 
L 219.726787 90.184641 
L 220.328256 89.272491 
L 220.336652 89.258462 
L 220.848541 88.360341 
L 221.108262 87.829049 
L 221.287692 87.448191 
L 221.634476 86.536041 
L 221.879872 85.652293 
L 221.887636 85.62389 
L 222.037298 84.71174 
L 222.08021 83.79959 
L 222.007812 82.88744 
L 221.879872 82.292934 
L 221.804793 81.97529 
L 221.442279 81.06314 
L 221.108262 80.487149 
L 220.874704 80.15099 
L 220.336652 79.553966 
L 219.967386 79.23884 
L 219.565042 78.948946 
L 218.793432 78.550075 
L 218.115995 78.32669 
L 218.021822 78.298062 
L 217.250212 78.166497 
L 216.478602 78.13479 
L 215.706992 78.191433 
L 214.950966 78.32669 
L 214.935382 78.329425 
L 214.163772 78.544041 
L 213.392162 78.833926 
L 212.620552 79.200543 
L 212.553057 79.23884 
L 211.848942 79.654227 
L 211.133523 80.15099 
L 211.077332 80.192875 
L 210.305722 80.841207 
L 210.067899 81.06314 
L 209.534112 81.610287 
L 209.204834 81.97529 
L 208.762502 82.520833 
L 208.480495 82.88744 
L 207.990892 83.597799 
L 207.85604 83.79959 
L 207.306695 84.71174 
L 207.219282 84.872473 
L 206.81379 85.62389 
L 206.447672 86.367306 
L 206.364251 86.536041 
L 205.955459 87.448191 
L 205.676062 88.135703 
L 205.583443 88.360341 
L 205.257475 89.272491 
L 204.983115 90.184641 
L 204.904452 90.540563 
L 204.778589 91.096791 
L 204.663158 92.008941 
L 204.658833 92.921091 
L 204.794508 93.833241 
L 204.904452 94.175922 
L 205.118859 94.745391 
L 205.676062 95.644776 
L 205.685922 95.657542 
L 206.447672 96.395376 
L 206.690296 96.569692 
z
M 207.613363 94.745391 
L 207.219282 94.350804 
L 206.846136 93.833241 
L 206.458457 92.921091 
L 206.447672 92.864154 
L 206.315491 92.008941 
L 206.325042 91.096791 
L 206.447672 90.189039 
L 206.448265 90.184641 
L 206.667859 89.272491 
L 206.950462 88.360341 
L 207.219282 87.630014 
L 207.286241 87.448191 
L 207.676823 86.536041 
L 207.990892 85.878705 
L 208.11418 85.62389 
L 208.61216 84.71174 
L 208.762502 84.467405 
L 209.188069 83.79959 
L 209.534112 83.32008 
L 209.865105 82.88744 
L 210.305722 82.38008 
L 210.68926 81.97529 
L 211.077332 81.611287 
L 211.736676 81.06314 
L 211.848942 80.978535 
L 212.620552 80.479004 
L 213.23669 80.15099 
L 213.392162 80.073632 
L 214.163772 79.775705 
L 214.935382 79.566584 
L 215.706992 79.449964 
L 216.478602 79.433252 
L 217.250212 79.528442 
L 218.021822 79.753463 
L 218.793432 80.134168 
L 218.818105 80.15099 
L 219.565042 80.782059 
L 219.814197 81.06314 
L 220.336652 81.882754 
L 220.385105 81.97529 
L 220.695149 82.88744 
L 220.833444 83.79959 
L 220.823826 84.71174 
L 220.683821 85.62389 
L 220.427131 86.536041 
L 220.336652 86.764306 
L 220.051496 87.448191 
L 219.578509 88.360341 
L 219.565042 88.382754 
L 218.996881 89.272491 
L 218.793432 89.56223 
L 218.325686 90.184641 
L 218.021822 90.566927 
L 217.568616 91.096791 
L 217.250212 91.45816 
L 216.724627 92.008941 
L 216.478602 92.263076 
L 215.781761 92.921091 
L 215.706992 92.991128 
L 214.935382 93.638647 
L 214.672089 93.833241 
L 214.163772 94.204868 
L 213.392162 94.686951 
L 213.276563 94.745391 
L 212.620552 95.071556 
L 211.848942 95.361337 
L 211.077332 95.552063 
L 210.305722 95.633234 
L 209.534112 95.589063 
L 208.762502 95.396821 
L 207.990892 95.024248 
z
" style="fill:#de2b25;"/>
   </g>
   <g id="PathCollection_9">
    <path clip-path="url(#pb81aed39fe)" d="M 207.990892 95.024248 
L 208.762502 95.396821 
L 209.534112 95.589063 
L 210.305722 95.633234 
L 211.077332 95.552063 
L 211.848942 95.361337 
L 212.620552 95.071556 
L 213.276563 94.745391 
L 213.392162 94.686951 
L 214.163772 94.204868 
L 214.672089 93.833241 
L 214.935382 93.638647 
L 215.706992 92.991128 
L 215.781761 92.921091 
L 216.478602 92.263076 
L 216.724627 92.008941 
L 217.250212 91.45816 
L 217.568616 91.096791 
L 218.021822 90.566927 
L 218.325686 90.184641 
L 218.793432 89.56223 
L 218.996881 89.272491 
L 219.565042 88.382754 
L 219.578509 88.360341 
L 220.051496 87.448191 
L 220.336652 86.764306 
L 220.427131 86.536041 
L 220.683821 85.62389 
L 220.823826 84.71174 
L 220.833444 83.79959 
L 220.695149 82.88744 
L 220.385105 81.97529 
L 220.336652 81.882754 
L 219.814197 81.06314 
L 219.565042 80.782059 
L 218.818105 80.15099 
L 218.793432 80.134168 
L 218.021822 79.753463 
L 217.250212 79.528442 
L 216.478602 79.433252 
L 215.706992 79.449964 
L 214.935382 79.566584 
L 214.163772 79.775705 
L 213.392162 80.073632 
L 213.23669 80.15099 
L 212.620552 80.479004 
L 211.848942 80.978535 
L 211.736676 81.06314 
L 211.077332 81.611287 
L 210.68926 81.97529 
L 210.305722 82.38008 
L 209.865105 82.88744 
L 209.534112 83.32008 
L 209.188069 83.79959 
L 208.762502 84.467405 
L 208.61216 84.71174 
L 208.11418 85.62389 
L 207.990892 85.878705 
L 207.676823 86.536041 
L 207.286241 87.448191 
L 207.219282 87.630014 
L 206.950462 88.360341 
L 206.667859 89.272491 
L 206.448265 90.184641 
L 206.447672 90.189039 
L 206.325042 91.096791 
L 206.315491 92.008941 
L 206.447672 92.864154 
L 206.458457 92.921091 
L 206.846136 93.833241 
L 207.219282 94.350804 
L 207.613363 94.745391 
z
M 209.092286 92.921091 
L 208.762502 92.572982 
L 208.425748 92.008941 
L 208.17595 91.096791 
L 208.143585 90.184641 
L 208.254071 89.272491 
L 208.461073 88.360341 
L 208.738704 87.448191 
L 208.762502 87.387275 
L 209.102087 86.536041 
L 209.520816 85.62389 
L 209.534112 85.599565 
L 210.040467 84.71174 
L 210.305722 84.310088 
L 210.666735 83.79959 
L 211.077332 83.302117 
L 211.456373 82.88744 
L 211.848942 82.517596 
L 212.513681 81.97529 
L 212.620552 81.898815 
L 213.392162 81.449054 
L 214.163772 81.104905 
L 214.307618 81.06314 
L 214.935382 80.898902 
L 215.706992 80.812072 
L 216.478602 80.852149 
L 217.250212 81.037931 
L 217.308029 81.06314 
L 218.021822 81.462876 
L 218.603898 81.97529 
L 218.793432 82.223486 
L 219.172786 82.88744 
L 219.439896 83.79959 
L 219.491684 84.71174 
L 219.366329 85.62389 
L 219.094008 86.536041 
L 218.793432 87.22815 
L 218.689278 87.448191 
L 218.148622 88.360341 
L 218.021822 88.545692 
L 217.479001 89.272491 
L 217.250212 89.554222 
L 216.68837 90.184641 
L 216.478602 90.409212 
L 215.769695 91.096791 
L 215.706992 91.156102 
L 214.935382 91.801214 
L 214.650767 92.008941 
L 214.163772 92.357939 
L 213.392162 92.825252 
L 213.187963 92.921091 
L 212.620552 93.180503 
L 211.848942 93.421512 
L 211.077332 93.534364 
L 210.305722 93.485643 
L 209.534112 93.223142 
z
" style="fill:#c4161c;"/>
   </g>
   <g id="PathCollection_10">
    <path clip-path="url(#pb81aed39fe)" d="M 209.534112 93.223142 
L 210.305722 93.485643 
L 211.077332 93.534364 
L 211.848942 93.421512 
L 212.620552 93.180503 
L 213.187963 92.921091 
L 213.392162 92.825252 
L 214.163772 92.357939 
L 214.650767 92.008941 
L 214.935382 91.801214 
L 215.706992 91.156102 
L 215.769695 91.096791 
L 216.478602 90.409212 
L 216.68837 90.184641 
L 217.250212 89.554222 
L 217.479001 89.272491 
L 218.021822 88.545692 
L 218.148622 88.360341 
L 218.689278 87.448191 
L 218.793432 87.22815 
L 219.094008 86.536041 
L 219.366329 85.62389 
L 219.491684 84.71174 
L 219.439896 83.79959 
L 219.172786 82.88744 
L 218.793432 82.223486 
L 218.603898 81.97529 
L 218.021822 81.462876 
L 217.308029 81.06314 
L 217.250212 81.037931 
L 216.478602 80.852149 
L 215.706992 80.812072 
L 214.935382 80.898902 
L 214.307618 81.06314 
L 214.163772 81.104905 
L 213.392162 81.449054 
L 212.620552 81.898815 
L 212.513681 81.97529 
L 211.848942 82.517596 
L 211.456373 82.88744 
L 211.077332 83.302117 
L 210.666735 83.79959 
L 210.305722 84.310088 
L 210.040467 84.71174 
L 209.534112 85.599565 
L 209.520816 85.62389 
L 209.102087 86.536041 
L 208.762502 87.387275 
L 208.738704 87.448191 
L 208.461073 88.360341 
L 208.254071 89.272491 
L 208.143585 90.184641 
L 208.17595 91.096791 
L 208.425748 92.008941 
L 208.762502 92.572982 
L 209.092286 92.921091 
z
M 210.751992 90.184641 
L 210.404595 89.272491 
L 210.390437 88.360341 
L 210.557559 87.448191 
L 210.843055 86.536041 
L 211.077332 85.997478 
L 211.25389 85.62389 
L 211.807825 84.71174 
L 211.848942 84.657978 
L 212.596418 83.79959 
L 212.620552 83.776869 
L 213.392162 83.192058 
L 213.925442 82.88744 
L 214.163772 82.775434 
L 214.935382 82.570753 
L 215.706992 82.541867 
L 216.478602 82.727666 
L 216.765095 82.88744 
L 217.250212 83.33127 
L 217.558808 83.79959 
L 217.789253 84.71174 
L 217.724408 85.62389 
L 217.444197 86.536041 
L 217.250212 86.929444 
L 216.956797 87.448191 
L 216.478602 88.120229 
L 216.280308 88.360341 
L 215.706992 88.967938 
L 215.37055 89.272491 
L 214.935382 89.637509 
L 214.163772 90.184 
L 214.162517 90.184641 
L 213.392162 90.559174 
L 212.620552 90.79879 
L 211.848942 90.836767 
L 211.077332 90.53175 
z
" style="fill:#a81016;"/>
   </g>
   <g id="PathCollection_11">
    <path clip-path="url(#pb81aed39fe)" d="M 211.077332 90.53175 
L 211.848942 90.836767 
L 212.620552 90.79879 
L 213.392162 90.559174 
L 214.162517 90.184641 
L 214.163772 90.184 
L 214.935382 89.637509 
L 215.37055 89.272491 
L 215.706992 88.967938 
L 216.280308 88.360341 
L 216.478602 88.120229 
L 216.956797 87.448191 
L 217.250212 86.929444 
L 217.444197 86.536041 
L 217.724408 85.62389 
L 217.789253 84.71174 
L 217.558808 83.79959 
L 217.250212 83.33127 
L 216.765095 82.88744 
L 216.478602 82.727666 
L 215.706992 82.541867 
L 214.935382 82.570753 
L 214.163772 82.775434 
L 213.925442 82.88744 
L 213.392162 83.192058 
L 212.620552 83.776869 
L 212.596418 83.79959 
L 211.848942 84.657978 
L 211.807825 84.71174 
L 211.25389 85.62389 
L 211.077332 85.997478 
L 210.843055 86.536041 
L 210.557559 87.448191 
L 210.390437 88.360341 
L 210.404595 89.272491 
L 210.751992 90.184641 
z
" style="fill:#7c0510;"/>
   </g>
   <g id="matplotlib.axis_1">
    <g id="xtick_1">
     <g id="line2d_1">
      <defs>
       <path d="M 0 0 
L 0 3.5 
" id="m616b273f21" style="stroke:#262626;stroke-width:0.8;"/>
      </defs>
      <g>
       <use style="fill:#262626;stroke:#262626;stroke-width:0.8;" x="67.334837" xlink:href="#m616b273f21" y="223"/>
      </g>
     </g>
     <g id="line2d_2">
      <defs>
       <path d="M 0 0 
L 0 -3.5 
" id="mc920909e5c" style="stroke:#262626;stroke-width:0.8;"/>
      </defs>
      <g>
       <use style="fill:#262626;stroke:#262626;stroke-width:0.8;" x="67.334837" xlink:href="#mc920909e5c" y="25.44"/>
      </g>
     </g>
     <g id="text_1">
      <!-- 0.0 -->
      <defs>
       <path d="M 31.78125 66.40625 
Q 24.171875 66.40625 20.328125 58.90625 
Q 16.5 51.421875 16.5 36.375 
Q 16.5 21.390625 20.328125 13.890625 
Q 24.171875 6.390625 31.78125 6.390625 
Q 39.453125 6.390625 43.28125 13.890625 
Q 47.125 21.390625 47.125 36.375 
Q 47.125 51.421875 43.28125 58.90625 
Q 39.453125 66.40625 31.78125 66.40625 
z
M 31.78125 74.21875 
Q 44.046875 74.21875 50.515625 64.515625 
Q 56.984375 54.828125 56.984375 36.375 
Q 56.984375 17.96875 50.515625 8.265625 
Q 44.046875 -1.421875 31.78125 -1.421875 
Q 19.53125 -1.421875 13.0625 8.265625 
Q 6.59375 17.96875 6.59375 36.375 
Q 6.59375 54.828125 13.0625 64.515625 
Q 19.53125 74.21875 31.78125 74.21875 
z
" id="DejaVuSans-30"/>
       <path d="M 10.6875 12.40625 
L 21 12.40625 
L 21 0 
L 10.6875 0 
z
" id="DejaVuSans-2e"/>
      </defs>
      <g style="fill:#262626;" transform="translate(58.588118 238.358281)scale(0.11 -0.11)">
       <use xlink:href="#DejaVuSans-30"/>
       <use x="63.623047" xlink:href="#DejaVuSans-2e"/>
       <use x="95.410156" xlink:href="#DejaVuSans-30"/>
      </g>
     </g>
    </g>
    <g id="xtick_2">
     <g id="line2d_3">
      <g>
       <use style="fill:#262626;stroke:#262626;stroke-width:0.8;" x="106.432402" xlink:href="#m616b273f21" y="223"/>
      </g>
     </g>
     <g id="line2d_4">
      <g>
       <use style="fill:#262626;stroke:#262626;stroke-width:0.8;" x="106.432402" xlink:href="#mc920909e5c" y="25.44"/>
      </g>
     </g>
     <g id="text_2">
      <!-- 1.0 -->
      <defs>
       <path d="M 12.40625 8.296875 
L 28.515625 8.296875 
L 28.515625 63.921875 
L 10.984375 60.40625 
L 10.984375 69.390625 
L 28.421875 72.90625 
L 38.28125 72.90625 
L 38.28125 8.296875 
L 54.390625 8.296875 
L 54.390625 0 
L 12.40625 0 
z
" id="DejaVuSans-31"/>
      </defs>
      <g style="fill:#262626;" transform="translate(97.685684 238.358281)scale(0.11 -0.11)">
       <use xlink:href="#DejaVuSans-31"/>
       <use x="63.623047" xlink:href="#DejaVuSans-2e"/>
       <use x="95.410156" xlink:href="#DejaVuSans-30"/>
      </g>
     </g>
    </g>
    <g id="xtick_3">
     <g id="line2d_5">
      <g>
       <use style="fill:#262626;stroke:#262626;stroke-width:0.8;" x="145.529968" xlink:href="#m616b273f21" y="223"/>
      </g>
     </g>
     <g id="line2d_6">
      <g>
       <use style="fill:#262626;stroke:#262626;stroke-width:0.8;" x="145.529968" xlink:href="#mc920909e5c" y="25.44"/>
      </g>
     </g>
     <g id="text_3">
      <!-- 2.0 -->
      <defs>
       <path d="M 19.1875 8.296875 
L 53.609375 8.296875 
L 53.609375 0 
L 7.328125 0 
L 7.328125 8.296875 
Q 12.9375 14.109375 22.625 23.890625 
Q 32.328125 33.6875 34.8125 36.53125 
Q 39.546875 41.84375 41.421875 45.53125 
Q 43.3125 49.21875 43.3125 52.78125 
Q 43.3125 58.59375 39.234375 62.25 
Q 35.15625 65.921875 28.609375 65.921875 
Q 23.96875 65.921875 18.8125 64.3125 
Q 13.671875 62.703125 7.8125 59.421875 
L 7.8125 69.390625 
Q 13.765625 71.78125 18.9375 73 
Q 24.125 74.21875 28.421875 74.21875 
Q 39.75 74.21875 46.484375 68.546875 
Q 53.21875 62.890625 53.21875 53.421875 
Q 53.21875 48.921875 51.53125 44.890625 
Q 49.859375 40.875 45.40625 35.40625 
Q 44.1875 33.984375 37.640625 27.21875 
Q 31.109375 20.453125 19.1875 8.296875 
z
" id="DejaVuSans-32"/>
      </defs>
      <g style="fill:#262626;" transform="translate(136.783249 238.358281)scale(0.11 -0.11)">
       <use xlink:href="#DejaVuSans-32"/>
       <use x="63.623047" xlink:href="#DejaVuSans-2e"/>
       <use x="95.410156" xlink:href="#DejaVuSans-30"/>
      </g>
     </g>
    </g>
    <g id="xtick_4">
     <g id="line2d_7">
      <g>
       <use style="fill:#262626;stroke:#262626;stroke-width:0.8;" x="184.627533" xlink:href="#m616b273f21" y="223"/>
      </g>
     </g>
     <g id="line2d_8">
      <g>
       <use style="fill:#262626;stroke:#262626;stroke-width:0.8;" x="184.627533" xlink:href="#mc920909e5c" y="25.44"/>
      </g>
     </g>
     <g id="text_4">
      <!-- 3.0 -->
      <defs>
       <path d="M 40.578125 39.3125 
Q 47.65625 37.796875 51.625 33 
Q 55.609375 28.21875 55.609375 21.1875 
Q 55.609375 10.40625 48.1875 4.484375 
Q 40.765625 -1.421875 27.09375 -1.421875 
Q 22.515625 -1.421875 17.65625 -0.515625 
Q 12.796875 0.390625 7.625 2.203125 
L 7.625 11.71875 
Q 11.71875 9.328125 16.59375 8.109375 
Q 21.484375 6.890625 26.8125 6.890625 
Q 36.078125 6.890625 40.9375 10.546875 
Q 45.796875 14.203125 45.796875 21.1875 
Q 45.796875 27.640625 41.28125 31.265625 
Q 36.765625 34.90625 28.71875 34.90625 
L 20.21875 34.90625 
L 20.21875 43.015625 
L 29.109375 43.015625 
Q 36.375 43.015625 40.234375 45.921875 
Q 44.09375 48.828125 44.09375 54.296875 
Q 44.09375 59.90625 40.109375 62.90625 
Q 36.140625 65.921875 28.71875 65.921875 
Q 24.65625 65.921875 20.015625 65.03125 
Q 15.375 64.15625 9.8125 62.3125 
L 9.8125 71.09375 
Q 15.4375 72.65625 20.34375 73.4375 
Q 25.25 74.21875 29.59375 74.21875 
Q 40.828125 74.21875 47.359375 69.109375 
Q 53.90625 64.015625 53.90625 55.328125 
Q 53.90625 49.265625 50.4375 45.09375 
Q 46.96875 40.921875 40.578125 39.3125 
z
" id="DejaVuSans-33"/>
      </defs>
      <g style="fill:#262626;" transform="translate(175.880814 238.358281)scale(0.11 -0.11)">
       <use xlink:href="#DejaVuSans-33"/>
       <use x="63.623047" xlink:href="#DejaVuSans-2e"/>
       <use x="95.410156" xlink:href="#DejaVuSans-30"/>
      </g>
     </g>
    </g>
    <g id="xtick_5">
     <g id="line2d_9">
      <g>
       <use style="fill:#262626;stroke:#262626;stroke-width:0.8;" x="223.725099" xlink:href="#m616b273f21" y="223"/>
      </g>
     </g>
     <g id="line2d_10">
      <g>
       <use style="fill:#262626;stroke:#262626;stroke-width:0.8;" x="223.725099" xlink:href="#mc920909e5c" y="25.44"/>
      </g>
     </g>
     <g id="text_5">
      <!-- 4.0 -->
      <defs>
       <path d="M 37.796875 64.3125 
L 12.890625 25.390625 
L 37.796875 25.390625 
z
M 35.203125 72.90625 
L 47.609375 72.90625 
L 47.609375 25.390625 
L 58.015625 25.390625 
L 58.015625 17.1875 
L 47.609375 17.1875 
L 47.609375 0 
L 37.796875 0 
L 37.796875 17.1875 
L 4.890625 17.1875 
L 4.890625 26.703125 
z
" id="DejaVuSans-34"/>
      </defs>
      <g style="fill:#262626;" transform="translate(214.97838 238.358281)scale(0.11 -0.11)">
       <use xlink:href="#DejaVuSans-34"/>
       <use x="63.623047" xlink:href="#DejaVuSans-2e"/>
       <use x="95.410156" xlink:href="#DejaVuSans-30"/>
      </g>
     </g>
    </g>
    <g id="text_6">
     <!-- log10 counts (Control) -->
     <defs>
      <path d="M 9.421875 75.984375 
L 18.40625 75.984375 
L 18.40625 0 
L 9.421875 0 
z
" id="DejaVuSans-6c"/>
      <path d="M 30.609375 48.390625 
Q 23.390625 48.390625 19.1875 42.75 
Q 14.984375 37.109375 14.984375 27.296875 
Q 14.984375 17.484375 19.15625 11.84375 
Q 23.34375 6.203125 30.609375 6.203125 
Q 37.796875 6.203125 41.984375 11.859375 
Q 46.1875 17.53125 46.1875 27.296875 
Q 46.1875 37.015625 41.984375 42.703125 
Q 37.796875 48.390625 30.609375 48.390625 
z
M 30.609375 56 
Q 42.328125 56 49.015625 48.375 
Q 55.71875 40.765625 55.71875 27.296875 
Q 55.71875 13.875 49.015625 6.21875 
Q 42.328125 -1.421875 30.609375 -1.421875 
Q 18.84375 -1.421875 12.171875 6.21875 
Q 5.515625 13.875 5.515625 27.296875 
Q 5.515625 40.765625 12.171875 48.375 
Q 18.84375 56 30.609375 56 
z
" id="DejaVuSans-6f"/>
      <path d="M 45.40625 27.984375 
Q 45.40625 37.75 41.375 43.109375 
Q 37.359375 48.484375 30.078125 48.484375 
Q 22.859375 48.484375 18.828125 43.109375 
Q 14.796875 37.75 14.796875 27.984375 
Q 14.796875 18.265625 18.828125 12.890625 
Q 22.859375 7.515625 30.078125 7.515625 
Q 37.359375 7.515625 41.375 12.890625 
Q 45.40625 18.265625 45.40625 27.984375 
z
M 54.390625 6.78125 
Q 54.390625 -7.171875 48.1875 -13.984375 
Q 42 -20.796875 29.203125 -20.796875 
Q 24.46875 -20.796875 20.265625 -20.09375 
Q 16.0625 -19.390625 12.109375 -17.921875 
L 12.109375 -9.1875 
Q 16.0625 -11.328125 19.921875 -12.34375 
Q 23.78125 -13.375 27.78125 -13.375 
Q 36.625 -13.375 41.015625 -8.765625 
Q 45.40625 -4.15625 45.40625 5.171875 
L 45.40625 9.625 
Q 42.625 4.78125 38.28125 2.390625 
Q 33.9375 0 27.875 0 
Q 17.828125 0 11.671875 7.65625 
Q 5.515625 15.328125 5.515625 27.984375 
Q 5.515625 40.671875 11.671875 48.328125 
Q 17.828125 56 27.875 56 
Q 33.9375 56 38.28125 53.609375 
Q 42.625 51.21875 45.40625 46.390625 
L 45.40625 54.6875 
L 54.390625 54.6875 
z
" id="DejaVuSans-67"/>
      <path id="DejaVuSans-20"/>
      <path d="M 48.78125 52.59375 
L 48.78125 44.1875 
Q 44.96875 46.296875 41.140625 47.34375 
Q 37.3125 48.390625 33.40625 48.390625 
Q 24.65625 48.390625 19.8125 42.84375 
Q 14.984375 37.3125 14.984375 27.296875 
Q 14.984375 17.28125 19.8125 11.734375 
Q 24.65625 6.203125 33.40625 6.203125 
Q 37.3125 6.203125 41.140625 7.25 
Q 44.96875 8.296875 48.78125 10.40625 
L 48.78125 2.09375 
Q 45.015625 0.34375 40.984375 -0.53125 
Q 36.96875 -1.421875 32.421875 -1.421875 
Q 20.0625 -1.421875 12.78125 6.34375 
Q 5.515625 14.109375 5.515625 27.296875 
Q 5.515625 40.671875 12.859375 48.328125 
Q 20.21875 56 33.015625 56 
Q 37.15625 56 41.109375 55.140625 
Q 45.0625 54.296875 48.78125 52.59375 
z
" id="DejaVuSans-63"/>
      <path d="M 8.5 21.578125 
L 8.5 54.6875 
L 17.484375 54.6875 
L 17.484375 21.921875 
Q 17.484375 14.15625 20.5 10.265625 
Q 23.53125 6.390625 29.59375 6.390625 
Q 36.859375 6.390625 41.078125 11.03125 
Q 45.3125 15.671875 45.3125 23.6875 
L 45.3125 54.6875 
L 54.296875 54.6875 
L 54.296875 0 
L 45.3125 0 
L 45.3125 8.40625 
Q 42.046875 3.421875 37.71875 1 
Q 33.40625 -1.421875 27.6875 -1.421875 
Q 18.265625 -1.421875 13.375 4.4375 
Q 8.5 10.296875 8.5 21.578125 
z
M 31.109375 56 
z
" id="DejaVuSans-75"/>
      <path d="M 54.890625 33.015625 
L 54.890625 0 
L 45.90625 0 
L 45.90625 32.71875 
Q 45.90625 40.484375 42.875 44.328125 
Q 39.84375 48.1875 33.796875 48.1875 
Q 26.515625 48.1875 22.3125 43.546875 
Q 18.109375 38.921875 18.109375 30.90625 
L 18.109375 0 
L 9.078125 0 
L 9.078125 54.6875 
L 18.109375 54.6875 
L 18.109375 46.1875 
Q 21.34375 51.125 25.703125 53.5625 
Q 30.078125 56 35.796875 56 
Q 45.21875 56 50.046875 50.171875 
Q 54.890625 44.34375 54.890625 33.015625 
z
" id="DejaVuSans-6e"/>
      <path d="M 18.3125 70.21875 
L 18.3125 54.6875 
L 36.8125 54.6875 
L 36.8125 47.703125 
L 18.3125 47.703125 
L 18.3125 18.015625 
Q 18.3125 11.328125 20.140625 9.421875 
Q 21.96875 7.515625 27.59375 7.515625 
L 36.8125 7.515625 
L 36.8125 0 
L 27.59375 0 
Q 17.1875 0 13.234375 3.875 
Q 9.28125 7.765625 9.28125 18.015625 
L 9.28125 47.703125 
L 2.6875 47.703125 
L 2.6875 54.6875 
L 9.28125 54.6875 
L 9.28125 70.21875 
z
" id="DejaVuSans-74"/>
      <path d="M 44.28125 53.078125 
L 44.28125 44.578125 
Q 40.484375 46.53125 36.375 47.5 
Q 32.28125 48.484375 27.875 48.484375 
Q 21.1875 48.484375 17.84375 46.4375 
Q 14.5 44.390625 14.5 40.28125 
Q 14.5 37.15625 16.890625 35.375 
Q 19.28125 33.59375 26.515625 31.984375 
L 29.59375 31.296875 
Q 39.15625 29.25 43.1875 25.515625 
Q 47.21875 21.78125 47.21875 15.09375 
Q 47.21875 7.46875 41.1875 3.015625 
Q 35.15625 -1.421875 24.609375 -1.421875 
Q 20.21875 -1.421875 15.453125 -0.5625 
Q 10.6875 0.296875 5.421875 2 
L 5.421875 11.28125 
Q 10.40625 8.6875 15.234375 7.390625 
Q 20.0625 6.109375 24.8125 6.109375 
Q 31.15625 6.109375 34.5625 8.28125 
Q 37.984375 10.453125 37.984375 14.40625 
Q 37.984375 18.0625 35.515625 20.015625 
Q 33.0625 21.96875 24.703125 23.78125 
L 21.578125 24.515625 
Q 13.234375 26.265625 9.515625 29.90625 
Q 5.8125 33.546875 5.8125 39.890625 
Q 5.8125 47.609375 11.28125 51.796875 
Q 16.75 56 26.8125 56 
Q 31.78125 56 36.171875 55.265625 
Q 40.578125 54.546875 44.28125 53.078125 
z
" id="DejaVuSans-73"/>
      <path d="M 31 75.875 
Q 24.46875 64.65625 21.28125 53.65625 
Q 18.109375 42.671875 18.109375 31.390625 
Q 18.109375 20.125 21.3125 9.0625 
Q 24.515625 -2 31 -13.1875 
L 23.1875 -13.1875 
Q 15.875 -1.703125 12.234375 9.375 
Q 8.59375 20.453125 8.59375 31.390625 
Q 8.59375 42.28125 12.203125 53.3125 
Q 15.828125 64.359375 23.1875 75.875 
z
" id="DejaVuSans-28"/>
      <path d="M 64.40625 67.28125 
L 64.40625 56.890625 
Q 59.421875 61.53125 53.78125 63.8125 
Q 48.140625 66.109375 41.796875 66.109375 
Q 29.296875 66.109375 22.65625 58.46875 
Q 16.015625 50.828125 16.015625 36.375 
Q 16.015625 21.96875 22.65625 14.328125 
Q 29.296875 6.6875 41.796875 6.6875 
Q 48.140625 6.6875 53.78125 8.984375 
Q 59.421875 11.28125 64.40625 15.921875 
L 64.40625 5.609375 
Q 59.234375 2.09375 53.4375 0.328125 
Q 47.65625 -1.421875 41.21875 -1.421875 
Q 24.65625 -1.421875 15.125 8.703125 
Q 5.609375 18.84375 5.609375 36.375 
Q 5.609375 53.953125 15.125 64.078125 
Q 24.65625 74.21875 41.21875 74.21875 
Q 47.75 74.21875 53.53125 72.484375 
Q 59.328125 70.75 64.40625 67.28125 
z
" id="DejaVuSans-43"/>
      <path d="M 41.109375 46.296875 
Q 39.59375 47.171875 37.8125 47.578125 
Q 36.03125 48 33.890625 48 
Q 26.265625 48 22.1875 43.046875 
Q 18.109375 38.09375 18.109375 28.8125 
L 18.109375 0 
L 9.078125 0 
L 9.078125 54.6875 
L 18.109375 54.6875 
L 18.109375 46.1875 
Q 20.953125 51.171875 25.484375 53.578125 
Q 30.03125 56 36.53125 56 
Q 37.453125 56 38.578125 55.875 
Q 39.703125 55.765625 41.0625 55.515625 
z
" id="DejaVuSans-72"/>
      <path d="M 8.015625 75.875 
L 15.828125 75.875 
Q 23.140625 64.359375 26.78125 53.3125 
Q 30.421875 42.28125 30.421875 31.390625 
Q 30.421875 20.453125 26.78125 9.375 
Q 23.140625 -1.703125 15.828125 -13.1875 
L 8.015625 -13.1875 
Q 14.5 -2 17.703125 9.0625 
Q 20.90625 20.125 20.90625 31.390625 
Q 20.90625 42.671875 17.703125 53.65625 
Q 14.5 64.65625 8.015625 75.875 
z
" id="DejaVuSans-29"/>
     </defs>
     <g transform="translate(83.294531 253.004219)scale(0.11 -0.11)">
      <use xlink:href="#DejaVuSans-6c"/>
      <use x="27.783203" xlink:href="#DejaVuSans-6f"/>
      <use x="88.964844" xlink:href="#DejaVuSans-67"/>
      <use x="152.441406" xlink:href="#DejaVuSans-31"/>
      <use x="216.064453" xlink:href="#DejaVuSans-30"/>
      <use x="279.6875" xlink:href="#DejaVuSans-20"/>
      <use x="311.474609" xlink:href="#DejaVuSans-63"/>
      <use x="366.455078" xlink:href="#DejaVuSans-6f"/>
      <use x="427.636719" xlink:href="#DejaVuSans-75"/>
      <use x="491.015625" xlink:href="#DejaVuSans-6e"/>
      <use x="554.394531" xlink:href="#DejaVuSans-74"/>
      <use x="593.603516" xlink:href="#DejaVuSans-73"/>
      <use x="645.703125" xlink:href="#DejaVuSans-20"/>
      <use x="677.490234" xlink:href="#DejaVuSans-28"/>
      <use x="716.503906" xlink:href="#DejaVuSans-43"/>
      <use x="786.328125" xlink:href="#DejaVuSans-6f"/>
      <use x="847.509766" xlink:href="#DejaVuSans-6e"/>
      <use x="910.888672" xlink:href="#DejaVuSans-74"/>
      <use x="950.097656" xlink:href="#DejaVuSans-72"/>
      <use x="991.179688" xlink:href="#DejaVuSans-6f"/>
      <use x="1052.361328" xlink:href="#DejaVuSans-6c"/>
      <use x="1080.144531" xlink:href="#DejaVuSans-29"/>
     </g>
    </g>
   </g>
   <g id="matplotlib.axis_2">
    <g id="ytick_1">
     <g id="line2d_11">
      <defs>
       <path d="M 0 0 
L -3.5 0 
" id="m473bef530f" style="stroke:#262626;stroke-width:0.8;"/>
      </defs>
      <g>
       <use style="fill:#262626;stroke:#262626;stroke-width:0.8;" x="51.01625" xlink:href="#m473bef530f" y="208.365926"/>
      </g>
     </g>
     <g id="line2d_12">
      <defs>
       <path d="M 0 0 
L 3.5 0 
" id="m5329e955e2" style="stroke:#262626;stroke-width:0.8;"/>
      </defs>
      <g>
       <use style="fill:#262626;stroke:#262626;stroke-width:0.8;" x="238.68" xlink:href="#m5329e955e2" y="208.365926"/>
      </g>
     </g>
     <g id="text_7">
      <!-- 0.0 -->
      <g style="fill:#262626;" transform="translate(26.522813 212.545067)scale(0.11 -0.11)">
       <use xlink:href="#DejaVuSans-30"/>
       <use x="63.623047" xlink:href="#DejaVuSans-2e"/>
       <use x="95.410156" xlink:href="#DejaVuSans-30"/>
      </g>
     </g>
    </g>
    <g id="ytick_2">
     <g id="line2d_13">
      <g>
       <use style="fill:#262626;stroke:#262626;stroke-width:0.8;" x="51.01625" xlink:href="#m473bef530f" y="175.673484"/>
      </g>
     </g>
     <g id="line2d_14">
      <g>
       <use style="fill:#262626;stroke:#262626;stroke-width:0.8;" x="238.68" xlink:href="#m5329e955e2" y="175.673484"/>
      </g>
     </g>
     <g id="text_8">
      <!-- 1.0 -->
      <g style="fill:#262626;" transform="translate(26.522813 179.852625)scale(0.11 -0.11)">
       <use xlink:href="#DejaVuSans-31"/>
       <use x="63.623047" xlink:href="#DejaVuSans-2e"/>
       <use x="95.410156" xlink:href="#DejaVuSans-30"/>
      </g>
     </g>
    </g>
    <g id="ytick_3">
     <g id="line2d_15">
      <g>
       <use style="fill:#262626;stroke:#262626;stroke-width:0.8;" x="51.01625" xlink:href="#m473bef530f" y="142.981042"/>
      </g>
     </g>
     <g id="line2d_16">
      <g>
       <use style="fill:#262626;stroke:#262626;stroke-width:0.8;" x="238.68" xlink:href="#m5329e955e2" y="142.981042"/>
      </g>
     </g>
     <g id="text_9">
      <!-- 2.0 -->
      <g style="fill:#262626;" transform="translate(26.522813 147.160183)scale(0.11 -0.11)">
       <use xlink:href="#DejaVuSans-32"/>
       <use x="63.623047" xlink:href="#DejaVuSans-2e"/>
       <use x="95.410156" xlink:href="#DejaVuSans-30"/>
      </g>
     </g>
    </g>
    <g id="ytick_4">
     <g id="line2d_17">
      <g>
       <use style="fill:#262626;stroke:#262626;stroke-width:0.8;" x="51.01625" xlink:href="#m473bef530f" y="110.2886"/>
      </g>
     </g>
     <g id="line2d_18">
      <g>
       <use style="fill:#262626;stroke:#262626;stroke-width:0.8;" x="238.68" xlink:href="#m5329e955e2" y="110.2886"/>
      </g>
     </g>
     <g id="text_10">
      <!-- 3.0 -->
      <g style="fill:#262626;" transform="translate(26.522813 114.467741)scale(0.11 -0.11)">
       <use xlink:href="#DejaVuSans-33"/>
       <use x="63.623047" xlink:href="#DejaVuSans-2e"/>
       <use x="95.410156" xlink:href="#DejaVuSans-30"/>
      </g>
     </g>
    </g>
    <g id="ytick_5">
     <g id="line2d_19">
      <g>
       <use style="fill:#262626;stroke:#262626;stroke-width:0.8;" x="51.01625" xlink:href="#m473bef530f" y="77.596158"/>
      </g>
     </g>
     <g id="line2d_20">
      <g>
       <use style="fill:#262626;stroke:#262626;stroke-width:0.8;" x="238.68" xlink:href="#m5329e955e2" y="77.596158"/>
      </g>
     </g>
     <g id="text_11">
      <!-- 4.0 -->
      <g style="fill:#262626;" transform="translate(26.522813 81.775299)scale(0.11 -0.11)">
       <use xlink:href="#DejaVuSans-34"/>
       <use x="63.623047" xlink:href="#DejaVuSans-2e"/>
       <use x="95.410156" xlink:href="#DejaVuSans-30"/>
      </g>
     </g>
    </g>
    <g id="ytick_6">
     <g id="line2d_21">
      <g>
       <use style="fill:#262626;stroke:#262626;stroke-width:0.8;" x="51.01625" xlink:href="#m473bef530f" y="44.903716"/>
      </g>
     </g>
     <g id="line2d_22">
      <g>
       <use style="fill:#262626;stroke:#262626;stroke-width:0.8;" x="238.68" xlink:href="#m5329e955e2" y="44.903716"/>
      </g>
     </g>
     <g id="text_12">
      <!-- 5.0 -->
      <defs>
       <path d="M 10.796875 72.90625 
L 49.515625 72.90625 
L 49.515625 64.59375 
L 19.828125 64.59375 
L 19.828125 46.734375 
Q 21.96875 47.46875 24.109375 47.828125 
Q 26.265625 48.1875 28.421875 48.1875 
Q 40.625 48.1875 47.75 41.5 
Q 54.890625 34.8125 54.890625 23.390625 
Q 54.890625 11.625 47.5625 5.09375 
Q 40.234375 -1.421875 26.90625 -1.421875 
Q 22.3125 -1.421875 17.546875 -0.640625 
Q 12.796875 0.140625 7.71875 1.703125 
L 7.71875 11.625 
Q 12.109375 9.234375 16.796875 8.0625 
Q 21.484375 6.890625 26.703125 6.890625 
Q 35.15625 6.890625 40.078125 11.328125 
Q 45.015625 15.765625 45.015625 23.390625 
Q 45.015625 31 40.078125 35.4375 
Q 35.15625 39.890625 26.703125 39.890625 
Q 22.75 39.890625 18.8125 39.015625 
Q 14.890625 38.140625 10.796875 36.28125 
z
" id="DejaVuSans-35"/>
      </defs>
      <g style="fill:#262626;" transform="translate(26.522813 49.082857)scale(0.11 -0.11)">
       <use xlink:href="#DejaVuSans-35"/>
       <use x="63.623047" xlink:href="#DejaVuSans-2e"/>
       <use x="95.410156" xlink:href="#DejaVuSans-30"/>
      </g>
     </g>
    </g>
    <g id="text_13">
     <!-- log10 counts (CD107a_positive_3) -->
     <defs>
      <path d="M 19.671875 64.796875 
L 19.671875 8.109375 
L 31.59375 8.109375 
Q 46.6875 8.109375 53.6875 14.9375 
Q 60.6875 21.78125 60.6875 36.53125 
Q 60.6875 51.171875 53.6875 57.984375 
Q 46.6875 64.796875 31.59375 64.796875 
z
M 9.8125 72.90625 
L 30.078125 72.90625 
Q 51.265625 72.90625 61.171875 64.09375 
Q 71.09375 55.28125 71.09375 36.53125 
Q 71.09375 17.671875 61.125 8.828125 
Q 51.171875 0 30.078125 0 
L 9.8125 0 
z
" id="DejaVuSans-44"/>
      <path d="M 8.203125 72.90625 
L 55.078125 72.90625 
L 55.078125 68.703125 
L 28.609375 0 
L 18.3125 0 
L 43.21875 64.59375 
L 8.203125 64.59375 
z
" id="DejaVuSans-37"/>
      <path d="M 34.28125 27.484375 
Q 23.390625 27.484375 19.1875 25 
Q 14.984375 22.515625 14.984375 16.5 
Q 14.984375 11.71875 18.140625 8.90625 
Q 21.296875 6.109375 26.703125 6.109375 
Q 34.1875 6.109375 38.703125 11.40625 
Q 43.21875 16.703125 43.21875 25.484375 
L 43.21875 27.484375 
z
M 52.203125 31.203125 
L 52.203125 0 
L 43.21875 0 
L 43.21875 8.296875 
Q 40.140625 3.328125 35.546875 0.953125 
Q 30.953125 -1.421875 24.3125 -1.421875 
Q 15.921875 -1.421875 10.953125 3.296875 
Q 6 8.015625 6 15.921875 
Q 6 25.140625 12.171875 29.828125 
Q 18.359375 34.515625 30.609375 34.515625 
L 43.21875 34.515625 
L 43.21875 35.40625 
Q 43.21875 41.609375 39.140625 45 
Q 35.0625 48.390625 27.6875 48.390625 
Q 23 48.390625 18.546875 47.265625 
Q 14.109375 46.140625 10.015625 43.890625 
L 10.015625 52.203125 
Q 14.9375 54.109375 19.578125 55.046875 
Q 24.21875 56 28.609375 56 
Q 40.484375 56 46.34375 49.84375 
Q 52.203125 43.703125 52.203125 31.203125 
z
" id="DejaVuSans-61"/>
      <path d="M 50.984375 -16.609375 
L 50.984375 -23.578125 
L -0.984375 -23.578125 
L -0.984375 -16.609375 
z
" id="DejaVuSans-5f"/>
      <path d="M 18.109375 8.203125 
L 18.109375 -20.796875 
L 9.078125 -20.796875 
L 9.078125 54.6875 
L 18.109375 54.6875 
L 18.109375 46.390625 
Q 20.953125 51.265625 25.265625 53.625 
Q 29.59375 56 35.59375 56 
Q 45.5625 56 51.78125 48.09375 
Q 58.015625 40.1875 58.015625 27.296875 
Q 58.015625 14.40625 51.78125 6.484375 
Q 45.5625 -1.421875 35.59375 -1.421875 
Q 29.59375 -1.421875 25.265625 0.953125 
Q 20.953125 3.328125 18.109375 8.203125 
z
M 48.6875 27.296875 
Q 48.6875 37.203125 44.609375 42.84375 
Q 40.53125 48.484375 33.40625 48.484375 
Q 26.265625 48.484375 22.1875 42.84375 
Q 18.109375 37.203125 18.109375 27.296875 
Q 18.109375 17.390625 22.1875 11.75 
Q 26.265625 6.109375 33.40625 6.109375 
Q 40.53125 6.109375 44.609375 11.75 
Q 48.6875 17.390625 48.6875 27.296875 
z
" id="DejaVuSans-70"/>
      <path d="M 9.421875 54.6875 
L 18.40625 54.6875 
L 18.40625 0 
L 9.421875 0 
z
M 9.421875 75.984375 
L 18.40625 75.984375 
L 18.40625 64.59375 
L 9.421875 64.59375 
z
" id="DejaVuSans-69"/>
      <path d="M 2.984375 54.6875 
L 12.5 54.6875 
L 29.59375 8.796875 
L 46.6875 54.6875 
L 56.203125 54.6875 
L 35.6875 0 
L 23.484375 0 
z
" id="DejaVuSans-76"/>
      <path d="M 56.203125 29.59375 
L 56.203125 25.203125 
L 14.890625 25.203125 
Q 15.484375 15.921875 20.484375 11.0625 
Q 25.484375 6.203125 34.421875 6.203125 
Q 39.59375 6.203125 44.453125 7.46875 
Q 49.3125 8.734375 54.109375 11.28125 
L 54.109375 2.78125 
Q 49.265625 0.734375 44.1875 -0.34375 
Q 39.109375 -1.421875 33.890625 -1.421875 
Q 20.796875 -1.421875 13.15625 6.1875 
Q 5.515625 13.8125 5.515625 26.8125 
Q 5.515625 40.234375 12.765625 48.109375 
Q 20.015625 56 32.328125 56 
Q 43.359375 56 49.78125 48.890625 
Q 56.203125 41.796875 56.203125 29.59375 
z
M 47.21875 32.234375 
Q 47.125 39.59375 43.09375 43.984375 
Q 39.0625 48.390625 32.421875 48.390625 
Q 24.90625 48.390625 20.390625 44.140625 
Q 15.875 39.890625 15.1875 32.171875 
z
" id="DejaVuSans-65"/>
     </defs>
     <g transform="translate(19.929219 218.290625)rotate(-90)scale(0.11 -0.11)">
      <use xlink:href="#DejaVuSans-6c"/>
      <use x="27.783203" xlink:href="#DejaVuSans-6f"/>
      <use x="88.964844" xlink:href="#DejaVuSans-67"/>
      <use x="152.441406" xlink:href="#DejaVuSans-31"/>
      <use x="216.064453" xlink:href="#DejaVuSans-30"/>
      <use x="279.6875" xlink:href="#DejaVuSans-20"/>
      <use x="311.474609" xlink:href="#DejaVuSans-63"/>
      <use x="366.455078" xlink:href="#DejaVuSans-6f"/>
      <use x="427.636719" xlink:href="#DejaVuSans-75"/>
      <use x="491.015625" xlink:href="#DejaVuSans-6e"/>
      <use x="554.394531" xlink:href="#DejaVuSans-74"/>
      <use x="593.603516" xlink:href="#DejaVuSans-73"/>
      <use x="645.703125" xlink:href="#DejaVuSans-20"/>
      <use x="677.490234" xlink:href="#DejaVuSans-28"/>
      <use x="716.503906" xlink:href="#DejaVuSans-43"/>
      <use x="786.328125" xlink:href="#DejaVuSans-44"/>
      <use x="863.330078" xlink:href="#DejaVuSans-31"/>
      <use x="926.953125" xlink:href="#DejaVuSans-30"/>
      <use x="990.576172" xlink:href="#DejaVuSans-37"/>
      <use x="1054.199219" xlink:href="#DejaVuSans-61"/>
      <use x="1115.478516" xlink:href="#DejaVuSans-5f"/>
      <use x="1165.478516" xlink:href="#DejaVuSans-70"/>
      <use x="1228.955078" xlink:href="#DejaVuSans-6f"/>
      <use x="1290.136719" xlink:href="#DejaVuSans-73"/>
      <use x="1342.236328" xlink:href="#DejaVuSans-69"/>
      <use x="1370.019531" xlink:href="#DejaVuSans-74"/>
      <use x="1409.228516" xlink:href="#DejaVuSans-69"/>
      <use x="1437.011719" xlink:href="#DejaVuSans-76"/>
      <use x="1496.191406" xlink:href="#DejaVuSans-65"/>
      <use x="1557.714844" xlink:href="#DejaVuSans-5f"/>
      <use x="1607.714844" xlink:href="#DejaVuSans-33"/>
      <use x="1671.337891" xlink:href="#DejaVuSans-29"/>
     </g>
    </g>
   </g>
   <g id="line2d_23">
    <path clip-path="url(#pb81aed39fe)" d="M 51.01625 222.011135 
L 238.68 65.09123 
" style="fill:none;opacity:0.75;stroke:#808080;stroke-dasharray:5.55,2.4;stroke-dashoffset:0;stroke-width:1.5;"/>
   </g>
   <g id="patch_3">
    <path d="M 51.01625 223 
L 51.01625 25.44 
" style="fill:none;stroke:#000000;stroke-linecap:square;stroke-linejoin:miter;stroke-width:0.8;"/>
   </g>
   <g id="patch_4">
    <path d="M 238.68 223 
L 238.68 25.44 
" style="fill:none;stroke:#000000;stroke-linecap:square;stroke-linejoin:miter;stroke-width:0.8;"/>
   </g>
   <g id="patch_5">
    <path d="M 51.01625 223 
L 238.68 223 
" style="fill:none;stroke:#000000;stroke-linecap:square;stroke-linejoin:miter;stroke-width:0.8;"/>
   </g>
   <g id="patch_6">
    <path d="M 51.01625 25.44 
L 238.68 25.44 
" style="fill:none;stroke:#000000;stroke-linecap:square;stroke-linejoin:miter;stroke-width:0.8;"/>
   </g>
   <g id="text_14">
    <!-- sgRNA Density -->
    <defs>
     <path d="M 44.390625 34.1875 
Q 47.5625 33.109375 50.5625 29.59375 
Q 53.5625 26.078125 56.59375 19.921875 
L 66.609375 0 
L 56 0 
L 46.6875 18.703125 
Q 43.0625 26.03125 39.671875 28.421875 
Q 36.28125 30.8125 30.421875 30.8125 
L 19.671875 30.8125 
L 19.671875 0 
L 9.8125 0 
L 9.8125 72.90625 
L 32.078125 72.90625 
Q 44.578125 72.90625 50.734375 67.671875 
Q 56.890625 62.453125 56.890625 51.90625 
Q 56.890625 45.015625 53.6875 40.46875 
Q 50.484375 35.9375 44.390625 34.1875 
z
M 19.671875 64.796875 
L 19.671875 38.921875 
L 32.078125 38.921875 
Q 39.203125 38.921875 42.84375 42.21875 
Q 46.484375 45.515625 46.484375 51.90625 
Q 46.484375 58.296875 42.84375 61.546875 
Q 39.203125 64.796875 32.078125 64.796875 
z
" id="DejaVuSans-52"/>
     <path d="M 9.8125 72.90625 
L 23.09375 72.90625 
L 55.421875 11.921875 
L 55.421875 72.90625 
L 64.984375 72.90625 
L 64.984375 0 
L 51.703125 0 
L 19.390625 60.984375 
L 19.390625 0 
L 9.8125 0 
z
" id="DejaVuSans-4e"/>
     <path d="M 34.1875 63.1875 
L 20.796875 26.90625 
L 47.609375 26.90625 
z
M 28.609375 72.90625 
L 39.796875 72.90625 
L 67.578125 0 
L 57.328125 0 
L 50.6875 18.703125 
L 17.828125 18.703125 
L 11.1875 0 
L 0.78125 0 
z
" id="DejaVuSans-41"/>
     <path d="M 32.171875 -5.078125 
Q 28.375 -14.84375 24.75 -17.8125 
Q 21.140625 -20.796875 15.09375 -20.796875 
L 7.90625 -20.796875 
L 7.90625 -13.28125 
L 13.1875 -13.28125 
Q 16.890625 -13.28125 18.9375 -11.515625 
Q 21 -9.765625 23.484375 -3.21875 
L 25.09375 0.875 
L 2.984375 54.6875 
L 12.5 54.6875 
L 29.59375 11.921875 
L 46.6875 54.6875 
L 56.203125 54.6875 
z
" id="DejaVuSans-79"/>
    </defs>
    <g transform="translate(100.434063 19.44)scale(0.12 -0.12)">
     <use xlink:href="#DejaVuSans-73"/>
     <use x="52.099609" xlink:href="#DejaVuSans-67"/>
     <use x="115.576172" xlink:href="#DejaVuSans-52"/>
     <use x="185.058594" xlink:href="#DejaVuSans-4e"/>
     <use x="259.863281" xlink:href="#DejaVuSans-41"/>
     <use x="328.271484" xlink:href="#DejaVuSans-20"/>
     <use x="360.058594" xlink:href="#DejaVuSans-44"/>
     <use x="437.060547" xlink:href="#DejaVuSans-65"/>
     <use x="498.583984" xlink:href="#DejaVuSans-6e"/>
     <use x="561.962891" xlink:href="#DejaVuSans-73"/>
     <use x="614.0625" xlink:href="#DejaVuSans-69"/>
     <use x="641.845703" xlink:href="#DejaVuSans-74"/>
     <use x="681.054688" xlink:href="#DejaVuSans-79"/>
    </g>
   </g>
  </g>
 </g>
 <defs>
  <clipPath id="pb81aed39fe">
   <rect height="197.56" width="187.66375" x="51.01625" y="25.44"/>
  </clipPath>
 </defs>
</svg>
