<?xml version="1.0" encoding="utf-8" standalone="no"?>
<!DOCTYPE svg PUBLIC "-//W3C//DTD SVG 1.1//EN"
  "http://www.w3.org/Graphics/SVG/1.1/DTD/svg11.dtd">
<!-- Created with matplotlib (http://matplotlib.org/) -->
<svg height="266pt" version="1.1" viewBox="0 0 252 266" width="252pt" xmlns="http://www.w3.org/2000/svg" xmlns:xlink="http://www.w3.org/1999/xlink">
 <defs>
  <style type="text/css">
*{stroke-linecap:butt;stroke-linejoin:round;}
  </style>
 </defs>
 <g id="figure_1">
  <g id="patch_1">
   <path d="M 0 266.4 
L 252 266.4 
L 252 0 
L 0 0 
z
" style="fill:#ffffff;"/>
  </g>
  <g id="axes_1">
   <g id="patch_2">
    <path d="M 51.01625 223 
L 238.68 223 
L 238.68 25.44 
L 51.01625 25.44 
z
" style="fill:#ffffff;"/>
   </g>
   <g id="PathCollection_1">
    <path clip-path="url(#p38fc38aab1)" d="M 172.496834 126.486716 
L 173.268444 126.486716 
L 174.040054 126.486716 
L 174.811664 126.486716 
L 175.583274 126.486716 
L 176.354884 126.486716 
L 177.126493 126.486716 
L 177.898103 126.486716 
L 178.669713 126.486716 
L 179.441323 126.486716 
L 180.212933 126.486716 
L 180.984543 126.486716 
L 181.756153 126.486716 
L 182.527763 126.486716 
L 183.299373 126.486716 
L 184.070983 126.486716 
L 184.842593 126.486716 
L 185.614203 126.486716 
L 186.385813 126.486716 
L 187.157423 126.486716 
L 187.929033 126.486716 
L 188.700643 126.486716 
L 189.472253 126.486716 
L 190.243863 126.486716 
L 191.015473 126.486716 
L 191.787083 126.486716 
L 192.558693 126.486716 
L 193.330303 126.486716 
L 194.101913 126.486716 
L 194.873523 126.486716 
L 195.645133 126.486716 
L 196.416743 126.486716 
L 197.188353 126.486716 
L 197.959963 126.486716 
L 198.731573 126.486716 
L 199.503183 126.486716 
L 200.274793 126.486716 
L 201.046403 126.486716 
L 201.818013 126.486716 
L 202.589623 126.486716 
L 203.361233 126.486716 
L 204.132843 126.486716 
L 204.904452 126.486716 
L 205.676062 126.486716 
L 206.447672 126.486716 
L 207.219282 126.486716 
L 207.990892 126.486716 
L 208.762502 126.486716 
L 209.534112 126.486716 
L 210.305722 126.486716 
L 211.077332 126.486716 
L 211.848942 126.486716 
L 212.620552 126.486716 
L 213.392162 126.486716 
L 214.163772 126.486716 
L 214.935382 126.486716 
L 215.706992 126.486716 
L 216.478602 126.486716 
L 217.250212 126.486716 
L 218.021822 126.486716 
L 218.793432 126.486716 
L 219.565042 126.486716 
L 220.336652 126.486716 
L 221.108262 126.486716 
L 221.879872 126.486716 
L 222.651482 126.486716 
L 223.423092 126.486716 
L 224.194702 126.486716 
L 224.966312 126.486716 
L 225.737922 126.486716 
L 226.509532 126.486716 
L 227.281142 126.486716 
L 228.052752 126.486716 
L 228.824362 126.486716 
L 229.595972 126.486716 
L 230.367582 126.486716 
L 231.139192 126.486716 
L 231.910802 126.486716 
L 232.682411 126.486716 
L 233.454021 126.486716 
L 234.225631 126.486716 
L 234.997241 126.486716 
L 235.768851 126.486716 
L 236.540461 126.486716 
L 237.312071 126.486716 
L 238.083681 126.486716 
L 238.855291 126.486716 
L 239.626901 126.486716 
L 240.398511 126.486716 
L 241.170121 126.486716 
L 241.941731 126.486716 
L 242.713341 126.486716 
L 243.484951 126.486716 
L 244.256561 126.486716 
L 245.028171 126.486716 
L 245.799781 126.486716 
L 246.571391 126.486716 
L 247.343001 126.486716 
L 248.114611 126.486716 
L 248.114611 125.681421 
L 248.114611 124.876126 
L 248.114611 124.070831 
L 248.114611 123.265536 
L 248.114611 122.460241 
L 248.114611 121.654946 
L 248.114611 120.849651 
L 248.114611 120.044356 
L 248.114611 119.239061 
L 248.114611 118.433766 
L 248.114611 117.628471 
L 248.114611 116.823176 
L 248.114611 116.017881 
L 248.114611 115.212586 
L 248.114611 114.407291 
L 248.114611 113.601996 
L 248.114611 112.796701 
L 248.114611 111.991406 
L 248.114611 111.186111 
L 248.114611 110.380816 
L 248.114611 109.575521 
L 248.114611 108.770226 
L 248.114611 107.964931 
L 248.114611 107.159636 
L 248.114611 106.354341 
L 248.114611 105.549046 
L 248.114611 104.743751 
L 248.114611 103.938456 
L 248.114611 103.133161 
L 248.114611 102.327866 
L 248.114611 101.522571 
L 248.114611 100.717276 
L 248.114611 99.911981 
L 248.114611 99.106686 
L 248.114611 98.301391 
L 248.114611 97.496096 
L 248.114611 96.690801 
L 248.114611 95.885506 
L 248.114611 95.080211 
L 248.114611 94.274916 
L 248.114611 93.469621 
L 248.114611 92.664326 
L 248.114611 91.859031 
L 248.114611 91.053736 
L 248.114611 90.248441 
L 248.114611 89.443146 
L 248.114611 88.637851 
L 248.114611 87.832556 
L 248.114611 87.027261 
L 248.114611 86.221966 
L 248.114611 85.416671 
L 248.114611 84.611376 
L 248.114611 83.806081 
L 248.114611 83.000786 
L 248.114611 82.195491 
L 248.114611 81.390196 
L 248.114611 80.584901 
L 248.114611 79.779606 
L 248.114611 78.974311 
L 248.114611 78.169016 
L 248.114611 77.363721 
L 248.114611 76.558426 
L 248.114611 75.753131 
L 248.114611 74.947836 
L 248.114611 74.142541 
L 248.114611 73.337246 
L 248.114611 72.531951 
L 248.114611 71.726656 
L 248.114611 70.921361 
L 248.114611 70.116066 
L 248.114611 69.310771 
L 248.114611 68.505476 
L 248.114611 67.700181 
L 248.114611 66.894886 
L 248.114611 66.089591 
L 248.114611 65.284296 
L 248.114611 64.479001 
L 248.114611 63.673706 
L 248.114611 62.868411 
L 248.114611 62.063116 
L 248.114611 61.257821 
L 248.114611 60.452526 
L 248.114611 59.647231 
L 248.114611 58.841936 
L 248.114611 58.036641 
L 248.114611 57.231346 
L 248.114611 56.426051 
L 248.114611 55.620756 
L 248.114611 54.815461 
L 248.114611 54.010166 
L 248.114611 53.204871 
L 248.114611 52.399576 
L 248.114611 51.594281 
L 248.114611 50.788986 
L 248.114611 49.983691 
L 248.114611 49.178396 
L 248.114611 48.373101 
L 248.114611 47.567806 
L 248.114611 46.762511 
L 247.343001 46.762511 
L 246.571391 46.762511 
L 245.799781 46.762511 
L 245.028171 46.762511 
L 244.256561 46.762511 
L 243.484951 46.762511 
L 242.713341 46.762511 
L 241.941731 46.762511 
L 241.170121 46.762511 
L 240.398511 46.762511 
L 239.626901 46.762511 
L 238.855291 46.762511 
L 238.083681 46.762511 
L 237.312071 46.762511 
L 236.540461 46.762511 
L 235.768851 46.762511 
L 234.997241 46.762511 
L 234.225631 46.762511 
L 233.454021 46.762511 
L 232.682411 46.762511 
L 231.910802 46.762511 
L 231.139192 46.762511 
L 230.367582 46.762511 
L 229.595972 46.762511 
L 228.824362 46.762511 
L 228.052752 46.762511 
L 227.281142 46.762511 
L 226.509532 46.762511 
L 225.737922 46.762511 
L 224.966312 46.762511 
L 224.194702 46.762511 
L 223.423092 46.762511 
L 222.651482 46.762511 
L 221.879872 46.762511 
L 221.108262 46.762511 
L 220.336652 46.762511 
L 219.565042 46.762511 
L 218.793432 46.762511 
L 218.021822 46.762511 
L 217.250212 46.762511 
L 216.478602 46.762511 
L 215.706992 46.762511 
L 214.935382 46.762511 
L 214.163772 46.762511 
L 213.392162 46.762511 
L 212.620552 46.762511 
L 211.848942 46.762511 
L 211.077332 46.762511 
L 210.305722 46.762511 
L 209.534112 46.762511 
L 208.762502 46.762511 
L 207.990892 46.762511 
L 207.219282 46.762511 
L 206.447672 46.762511 
L 205.676062 46.762511 
L 204.904452 46.762511 
L 204.132843 46.762511 
L 203.361233 46.762511 
L 202.589623 46.762511 
L 201.818013 46.762511 
L 201.046403 46.762511 
L 200.274793 46.762511 
L 199.503183 46.762511 
L 198.731573 46.762511 
L 197.959963 46.762511 
L 197.188353 46.762511 
L 196.416743 46.762511 
L 195.645133 46.762511 
L 194.873523 46.762511 
L 194.101913 46.762511 
L 193.330303 46.762511 
L 192.558693 46.762511 
L 191.787083 46.762511 
L 191.015473 46.762511 
L 190.243863 46.762511 
L 189.472253 46.762511 
L 188.700643 46.762511 
L 187.929033 46.762511 
L 187.157423 46.762511 
L 186.385813 46.762511 
L 185.614203 46.762511 
L 184.842593 46.762511 
L 184.070983 46.762511 
L 183.299373 46.762511 
L 182.527763 46.762511 
L 181.756153 46.762511 
L 180.984543 46.762511 
L 180.212933 46.762511 
L 179.441323 46.762511 
L 178.669713 46.762511 
L 177.898103 46.762511 
L 177.126493 46.762511 
L 176.354884 46.762511 
L 175.583274 46.762511 
L 174.811664 46.762511 
L 174.040054 46.762511 
L 173.268444 46.762511 
L 172.496834 46.762511 
L 171.725224 46.762511 
L 171.725224 47.567806 
L 171.725224 48.373101 
L 171.725224 49.178396 
L 171.725224 49.983691 
L 171.725224 50.788986 
L 171.725224 51.594281 
L 171.725224 52.399576 
L 171.725224 53.204871 
L 171.725224 54.010166 
L 171.725224 54.815461 
L 171.725224 55.620756 
L 171.725224 56.426051 
L 171.725224 57.231346 
L 171.725224 58.036641 
L 171.725224 58.841936 
L 171.725224 59.647231 
L 171.725224 60.452526 
L 171.725224 61.257821 
L 171.725224 62.063116 
L 171.725224 62.868411 
L 171.725224 63.673706 
L 171.725224 64.479001 
L 171.725224 65.284296 
L 171.725224 66.089591 
L 171.725224 66.894886 
L 171.725224 67.700181 
L 171.725224 68.505476 
L 171.725224 69.310771 
L 171.725224 70.116066 
L 171.725224 70.921361 
L 171.725224 71.726656 
L 171.725224 72.531951 
L 171.725224 73.337246 
L 171.725224 74.142541 
L 171.725224 74.947836 
L 171.725224 75.753131 
L 171.725224 76.558426 
L 171.725224 77.363721 
L 171.725224 78.169016 
L 171.725224 78.974311 
L 171.725224 79.779606 
L 171.725224 80.584901 
L 171.725224 81.390196 
L 171.725224 82.195491 
L 171.725224 83.000786 
L 171.725224 83.806081 
L 171.725224 84.611376 
L 171.725224 85.416671 
L 171.725224 86.221966 
L 171.725224 87.027261 
L 171.725224 87.832556 
L 171.725224 88.637851 
L 171.725224 89.443146 
L 171.725224 90.248441 
L 171.725224 91.053736 
L 171.725224 91.859031 
L 171.725224 92.664326 
L 171.725224 93.469621 
L 171.725224 94.274916 
L 171.725224 95.080211 
L 171.725224 95.885506 
L 171.725224 96.690801 
L 171.725224 97.496096 
L 171.725224 98.301391 
L 171.725224 99.106686 
L 171.725224 99.911981 
L 171.725224 100.717276 
L 171.725224 101.522571 
L 171.725224 102.327866 
L 171.725224 103.133161 
L 171.725224 103.938456 
L 171.725224 104.743751 
L 171.725224 105.549046 
L 171.725224 106.354341 
L 171.725224 107.159636 
L 171.725224 107.964931 
L 171.725224 108.770226 
L 171.725224 109.575521 
L 171.725224 110.380816 
L 171.725224 111.186111 
L 171.725224 111.991406 
L 171.725224 112.796701 
L 171.725224 113.601996 
L 171.725224 114.407291 
L 171.725224 115.212586 
L 171.725224 116.017881 
L 171.725224 116.823176 
L 171.725224 117.628471 
L 171.725224 118.433766 
L 171.725224 119.239061 
L 171.725224 120.044356 
L 171.725224 120.849651 
L 171.725224 121.654946 
L 171.725224 122.460241 
L 171.725224 123.265536 
L 171.725224 124.070831 
L 171.725224 124.876126 
L 171.725224 125.681421 
L 171.725224 126.486716 
z
M 197.5779 100.717276 
L 197.188353 100.663476 
L 196.416743 100.514117 
L 195.645133 100.308417 
L 194.873523 100.03303 
L 194.601548 99.911981 
L 194.101913 99.67538 
L 193.330303 99.206871 
L 193.192302 99.106686 
L 192.558693 98.567333 
L 192.297184 98.301391 
L 191.787083 97.631625 
L 191.696095 97.496096 
L 191.30108 96.690801 
L 191.064433 95.885506 
L 191.015473 95.546805 
L 190.949849 95.080211 
L 190.935514 94.274916 
L 191.005046 93.469621 
L 191.015473 93.410904 
L 191.134579 92.664326 
L 191.315513 91.859031 
L 191.541222 91.053736 
L 191.787083 90.310731 
L 191.805527 90.248441 
L 192.076284 89.443146 
L 192.377623 88.637851 
L 192.558693 88.198957 
L 192.693602 87.832556 
L 193.017708 87.027261 
L 193.330303 86.328364 
L 193.372943 86.221966 
L 193.724112 85.416671 
L 194.101913 84.654272 
L 194.121202 84.611376 
L 194.516646 83.806081 
L 194.873523 83.17388 
L 194.96402 83.000786 
L 195.431723 82.195491 
L 195.645133 81.868626 
L 195.941751 81.390196 
L 196.416743 80.715614 
L 196.505506 80.584901 
L 197.108254 79.779606 
L 197.188353 79.680574 
L 197.752043 78.974311 
L 197.959963 78.733648 
L 198.446535 78.169016 
L 198.731573 77.857388 
L 199.185389 77.363721 
L 199.503183 77.031774 
L 199.960598 76.558426 
L 200.274793 76.240886 
L 200.762733 75.753131 
L 201.046403 75.472363 
L 201.582259 74.947836 
L 201.818013 74.71709 
L 202.411634 74.142541 
L 202.589623 73.969315 
L 203.24742 73.337246 
L 203.361233 73.227066 
L 204.091626 72.531951 
L 204.132843 72.492456 
L 204.904452 71.765099 
L 204.946144 71.726656 
L 205.676062 71.051237 
L 205.822517 70.921361 
L 206.447672 70.364874 
L 206.744156 70.116066 
L 207.219282 69.714486 
L 207.735764 69.310771 
L 207.990892 69.108441 
L 208.762502 68.548169 
L 208.825243 68.505476 
L 209.534112 68.008499 
L 210.036424 67.700181 
L 210.305722 67.527005 
L 211.077332 67.079525 
L 211.438165 66.894886 
L 211.848942 66.668844 
L 212.620552 66.295414 
L 213.110797 66.089591 
L 213.392162 65.958798 
L 214.163772 65.639344 
L 214.935382 65.368952 
L 215.209253 65.284296 
L 215.706992 65.107666 
L 216.478602 64.870667 
L 217.250212 64.669434 
L 218.021822 64.498752 
L 218.126719 64.479001 
L 218.793432 64.329612 
L 219.565042 64.187997 
L 220.336652 64.076228 
L 221.108262 63.993868 
L 221.879872 63.941933 
L 222.651482 63.922997 
L 223.423092 63.941392 
L 224.194702 64.00353 
L 224.966312 64.118368 
L 225.737922 64.298076 
L 226.288464 64.479001 
L 226.509532 64.551488 
L 227.281142 64.88544 
L 227.957231 65.284296 
L 228.052752 65.344381 
L 228.824362 65.943514 
L 228.980261 66.089591 
L 229.595972 66.749557 
L 229.713798 66.894886 
L 230.270115 67.700181 
L 230.367582 67.871649 
L 230.706424 68.505476 
L 231.037826 69.310771 
L 231.139192 69.630029 
L 231.294704 70.116066 
L 231.483344 70.921361 
L 231.604338 71.726656 
L 231.665298 72.531951 
L 231.671462 73.337246 
L 231.626045 74.142541 
L 231.530471 74.947836 
L 231.384515 75.753131 
L 231.18638 76.558426 
L 231.139192 76.713046 
L 230.964497 77.363721 
L 230.701577 78.169016 
L 230.386299 78.974311 
L 230.367582 79.017496 
L 230.069482 79.779606 
L 229.705964 80.584901 
L 229.595972 80.810172 
L 229.336556 81.390196 
L 228.938453 82.195491 
L 228.824362 82.415416 
L 228.54333 83.000786 
L 228.126028 83.806081 
L 228.052752 83.945328 
L 227.726391 84.611376 
L 227.305032 85.416671 
L 227.281142 85.46286 
L 226.913959 86.221966 
L 226.509532 87.007507 
L 226.499951 87.027261 
L 226.117754 87.832556 
L 225.737922 88.582561 
L 225.711305 88.637851 
L 225.327151 89.443146 
L 224.966312 90.144883 
L 224.914898 90.248441 
L 224.508661 91.053736 
L 224.194702 91.626426 
L 224.068667 91.859031 
L 223.607175 92.664326 
L 223.423092 92.964567 
L 223.107519 93.469621 
L 222.651482 94.135037 
L 222.55121 94.274916 
L 221.933822 95.080211 
L 221.879872 95.147393 
L 221.234897 95.885506 
L 221.108262 96.023437 
L 220.420281 96.690801 
L 220.336652 96.769833 
L 219.565042 97.41041 
L 219.444477 97.496096 
L 218.793432 97.963377 
L 218.212489 98.301391 
L 218.021822 98.416073 
L 217.250212 98.809639 
L 216.503926 99.106686 
L 216.478602 99.117457 
L 215.706992 99.39966 
L 214.935382 99.622366 
L 214.163772 99.79955 
L 213.562831 99.911981 
L 213.392162 99.947866 
L 212.620552 100.086688 
L 211.848942 100.2019 
L 211.077332 100.299069 
L 210.305722 100.382385 
L 209.534112 100.454983 
L 208.762502 100.519201 
L 207.990892 100.576787 
L 207.219282 100.62904 
L 206.447672 100.676907 
L 205.741286 100.717276 
L 205.676062 100.721684 
L 204.904452 100.769288 
L 204.132843 100.812292 
L 203.361233 100.85011 
L 202.589623 100.881551 
L 201.818013 100.90473 
L 201.046403 100.91698 
L 200.274793 100.91479 
L 199.503183 100.89375 
L 198.731573 100.848491 
L 197.959963 100.772611 
z
" style="fill:none;"/>
   </g>
   <g id="PathCollection_2">
    <path clip-path="url(#p38fc38aab1)" d="M 197.959963 100.772611 
L 198.731573 100.848491 
L 199.503183 100.89375 
L 200.274793 100.91479 
L 201.046403 100.91698 
L 201.818013 100.90473 
L 202.589623 100.881551 
L 203.361233 100.85011 
L 204.132843 100.812292 
L 204.904452 100.769288 
L 205.676062 100.721684 
L 205.741286 100.717276 
L 206.447672 100.676907 
L 207.219282 100.62904 
L 207.990892 100.576787 
L 208.762502 100.519201 
L 209.534112 100.454983 
L 210.305722 100.382385 
L 211.077332 100.299069 
L 211.848942 100.2019 
L 212.620552 100.086688 
L 213.392162 99.947866 
L 213.562831 99.911981 
L 214.163772 99.79955 
L 214.935382 99.622366 
L 215.706992 99.39966 
L 216.478602 99.117457 
L 216.503926 99.106686 
L 217.250212 98.809639 
L 218.021822 98.416073 
L 218.212489 98.301391 
L 218.793432 97.963377 
L 219.444477 97.496096 
L 219.565042 97.41041 
L 220.336652 96.769833 
L 220.420281 96.690801 
L 221.108262 96.023437 
L 221.234897 95.885506 
L 221.879872 95.147393 
L 221.933822 95.080211 
L 222.55121 94.274916 
L 222.651482 94.135037 
L 223.107519 93.469621 
L 223.423092 92.964567 
L 223.607175 92.664326 
L 224.068667 91.859031 
L 224.194702 91.626426 
L 224.508661 91.053736 
L 224.914898 90.248441 
L 224.966312 90.144883 
L 225.327151 89.443146 
L 225.711305 88.637851 
L 225.737922 88.582561 
L 226.117754 87.832556 
L 226.499951 87.027261 
L 226.509532 87.007507 
L 226.913959 86.221966 
L 227.281142 85.46286 
L 227.305032 85.416671 
L 227.726391 84.611376 
L 228.052752 83.945328 
L 228.126028 83.806081 
L 228.54333 83.000786 
L 228.824362 82.415416 
L 228.938453 82.195491 
L 229.336556 81.390196 
L 229.595972 80.810172 
L 229.705964 80.584901 
L 230.069482 79.779606 
L 230.367582 79.017496 
L 230.386299 78.974311 
L 230.701577 78.169016 
L 230.964497 77.363721 
L 231.139192 76.713046 
L 231.18638 76.558426 
L 231.384515 75.753131 
L 231.530471 74.947836 
L 231.626045 74.142541 
L 231.671462 73.337246 
L 231.665298 72.531951 
L 231.604338 71.726656 
L 231.483344 70.921361 
L 231.294704 70.116066 
L 231.139192 69.630029 
L 231.037826 69.310771 
L 230.706424 68.505476 
L 230.367582 67.871649 
L 230.270115 67.700181 
L 229.713798 66.894886 
L 229.595972 66.749557 
L 228.980261 66.089591 
L 228.824362 65.943514 
L 228.052752 65.344381 
L 227.957231 65.284296 
L 227.281142 64.88544 
L 226.509532 64.551488 
L 226.288464 64.479001 
L 225.737922 64.298076 
L 224.966312 64.118368 
L 224.194702 64.00353 
L 223.423092 63.941392 
L 222.651482 63.922997 
L 221.879872 63.941933 
L 221.108262 63.993868 
L 220.336652 64.076228 
L 219.565042 64.187997 
L 218.793432 64.329612 
L 218.126719 64.479001 
L 218.021822 64.498752 
L 217.250212 64.669434 
L 216.478602 64.870667 
L 215.706992 65.107666 
L 215.209253 65.284296 
L 214.935382 65.368952 
L 214.163772 65.639344 
L 213.392162 65.958798 
L 213.110797 66.089591 
L 212.620552 66.295414 
L 211.848942 66.668844 
L 211.438165 66.894886 
L 211.077332 67.079525 
L 210.305722 67.527005 
L 210.036424 67.700181 
L 209.534112 68.008499 
L 208.825243 68.505476 
L 208.762502 68.548169 
L 207.990892 69.108441 
L 207.735764 69.310771 
L 207.219282 69.714486 
L 206.744156 70.116066 
L 206.447672 70.364874 
L 205.822517 70.921361 
L 205.676062 71.051237 
L 204.946144 71.726656 
L 204.904452 71.765099 
L 204.132843 72.492456 
L 204.091626 72.531951 
L 203.361233 73.227066 
L 203.24742 73.337246 
L 202.589623 73.969315 
L 202.411634 74.142541 
L 201.818013 74.71709 
L 201.582259 74.947836 
L 201.046403 75.472363 
L 200.762733 75.753131 
L 200.274793 76.240886 
L 199.960598 76.558426 
L 199.503183 77.031774 
L 199.185389 77.363721 
L 198.731573 77.857388 
L 198.446535 78.169016 
L 197.959963 78.733648 
L 197.752043 78.974311 
L 197.188353 79.680574 
L 197.108254 79.779606 
L 196.505506 80.584901 
L 196.416743 80.715614 
L 195.941751 81.390196 
L 195.645133 81.868626 
L 195.431723 82.195491 
L 194.96402 83.000786 
L 194.873523 83.17388 
L 194.516646 83.806081 
L 194.121202 84.611376 
L 194.101913 84.654272 
L 193.724112 85.416671 
L 193.372943 86.221966 
L 193.330303 86.328364 
L 193.017708 87.027261 
L 192.693602 87.832556 
L 192.558693 88.198957 
L 192.377623 88.637851 
L 192.076284 89.443146 
L 191.805527 90.248441 
L 191.787083 90.310731 
L 191.541222 91.053736 
L 191.315513 91.859031 
L 191.134579 92.664326 
L 191.015473 93.410904 
L 191.005046 93.469621 
L 190.935514 94.274916 
L 190.949849 95.080211 
L 191.015473 95.546805 
L 191.064433 95.885506 
L 191.30108 96.690801 
L 191.696095 97.496096 
L 191.787083 97.631625 
L 192.297184 98.301391 
L 192.558693 98.567333 
L 193.192302 99.106686 
L 193.330303 99.206871 
L 194.101913 99.67538 
L 194.601548 99.911981 
L 194.873523 100.03303 
L 195.645133 100.308417 
L 196.416743 100.514117 
L 197.188353 100.663476 
L 197.5779 100.717276 
z
M 199.853515 96.690801 
L 199.503183 96.587604 
L 198.731573 96.297547 
L 197.959963 95.905638 
L 197.926878 95.885506 
L 197.188353 95.340361 
L 196.911521 95.080211 
L 196.416743 94.452869 
L 196.299151 94.274916 
L 195.925082 93.469621 
L 195.709956 92.664326 
L 195.645133 92.177023 
L 195.605175 91.859031 
L 195.581415 91.053736 
L 195.622667 90.248441 
L 195.645133 90.065115 
L 195.71175 89.443146 
L 195.841215 88.637851 
L 196.010711 87.832556 
L 196.221886 87.027261 
L 196.416743 86.417622 
L 196.472906 86.221966 
L 196.749651 85.416671 
L 197.080962 84.611376 
L 197.188353 84.386643 
L 197.446453 83.806081 
L 197.869908 83.000786 
L 197.959963 82.849707 
L 198.33289 82.195491 
L 198.731573 81.592305 
L 198.861381 81.390196 
L 199.443789 80.584901 
L 199.503183 80.509508 
L 200.073686 79.779606 
L 200.274793 79.543276 
L 200.759468 78.974311 
L 201.046403 78.657927 
L 201.492737 78.169016 
L 201.818013 77.827419 
L 202.263639 77.363721 
L 202.589623 77.032842 
L 203.0617 76.558426 
L 203.361233 76.260897 
L 203.877729 75.753131 
L 204.132843 75.503088 
L 204.70612 74.947836 
L 204.904452 74.755512 
L 205.546685 74.142541 
L 205.676062 74.018829 
L 206.405581 73.337246 
L 206.447672 73.2979 
L 207.219282 72.593873 
L 207.289578 72.531951 
L 207.990892 71.91586 
L 208.218935 71.726656 
L 208.762502 71.276323 
L 209.225049 70.921361 
L 209.534112 70.683338 
L 210.305722 70.142099 
L 210.345535 70.116066 
L 211.077332 69.630083 
L 211.627632 69.310771 
L 211.848942 69.178362 
L 212.620552 68.763242 
L 213.177136 68.505476 
L 213.392162 68.400265 
L 214.163772 68.066665 
L 214.935382 67.787407 
L 215.217352 67.700181 
L 215.706992 67.534355 
L 216.478602 67.316997 
L 217.250212 67.142123 
L 218.021822 67.005888 
L 218.793432 66.906146 
L 218.93192 66.894886 
L 219.565042 66.835599 
L 220.336652 66.806207 
L 221.108262 66.822228 
L 221.879872 66.888694 
L 221.920544 66.894886 
L 222.651482 67.002646 
L 223.423092 67.181283 
L 224.194702 67.441135 
L 224.762261 67.700181 
L 224.966312 67.798915 
L 225.737922 68.275164 
L 226.036056 68.505476 
L 226.509532 68.924762 
L 226.874033 69.310771 
L 227.281142 69.838629 
L 227.471493 70.116066 
L 227.905663 70.921361 
L 228.052752 71.292831 
L 228.218203 71.726656 
L 228.432195 72.531951 
L 228.557373 73.337246 
L 228.606586 74.142541 
L 228.588658 74.947836 
L 228.509285 75.753131 
L 228.371675 76.558426 
L 228.177025 77.363721 
L 228.052752 77.766157 
L 227.93916 78.169016 
L 227.664882 78.974311 
L 227.339363 79.779606 
L 227.281142 79.909246 
L 226.997236 80.584901 
L 226.616112 81.390196 
L 226.509532 81.600727 
L 226.224216 82.195491 
L 225.804971 83.000786 
L 225.737922 83.125755 
L 225.389272 83.806081 
L 224.966312 84.579971 
L 224.949806 84.611376 
L 224.525707 85.416671 
L 224.194702 86.014978 
L 224.083874 86.221966 
L 223.64666 87.027261 
L 223.423092 87.424965 
L 223.199032 87.832556 
L 222.735576 88.637851 
L 222.651482 88.780435 
L 222.262557 89.443146 
L 221.879872 90.048498 
L 221.751856 90.248441 
L 221.203942 91.053736 
L 221.108262 91.186872 
L 220.603693 91.859031 
L 220.336652 92.188689 
L 219.923751 92.664326 
L 219.565042 93.051268 
L 219.137474 93.469621 
L 218.793432 93.789821 
L 218.200783 94.274916 
L 218.021822 94.41705 
L 217.250212 94.953723 
L 217.038579 95.080211 
L 216.478602 95.415935 
L 215.706992 95.797291 
L 215.497598 95.885506 
L 214.935382 96.131796 
L 214.163772 96.410195 
L 213.392162 96.634258 
L 213.158673 96.690801 
L 212.620552 96.832783 
L 211.848942 96.998414 
L 211.077332 97.129714 
L 210.305722 97.232114 
L 209.534112 97.309821 
L 208.762502 97.366084 
L 207.990892 97.403388 
L 207.219282 97.423581 
L 206.447672 97.427953 
L 205.676062 97.417234 
L 204.904452 97.39155 
L 204.132843 97.350296 
L 203.361233 97.291945 
L 202.589623 97.213783 
L 201.818013 97.111565 
L 201.046403 96.979079 
L 200.274793 96.807605 
z
" style="fill:#fed9c9;"/>
   </g>
   <g id="PathCollection_3">
    <path clip-path="url(#p38fc38aab1)" d="M 200.274793 96.807605 
L 201.046403 96.979079 
L 201.818013 97.111565 
L 202.589623 97.213783 
L 203.361233 97.291945 
L 204.132843 97.350296 
L 204.904452 97.39155 
L 205.676062 97.417234 
L 206.447672 97.427953 
L 207.219282 97.423581 
L 207.990892 97.403388 
L 208.762502 97.366084 
L 209.534112 97.309821 
L 210.305722 97.232114 
L 211.077332 97.129714 
L 211.848942 96.998414 
L 212.620552 96.832783 
L 213.158673 96.690801 
L 213.392162 96.634258 
L 214.163772 96.410195 
L 214.935382 96.131796 
L 215.497598 95.885506 
L 215.706992 95.797291 
L 216.478602 95.415935 
L 217.038579 95.080211 
L 217.250212 94.953723 
L 218.021822 94.41705 
L 218.200783 94.274916 
L 218.793432 93.789821 
L 219.137474 93.469621 
L 219.565042 93.051268 
L 219.923751 92.664326 
L 220.336652 92.188689 
L 220.603693 91.859031 
L 221.108262 91.186872 
L 221.203942 91.053736 
L 221.751856 90.248441 
L 221.879872 90.048498 
L 222.262557 89.443146 
L 222.651482 88.780435 
L 222.735576 88.637851 
L 223.199032 87.832556 
L 223.423092 87.424965 
L 223.64666 87.027261 
L 224.083874 86.221966 
L 224.194702 86.014978 
L 224.525707 85.416671 
L 224.949806 84.611376 
L 224.966312 84.579971 
L 225.389272 83.806081 
L 225.737922 83.125755 
L 225.804971 83.000786 
L 226.224216 82.195491 
L 226.509532 81.600727 
L 226.616112 81.390196 
L 226.997236 80.584901 
L 227.281142 79.909246 
L 227.339363 79.779606 
L 227.664882 78.974311 
L 227.93916 78.169016 
L 228.052752 77.766157 
L 228.177025 77.363721 
L 228.371675 76.558426 
L 228.509285 75.753131 
L 228.588658 74.947836 
L 228.606586 74.142541 
L 228.557373 73.337246 
L 228.432195 72.531951 
L 228.218203 71.726656 
L 228.052752 71.292831 
L 227.905663 70.921361 
L 227.471493 70.116066 
L 227.281142 69.838629 
L 226.874033 69.310771 
L 226.509532 68.924762 
L 226.036056 68.505476 
L 225.737922 68.275164 
L 224.966312 67.798915 
L 224.762261 67.700181 
L 224.194702 67.441135 
L 223.423092 67.181283 
L 222.651482 67.002646 
L 221.920544 66.894886 
L 221.879872 66.888694 
L 221.108262 66.822228 
L 220.336652 66.806207 
L 219.565042 66.835599 
L 218.93192 66.894886 
L 218.793432 66.906146 
L 218.021822 67.005888 
L 217.250212 67.142123 
L 216.478602 67.316997 
L 215.706992 67.534355 
L 215.217352 67.700181 
L 214.935382 67.787407 
L 214.163772 68.066665 
L 213.392162 68.400265 
L 213.177136 68.505476 
L 212.620552 68.763242 
L 211.848942 69.178362 
L 211.627632 69.310771 
L 211.077332 69.630083 
L 210.345535 70.116066 
L 210.305722 70.142099 
L 209.534112 70.683338 
L 209.225049 70.921361 
L 208.762502 71.276323 
L 208.218935 71.726656 
L 207.990892 71.91586 
L 207.289578 72.531951 
L 207.219282 72.593873 
L 206.447672 73.2979 
L 206.405581 73.337246 
L 205.676062 74.018829 
L 205.546685 74.142541 
L 204.904452 74.755512 
L 204.70612 74.947836 
L 204.132843 75.503088 
L 203.877729 75.753131 
L 203.361233 76.260897 
L 203.0617 76.558426 
L 202.589623 77.032842 
L 202.263639 77.363721 
L 201.818013 77.827419 
L 201.492737 78.169016 
L 201.046403 78.657927 
L 200.759468 78.974311 
L 200.274793 79.543276 
L 200.073686 79.779606 
L 199.503183 80.509508 
L 199.443789 80.584901 
L 198.861381 81.390196 
L 198.731573 81.592305 
L 198.33289 82.195491 
L 197.959963 82.849707 
L 197.869908 83.000786 
L 197.446453 83.806081 
L 197.188353 84.386643 
L 197.080962 84.611376 
L 196.749651 85.416671 
L 196.472906 86.221966 
L 196.416743 86.417622 
L 196.221886 87.027261 
L 196.010711 87.832556 
L 195.841215 88.637851 
L 195.71175 89.443146 
L 195.645133 90.065115 
L 195.622667 90.248441 
L 195.581415 91.053736 
L 195.605175 91.859031 
L 195.645133 92.177023 
L 195.709956 92.664326 
L 195.925082 93.469621 
L 196.299151 94.274916 
L 196.416743 94.452869 
L 196.911521 95.080211 
L 197.188353 95.340361 
L 197.926878 95.885506 
L 197.959963 95.905638 
L 198.731573 96.297547 
L 199.503183 96.587604 
L 199.853515 96.690801 
z
M 204.357913 95.080211 
L 204.132843 95.040181 
L 203.361233 94.867144 
L 202.589623 94.642165 
L 201.818013 94.350922 
L 201.648548 94.274916 
L 201.046403 93.973694 
L 200.278547 93.469621 
L 200.274793 93.466669 
L 199.503183 92.72932 
L 199.446865 92.664326 
L 198.913797 91.859031 
L 198.731573 91.447959 
L 198.573864 91.053736 
L 198.368134 90.248441 
L 198.266397 89.443146 
L 198.246975 88.637851 
L 198.297221 87.832556 
L 198.410968 87.027261 
L 198.586984 86.221966 
L 198.731573 85.738656 
L 198.820314 85.416671 
L 199.105745 84.611376 
L 199.462479 83.806081 
L 199.503183 83.728283 
L 199.86849 83.000786 
L 200.274793 82.323242 
L 200.349553 82.195491 
L 200.887337 81.390196 
L 201.046403 81.177845 
L 201.488558 80.584901 
L 201.818013 80.184053 
L 202.151709 79.779606 
L 202.589623 79.285532 
L 202.867881 78.974311 
L 203.361233 78.448755 
L 203.626669 78.169016 
L 204.132843 77.651219 
L 204.417074 77.363721 
L 204.904452 76.878385 
L 205.229598 76.558426 
L 205.676062 76.121985 
L 206.058764 75.753131 
L 206.447672 75.379229 
L 206.905125 74.947836 
L 207.219282 74.652234 
L 207.776407 74.142541 
L 207.990892 73.947119 
L 208.688128 73.337246 
L 208.762502 73.272581 
L 209.534112 72.63109 
L 209.660714 72.531951 
L 210.305722 72.03051 
L 210.732907 71.726656 
L 211.077332 71.482195 
L 211.848942 70.98839 
L 211.964293 70.921361 
L 212.620552 70.536282 
L 213.392162 70.147029 
L 213.461674 70.116066 
L 214.163772 69.793866 
L 214.935382 69.497883 
L 215.525236 69.310771 
L 215.706992 69.249772 
L 216.478602 69.03916 
L 217.250212 68.878916 
L 218.021822 68.766695 
L 218.793432 68.702171 
L 219.565042 68.687148 
L 220.336652 68.725818 
L 221.108262 68.825205 
L 221.879872 68.995838 
L 222.651482 69.252741 
L 222.7849 69.310771 
L 223.423092 69.612608 
L 224.194702 70.11252 
L 224.199263 70.116066 
L 224.966312 70.823938 
L 225.054188 70.921361 
L 225.633125 71.726656 
L 225.737922 71.924338 
L 226.031981 72.531951 
L 226.292931 73.337246 
L 226.442416 74.142541 
L 226.499733 74.947836 
L 226.478298 75.753131 
L 226.387272 76.558426 
L 226.232696 77.363721 
L 226.018291 78.169016 
L 225.746037 78.974311 
L 225.737922 78.994786 
L 225.442821 79.779606 
L 225.092014 80.584901 
L 224.966312 80.846514 
L 224.715001 81.390196 
L 224.30803 82.195491 
L 224.194702 82.408033 
L 223.888051 83.000786 
L 223.44463 83.806081 
L 223.423092 83.844518 
L 223.003739 84.611376 
L 222.651482 85.22571 
L 222.543899 85.416671 
L 222.081067 86.221966 
L 221.879872 86.560503 
L 221.60456 87.027261 
L 221.108262 87.825134 
L 221.103624 87.832556 
L 220.58712 88.637851 
L 220.336652 89.003303 
L 220.026821 89.443146 
L 219.565042 90.053362 
L 219.410107 90.248441 
L 218.793432 90.971147 
L 218.717648 91.053736 
L 218.021822 91.763578 
L 217.918378 91.859031 
L 217.250212 92.442919 
L 216.961336 92.664326 
L 216.478602 93.020697 
L 215.761488 93.469621 
L 215.706992 93.503183 
L 214.935382 93.922444 
L 214.163772 94.261256 
L 214.127393 94.274916 
L 213.392162 94.558486 
L 212.620552 94.796944 
L 211.848942 94.985089 
L 211.349426 95.080211 
L 211.077332 95.135959 
L 210.305722 95.255868 
L 209.534112 95.338953 
L 208.762502 95.388628 
L 207.990892 95.407162 
L 207.219282 95.395776 
L 206.447672 95.354666 
L 205.676062 95.282929 
L 204.904452 95.178394 
z
" style="fill:#fcbba1;"/>
   </g>
   <g id="PathCollection_4">
    <path clip-path="url(#p38fc38aab1)" d="M 204.904452 95.178394 
L 205.676062 95.282929 
L 206.447672 95.354666 
L 207.219282 95.395776 
L 207.990892 95.407162 
L 208.762502 95.388628 
L 209.534112 95.338953 
L 210.305722 95.255868 
L 211.077332 95.135959 
L 211.349426 95.080211 
L 211.848942 94.985089 
L 212.620552 94.796944 
L 213.392162 94.558486 
L 214.127393 94.274916 
L 214.163772 94.261256 
L 214.935382 93.922444 
L 215.706992 93.503183 
L 215.761488 93.469621 
L 216.478602 93.020697 
L 216.961336 92.664326 
L 217.250212 92.442919 
L 217.918378 91.859031 
L 218.021822 91.763578 
L 218.717648 91.053736 
L 218.793432 90.971147 
L 219.410107 90.248441 
L 219.565042 90.053362 
L 220.026821 89.443146 
L 220.336652 89.003303 
L 220.58712 88.637851 
L 221.103624 87.832556 
L 221.108262 87.825134 
L 221.60456 87.027261 
L 221.879872 86.560503 
L 222.081067 86.221966 
L 222.543899 85.416671 
L 222.651482 85.22571 
L 223.003739 84.611376 
L 223.423092 83.844518 
L 223.44463 83.806081 
L 223.888051 83.000786 
L 224.194702 82.408033 
L 224.30803 82.195491 
L 224.715001 81.390196 
L 224.966312 80.846514 
L 225.092014 80.584901 
L 225.442821 79.779606 
L 225.737922 78.994786 
L 225.746037 78.974311 
L 226.018291 78.169016 
L 226.232696 77.363721 
L 226.387272 76.558426 
L 226.478298 75.753131 
L 226.499733 74.947836 
L 226.442416 74.142541 
L 226.292931 73.337246 
L 226.031981 72.531951 
L 225.737922 71.924338 
L 225.633125 71.726656 
L 225.054188 70.921361 
L 224.966312 70.823938 
L 224.199263 70.116066 
L 224.194702 70.11252 
L 223.423092 69.612608 
L 222.7849 69.310771 
L 222.651482 69.252741 
L 221.879872 68.995838 
L 221.108262 68.825205 
L 220.336652 68.725818 
L 219.565042 68.687148 
L 218.793432 68.702171 
L 218.021822 68.766695 
L 217.250212 68.878916 
L 216.478602 69.03916 
L 215.706992 69.249772 
L 215.525236 69.310771 
L 214.935382 69.497883 
L 214.163772 69.793866 
L 213.461674 70.116066 
L 213.392162 70.147029 
L 212.620552 70.536282 
L 211.964293 70.921361 
L 211.848942 70.98839 
L 211.077332 71.482195 
L 210.732907 71.726656 
L 210.305722 72.03051 
L 209.660714 72.531951 
L 209.534112 72.63109 
L 208.762502 73.272581 
L 208.688128 73.337246 
L 207.990892 73.947119 
L 207.776407 74.142541 
L 207.219282 74.652234 
L 206.905125 74.947836 
L 206.447672 75.379229 
L 206.058764 75.753131 
L 205.676062 76.121985 
L 205.229598 76.558426 
L 204.904452 76.878385 
L 204.417074 77.363721 
L 204.132843 77.651219 
L 203.626669 78.169016 
L 203.361233 78.448755 
L 202.867881 78.974311 
L 202.589623 79.285532 
L 202.151709 79.779606 
L 201.818013 80.184053 
L 201.488558 80.584901 
L 201.046403 81.177845 
L 200.887337 81.390196 
L 200.349553 82.195491 
L 200.274793 82.323242 
L 199.86849 83.000786 
L 199.503183 83.728283 
L 199.462479 83.806081 
L 199.105745 84.611376 
L 198.820314 85.416671 
L 198.731573 85.738656 
L 198.586984 86.221966 
L 198.410968 87.027261 
L 198.297221 87.832556 
L 198.246975 88.637851 
L 198.266397 89.443146 
L 198.368134 90.248441 
L 198.573864 91.053736 
L 198.731573 91.447959 
L 198.913797 91.859031 
L 199.446865 92.664326 
L 199.503183 92.72932 
L 200.274793 93.466669 
L 200.278547 93.469621 
L 201.046403 93.973694 
L 201.648548 94.274916 
L 201.818013 94.350922 
L 202.589623 94.642165 
L 203.361233 94.867144 
L 204.132843 95.040181 
L 204.357913 95.080211 
z
M 205.3358 93.469621 
L 204.904452 93.364025 
L 204.132843 93.116172 
L 203.361233 92.787944 
L 203.122843 92.664326 
L 202.589623 92.349196 
L 201.938658 91.859031 
L 201.818013 91.747308 
L 201.194514 91.053736 
L 201.046403 90.828833 
L 200.710959 90.248441 
L 200.407859 89.443146 
L 200.274793 88.816748 
L 200.238818 88.637851 
L 200.175165 87.832556 
L 200.20477 87.027261 
L 200.274793 86.540121 
L 200.317094 86.221966 
L 200.502981 85.416671 
L 200.766303 84.611376 
L 201.046403 83.955691 
L 201.108149 83.806081 
L 201.517459 83.000786 
L 201.818013 82.506843 
L 202.005583 82.195491 
L 202.567461 81.390196 
L 202.589623 81.361499 
L 203.192386 80.584901 
L 203.361233 80.385778 
L 203.880677 79.779606 
L 204.132843 79.502997 
L 204.621063 78.974311 
L 204.904452 78.679376 
L 205.401452 78.169016 
L 205.676062 77.893366 
L 206.211012 77.363721 
L 206.447672 77.13208 
L 207.042979 76.558426 
L 207.219282 76.389508 
L 207.897159 75.753131 
L 207.990892 75.665546 
L 208.762502 74.964302 
L 208.781167 74.947836 
L 209.534112 74.289854 
L 209.711401 74.142541 
L 210.305722 73.654766 
L 210.720409 73.337246 
L 211.077332 73.067449 
L 211.848942 72.535361 
L 211.854329 72.531951 
L 212.620552 72.051745 
L 213.214912 71.726656 
L 213.392162 71.629696 
L 214.163772 71.260817 
L 214.935382 70.953181 
L 215.032306 70.921361 
L 215.706992 70.694905 
L 216.478602 70.494695 
L 217.250212 70.351786 
L 218.021822 70.266373 
L 218.793432 70.241104 
L 219.565042 70.281444 
L 220.336652 70.396282 
L 221.108262 70.598843 
L 221.879872 70.908025 
L 221.9055 70.921361 
L 222.651482 71.370041 
L 223.097267 71.726656 
L 223.423092 72.053107 
L 223.815677 72.531951 
L 224.194702 73.176965 
L 224.277664 73.337246 
L 224.563646 74.142541 
L 224.717919 74.947836 
L 224.764747 75.753131 
L 224.721206 76.558426 
L 224.59933 77.363721 
L 224.40757 78.169016 
L 224.194702 78.839899 
L 224.153612 78.974311 
L 223.854033 79.779606 
L 223.505066 80.584901 
L 223.423092 80.75552 
L 223.12494 81.390196 
L 222.711421 82.195491 
L 222.651482 82.3063 
L 222.281783 83.000786 
L 221.879872 83.714532 
L 221.828848 83.806081 
L 221.368591 84.611376 
L 221.108262 85.049729 
L 220.891156 85.416671 
L 220.39643 86.221966 
L 220.336652 86.316711 
L 219.884365 87.027261 
L 219.565042 87.501915 
L 219.337416 87.832556 
L 218.793432 88.573938 
L 218.744574 88.637851 
L 218.089524 89.443146 
L 218.021822 89.521138 
L 217.341784 90.248441 
L 217.250212 90.339957 
L 216.478602 91.037784 
L 216.45896 91.053736 
L 215.706992 91.632186 
L 215.363564 91.859031 
L 214.935382 92.131582 
L 214.163772 92.546171 
L 213.902507 92.664326 
L 213.392162 92.893384 
L 212.620552 93.17557 
L 211.848942 93.396848 
L 211.520608 93.469621 
L 211.077332 93.571481 
L 210.305722 93.700218 
L 209.534112 93.78275 
L 208.762502 93.822042 
L 207.990892 93.819496 
L 207.219282 93.774954 
L 206.447672 93.686568 
L 205.676062 93.550521 
z
" style="fill:#fc9b7c;"/>
   </g>
   <g id="PathCollection_5">
    <path clip-path="url(#p38fc38aab1)" d="M 205.676062 93.550521 
L 206.447672 93.686568 
L 207.219282 93.774954 
L 207.990892 93.819496 
L 208.762502 93.822042 
L 209.534112 93.78275 
L 210.305722 93.700218 
L 211.077332 93.571481 
L 211.520608 93.469621 
L 211.848942 93.396848 
L 212.620552 93.17557 
L 213.392162 92.893384 
L 213.902507 92.664326 
L 214.163772 92.546171 
L 214.935382 92.131582 
L 215.363564 91.859031 
L 215.706992 91.632186 
L 216.45896 91.053736 
L 216.478602 91.037784 
L 217.250212 90.339957 
L 217.341784 90.248441 
L 218.021822 89.521138 
L 218.089524 89.443146 
L 218.744574 88.637851 
L 218.793432 88.573938 
L 219.337416 87.832556 
L 219.565042 87.501915 
L 219.884365 87.027261 
L 220.336652 86.316711 
L 220.39643 86.221966 
L 220.891156 85.416671 
L 221.108262 85.049729 
L 221.368591 84.611376 
L 221.828848 83.806081 
L 221.879872 83.714532 
L 222.281783 83.000786 
L 222.651482 82.3063 
L 222.711421 82.195491 
L 223.12494 81.390196 
L 223.423092 80.75552 
L 223.505066 80.584901 
L 223.854033 79.779606 
L 224.153612 78.974311 
L 224.194702 78.839899 
L 224.40757 78.169016 
L 224.59933 77.363721 
L 224.721206 76.558426 
L 224.764747 75.753131 
L 224.717919 74.947836 
L 224.563646 74.142541 
L 224.277664 73.337246 
L 224.194702 73.176965 
L 223.815677 72.531951 
L 223.423092 72.053107 
L 223.097267 71.726656 
L 222.651482 71.370041 
L 221.9055 70.921361 
L 221.879872 70.908025 
L 221.108262 70.598843 
L 220.336652 70.396282 
L 219.565042 70.281444 
L 218.793432 70.241104 
L 218.021822 70.266373 
L 217.250212 70.351786 
L 216.478602 70.494695 
L 215.706992 70.694905 
L 215.032306 70.921361 
L 214.935382 70.953181 
L 214.163772 71.260817 
L 213.392162 71.629696 
L 213.214912 71.726656 
L 212.620552 72.051745 
L 211.854329 72.531951 
L 211.848942 72.535361 
L 211.077332 73.067449 
L 210.720409 73.337246 
L 210.305722 73.654766 
L 209.711401 74.142541 
L 209.534112 74.289854 
L 208.781167 74.947836 
L 208.762502 74.964302 
L 207.990892 75.665546 
L 207.897159 75.753131 
L 207.219282 76.389508 
L 207.042979 76.558426 
L 206.447672 77.13208 
L 206.211012 77.363721 
L 205.676062 77.893366 
L 205.401452 78.169016 
L 204.904452 78.679376 
L 204.621063 78.974311 
L 204.132843 79.502997 
L 203.880677 79.779606 
L 203.361233 80.385778 
L 203.192386 80.584901 
L 202.589623 81.361499 
L 202.567461 81.390196 
L 202.005583 82.195491 
L 201.818013 82.506843 
L 201.517459 83.000786 
L 201.108149 83.806081 
L 201.046403 83.955691 
L 200.766303 84.611376 
L 200.502981 85.416671 
L 200.317094 86.221966 
L 200.274793 86.540121 
L 200.20477 87.027261 
L 200.175165 87.832556 
L 200.238818 88.637851 
L 200.274793 88.816748 
L 200.407859 89.443146 
L 200.710959 90.248441 
L 201.046403 90.828833 
L 201.194514 91.053736 
L 201.818013 91.747308 
L 201.938658 91.859031 
L 202.589623 92.349196 
L 203.122843 92.664326 
L 203.361233 92.787944 
L 204.132843 93.116172 
L 204.904452 93.364025 
L 205.3358 93.469621 
z
M 205.396723 91.859031 
L 204.904452 91.658665 
L 204.132843 91.243011 
L 203.852102 91.053736 
L 203.361233 90.650422 
L 202.963553 90.248441 
L 202.589623 89.737844 
L 202.40379 89.443146 
L 202.060326 88.637851 
L 201.874814 87.832556 
L 201.818013 87.046473 
L 201.816689 87.027261 
L 201.818013 87.007254 
L 201.867101 86.221966 
L 202.015108 85.416671 
L 202.255601 84.611376 
L 202.587868 83.806081 
L 202.589623 83.802701 
L 203.002665 83.000786 
L 203.361233 82.424478 
L 203.504421 82.195491 
L 204.085145 81.390196 
L 204.132843 81.330545 
L 204.737496 80.584901 
L 204.904452 80.394605 
L 205.453112 79.779606 
L 205.676062 79.542393 
L 206.219198 78.974311 
L 206.447672 78.742756 
L 207.023491 78.169016 
L 207.219282 77.977281 
L 207.857394 77.363721 
L 207.990892 77.236575 
L 208.719167 76.558426 
L 208.762502 76.51837 
L 209.534112 75.825221 
L 209.617386 75.753131 
L 210.305722 75.164684 
L 210.573339 74.947836 
L 211.077332 74.546226 
L 211.622665 74.142541 
L 211.848942 73.978198 
L 212.620552 73.467408 
L 212.84023 73.337246 
L 213.392162 73.016559 
L 214.163772 72.629567 
L 214.39479 72.531951 
L 214.935382 72.305981 
L 215.706992 72.048507 
L 216.478602 71.856528 
L 217.250212 71.731866 
L 217.329183 71.726656 
L 218.021822 71.680324 
L 218.793432 71.707464 
L 218.927473 71.726656 
L 219.565042 71.827174 
L 220.336652 72.058598 
L 221.108262 72.427193 
L 221.270401 72.531951 
L 221.879872 73.027624 
L 222.172028 73.337246 
L 222.651482 74.057278 
L 222.699087 74.142541 
L 222.995876 74.947836 
L 223.140105 75.753131 
L 223.162538 76.558426 
L 223.085192 77.363721 
L 222.924057 78.169016 
L 222.690858 78.974311 
L 222.651482 79.081236 
L 222.39811 79.779606 
L 222.055559 80.584901 
L 221.879872 80.952379 
L 221.671989 81.390196 
L 221.25709 82.195491 
L 221.108262 82.467473 
L 220.817255 83.000786 
L 220.356139 83.806081 
L 220.336652 83.839066 
L 219.879381 84.611376 
L 219.565042 85.121132 
L 219.380924 85.416671 
L 218.857887 86.221966 
L 218.793432 86.317307 
L 218.30063 87.027261 
L 218.021822 87.405136 
L 217.692352 87.832556 
L 217.250212 88.367639 
L 217.011817 88.637851 
L 216.478602 89.19944 
L 216.224942 89.443146 
L 215.706992 89.906705 
L 215.275218 90.248441 
L 214.935382 90.501392 
L 214.163772 90.99496 
L 214.056407 91.053736 
L 213.392162 91.402832 
L 212.620552 91.73061 
L 212.241467 91.859031 
L 211.848942 91.990536 
L 211.077332 92.187561 
L 210.305722 92.324668 
L 209.534112 92.405833 
L 208.762502 92.432974 
L 207.990892 92.405945 
L 207.219282 92.32235 
L 206.447672 92.177137 
L 205.676062 91.961904 
z
" style="fill:#fb7a5a;"/>
   </g>
   <g id="PathCollection_6">
    <path clip-path="url(#p38fc38aab1)" d="M 205.676062 91.961904 
L 206.447672 92.177137 
L 207.219282 92.32235 
L 207.990892 92.405945 
L 208.762502 92.432974 
L 209.534112 92.405833 
L 210.305722 92.324668 
L 211.077332 92.187561 
L 211.848942 91.990536 
L 212.241467 91.859031 
L 212.620552 91.73061 
L 213.392162 91.402832 
L 214.056407 91.053736 
L 214.163772 90.99496 
L 214.935382 90.501392 
L 215.275218 90.248441 
L 215.706992 89.906705 
L 216.224942 89.443146 
L 216.478602 89.19944 
L 217.011817 88.637851 
L 217.250212 88.367639 
L 217.692352 87.832556 
L 218.021822 87.405136 
L 218.30063 87.027261 
L 218.793432 86.317307 
L 218.857887 86.221966 
L 219.380924 85.416671 
L 219.565042 85.121132 
L 219.879381 84.611376 
L 220.336652 83.839066 
L 220.356139 83.806081 
L 220.817255 83.000786 
L 221.108262 82.467473 
L 221.25709 82.195491 
L 221.671989 81.390196 
L 221.879872 80.952379 
L 222.055559 80.584901 
L 222.39811 79.779606 
L 222.651482 79.081236 
L 222.690858 78.974311 
L 222.924057 78.169016 
L 223.085192 77.363721 
L 223.162538 76.558426 
L 223.140105 75.753131 
L 222.995876 74.947836 
L 222.699087 74.142541 
L 222.651482 74.057278 
L 222.172028 73.337246 
L 221.879872 73.027624 
L 221.270401 72.531951 
L 221.108262 72.427193 
L 220.336652 72.058598 
L 219.565042 71.827174 
L 218.927473 71.726656 
L 218.793432 71.707464 
L 218.021822 71.680324 
L 217.329183 71.726656 
L 217.250212 71.731866 
L 216.478602 71.856528 
L 215.706992 72.048507 
L 214.935382 72.305981 
L 214.39479 72.531951 
L 214.163772 72.629567 
L 213.392162 73.016559 
L 212.84023 73.337246 
L 212.620552 73.467408 
L 211.848942 73.978198 
L 211.622665 74.142541 
L 211.077332 74.546226 
L 210.573339 74.947836 
L 210.305722 75.164684 
L 209.617386 75.753131 
L 209.534112 75.825221 
L 208.762502 76.51837 
L 208.719167 76.558426 
L 207.990892 77.236575 
L 207.857394 77.363721 
L 207.219282 77.977281 
L 207.023491 78.169016 
L 206.447672 78.742756 
L 206.219198 78.974311 
L 205.676062 79.542393 
L 205.453112 79.779606 
L 204.904452 80.394605 
L 204.737496 80.584901 
L 204.132843 81.330545 
L 204.085145 81.390196 
L 203.504421 82.195491 
L 203.361233 82.424478 
L 203.002665 83.000786 
L 202.589623 83.802701 
L 202.587868 83.806081 
L 202.255601 84.611376 
L 202.015108 85.416671 
L 201.867101 86.221966 
L 201.818013 87.007254 
L 201.816689 87.027261 
L 201.818013 87.046473 
L 201.874814 87.832556 
L 202.060326 88.637851 
L 202.40379 89.443146 
L 202.589623 89.737844 
L 202.963553 90.248441 
L 203.361233 90.650422 
L 203.852102 91.053736 
L 204.132843 91.243011 
L 204.904452 91.658665 
L 205.396723 91.859031 
z
M 208.176454 91.053736 
L 207.990892 91.038281 
L 207.219282 90.895677 
L 206.447672 90.661971 
L 205.676062 90.319941 
L 205.551089 90.248441 
L 204.904452 89.796762 
L 204.512526 89.443146 
L 204.132843 88.976459 
L 203.903926 88.637851 
L 203.55385 87.832556 
L 203.384873 87.027261 
L 203.363887 86.221966 
L 203.46926 85.416671 
L 203.687166 84.611376 
L 204.009309 83.806081 
L 204.132843 83.569856 
L 204.433646 83.000786 
L 204.904452 82.266127 
L 204.950674 82.195491 
L 205.55626 81.390196 
L 205.676062 81.24628 
L 206.239405 80.584901 
L 206.447672 80.356646 
L 206.9865 79.779606 
L 207.219282 79.540811 
L 207.784021 78.974311 
L 207.990892 78.771885 
L 208.621251 78.169016 
L 208.762502 78.035832 
L 209.494426 77.363721 
L 209.534112 77.327659 
L 210.305722 76.650983 
L 210.415967 76.558426 
L 211.077332 76.01203 
L 211.409905 75.753131 
L 211.848942 75.418694 
L 212.519583 74.947836 
L 212.620552 74.878776 
L 213.392162 74.407178 
L 213.88859 74.142541 
L 214.163772 74.000311 
L 214.935382 73.670563 
L 215.706992 73.411725 
L 216.029246 73.337246 
L 216.478602 73.236233 
L 217.250212 73.148908 
L 218.021822 73.155919 
L 218.793432 73.27232 
L 219.007253 73.337246 
L 219.565042 73.545009 
L 220.336652 74.023454 
L 220.474117 74.142541 
L 221.108262 74.93604 
L 221.115593 74.947836 
L 221.43134 75.753131 
L 221.565047 76.558426 
L 221.559237 77.363721 
L 221.444409 78.169016 
L 221.242765 78.974311 
L 221.108262 79.3678 
L 220.966814 79.779606 
L 220.633031 80.584901 
L 220.336652 81.21686 
L 220.254684 81.390196 
L 219.838519 82.195491 
L 219.565042 82.693394 
L 219.394527 83.000786 
L 218.926686 83.806081 
L 218.793432 84.025884 
L 218.43286 84.611376 
L 218.021822 85.250187 
L 217.911882 85.416671 
L 217.352129 86.221966 
L 217.250212 86.360441 
L 216.735621 87.027261 
L 216.478602 87.337519 
L 216.039001 87.832556 
L 215.706992 88.178398 
L 215.22099 88.637851 
L 214.935382 88.887528 
L 214.21142 89.443146 
L 214.163772 89.477211 
L 213.392162 89.954701 
L 212.813018 90.248441 
L 212.620552 90.34098 
L 211.848942 90.638716 
L 211.077332 90.860169 
L 210.305722 91.010027 
L 209.884661 91.053736 
L 209.534112 91.089642 
L 208.762502 91.099664 
z
" style="fill:#f6583e;"/>
   </g>
   <g id="PathCollection_7">
    <path clip-path="url(#p38fc38aab1)" d="M 208.762502 91.099664 
L 209.534112 91.089642 
L 209.884661 91.053736 
L 210.305722 91.010027 
L 211.077332 90.860169 
L 211.848942 90.638716 
L 212.620552 90.34098 
L 212.813018 90.248441 
L 213.392162 89.954701 
L 214.163772 89.477211 
L 214.21142 89.443146 
L 214.935382 88.887528 
L 215.22099 88.637851 
L 215.706992 88.178398 
L 216.039001 87.832556 
L 216.478602 87.337519 
L 216.735621 87.027261 
L 217.250212 86.360441 
L 217.352129 86.221966 
L 217.911882 85.416671 
L 218.021822 85.250187 
L 218.43286 84.611376 
L 218.793432 84.025884 
L 218.926686 83.806081 
L 219.394527 83.000786 
L 219.565042 82.693394 
L 219.838519 82.195491 
L 220.254684 81.390196 
L 220.336652 81.21686 
L 220.633031 80.584901 
L 220.966814 79.779606 
L 221.108262 79.3678 
L 221.242765 78.974311 
L 221.444409 78.169016 
L 221.559237 77.363721 
L 221.565047 76.558426 
L 221.43134 75.753131 
L 221.115593 74.947836 
L 221.108262 74.93604 
L 220.474117 74.142541 
L 220.336652 74.023454 
L 219.565042 73.545009 
L 219.007253 73.337246 
L 218.793432 73.27232 
L 218.021822 73.155919 
L 217.250212 73.148908 
L 216.478602 73.236233 
L 216.029246 73.337246 
L 215.706992 73.411725 
L 214.935382 73.670563 
L 214.163772 74.000311 
L 213.88859 74.142541 
L 213.392162 74.407178 
L 212.620552 74.878776 
L 212.519583 74.947836 
L 211.848942 75.418694 
L 211.409905 75.753131 
L 211.077332 76.01203 
L 210.415967 76.558426 
L 210.305722 76.650983 
L 209.534112 77.327659 
L 209.494426 77.363721 
L 208.762502 78.035832 
L 208.621251 78.169016 
L 207.990892 78.771885 
L 207.784021 78.974311 
L 207.219282 79.540811 
L 206.9865 79.779606 
L 206.447672 80.356646 
L 206.239405 80.584901 
L 205.676062 81.24628 
L 205.55626 81.390196 
L 204.950674 82.195491 
L 204.904452 82.266127 
L 204.433646 83.000786 
L 204.132843 83.569856 
L 204.009309 83.806081 
L 203.687166 84.611376 
L 203.46926 85.416671 
L 203.363887 86.221966 
L 203.384873 87.027261 
L 203.55385 87.832556 
L 203.903926 88.637851 
L 204.132843 88.976459 
L 204.512526 89.443146 
L 204.904452 89.796762 
L 205.551089 90.248441 
L 205.676062 90.319941 
L 206.447672 90.661971 
L 207.219282 90.895677 
L 207.990892 91.038281 
L 208.176454 91.053736 
z
M 207.536378 89.443146 
L 207.219282 89.330893 
L 206.447672 88.910506 
L 206.089593 88.637851 
L 205.676062 88.19771 
L 205.409072 87.832556 
L 205.060516 87.027261 
L 204.9287 86.221966 
L 204.971948 85.416671 
L 205.160654 84.611376 
L 205.473502 83.806081 
L 205.676062 83.423086 
L 205.906723 83.000786 
L 206.442769 82.195491 
L 206.447672 82.18913 
L 207.084201 81.390196 
L 207.219282 81.235742 
L 207.807505 80.584901 
L 207.990892 80.393695 
L 208.598545 79.779606 
L 208.762502 79.619667 
L 209.44459 78.974311 
L 209.534112 78.891342 
L 210.305722 78.200957 
L 210.343137 78.169016 
L 211.077332 77.552613 
L 211.314408 77.363721 
L 211.848942 76.946459 
L 212.382357 76.558426 
L 212.620552 76.389914 
L 213.392162 75.900868 
L 213.661414 75.753131 
L 214.163772 75.489228 
L 214.935382 75.159256 
L 215.599899 74.947836 
L 215.706992 74.915536 
L 216.478602 74.789642 
L 217.250212 74.781639 
L 218.021822 74.920301 
L 218.092934 74.947836 
L 218.793432 75.325587 
L 219.250991 75.753131 
L 219.565042 76.264937 
L 219.695012 76.558426 
L 219.843423 77.363721 
L 219.824117 78.169016 
L 219.683759 78.974311 
L 219.565042 79.380707 
L 219.445381 79.779606 
L 219.132872 80.584901 
L 218.793432 81.348023 
L 218.774217 81.390196 
L 218.361187 82.195491 
L 218.021822 82.820613 
L 217.921667 83.000786 
L 217.445786 83.806081 
L 217.250212 84.120186 
L 216.934418 84.611376 
L 216.478602 85.282316 
L 216.382971 85.416671 
L 215.767359 86.221966 
L 215.706992 86.295135 
L 215.055441 87.027261 
L 214.935382 87.151102 
L 214.201236 87.832556 
L 214.163772 87.864366 
L 213.392162 88.435599 
L 213.066642 88.637851 
L 212.620552 88.891928 
L 211.848942 89.241365 
L 211.248597 89.443146 
L 211.077332 89.496854 
L 210.305722 89.652744 
L 209.534112 89.721111 
L 208.762502 89.69842 
L 207.990892 89.577098 
z
" style="fill:#e83429;"/>
   </g>
   <g id="PathCollection_8">
    <path clip-path="url(#p38fc38aab1)" d="M 207.990892 89.577098 
L 208.762502 89.69842 
L 209.534112 89.721111 
L 210.305722 89.652744 
L 211.077332 89.496854 
L 211.248597 89.443146 
L 211.848942 89.241365 
L 212.620552 88.891928 
L 213.066642 88.637851 
L 213.392162 88.435599 
L 214.163772 87.864366 
L 214.201236 87.832556 
L 214.935382 87.151102 
L 215.055441 87.027261 
L 215.706992 86.295135 
L 215.767359 86.221966 
L 216.382971 85.416671 
L 216.478602 85.282316 
L 216.934418 84.611376 
L 217.250212 84.120186 
L 217.445786 83.806081 
L 217.921667 83.000786 
L 218.021822 82.820613 
L 218.361187 82.195491 
L 218.774217 81.390196 
L 218.793432 81.348023 
L 219.132872 80.584901 
L 219.445381 79.779606 
L 219.565042 79.380707 
L 219.683759 78.974311 
L 219.824117 78.169016 
L 219.843423 77.363721 
L 219.695012 76.558426 
L 219.565042 76.264937 
L 219.250991 75.753131 
L 218.793432 75.325587 
L 218.092934 74.947836 
L 218.021822 74.920301 
L 217.250212 74.781639 
L 216.478602 74.789642 
L 215.706992 74.915536 
L 215.599899 74.947836 
L 214.935382 75.159256 
L 214.163772 75.489228 
L 213.661414 75.753131 
L 213.392162 75.900868 
L 212.620552 76.389914 
L 212.382357 76.558426 
L 211.848942 76.946459 
L 211.314408 77.363721 
L 211.077332 77.552613 
L 210.343137 78.169016 
L 210.305722 78.200957 
L 209.534112 78.891342 
L 209.44459 78.974311 
L 208.762502 79.619667 
L 208.598545 79.779606 
L 207.990892 80.393695 
L 207.807505 80.584901 
L 207.219282 81.235742 
L 207.084201 81.390196 
L 206.447672 82.18913 
L 206.442769 82.195491 
L 205.906723 83.000786 
L 205.676062 83.423086 
L 205.473502 83.806081 
L 205.160654 84.611376 
L 204.971948 85.416671 
L 204.9287 86.221966 
L 205.060516 87.027261 
L 205.409072 87.832556 
L 205.676062 88.19771 
L 206.089593 88.637851 
L 206.447672 88.910506 
L 207.219282 89.330893 
L 207.536378 89.443146 
z
M 208.233246 87.832556 
L 207.990892 87.715691 
L 207.219282 87.07146 
L 207.182464 87.027261 
L 206.808533 86.221966 
L 206.717229 85.416671 
L 206.840166 84.611376 
L 207.127079 83.806081 
L 207.219282 83.633828 
L 207.578965 83.000786 
L 207.990892 82.412409 
L 208.152518 82.195491 
L 208.762502 81.479436 
L 208.843243 81.390196 
L 209.534112 80.687339 
L 209.640653 80.584901 
L 210.305722 79.976091 
L 210.532439 79.779606 
L 211.077332 79.321264 
L 211.514701 78.974311 
L 211.848942 78.715271 
L 212.605595 78.169016 
L 212.620552 78.158504 
L 213.392162 77.697532 
L 214.034694 77.363721 
L 214.163772 77.299868 
L 214.935382 77.036412 
L 215.706992 76.903175 
L 216.478602 76.971252 
L 217.236479 77.363721 
L 217.250212 77.377916 
L 217.639788 78.169016 
L 217.707046 78.974311 
L 217.589545 79.779606 
L 217.363606 80.584901 
L 217.250212 80.878329 
L 217.043575 81.390196 
L 216.668813 82.195491 
L 216.478602 82.561176 
L 216.240056 83.000786 
L 215.770069 83.806081 
L 215.706992 83.904046 
L 215.225266 84.611376 
L 214.935382 85.004023 
L 214.605676 85.416671 
L 214.163772 85.916634 
L 213.862088 86.221966 
L 213.392162 86.645858 
L 212.898172 87.027261 
L 212.620552 87.217619 
L 211.848942 87.638987 
L 211.363479 87.832556 
L 211.077332 87.933812 
L 210.305722 88.090502 
L 209.534112 88.12358 
L 208.762502 88.016142 
z
" style="fill:#ca181d;"/>
   </g>
   <g id="PathCollection_9">
    <path clip-path="url(#p38fc38aab1)" d="M 208.762502 88.016142 
L 209.534112 88.12358 
L 210.305722 88.090502 
L 211.077332 87.933812 
L 211.363479 87.832556 
L 211.848942 87.638987 
L 212.620552 87.217619 
L 212.898172 87.027261 
L 213.392162 86.645858 
L 213.862088 86.221966 
L 214.163772 85.916634 
L 214.605676 85.416671 
L 214.935382 85.004023 
L 215.225266 84.611376 
L 215.706992 83.904046 
L 215.770069 83.806081 
L 216.240056 83.000786 
L 216.478602 82.561176 
L 216.668813 82.195491 
L 217.043575 81.390196 
L 217.250212 80.878329 
L 217.363606 80.584901 
L 217.589545 79.779606 
L 217.707046 78.974311 
L 217.639788 78.169016 
L 217.250212 77.377916 
L 217.236479 77.363721 
L 216.478602 76.971252 
L 215.706992 76.903175 
L 214.935382 77.036412 
L 214.163772 77.299868 
L 214.034694 77.363721 
L 213.392162 77.697532 
L 212.620552 78.158504 
L 212.605595 78.169016 
L 211.848942 78.715271 
L 211.514701 78.974311 
L 211.077332 79.321264 
L 210.532439 79.779606 
L 210.305722 79.976091 
L 209.640653 80.584901 
L 209.534112 80.687339 
L 208.843243 81.390196 
L 208.762502 81.479436 
L 208.152518 82.195491 
L 207.990892 82.412409 
L 207.578965 83.000786 
L 207.219282 83.633828 
L 207.127079 83.806081 
L 206.840166 84.611376 
L 206.717229 85.416671 
L 206.808533 86.221966 
L 207.182464 87.027261 
L 207.219282 87.07146 
L 207.990892 87.715691 
L 208.233246 87.832556 
z
M 209.843692 85.416671 
L 209.534112 85.017643 
L 209.409897 84.611376 
L 209.534112 83.92871 
L 209.561586 83.806081 
L 210.055313 83.000786 
L 210.305722 82.694463 
L 210.778169 82.195491 
L 211.077332 81.924646 
L 211.760016 81.390196 
L 211.848942 81.326426 
L 212.620552 80.939721 
L 213.392162 80.728932 
L 214.163772 81.32646 
L 214.182142 81.390196 
L 214.163772 81.542258 
L 214.072771 82.195491 
L 213.743489 83.000786 
L 213.392162 83.651057 
L 213.293949 83.806081 
L 212.638403 84.611376 
L 212.620552 84.629092 
L 211.848942 85.210727 
L 211.440826 85.416671 
L 211.077332 85.558886 
L 210.305722 85.604236 
z
" style="fill:#ac1117;"/>
   </g>
   <g id="PathCollection_10">
    <path clip-path="url(#p38fc38aab1)" d="M 210.305722 85.604236 
L 211.077332 85.558886 
L 211.440826 85.416671 
L 211.848942 85.210727 
L 212.620552 84.629092 
L 212.638403 84.611376 
L 213.293949 83.806081 
L 213.392162 83.651057 
L 213.743489 83.000786 
L 214.072771 82.195491 
L 214.163772 81.542258 
L 214.182142 81.390196 
L 214.163772 81.32646 
L 213.392162 80.728932 
L 212.620552 80.939721 
L 211.848942 81.326426 
L 211.760016 81.390196 
L 211.077332 81.924646 
L 210.778169 82.195491 
L 210.305722 82.694463 
L 210.055313 83.000786 
L 209.561586 83.806081 
L 209.534112 83.92871 
L 209.409897 84.611376 
L 209.534112 85.017643 
L 209.843692 85.416671 
z
" style="fill:#7e0610;"/>
   </g>
   <g id="matplotlib.axis_1">
    <g id="xtick_1">
     <g id="line2d_1">
      <defs>
       <path d="M 0 0 
L 0 3.5 
" id="m462a49210d" style="stroke:#262626;stroke-width:0.8;"/>
      </defs>
      <g>
       <use style="fill:#262626;stroke:#262626;stroke-width:0.8;" x="67.334837" xlink:href="#m462a49210d" y="223"/>
      </g>
     </g>
     <g id="line2d_2">
      <defs>
       <path d="M 0 0 
L 0 -3.5 
" id="mb76bd6d9f7" style="stroke:#262626;stroke-width:0.8;"/>
      </defs>
      <g>
       <use style="fill:#262626;stroke:#262626;stroke-width:0.8;" x="67.334837" xlink:href="#mb76bd6d9f7" y="25.44"/>
      </g>
     </g>
     <g id="text_1">
      <!-- 0.0 -->
      <defs>
       <path d="M 31.78125 66.40625 
Q 24.171875 66.40625 20.328125 58.90625 
Q 16.5 51.421875 16.5 36.375 
Q 16.5 21.390625 20.328125 13.890625 
Q 24.171875 6.390625 31.78125 6.390625 
Q 39.453125 6.390625 43.28125 13.890625 
Q 47.125 21.390625 47.125 36.375 
Q 47.125 51.421875 43.28125 58.90625 
Q 39.453125 66.40625 31.78125 66.40625 
z
M 31.78125 74.21875 
Q 44.046875 74.21875 50.515625 64.515625 
Q 56.984375 54.828125 56.984375 36.375 
Q 56.984375 17.96875 50.515625 8.265625 
Q 44.046875 -1.421875 31.78125 -1.421875 
Q 19.53125 -1.421875 13.0625 8.265625 
Q 6.59375 17.96875 6.59375 36.375 
Q 6.59375 54.828125 13.0625 64.515625 
Q 19.53125 74.21875 31.78125 74.21875 
z
" id="DejaVuSans-30"/>
       <path d="M 10.6875 12.40625 
L 21 12.40625 
L 21 0 
L 10.6875 0 
z
" id="DejaVuSans-2e"/>
      </defs>
      <g style="fill:#262626;" transform="translate(58.588118 238.358281)scale(0.11 -0.11)">
       <use xlink:href="#DejaVuSans-30"/>
       <use x="63.623047" xlink:href="#DejaVuSans-2e"/>
       <use x="95.410156" xlink:href="#DejaVuSans-30"/>
      </g>
     </g>
    </g>
    <g id="xtick_2">
     <g id="line2d_3">
      <g>
       <use style="fill:#262626;stroke:#262626;stroke-width:0.8;" x="106.432402" xlink:href="#m462a49210d" y="223"/>
      </g>
     </g>
     <g id="line2d_4">
      <g>
       <use style="fill:#262626;stroke:#262626;stroke-width:0.8;" x="106.432402" xlink:href="#mb76bd6d9f7" y="25.44"/>
      </g>
     </g>
     <g id="text_2">
      <!-- 1.0 -->
      <defs>
       <path d="M 12.40625 8.296875 
L 28.515625 8.296875 
L 28.515625 63.921875 
L 10.984375 60.40625 
L 10.984375 69.390625 
L 28.421875 72.90625 
L 38.28125 72.90625 
L 38.28125 8.296875 
L 54.390625 8.296875 
L 54.390625 0 
L 12.40625 0 
z
" id="DejaVuSans-31"/>
      </defs>
      <g style="fill:#262626;" transform="translate(97.685684 238.358281)scale(0.11 -0.11)">
       <use xlink:href="#DejaVuSans-31"/>
       <use x="63.623047" xlink:href="#DejaVuSans-2e"/>
       <use x="95.410156" xlink:href="#DejaVuSans-30"/>
      </g>
     </g>
    </g>
    <g id="xtick_3">
     <g id="line2d_5">
      <g>
       <use style="fill:#262626;stroke:#262626;stroke-width:0.8;" x="145.529968" xlink:href="#m462a49210d" y="223"/>
      </g>
     </g>
     <g id="line2d_6">
      <g>
       <use style="fill:#262626;stroke:#262626;stroke-width:0.8;" x="145.529968" xlink:href="#mb76bd6d9f7" y="25.44"/>
      </g>
     </g>
     <g id="text_3">
      <!-- 2.0 -->
      <defs>
       <path d="M 19.1875 8.296875 
L 53.609375 8.296875 
L 53.609375 0 
L 7.328125 0 
L 7.328125 8.296875 
Q 12.9375 14.109375 22.625 23.890625 
Q 32.328125 33.6875 34.8125 36.53125 
Q 39.546875 41.84375 41.421875 45.53125 
Q 43.3125 49.21875 43.3125 52.78125 
Q 43.3125 58.59375 39.234375 62.25 
Q 35.15625 65.921875 28.609375 65.921875 
Q 23.96875 65.921875 18.8125 64.3125 
Q 13.671875 62.703125 7.8125 59.421875 
L 7.8125 69.390625 
Q 13.765625 71.78125 18.9375 73 
Q 24.125 74.21875 28.421875 74.21875 
Q 39.75 74.21875 46.484375 68.546875 
Q 53.21875 62.890625 53.21875 53.421875 
Q 53.21875 48.921875 51.53125 44.890625 
Q 49.859375 40.875 45.40625 35.40625 
Q 44.1875 33.984375 37.640625 27.21875 
Q 31.109375 20.453125 19.1875 8.296875 
z
" id="DejaVuSans-32"/>
      </defs>
      <g style="fill:#262626;" transform="translate(136.783249 238.358281)scale(0.11 -0.11)">
       <use xlink:href="#DejaVuSans-32"/>
       <use x="63.623047" xlink:href="#DejaVuSans-2e"/>
       <use x="95.410156" xlink:href="#DejaVuSans-30"/>
      </g>
     </g>
    </g>
    <g id="xtick_4">
     <g id="line2d_7">
      <g>
       <use style="fill:#262626;stroke:#262626;stroke-width:0.8;" x="184.627533" xlink:href="#m462a49210d" y="223"/>
      </g>
     </g>
     <g id="line2d_8">
      <g>
       <use style="fill:#262626;stroke:#262626;stroke-width:0.8;" x="184.627533" xlink:href="#mb76bd6d9f7" y="25.44"/>
      </g>
     </g>
     <g id="text_4">
      <!-- 3.0 -->
      <defs>
       <path d="M 40.578125 39.3125 
Q 47.65625 37.796875 51.625 33 
Q 55.609375 28.21875 55.609375 21.1875 
Q 55.609375 10.40625 48.1875 4.484375 
Q 40.765625 -1.421875 27.09375 -1.421875 
Q 22.515625 -1.421875 17.65625 -0.515625 
Q 12.796875 0.390625 7.625 2.203125 
L 7.625 11.71875 
Q 11.71875 9.328125 16.59375 8.109375 
Q 21.484375 6.890625 26.8125 6.890625 
Q 36.078125 6.890625 40.9375 10.546875 
Q 45.796875 14.203125 45.796875 21.1875 
Q 45.796875 27.640625 41.28125 31.265625 
Q 36.765625 34.90625 28.71875 34.90625 
L 20.21875 34.90625 
L 20.21875 43.015625 
L 29.109375 43.015625 
Q 36.375 43.015625 40.234375 45.921875 
Q 44.09375 48.828125 44.09375 54.296875 
Q 44.09375 59.90625 40.109375 62.90625 
Q 36.140625 65.921875 28.71875 65.921875 
Q 24.65625 65.921875 20.015625 65.03125 
Q 15.375 64.15625 9.8125 62.3125 
L 9.8125 71.09375 
Q 15.4375 72.65625 20.34375 73.4375 
Q 25.25 74.21875 29.59375 74.21875 
Q 40.828125 74.21875 47.359375 69.109375 
Q 53.90625 64.015625 53.90625 55.328125 
Q 53.90625 49.265625 50.4375 45.09375 
Q 46.96875 40.921875 40.578125 39.3125 
z
" id="DejaVuSans-33"/>
      </defs>
      <g style="fill:#262626;" transform="translate(175.880814 238.358281)scale(0.11 -0.11)">
       <use xlink:href="#DejaVuSans-33"/>
       <use x="63.623047" xlink:href="#DejaVuSans-2e"/>
       <use x="95.410156" xlink:href="#DejaVuSans-30"/>
      </g>
     </g>
    </g>
    <g id="xtick_5">
     <g id="line2d_9">
      <g>
       <use style="fill:#262626;stroke:#262626;stroke-width:0.8;" x="223.725099" xlink:href="#m462a49210d" y="223"/>
      </g>
     </g>
     <g id="line2d_10">
      <g>
       <use style="fill:#262626;stroke:#262626;stroke-width:0.8;" x="223.725099" xlink:href="#mb76bd6d9f7" y="25.44"/>
      </g>
     </g>
     <g id="text_5">
      <!-- 4.0 -->
      <defs>
       <path d="M 37.796875 64.3125 
L 12.890625 25.390625 
L 37.796875 25.390625 
z
M 35.203125 72.90625 
L 47.609375 72.90625 
L 47.609375 25.390625 
L 58.015625 25.390625 
L 58.015625 17.1875 
L 47.609375 17.1875 
L 47.609375 0 
L 37.796875 0 
L 37.796875 17.1875 
L 4.890625 17.1875 
L 4.890625 26.703125 
z
" id="DejaVuSans-34"/>
      </defs>
      <g style="fill:#262626;" transform="translate(214.97838 238.358281)scale(0.11 -0.11)">
       <use xlink:href="#DejaVuSans-34"/>
       <use x="63.623047" xlink:href="#DejaVuSans-2e"/>
       <use x="95.410156" xlink:href="#DejaVuSans-30"/>
      </g>
     </g>
    </g>
    <g id="text_6">
     <!-- log10 counts (Control) -->
     <defs>
      <path d="M 9.421875 75.984375 
L 18.40625 75.984375 
L 18.40625 0 
L 9.421875 0 
z
" id="DejaVuSans-6c"/>
      <path d="M 30.609375 48.390625 
Q 23.390625 48.390625 19.1875 42.75 
Q 14.984375 37.109375 14.984375 27.296875 
Q 14.984375 17.484375 19.15625 11.84375 
Q 23.34375 6.203125 30.609375 6.203125 
Q 37.796875 6.203125 41.984375 11.859375 
Q 46.1875 17.53125 46.1875 27.296875 
Q 46.1875 37.015625 41.984375 42.703125 
Q 37.796875 48.390625 30.609375 48.390625 
z
M 30.609375 56 
Q 42.328125 56 49.015625 48.375 
Q 55.71875 40.765625 55.71875 27.296875 
Q 55.71875 13.875 49.015625 6.21875 
Q 42.328125 -1.421875 30.609375 -1.421875 
Q 18.84375 -1.421875 12.171875 6.21875 
Q 5.515625 13.875 5.515625 27.296875 
Q 5.515625 40.765625 12.171875 48.375 
Q 18.84375 56 30.609375 56 
z
" id="DejaVuSans-6f"/>
      <path d="M 45.40625 27.984375 
Q 45.40625 37.75 41.375 43.109375 
Q 37.359375 48.484375 30.078125 48.484375 
Q 22.859375 48.484375 18.828125 43.109375 
Q 14.796875 37.75 14.796875 27.984375 
Q 14.796875 18.265625 18.828125 12.890625 
Q 22.859375 7.515625 30.078125 7.515625 
Q 37.359375 7.515625 41.375 12.890625 
Q 45.40625 18.265625 45.40625 27.984375 
z
M 54.390625 6.78125 
Q 54.390625 -7.171875 48.1875 -13.984375 
Q 42 -20.796875 29.203125 -20.796875 
Q 24.46875 -20.796875 20.265625 -20.09375 
Q 16.0625 -19.390625 12.109375 -17.921875 
L 12.109375 -9.1875 
Q 16.0625 -11.328125 19.921875 -12.34375 
Q 23.78125 -13.375 27.78125 -13.375 
Q 36.625 -13.375 41.015625 -8.765625 
Q 45.40625 -4.15625 45.40625 5.171875 
L 45.40625 9.625 
Q 42.625 4.78125 38.28125 2.390625 
Q 33.9375 0 27.875 0 
Q 17.828125 0 11.671875 7.65625 
Q 5.515625 15.328125 5.515625 27.984375 
Q 5.515625 40.671875 11.671875 48.328125 
Q 17.828125 56 27.875 56 
Q 33.9375 56 38.28125 53.609375 
Q 42.625 51.21875 45.40625 46.390625 
L 45.40625 54.6875 
L 54.390625 54.6875 
z
" id="DejaVuSans-67"/>
      <path id="DejaVuSans-20"/>
      <path d="M 48.78125 52.59375 
L 48.78125 44.1875 
Q 44.96875 46.296875 41.140625 47.34375 
Q 37.3125 48.390625 33.40625 48.390625 
Q 24.65625 48.390625 19.8125 42.84375 
Q 14.984375 37.3125 14.984375 27.296875 
Q 14.984375 17.28125 19.8125 11.734375 
Q 24.65625 6.203125 33.40625 6.203125 
Q 37.3125 6.203125 41.140625 7.25 
Q 44.96875 8.296875 48.78125 10.40625 
L 48.78125 2.09375 
Q 45.015625 0.34375 40.984375 -0.53125 
Q 36.96875 -1.421875 32.421875 -1.421875 
Q 20.0625 -1.421875 12.78125 6.34375 
Q 5.515625 14.109375 5.515625 27.296875 
Q 5.515625 40.671875 12.859375 48.328125 
Q 20.21875 56 33.015625 56 
Q 37.15625 56 41.109375 55.140625 
Q 45.0625 54.296875 48.78125 52.59375 
z
" id="DejaVuSans-63"/>
      <path d="M 8.5 21.578125 
L 8.5 54.6875 
L 17.484375 54.6875 
L 17.484375 21.921875 
Q 17.484375 14.15625 20.5 10.265625 
Q 23.53125 6.390625 29.59375 6.390625 
Q 36.859375 6.390625 41.078125 11.03125 
Q 45.3125 15.671875 45.3125 23.6875 
L 45.3125 54.6875 
L 54.296875 54.6875 
L 54.296875 0 
L 45.3125 0 
L 45.3125 8.40625 
Q 42.046875 3.421875 37.71875 1 
Q 33.40625 -1.421875 27.6875 -1.421875 
Q 18.265625 -1.421875 13.375 4.4375 
Q 8.5 10.296875 8.5 21.578125 
z
M 31.109375 56 
z
" id="DejaVuSans-75"/>
      <path d="M 54.890625 33.015625 
L 54.890625 0 
L 45.90625 0 
L 45.90625 32.71875 
Q 45.90625 40.484375 42.875 44.328125 
Q 39.84375 48.1875 33.796875 48.1875 
Q 26.515625 48.1875 22.3125 43.546875 
Q 18.109375 38.921875 18.109375 30.90625 
L 18.109375 0 
L 9.078125 0 
L 9.078125 54.6875 
L 18.109375 54.6875 
L 18.109375 46.1875 
Q 21.34375 51.125 25.703125 53.5625 
Q 30.078125 56 35.796875 56 
Q 45.21875 56 50.046875 50.171875 
Q 54.890625 44.34375 54.890625 33.015625 
z
" id="DejaVuSans-6e"/>
      <path d="M 18.3125 70.21875 
L 18.3125 54.6875 
L 36.8125 54.6875 
L 36.8125 47.703125 
L 18.3125 47.703125 
L 18.3125 18.015625 
Q 18.3125 11.328125 20.140625 9.421875 
Q 21.96875 7.515625 27.59375 7.515625 
L 36.8125 7.515625 
L 36.8125 0 
L 27.59375 0 
Q 17.1875 0 13.234375 3.875 
Q 9.28125 7.765625 9.28125 18.015625 
L 9.28125 47.703125 
L 2.6875 47.703125 
L 2.6875 54.6875 
L 9.28125 54.6875 
L 9.28125 70.21875 
z
" id="DejaVuSans-74"/>
      <path d="M 44.28125 53.078125 
L 44.28125 44.578125 
Q 40.484375 46.53125 36.375 47.5 
Q 32.28125 48.484375 27.875 48.484375 
Q 21.1875 48.484375 17.84375 46.4375 
Q 14.5 44.390625 14.5 40.28125 
Q 14.5 37.15625 16.890625 35.375 
Q 19.28125 33.59375 26.515625 31.984375 
L 29.59375 31.296875 
Q 39.15625 29.25 43.1875 25.515625 
Q 47.21875 21.78125 47.21875 15.09375 
Q 47.21875 7.46875 41.1875 3.015625 
Q 35.15625 -1.421875 24.609375 -1.421875 
Q 20.21875 -1.421875 15.453125 -0.5625 
Q 10.6875 0.296875 5.421875 2 
L 5.421875 11.28125 
Q 10.40625 8.6875 15.234375 7.390625 
Q 20.0625 6.109375 24.8125 6.109375 
Q 31.15625 6.109375 34.5625 8.28125 
Q 37.984375 10.453125 37.984375 14.40625 
Q 37.984375 18.0625 35.515625 20.015625 
Q 33.0625 21.96875 24.703125 23.78125 
L 21.578125 24.515625 
Q 13.234375 26.265625 9.515625 29.90625 
Q 5.8125 33.546875 5.8125 39.890625 
Q 5.8125 47.609375 11.28125 51.796875 
Q 16.75 56 26.8125 56 
Q 31.78125 56 36.171875 55.265625 
Q 40.578125 54.546875 44.28125 53.078125 
z
" id="DejaVuSans-73"/>
      <path d="M 31 75.875 
Q 24.46875 64.65625 21.28125 53.65625 
Q 18.109375 42.671875 18.109375 31.390625 
Q 18.109375 20.125 21.3125 9.0625 
Q 24.515625 -2 31 -13.1875 
L 23.1875 -13.1875 
Q 15.875 -1.703125 12.234375 9.375 
Q 8.59375 20.453125 8.59375 31.390625 
Q 8.59375 42.28125 12.203125 53.3125 
Q 15.828125 64.359375 23.1875 75.875 
z
" id="DejaVuSans-28"/>
      <path d="M 64.40625 67.28125 
L 64.40625 56.890625 
Q 59.421875 61.53125 53.78125 63.8125 
Q 48.140625 66.109375 41.796875 66.109375 
Q 29.296875 66.109375 22.65625 58.46875 
Q 16.015625 50.828125 16.015625 36.375 
Q 16.015625 21.96875 22.65625 14.328125 
Q 29.296875 6.6875 41.796875 6.6875 
Q 48.140625 6.6875 53.78125 8.984375 
Q 59.421875 11.28125 64.40625 15.921875 
L 64.40625 5.609375 
Q 59.234375 2.09375 53.4375 0.328125 
Q 47.65625 -1.421875 41.21875 -1.421875 
Q 24.65625 -1.421875 15.125 8.703125 
Q 5.609375 18.84375 5.609375 36.375 
Q 5.609375 53.953125 15.125 64.078125 
Q 24.65625 74.21875 41.21875 74.21875 
Q 47.75 74.21875 53.53125 72.484375 
Q 59.328125 70.75 64.40625 67.28125 
z
" id="DejaVuSans-43"/>
      <path d="M 41.109375 46.296875 
Q 39.59375 47.171875 37.8125 47.578125 
Q 36.03125 48 33.890625 48 
Q 26.265625 48 22.1875 43.046875 
Q 18.109375 38.09375 18.109375 28.8125 
L 18.109375 0 
L 9.078125 0 
L 9.078125 54.6875 
L 18.109375 54.6875 
L 18.109375 46.1875 
Q 20.953125 51.171875 25.484375 53.578125 
Q 30.03125 56 36.53125 56 
Q 37.453125 56 38.578125 55.875 
Q 39.703125 55.765625 41.0625 55.515625 
z
" id="DejaVuSans-72"/>
      <path d="M 8.015625 75.875 
L 15.828125 75.875 
Q 23.140625 64.359375 26.78125 53.3125 
Q 30.421875 42.28125 30.421875 31.390625 
Q 30.421875 20.453125 26.78125 9.375 
Q 23.140625 -1.703125 15.828125 -13.1875 
L 8.015625 -13.1875 
Q 14.5 -2 17.703125 9.0625 
Q 20.90625 20.125 20.90625 31.390625 
Q 20.90625 42.671875 17.703125 53.65625 
Q 14.5 64.65625 8.015625 75.875 
z
" id="DejaVuSans-29"/>
     </defs>
     <g transform="translate(83.294531 253.004219)scale(0.11 -0.11)">
      <use xlink:href="#DejaVuSans-6c"/>
      <use x="27.783203" xlink:href="#DejaVuSans-6f"/>
      <use x="88.964844" xlink:href="#DejaVuSans-67"/>
      <use x="152.441406" xlink:href="#DejaVuSans-31"/>
      <use x="216.064453" xlink:href="#DejaVuSans-30"/>
      <use x="279.6875" xlink:href="#DejaVuSans-20"/>
      <use x="311.474609" xlink:href="#DejaVuSans-63"/>
      <use x="366.455078" xlink:href="#DejaVuSans-6f"/>
      <use x="427.636719" xlink:href="#DejaVuSans-75"/>
      <use x="491.015625" xlink:href="#DejaVuSans-6e"/>
      <use x="554.394531" xlink:href="#DejaVuSans-74"/>
      <use x="593.603516" xlink:href="#DejaVuSans-73"/>
      <use x="645.703125" xlink:href="#DejaVuSans-20"/>
      <use x="677.490234" xlink:href="#DejaVuSans-28"/>
      <use x="716.503906" xlink:href="#DejaVuSans-43"/>
      <use x="786.328125" xlink:href="#DejaVuSans-6f"/>
      <use x="847.509766" xlink:href="#DejaVuSans-6e"/>
      <use x="910.888672" xlink:href="#DejaVuSans-74"/>
      <use x="950.097656" xlink:href="#DejaVuSans-72"/>
      <use x="991.179688" xlink:href="#DejaVuSans-6f"/>
      <use x="1052.361328" xlink:href="#DejaVuSans-6c"/>
      <use x="1080.144531" xlink:href="#DejaVuSans-29"/>
     </g>
    </g>
   </g>
   <g id="matplotlib.axis_2">
    <g id="ytick_1">
     <g id="line2d_11">
      <defs>
       <path d="M 0 0 
L -3.5 0 
" id="m6f6f491293" style="stroke:#262626;stroke-width:0.8;"/>
      </defs>
      <g>
       <use style="fill:#262626;stroke:#262626;stroke-width:0.8;" x="51.01625" xlink:href="#m6f6f491293" y="208.365926"/>
      </g>
     </g>
     <g id="line2d_12">
      <defs>
       <path d="M 0 0 
L 3.5 0 
" id="m07859bc6ca" style="stroke:#262626;stroke-width:0.8;"/>
      </defs>
      <g>
       <use style="fill:#262626;stroke:#262626;stroke-width:0.8;" x="238.68" xlink:href="#m07859bc6ca" y="208.365926"/>
      </g>
     </g>
     <g id="text_7">
      <!-- 0.0 -->
      <g style="fill:#262626;" transform="translate(26.522813 212.545067)scale(0.11 -0.11)">
       <use xlink:href="#DejaVuSans-30"/>
       <use x="63.623047" xlink:href="#DejaVuSans-2e"/>
       <use x="95.410156" xlink:href="#DejaVuSans-30"/>
      </g>
     </g>
    </g>
    <g id="ytick_2">
     <g id="line2d_13">
      <g>
       <use style="fill:#262626;stroke:#262626;stroke-width:0.8;" x="51.01625" xlink:href="#m6f6f491293" y="174.448871"/>
      </g>
     </g>
     <g id="line2d_14">
      <g>
       <use style="fill:#262626;stroke:#262626;stroke-width:0.8;" x="238.68" xlink:href="#m07859bc6ca" y="174.448871"/>
      </g>
     </g>
     <g id="text_8">
      <!-- 1.0 -->
      <g style="fill:#262626;" transform="translate(26.522813 178.628012)scale(0.11 -0.11)">
       <use xlink:href="#DejaVuSans-31"/>
       <use x="63.623047" xlink:href="#DejaVuSans-2e"/>
       <use x="95.410156" xlink:href="#DejaVuSans-30"/>
      </g>
     </g>
    </g>
    <g id="ytick_3">
     <g id="line2d_15">
      <g>
       <use style="fill:#262626;stroke:#262626;stroke-width:0.8;" x="51.01625" xlink:href="#m6f6f491293" y="140.531816"/>
      </g>
     </g>
     <g id="line2d_16">
      <g>
       <use style="fill:#262626;stroke:#262626;stroke-width:0.8;" x="238.68" xlink:href="#m07859bc6ca" y="140.531816"/>
      </g>
     </g>
     <g id="text_9">
      <!-- 2.0 -->
      <g style="fill:#262626;" transform="translate(26.522813 144.710957)scale(0.11 -0.11)">
       <use xlink:href="#DejaVuSans-32"/>
       <use x="63.623047" xlink:href="#DejaVuSans-2e"/>
       <use x="95.410156" xlink:href="#DejaVuSans-30"/>
      </g>
     </g>
    </g>
    <g id="ytick_4">
     <g id="line2d_17">
      <g>
       <use style="fill:#262626;stroke:#262626;stroke-width:0.8;" x="51.01625" xlink:href="#m6f6f491293" y="106.614762"/>
      </g>
     </g>
     <g id="line2d_18">
      <g>
       <use style="fill:#262626;stroke:#262626;stroke-width:0.8;" x="238.68" xlink:href="#m07859bc6ca" y="106.614762"/>
      </g>
     </g>
     <g id="text_10">
      <!-- 3.0 -->
      <g style="fill:#262626;" transform="translate(26.522813 110.793902)scale(0.11 -0.11)">
       <use xlink:href="#DejaVuSans-33"/>
       <use x="63.623047" xlink:href="#DejaVuSans-2e"/>
       <use x="95.410156" xlink:href="#DejaVuSans-30"/>
      </g>
     </g>
    </g>
    <g id="ytick_5">
     <g id="line2d_19">
      <g>
       <use style="fill:#262626;stroke:#262626;stroke-width:0.8;" x="51.01625" xlink:href="#m6f6f491293" y="72.697707"/>
      </g>
     </g>
     <g id="line2d_20">
      <g>
       <use style="fill:#262626;stroke:#262626;stroke-width:0.8;" x="238.68" xlink:href="#m07859bc6ca" y="72.697707"/>
      </g>
     </g>
     <g id="text_11">
      <!-- 4.0 -->
      <g style="fill:#262626;" transform="translate(26.522813 76.876847)scale(0.11 -0.11)">
       <use xlink:href="#DejaVuSans-34"/>
       <use x="63.623047" xlink:href="#DejaVuSans-2e"/>
       <use x="95.410156" xlink:href="#DejaVuSans-30"/>
      </g>
     </g>
    </g>
    <g id="ytick_6">
     <g id="line2d_21">
      <g>
       <use style="fill:#262626;stroke:#262626;stroke-width:0.8;" x="51.01625" xlink:href="#m6f6f491293" y="38.780652"/>
      </g>
     </g>
     <g id="line2d_22">
      <g>
       <use style="fill:#262626;stroke:#262626;stroke-width:0.8;" x="238.68" xlink:href="#m07859bc6ca" y="38.780652"/>
      </g>
     </g>
     <g id="text_12">
      <!-- 5.0 -->
      <defs>
       <path d="M 10.796875 72.90625 
L 49.515625 72.90625 
L 49.515625 64.59375 
L 19.828125 64.59375 
L 19.828125 46.734375 
Q 21.96875 47.46875 24.109375 47.828125 
Q 26.265625 48.1875 28.421875 48.1875 
Q 40.625 48.1875 47.75 41.5 
Q 54.890625 34.8125 54.890625 23.390625 
Q 54.890625 11.625 47.5625 5.09375 
Q 40.234375 -1.421875 26.90625 -1.421875 
Q 22.3125 -1.421875 17.546875 -0.640625 
Q 12.796875 0.140625 7.71875 1.703125 
L 7.71875 11.625 
Q 12.109375 9.234375 16.796875 8.0625 
Q 21.484375 6.890625 26.703125 6.890625 
Q 35.15625 6.890625 40.078125 11.328125 
Q 45.015625 15.765625 45.015625 23.390625 
Q 45.015625 31 40.078125 35.4375 
Q 35.15625 39.890625 26.703125 39.890625 
Q 22.75 39.890625 18.8125 39.015625 
Q 14.890625 38.140625 10.796875 36.28125 
z
" id="DejaVuSans-35"/>
      </defs>
      <g style="fill:#262626;" transform="translate(26.522813 42.959793)scale(0.11 -0.11)">
       <use xlink:href="#DejaVuSans-35"/>
       <use x="63.623047" xlink:href="#DejaVuSans-2e"/>
       <use x="95.410156" xlink:href="#DejaVuSans-30"/>
      </g>
     </g>
    </g>
    <g id="text_13">
     <!-- log10 counts (CD107a_positive_avg) -->
     <defs>
      <path d="M 19.671875 64.796875 
L 19.671875 8.109375 
L 31.59375 8.109375 
Q 46.6875 8.109375 53.6875 14.9375 
Q 60.6875 21.78125 60.6875 36.53125 
Q 60.6875 51.171875 53.6875 57.984375 
Q 46.6875 64.796875 31.59375 64.796875 
z
M 9.8125 72.90625 
L 30.078125 72.90625 
Q 51.265625 72.90625 61.171875 64.09375 
Q 71.09375 55.28125 71.09375 36.53125 
Q 71.09375 17.671875 61.125 8.828125 
Q 51.171875 0 30.078125 0 
L 9.8125 0 
z
" id="DejaVuSans-44"/>
      <path d="M 8.203125 72.90625 
L 55.078125 72.90625 
L 55.078125 68.703125 
L 28.609375 0 
L 18.3125 0 
L 43.21875 64.59375 
L 8.203125 64.59375 
z
" id="DejaVuSans-37"/>
      <path d="M 34.28125 27.484375 
Q 23.390625 27.484375 19.1875 25 
Q 14.984375 22.515625 14.984375 16.5 
Q 14.984375 11.71875 18.140625 8.90625 
Q 21.296875 6.109375 26.703125 6.109375 
Q 34.1875 6.109375 38.703125 11.40625 
Q 43.21875 16.703125 43.21875 25.484375 
L 43.21875 27.484375 
z
M 52.203125 31.203125 
L 52.203125 0 
L 43.21875 0 
L 43.21875 8.296875 
Q 40.140625 3.328125 35.546875 0.953125 
Q 30.953125 -1.421875 24.3125 -1.421875 
Q 15.921875 -1.421875 10.953125 3.296875 
Q 6 8.015625 6 15.921875 
Q 6 25.140625 12.171875 29.828125 
Q 18.359375 34.515625 30.609375 34.515625 
L 43.21875 34.515625 
L 43.21875 35.40625 
Q 43.21875 41.609375 39.140625 45 
Q 35.0625 48.390625 27.6875 48.390625 
Q 23 48.390625 18.546875 47.265625 
Q 14.109375 46.140625 10.015625 43.890625 
L 10.015625 52.203125 
Q 14.9375 54.109375 19.578125 55.046875 
Q 24.21875 56 28.609375 56 
Q 40.484375 56 46.34375 49.84375 
Q 52.203125 43.703125 52.203125 31.203125 
z
" id="DejaVuSans-61"/>
      <path d="M 50.984375 -16.609375 
L 50.984375 -23.578125 
L -0.984375 -23.578125 
L -0.984375 -16.609375 
z
" id="DejaVuSans-5f"/>
      <path d="M 18.109375 8.203125 
L 18.109375 -20.796875 
L 9.078125 -20.796875 
L 9.078125 54.6875 
L 18.109375 54.6875 
L 18.109375 46.390625 
Q 20.953125 51.265625 25.265625 53.625 
Q 29.59375 56 35.59375 56 
Q 45.5625 56 51.78125 48.09375 
Q 58.015625 40.1875 58.015625 27.296875 
Q 58.015625 14.40625 51.78125 6.484375 
Q 45.5625 -1.421875 35.59375 -1.421875 
Q 29.59375 -1.421875 25.265625 0.953125 
Q 20.953125 3.328125 18.109375 8.203125 
z
M 48.6875 27.296875 
Q 48.6875 37.203125 44.609375 42.84375 
Q 40.53125 48.484375 33.40625 48.484375 
Q 26.265625 48.484375 22.1875 42.84375 
Q 18.109375 37.203125 18.109375 27.296875 
Q 18.109375 17.390625 22.1875 11.75 
Q 26.265625 6.109375 33.40625 6.109375 
Q 40.53125 6.109375 44.609375 11.75 
Q 48.6875 17.390625 48.6875 27.296875 
z
" id="DejaVuSans-70"/>
      <path d="M 9.421875 54.6875 
L 18.40625 54.6875 
L 18.40625 0 
L 9.421875 0 
z
M 9.421875 75.984375 
L 18.40625 75.984375 
L 18.40625 64.59375 
L 9.421875 64.59375 
z
" id="DejaVuSans-69"/>
      <path d="M 2.984375 54.6875 
L 12.5 54.6875 
L 29.59375 8.796875 
L 46.6875 54.6875 
L 56.203125 54.6875 
L 35.6875 0 
L 23.484375 0 
z
" id="DejaVuSans-76"/>
      <path d="M 56.203125 29.59375 
L 56.203125 25.203125 
L 14.890625 25.203125 
Q 15.484375 15.921875 20.484375 11.0625 
Q 25.484375 6.203125 34.421875 6.203125 
Q 39.59375 6.203125 44.453125 7.46875 
Q 49.3125 8.734375 54.109375 11.28125 
L 54.109375 2.78125 
Q 49.265625 0.734375 44.1875 -0.34375 
Q 39.109375 -1.421875 33.890625 -1.421875 
Q 20.796875 -1.421875 13.15625 6.1875 
Q 5.515625 13.8125 5.515625 26.8125 
Q 5.515625 40.234375 12.765625 48.109375 
Q 20.015625 56 32.328125 56 
Q 43.359375 56 49.78125 48.890625 
Q 56.203125 41.796875 56.203125 29.59375 
z
M 47.21875 32.234375 
Q 47.125 39.59375 43.09375 43.984375 
Q 39.0625 48.390625 32.421875 48.390625 
Q 24.90625 48.390625 20.390625 44.140625 
Q 15.875 39.890625 15.1875 32.171875 
z
" id="DejaVuSans-65"/>
     </defs>
     <g transform="translate(19.929219 224.908672)rotate(-90)scale(0.11 -0.11)">
      <use xlink:href="#DejaVuSans-6c"/>
      <use x="27.783203" xlink:href="#DejaVuSans-6f"/>
      <use x="88.964844" xlink:href="#DejaVuSans-67"/>
      <use x="152.441406" xlink:href="#DejaVuSans-31"/>
      <use x="216.064453" xlink:href="#DejaVuSans-30"/>
      <use x="279.6875" xlink:href="#DejaVuSans-20"/>
      <use x="311.474609" xlink:href="#DejaVuSans-63"/>
      <use x="366.455078" xlink:href="#DejaVuSans-6f"/>
      <use x="427.636719" xlink:href="#DejaVuSans-75"/>
      <use x="491.015625" xlink:href="#DejaVuSans-6e"/>
      <use x="554.394531" xlink:href="#DejaVuSans-74"/>
      <use x="593.603516" xlink:href="#DejaVuSans-73"/>
      <use x="645.703125" xlink:href="#DejaVuSans-20"/>
      <use x="677.490234" xlink:href="#DejaVuSans-28"/>
      <use x="716.503906" xlink:href="#DejaVuSans-43"/>
      <use x="786.328125" xlink:href="#DejaVuSans-44"/>
      <use x="863.330078" xlink:href="#DejaVuSans-31"/>
      <use x="926.953125" xlink:href="#DejaVuSans-30"/>
      <use x="990.576172" xlink:href="#DejaVuSans-37"/>
      <use x="1054.199219" xlink:href="#DejaVuSans-61"/>
      <use x="1115.478516" xlink:href="#DejaVuSans-5f"/>
      <use x="1165.478516" xlink:href="#DejaVuSans-70"/>
      <use x="1228.955078" xlink:href="#DejaVuSans-6f"/>
      <use x="1290.136719" xlink:href="#DejaVuSans-73"/>
      <use x="1342.236328" xlink:href="#DejaVuSans-69"/>
      <use x="1370.019531" xlink:href="#DejaVuSans-74"/>
      <use x="1409.228516" xlink:href="#DejaVuSans-69"/>
      <use x="1437.011719" xlink:href="#DejaVuSans-76"/>
      <use x="1496.191406" xlink:href="#DejaVuSans-65"/>
      <use x="1557.714844" xlink:href="#DejaVuSans-5f"/>
      <use x="1607.714844" xlink:href="#DejaVuSans-61"/>
      <use x="1668.994141" xlink:href="#DejaVuSans-76"/>
      <use x="1728.173828" xlink:href="#DejaVuSans-67"/>
      <use x="1791.650391" xlink:href="#DejaVuSans-29"/>
     </g>
    </g>
   </g>
   <g id="line2d_23">
    <path clip-path="url(#p38fc38aab1)" d="M 51.01625 222.522265 
L 238.68 59.724362 
" style="fill:none;opacity:0.75;stroke:#808080;stroke-dasharray:5.55,2.4;stroke-dashoffset:0;stroke-width:1.5;"/>
   </g>
   <g id="patch_3">
    <path d="M 51.01625 223 
L 51.01625 25.44 
" style="fill:none;stroke:#000000;stroke-linecap:square;stroke-linejoin:miter;stroke-width:0.8;"/>
   </g>
   <g id="patch_4">
    <path d="M 238.68 223 
L 238.68 25.44 
" style="fill:none;stroke:#000000;stroke-linecap:square;stroke-linejoin:miter;stroke-width:0.8;"/>
   </g>
   <g id="patch_5">
    <path d="M 51.01625 223 
L 238.68 223 
" style="fill:none;stroke:#000000;stroke-linecap:square;stroke-linejoin:miter;stroke-width:0.8;"/>
   </g>
   <g id="patch_6">
    <path d="M 51.01625 25.44 
L 238.68 25.44 
" style="fill:none;stroke:#000000;stroke-linecap:square;stroke-linejoin:miter;stroke-width:0.8;"/>
   </g>
   <g id="text_14">
    <!-- sgRNA Density -->
    <defs>
     <path d="M 44.390625 34.1875 
Q 47.5625 33.109375 50.5625 29.59375 
Q 53.5625 26.078125 56.59375 19.921875 
L 66.609375 0 
L 56 0 
L 46.6875 18.703125 
Q 43.0625 26.03125 39.671875 28.421875 
Q 36.28125 30.8125 30.421875 30.8125 
L 19.671875 30.8125 
L 19.671875 0 
L 9.8125 0 
L 9.8125 72.90625 
L 32.078125 72.90625 
Q 44.578125 72.90625 50.734375 67.671875 
Q 56.890625 62.453125 56.890625 51.90625 
Q 56.890625 45.015625 53.6875 40.46875 
Q 50.484375 35.9375 44.390625 34.1875 
z
M 19.671875 64.796875 
L 19.671875 38.921875 
L 32.078125 38.921875 
Q 39.203125 38.921875 42.84375 42.21875 
Q 46.484375 45.515625 46.484375 51.90625 
Q 46.484375 58.296875 42.84375 61.546875 
Q 39.203125 64.796875 32.078125 64.796875 
z
" id="DejaVuSans-52"/>
     <path d="M 9.8125 72.90625 
L 23.09375 72.90625 
L 55.421875 11.921875 
L 55.421875 72.90625 
L 64.984375 72.90625 
L 64.984375 0 
L 51.703125 0 
L 19.390625 60.984375 
L 19.390625 0 
L 9.8125 0 
z
" id="DejaVuSans-4e"/>
     <path d="M 34.1875 63.1875 
L 20.796875 26.90625 
L 47.609375 26.90625 
z
M 28.609375 72.90625 
L 39.796875 72.90625 
L 67.578125 0 
L 57.328125 0 
L 50.6875 18.703125 
L 17.828125 18.703125 
L 11.1875 0 
L 0.78125 0 
z
" id="DejaVuSans-41"/>
     <path d="M 32.171875 -5.078125 
Q 28.375 -14.84375 24.75 -17.8125 
Q 21.140625 -20.796875 15.09375 -20.796875 
L 7.90625 -20.796875 
L 7.90625 -13.28125 
L 13.1875 -13.28125 
Q 16.890625 -13.28125 18.9375 -11.515625 
Q 21 -9.765625 23.484375 -3.21875 
L 25.09375 0.875 
L 2.984375 54.6875 
L 12.5 54.6875 
L 29.59375 11.921875 
L 46.6875 54.6875 
L 56.203125 54.6875 
z
" id="DejaVuSans-79"/>
    </defs>
    <g transform="translate(100.434063 19.44)scale(0.12 -0.12)">
     <use xlink:href="#DejaVuSans-73"/>
     <use x="52.099609" xlink:href="#DejaVuSans-67"/>
     <use x="115.576172" xlink:href="#DejaVuSans-52"/>
     <use x="185.058594" xlink:href="#DejaVuSans-4e"/>
     <use x="259.863281" xlink:href="#DejaVuSans-41"/>
     <use x="328.271484" xlink:href="#DejaVuSans-20"/>
     <use x="360.058594" xlink:href="#DejaVuSans-44"/>
     <use x="437.060547" xlink:href="#DejaVuSans-65"/>
     <use x="498.583984" xlink:href="#DejaVuSans-6e"/>
     <use x="561.962891" xlink:href="#DejaVuSans-73"/>
     <use x="614.0625" xlink:href="#DejaVuSans-69"/>
     <use x="641.845703" xlink:href="#DejaVuSans-74"/>
     <use x="681.054688" xlink:href="#DejaVuSans-79"/>
    </g>
   </g>
  </g>
 </g>
 <defs>
  <clipPath id="p38fc38aab1">
   <rect height="197.56" width="187.66375" x="51.01625" y="25.44"/>
  </clipPath>
 </defs>
</svg>
