<?xml version="1.0" encoding="utf-8" standalone="no"?>
<!DOCTYPE svg PUBLIC "-//W3C//DTD SVG 1.1//EN"
  "http://www.w3.org/Graphics/SVG/1.1/DTD/svg11.dtd">
<!-- Created with matplotlib (http://matplotlib.org/) -->
<svg height="266pt" version="1.1" viewBox="0 0 252 266" width="252pt" xmlns="http://www.w3.org/2000/svg" xmlns:xlink="http://www.w3.org/1999/xlink">
 <defs>
  <style type="text/css">
*{stroke-linecap:butt;stroke-linejoin:round;}
  </style>
 </defs>
 <g id="figure_1">
  <g id="patch_1">
   <path d="M 0 266.4 
L 252 266.4 
L 252 0 
L 0 0 
z
" style="fill:#ffffff;"/>
  </g>
  <g id="axes_1">
   <g id="patch_2">
    <path d="M 51.01625 223 
L 238.68 223 
L 238.68 25.44 
L 51.01625 25.44 
z
" style="fill:#ffffff;"/>
   </g>
   <g id="PathCollection_1">
    <path clip-path="url(#p5d017dee64)" d="M 172.496834 125.741505 
L 173.268444 125.741505 
L 174.040054 125.741505 
L 174.811664 125.741505 
L 175.583274 125.741505 
L 176.354884 125.741505 
L 177.126493 125.741505 
L 177.898103 125.741505 
L 178.669713 125.741505 
L 179.441323 125.741505 
L 180.212933 125.741505 
L 180.984543 125.741505 
L 181.756153 125.741505 
L 182.527763 125.741505 
L 183.299373 125.741505 
L 184.070983 125.741505 
L 184.842593 125.741505 
L 185.614203 125.741505 
L 186.385813 125.741505 
L 187.157423 125.741505 
L 187.929033 125.741505 
L 188.700643 125.741505 
L 189.472253 125.741505 
L 190.243863 125.741505 
L 191.015473 125.741505 
L 191.787083 125.741505 
L 192.558693 125.741505 
L 193.330303 125.741505 
L 194.101913 125.741505 
L 194.873523 125.741505 
L 195.645133 125.741505 
L 196.416743 125.741505 
L 197.188353 125.741505 
L 197.959963 125.741505 
L 198.731573 125.741505 
L 199.503183 125.741505 
L 200.274793 125.741505 
L 201.046403 125.741505 
L 201.818013 125.741505 
L 202.589623 125.741505 
L 203.361233 125.741505 
L 204.132843 125.741505 
L 204.904452 125.741505 
L 205.676062 125.741505 
L 206.447672 125.741505 
L 207.219282 125.741505 
L 207.990892 125.741505 
L 208.762502 125.741505 
L 209.534112 125.741505 
L 210.305722 125.741505 
L 211.077332 125.741505 
L 211.848942 125.741505 
L 212.620552 125.741505 
L 213.392162 125.741505 
L 214.163772 125.741505 
L 214.935382 125.741505 
L 215.706992 125.741505 
L 216.478602 125.741505 
L 217.250212 125.741505 
L 218.021822 125.741505 
L 218.793432 125.741505 
L 219.565042 125.741505 
L 220.336652 125.741505 
L 221.108262 125.741505 
L 221.879872 125.741505 
L 222.651482 125.741505 
L 223.423092 125.741505 
L 224.194702 125.741505 
L 224.966312 125.741505 
L 225.737922 125.741505 
L 226.509532 125.741505 
L 227.281142 125.741505 
L 228.052752 125.741505 
L 228.824362 125.741505 
L 229.595972 125.741505 
L 230.367582 125.741505 
L 231.139192 125.741505 
L 231.910802 125.741505 
L 232.682411 125.741505 
L 233.454021 125.741505 
L 234.225631 125.741505 
L 234.997241 125.741505 
L 235.768851 125.741505 
L 236.540461 125.741505 
L 237.312071 125.741505 
L 238.083681 125.741505 
L 238.855291 125.741505 
L 239.626901 125.741505 
L 240.398511 125.741505 
L 241.170121 125.741505 
L 241.941731 125.741505 
L 242.713341 125.741505 
L 243.484951 125.741505 
L 244.256561 125.741505 
L 245.028171 125.741505 
L 245.799781 125.741505 
L 246.571391 125.741505 
L 247.343001 125.741505 
L 248.114611 125.741505 
L 248.114611 124.941013 
L 248.114611 124.14052 
L 248.114611 123.340028 
L 248.114611 122.539535 
L 248.114611 121.739043 
L 248.114611 120.93855 
L 248.114611 120.138058 
L 248.114611 119.337566 
L 248.114611 118.537073 
L 248.114611 117.736581 
L 248.114611 116.936088 
L 248.114611 116.135596 
L 248.114611 115.335104 
L 248.114611 114.534611 
L 248.114611 113.734119 
L 248.114611 112.933626 
L 248.114611 112.133134 
L 248.114611 111.332642 
L 248.114611 110.532149 
L 248.114611 109.731657 
L 248.114611 108.931164 
L 248.114611 108.130672 
L 248.114611 107.330179 
L 248.114611 106.529687 
L 248.114611 105.729195 
L 248.114611 104.928702 
L 248.114611 104.12821 
L 248.114611 103.327717 
L 248.114611 102.527225 
L 248.114611 101.726733 
L 248.114611 100.92624 
L 248.114611 100.125748 
L 248.114611 99.325255 
L 248.114611 98.524763 
L 248.114611 97.72427 
L 248.114611 96.923778 
L 248.114611 96.123286 
L 248.114611 95.322793 
L 248.114611 94.522301 
L 248.114611 93.721808 
L 248.114611 92.921316 
L 248.114611 92.120824 
L 248.114611 91.320331 
L 248.114611 90.519839 
L 248.114611 89.719346 
L 248.114611 88.918854 
L 248.114611 88.118361 
L 248.114611 87.317869 
L 248.114611 86.517377 
L 248.114611 85.716884 
L 248.114611 84.916392 
L 248.114611 84.115899 
L 248.114611 83.315407 
L 248.114611 82.514915 
L 248.114611 81.714422 
L 248.114611 80.91393 
L 248.114611 80.113437 
L 248.114611 79.312945 
L 248.114611 78.512452 
L 248.114611 77.71196 
L 248.114611 76.911468 
L 248.114611 76.110975 
L 248.114611 75.310483 
L 248.114611 74.50999 
L 248.114611 73.709498 
L 248.114611 72.909006 
L 248.114611 72.108513 
L 248.114611 71.308021 
L 248.114611 70.507528 
L 248.114611 69.707036 
L 248.114611 68.906543 
L 248.114611 68.106051 
L 248.114611 67.305559 
L 248.114611 66.505066 
L 248.114611 65.704574 
L 248.114611 64.904081 
L 248.114611 64.103589 
L 248.114611 63.303097 
L 248.114611 62.502604 
L 248.114611 61.702112 
L 248.114611 60.901619 
L 248.114611 60.101127 
L 248.114611 59.300635 
L 248.114611 58.500142 
L 248.114611 57.69965 
L 248.114611 56.899157 
L 248.114611 56.098665 
L 248.114611 55.298172 
L 248.114611 54.49768 
L 248.114611 53.697188 
L 248.114611 52.896695 
L 248.114611 52.096203 
L 248.114611 51.29571 
L 248.114611 50.495218 
L 248.114611 49.694726 
L 248.114611 48.894233 
L 248.114611 48.093741 
L 248.114611 47.293248 
L 248.114611 46.492756 
L 247.343001 46.492756 
L 246.571391 46.492756 
L 245.799781 46.492756 
L 245.028171 46.492756 
L 244.256561 46.492756 
L 243.484951 46.492756 
L 242.713341 46.492756 
L 241.941731 46.492756 
L 241.170121 46.492756 
L 240.398511 46.492756 
L 239.626901 46.492756 
L 238.855291 46.492756 
L 238.083681 46.492756 
L 237.312071 46.492756 
L 236.540461 46.492756 
L 235.768851 46.492756 
L 234.997241 46.492756 
L 234.225631 46.492756 
L 233.454021 46.492756 
L 232.682411 46.492756 
L 231.910802 46.492756 
L 231.139192 46.492756 
L 230.367582 46.492756 
L 229.595972 46.492756 
L 228.824362 46.492756 
L 228.052752 46.492756 
L 227.281142 46.492756 
L 226.509532 46.492756 
L 225.737922 46.492756 
L 224.966312 46.492756 
L 224.194702 46.492756 
L 223.423092 46.492756 
L 222.651482 46.492756 
L 221.879872 46.492756 
L 221.108262 46.492756 
L 220.336652 46.492756 
L 219.565042 46.492756 
L 218.793432 46.492756 
L 218.021822 46.492756 
L 217.250212 46.492756 
L 216.478602 46.492756 
L 215.706992 46.492756 
L 214.935382 46.492756 
L 214.163772 46.492756 
L 213.392162 46.492756 
L 212.620552 46.492756 
L 211.848942 46.492756 
L 211.077332 46.492756 
L 210.305722 46.492756 
L 209.534112 46.492756 
L 208.762502 46.492756 
L 207.990892 46.492756 
L 207.219282 46.492756 
L 206.447672 46.492756 
L 205.676062 46.492756 
L 204.904452 46.492756 
L 204.132843 46.492756 
L 203.361233 46.492756 
L 202.589623 46.492756 
L 201.818013 46.492756 
L 201.046403 46.492756 
L 200.274793 46.492756 
L 199.503183 46.492756 
L 198.731573 46.492756 
L 197.959963 46.492756 
L 197.188353 46.492756 
L 196.416743 46.492756 
L 195.645133 46.492756 
L 194.873523 46.492756 
L 194.101913 46.492756 
L 193.330303 46.492756 
L 192.558693 46.492756 
L 191.787083 46.492756 
L 191.015473 46.492756 
L 190.243863 46.492756 
L 189.472253 46.492756 
L 188.700643 46.492756 
L 187.929033 46.492756 
L 187.157423 46.492756 
L 186.385813 46.492756 
L 185.614203 46.492756 
L 184.842593 46.492756 
L 184.070983 46.492756 
L 183.299373 46.492756 
L 182.527763 46.492756 
L 181.756153 46.492756 
L 180.984543 46.492756 
L 180.212933 46.492756 
L 179.441323 46.492756 
L 178.669713 46.492756 
L 177.898103 46.492756 
L 177.126493 46.492756 
L 176.354884 46.492756 
L 175.583274 46.492756 
L 174.811664 46.492756 
L 174.040054 46.492756 
L 173.268444 46.492756 
L 172.496834 46.492756 
L 171.725224 46.492756 
L 171.725224 47.293248 
L 171.725224 48.093741 
L 171.725224 48.894233 
L 171.725224 49.694726 
L 171.725224 50.495218 
L 171.725224 51.29571 
L 171.725224 52.096203 
L 171.725224 52.896695 
L 171.725224 53.697188 
L 171.725224 54.49768 
L 171.725224 55.298172 
L 171.725224 56.098665 
L 171.725224 56.899157 
L 171.725224 57.69965 
L 171.725224 58.500142 
L 171.725224 59.300635 
L 171.725224 60.101127 
L 171.725224 60.901619 
L 171.725224 61.702112 
L 171.725224 62.502604 
L 171.725224 63.303097 
L 171.725224 64.103589 
L 171.725224 64.904081 
L 171.725224 65.704574 
L 171.725224 66.505066 
L 171.725224 67.305559 
L 171.725224 68.106051 
L 171.725224 68.906543 
L 171.725224 69.707036 
L 171.725224 70.507528 
L 171.725224 71.308021 
L 171.725224 72.108513 
L 171.725224 72.909006 
L 171.725224 73.709498 
L 171.725224 74.50999 
L 171.725224 75.310483 
L 171.725224 76.110975 
L 171.725224 76.911468 
L 171.725224 77.71196 
L 171.725224 78.512452 
L 171.725224 79.312945 
L 171.725224 80.113437 
L 171.725224 80.91393 
L 171.725224 81.714422 
L 171.725224 82.514915 
L 171.725224 83.315407 
L 171.725224 84.115899 
L 171.725224 84.916392 
L 171.725224 85.716884 
L 171.725224 86.517377 
L 171.725224 87.317869 
L 171.725224 88.118361 
L 171.725224 88.918854 
L 171.725224 89.719346 
L 171.725224 90.519839 
L 171.725224 91.320331 
L 171.725224 92.120824 
L 171.725224 92.921316 
L 171.725224 93.721808 
L 171.725224 94.522301 
L 171.725224 95.322793 
L 171.725224 96.123286 
L 171.725224 96.923778 
L 171.725224 97.72427 
L 171.725224 98.524763 
L 171.725224 99.325255 
L 171.725224 100.125748 
L 171.725224 100.92624 
L 171.725224 101.726733 
L 171.725224 102.527225 
L 171.725224 103.327717 
L 171.725224 104.12821 
L 171.725224 104.928702 
L 171.725224 105.729195 
L 171.725224 106.529687 
L 171.725224 107.330179 
L 171.725224 108.130672 
L 171.725224 108.931164 
L 171.725224 109.731657 
L 171.725224 110.532149 
L 171.725224 111.332642 
L 171.725224 112.133134 
L 171.725224 112.933626 
L 171.725224 113.734119 
L 171.725224 114.534611 
L 171.725224 115.335104 
L 171.725224 116.135596 
L 171.725224 116.936088 
L 171.725224 117.736581 
L 171.725224 118.537073 
L 171.725224 119.337566 
L 171.725224 120.138058 
L 171.725224 120.93855 
L 171.725224 121.739043 
L 171.725224 122.539535 
L 171.725224 123.340028 
L 171.725224 124.14052 
L 171.725224 124.941013 
L 171.725224 125.741505 
z
M 195.926046 100.125748 
L 195.645133 100.041228 
L 194.873523 99.742715 
L 194.101913 99.360981 
L 194.040689 99.325255 
L 193.330303 98.891287 
L 192.831528 98.524763 
L 192.558693 98.3059 
L 191.932739 97.72427 
L 191.787083 97.569226 
L 191.244195 96.923778 
L 191.015473 96.594016 
L 190.71255 96.123286 
L 190.311913 95.322793 
L 190.243863 95.140945 
L 190.018226 94.522301 
L 189.822831 93.721808 
L 189.715998 92.921316 
L 189.688046 92.120824 
L 189.7308 91.320331 
L 189.837264 90.519839 
L 190.001463 89.719346 
L 190.218462 88.918854 
L 190.243863 88.841558 
L 190.461717 88.118361 
L 190.739905 87.317869 
L 191.015473 86.613787 
L 191.049695 86.517377 
L 191.358941 85.716884 
L 191.697353 84.916392 
L 191.787083 84.719022 
L 192.033683 84.115899 
L 192.389968 83.315407 
L 192.558693 82.965813 
L 192.754694 82.514915 
L 193.136009 81.714422 
L 193.330303 81.342539 
L 193.533641 80.91393 
L 193.954857 80.113437 
L 194.101913 79.85807 
L 194.390584 79.312945 
L 194.870506 78.512452 
L 194.873523 78.507729 
L 195.347977 77.71196 
L 195.645133 77.26726 
L 195.869199 76.911468 
L 196.416743 76.130629 
L 196.429865 76.110975 
L 196.998867 75.310483 
L 197.188353 75.066115 
L 197.606563 74.50999 
L 197.959963 74.07655 
L 198.253707 73.709498 
L 198.731573 73.153328 
L 198.940252 72.909006 
L 199.503183 72.288555 
L 199.667719 72.108513 
L 200.274793 71.475839 
L 200.439166 71.308021 
L 201.046403 70.710019 
L 201.259062 70.507528 
L 201.818013 69.987118 
L 202.133063 69.707036 
L 202.589623 69.304453 
L 203.067779 68.906543 
L 203.361233 68.660786 
L 204.070729 68.106051 
L 204.132843 68.056475 
L 204.904452 67.463139 
L 205.124595 67.305559 
L 205.676062 66.895929 
L 206.253415 66.505066 
L 206.447672 66.366898 
L 207.219282 65.851989 
L 207.457949 65.704574 
L 207.990892 65.353939 
L 208.762502 64.904466 
L 208.763195 64.904081 
L 209.534112 64.441575 
L 210.184817 64.103589 
L 210.305722 64.034995 
L 211.077332 63.627684 
L 211.793893 63.303097 
L 211.848942 63.275416 
L 212.620552 62.915561 
L 213.392162 62.608633 
L 213.690871 62.502604 
L 214.163772 62.311945 
L 214.935382 62.039281 
L 215.706992 61.805904 
L 216.099108 61.702112 
L 216.478602 61.585369 
L 217.250212 61.379254 
L 218.021822 61.20508 
L 218.793432 61.0593 
L 219.565042 60.939587 
L 219.87435 60.901619 
L 220.336652 60.834329 
L 221.108262 60.752577 
L 221.879872 60.70198 
L 222.651482 60.683973 
L 223.423092 60.701067 
L 224.194702 60.756883 
L 224.966312 60.856232 
L 225.209731 60.901619 
L 225.737922 60.994698 
L 226.509532 61.182504 
L 227.281142 61.434736 
L 227.917478 61.702112 
L 228.052752 61.760251 
L 228.824362 62.161102 
L 229.354096 62.502604 
L 229.595972 62.673525 
L 230.342525 63.303097 
L 230.367582 63.327655 
L 231.064826 64.103589 
L 231.139192 64.206693 
L 231.603354 64.904081 
L 231.910802 65.532874 
L 231.991804 65.704574 
L 232.271565 66.505066 
L 232.448174 67.305559 
L 232.540668 68.106051 
L 232.563714 68.906543 
L 232.528476 69.707036 
L 232.443222 70.507528 
L 232.313752 71.308021 
L 232.143721 72.108513 
L 231.934882 72.909006 
L 231.910802 72.988636 
L 231.721284 73.709498 
L 231.480833 74.50999 
L 231.208218 75.310483 
L 231.139192 75.496918 
L 230.939219 76.110975 
L 230.652334 76.911468 
L 230.367582 77.631022 
L 230.339076 77.71196 
L 230.043934 78.512452 
L 229.719319 79.312945 
L 229.595972 79.603247 
L 229.400162 80.113437 
L 229.073342 80.91393 
L 228.824362 81.486239 
L 228.733547 81.714422 
L 228.406769 82.514915 
L 228.052752 83.314694 
L 228.052459 83.315407 
L 227.726467 84.115899 
L 227.374766 84.916392 
L 227.281142 85.127605 
L 227.036141 85.716884 
L 226.68684 86.517377 
L 226.509532 86.914565 
L 226.33863 87.317869 
L 225.992222 88.118361 
L 225.737922 88.686995 
L 225.638283 88.918854 
L 225.296755 89.719346 
L 224.966312 90.462983 
L 224.941697 90.519839 
L 224.607445 91.320331 
L 224.260532 92.120824 
L 224.194702 92.277895 
L 223.926574 92.921316 
L 223.585162 93.721808 
L 223.423092 94.102477 
L 223.240235 94.522301 
L 222.883191 95.322793 
L 222.651482 95.819588 
L 222.500654 96.123286 
L 222.079993 96.923778 
L 221.879872 97.276545 
L 221.594379 97.72427 
L 221.108262 98.408559 
L 221.010437 98.524763 
L 220.336652 99.255205 
L 220.254728 99.325255 
L 219.565042 99.876847 
L 219.131464 100.125748 
L 218.793432 100.312801 
L 218.021822 100.606401 
L 217.250212 100.777919 
L 216.478602 100.857755 
L 215.706992 100.871005 
L 214.935382 100.83818 
L 214.163772 100.775789 
L 213.392162 100.69684 
L 212.620552 100.611338 
L 211.848942 100.526768 
L 211.077332 100.448578 
L 210.305722 100.380626 
L 209.534112 100.325579 
L 208.762502 100.285233 
L 207.990892 100.260744 
L 207.219282 100.252744 
L 206.447672 100.261342 
L 205.676062 100.286018 
L 204.904452 100.325429 
L 204.132843 100.377187 
L 203.361233 100.43766 
L 202.589623 100.501878 
L 201.818013 100.563605 
L 201.046403 100.615574 
L 200.274793 100.649862 
L 199.503183 100.658292 
L 198.731573 100.63278 
L 197.959963 100.565505 
L 197.188353 100.448882 
L 196.416743 100.275316 
z
" style="fill:none;"/>
   </g>
   <g id="PathCollection_2">
    <path clip-path="url(#p5d017dee64)" d="M 196.416743 100.275316 
L 197.188353 100.448882 
L 197.959963 100.565505 
L 198.731573 100.63278 
L 199.503183 100.658292 
L 200.274793 100.649862 
L 201.046403 100.615574 
L 201.818013 100.563605 
L 202.589623 100.501878 
L 203.361233 100.43766 
L 204.132843 100.377187 
L 204.904452 100.325429 
L 205.676062 100.286018 
L 206.447672 100.261342 
L 207.219282 100.252744 
L 207.990892 100.260744 
L 208.762502 100.285233 
L 209.534112 100.325579 
L 210.305722 100.380626 
L 211.077332 100.448578 
L 211.848942 100.526768 
L 212.620552 100.611338 
L 213.392162 100.69684 
L 214.163772 100.775789 
L 214.935382 100.83818 
L 215.706992 100.871005 
L 216.478602 100.857755 
L 217.250212 100.777919 
L 218.021822 100.606401 
L 218.793432 100.312801 
L 219.131464 100.125748 
L 219.565042 99.876847 
L 220.254728 99.325255 
L 220.336652 99.255205 
L 221.010437 98.524763 
L 221.108262 98.408559 
L 221.594379 97.72427 
L 221.879872 97.276545 
L 222.079993 96.923778 
L 222.500654 96.123286 
L 222.651482 95.819588 
L 222.883191 95.322793 
L 223.240235 94.522301 
L 223.423092 94.102477 
L 223.585162 93.721808 
L 223.926574 92.921316 
L 224.194702 92.277895 
L 224.260532 92.120824 
L 224.607445 91.320331 
L 224.941697 90.519839 
L 224.966312 90.462983 
L 225.296755 89.719346 
L 225.638283 88.918854 
L 225.737922 88.686995 
L 225.992222 88.118361 
L 226.33863 87.317869 
L 226.509532 86.914565 
L 226.68684 86.517377 
L 227.036141 85.716884 
L 227.281142 85.127605 
L 227.374766 84.916392 
L 227.726467 84.115899 
L 228.052459 83.315407 
L 228.052752 83.314694 
L 228.406769 82.514915 
L 228.733547 81.714422 
L 228.824362 81.486239 
L 229.073342 80.91393 
L 229.400162 80.113437 
L 229.595972 79.603247 
L 229.719319 79.312945 
L 230.043934 78.512452 
L 230.339076 77.71196 
L 230.367582 77.631022 
L 230.652334 76.911468 
L 230.939219 76.110975 
L 231.139192 75.496918 
L 231.208218 75.310483 
L 231.480833 74.50999 
L 231.721284 73.709498 
L 231.910802 72.988636 
L 231.934882 72.909006 
L 232.143721 72.108513 
L 232.313752 71.308021 
L 232.443222 70.507528 
L 232.528476 69.707036 
L 232.563714 68.906543 
L 232.540668 68.106051 
L 232.448174 67.305559 
L 232.271565 66.505066 
L 231.991804 65.704574 
L 231.910802 65.532874 
L 231.603354 64.904081 
L 231.139192 64.206693 
L 231.064826 64.103589 
L 230.367582 63.327655 
L 230.342525 63.303097 
L 229.595972 62.673525 
L 229.354096 62.502604 
L 228.824362 62.161102 
L 228.052752 61.760251 
L 227.917478 61.702112 
L 227.281142 61.434736 
L 226.509532 61.182504 
L 225.737922 60.994698 
L 225.209731 60.901619 
L 224.966312 60.856232 
L 224.194702 60.756883 
L 223.423092 60.701067 
L 222.651482 60.683973 
L 221.879872 60.70198 
L 221.108262 60.752577 
L 220.336652 60.834329 
L 219.87435 60.901619 
L 219.565042 60.939587 
L 218.793432 61.0593 
L 218.021822 61.20508 
L 217.250212 61.379254 
L 216.478602 61.585369 
L 216.099108 61.702112 
L 215.706992 61.805904 
L 214.935382 62.039281 
L 214.163772 62.311945 
L 213.690871 62.502604 
L 213.392162 62.608633 
L 212.620552 62.915561 
L 211.848942 63.275416 
L 211.793893 63.303097 
L 211.077332 63.627684 
L 210.305722 64.034995 
L 210.184817 64.103589 
L 209.534112 64.441575 
L 208.763195 64.904081 
L 208.762502 64.904466 
L 207.990892 65.353939 
L 207.457949 65.704574 
L 207.219282 65.851989 
L 206.447672 66.366898 
L 206.253415 66.505066 
L 205.676062 66.895929 
L 205.124595 67.305559 
L 204.904452 67.463139 
L 204.132843 68.056475 
L 204.070729 68.106051 
L 203.361233 68.660786 
L 203.067779 68.906543 
L 202.589623 69.304453 
L 202.133063 69.707036 
L 201.818013 69.987118 
L 201.259062 70.507528 
L 201.046403 70.710019 
L 200.439166 71.308021 
L 200.274793 71.475839 
L 199.667719 72.108513 
L 199.503183 72.288555 
L 198.940252 72.909006 
L 198.731573 73.153328 
L 198.253707 73.709498 
L 197.959963 74.07655 
L 197.606563 74.50999 
L 197.188353 75.066115 
L 196.998867 75.310483 
L 196.429865 76.110975 
L 196.416743 76.130629 
L 195.869199 76.911468 
L 195.645133 77.26726 
L 195.347977 77.71196 
L 194.873523 78.507729 
L 194.870506 78.512452 
L 194.390584 79.312945 
L 194.101913 79.85807 
L 193.954857 80.113437 
L 193.533641 80.91393 
L 193.330303 81.342539 
L 193.136009 81.714422 
L 192.754694 82.514915 
L 192.558693 82.965813 
L 192.389968 83.315407 
L 192.033683 84.115899 
L 191.787083 84.719022 
L 191.697353 84.916392 
L 191.358941 85.716884 
L 191.049695 86.517377 
L 191.015473 86.613787 
L 190.739905 87.317869 
L 190.461717 88.118361 
L 190.243863 88.841558 
L 190.218462 88.918854 
L 190.001463 89.719346 
L 189.837264 90.519839 
L 189.7308 91.320331 
L 189.688046 92.120824 
L 189.715998 92.921316 
L 189.822831 93.721808 
L 190.018226 94.522301 
L 190.243863 95.140945 
L 190.311913 95.322793 
L 190.71255 96.123286 
L 191.015473 96.594016 
L 191.244195 96.923778 
L 191.787083 97.569226 
L 191.932739 97.72427 
L 192.558693 98.3059 
L 192.831528 98.524763 
L 193.330303 98.891287 
L 194.040689 99.325255 
L 194.101913 99.360981 
L 194.873523 99.742715 
L 195.645133 100.041228 
L 195.926046 100.125748 
z
M 200.117616 96.123286 
L 199.503183 95.97975 
L 198.731573 95.748747 
L 197.959963 95.445866 
L 197.705425 95.322793 
L 197.188353 95.038211 
L 196.464221 94.522301 
L 196.416743 94.481258 
L 195.697823 93.721808 
L 195.645133 93.648229 
L 195.197435 92.921316 
L 194.873523 92.127776 
L 194.87097 92.120824 
L 194.671656 91.320331 
L 194.567368 90.519839 
L 194.536283 89.719346 
L 194.561874 88.918854 
L 194.632353 88.118361 
L 194.740082 87.317869 
L 194.873523 86.561151 
L 194.880353 86.517377 
L 195.037518 85.716884 
L 195.222447 84.916392 
L 195.438068 84.115899 
L 195.645133 83.455549 
L 195.684496 83.315407 
L 195.944686 82.514915 
L 196.245778 81.714422 
L 196.416743 81.317519 
L 196.575676 80.91393 
L 196.935658 80.113437 
L 197.188353 79.621083 
L 197.335389 79.312945 
L 197.765908 78.512452 
L 197.959963 78.190032 
L 198.232257 77.71196 
L 198.731573 76.937875 
L 198.747878 76.911468 
L 199.28403 76.110975 
L 199.503183 75.814877 
L 199.867524 75.310483 
L 200.274793 74.796111 
L 200.498735 74.50999 
L 201.046403 73.864253 
L 201.17787 73.709498 
L 201.818013 73.005508 
L 201.907089 72.909006 
L 202.589623 72.209013 
L 202.690418 72.108513 
L 203.361233 71.466377 
L 203.533569 71.308021 
L 204.132843 70.771511 
L 204.443736 70.507528 
L 204.904452 70.120602 
L 205.429545 69.707036 
L 205.676062 69.51211 
L 206.447672 68.941971 
L 206.497833 68.906543 
L 207.219282 68.386191 
L 207.644557 68.106051 
L 207.990892 67.869945 
L 208.762502 67.387134 
L 208.901815 67.305559 
L 209.534112 66.916726 
L 210.291405 66.505066 
L 210.305722 66.496794 
L 211.077332 66.077948 
L 211.848942 65.715714 
L 211.874747 65.704574 
L 212.620552 65.356198 
L 213.392162 65.046299 
L 213.795859 64.904081 
L 214.163772 64.761359 
L 214.935382 64.501011 
L 215.706992 64.281819 
L 216.458499 64.103589 
L 216.478602 64.098212 
L 217.250212 63.926402 
L 218.021822 63.791086 
L 218.793432 63.690056 
L 219.565042 63.622388 
L 220.336652 63.588473 
L 221.108262 63.590113 
L 221.879872 63.630677 
L 222.651482 63.715321 
L 223.423092 63.851287 
L 224.194702 64.04829 
L 224.362955 64.103589 
L 224.966312 64.309104 
L 225.737922 64.660085 
L 226.1613 64.904081 
L 226.509532 65.128893 
L 227.221102 65.704574 
L 227.281142 65.762722 
L 227.93266 66.505066 
L 228.052752 66.683055 
L 228.429986 67.305559 
L 228.768644 68.106051 
L 228.824362 68.297374 
L 228.996049 68.906543 
L 229.130567 69.707036 
L 229.188513 70.507528 
L 229.183922 71.308021 
L 229.1266 72.108513 
L 229.023025 72.909006 
L 228.877053 73.709498 
L 228.824362 73.93629 
L 228.706105 74.50999 
L 228.507656 75.310483 
L 228.275296 76.110975 
L 228.052752 76.779756 
L 228.012969 76.911468 
L 227.746098 77.71196 
L 227.446599 78.512452 
L 227.281142 78.919 
L 227.132399 79.312945 
L 226.806699 80.113437 
L 226.509532 80.782388 
L 226.454419 80.91393 
L 226.105509 81.714422 
L 225.737922 82.486722 
L 225.725069 82.514915 
L 225.353774 83.315407 
L 224.966312 84.084911 
L 224.95115 84.115899 
L 224.55656 84.916392 
L 224.194702 85.601635 
L 224.134764 85.716884 
L 223.714773 86.517377 
L 223.423092 87.047254 
L 223.274438 87.317869 
L 222.825595 88.118361 
L 222.651482 88.42265 
L 222.364001 88.918854 
L 221.879872 89.718544 
L 221.879372 89.719346 
L 221.386169 90.519839 
L 221.108262 90.953198 
L 220.860704 91.320331 
L 220.336652 92.068138 
L 220.296928 92.120824 
L 219.682324 92.921316 
L 219.565042 93.068852 
L 218.98272 93.721808 
L 218.793432 93.925254 
L 218.145341 94.522301 
L 218.021822 94.63168 
L 217.250212 95.204707 
L 217.054307 95.322793 
L 216.478602 95.66198 
L 215.706992 96.010482 
L 215.38735 96.123286 
L 214.935382 96.283186 
L 214.163772 96.492557 
L 213.392162 96.645496 
L 212.620552 96.755287 
L 211.848942 96.831676 
L 211.077332 96.881768 
L 210.305722 96.910724 
L 209.534112 96.922294 
L 208.762502 96.919223 
L 207.990892 96.903549 
L 207.219282 96.876812 
L 206.447672 96.840177 
L 205.676062 96.794469 
L 204.904452 96.740136 
L 204.132843 96.677103 
L 203.361233 96.604556 
L 202.589623 96.520633 
L 201.818013 96.422054 
L 201.046403 96.303728 
L 200.274793 96.158378 
z
" style="fill:#fedecf;"/>
   </g>
   <g id="PathCollection_3">
    <path clip-path="url(#p5d017dee64)" d="M 200.274793 96.158378 
L 201.046403 96.303728 
L 201.818013 96.422054 
L 202.589623 96.520633 
L 203.361233 96.604556 
L 204.132843 96.677103 
L 204.904452 96.740136 
L 205.676062 96.794469 
L 206.447672 96.840177 
L 207.219282 96.876812 
L 207.990892 96.903549 
L 208.762502 96.919223 
L 209.534112 96.922294 
L 210.305722 96.910724 
L 211.077332 96.881768 
L 211.848942 96.831676 
L 212.620552 96.755287 
L 213.392162 96.645496 
L 214.163772 96.492557 
L 214.935382 96.283186 
L 215.38735 96.123286 
L 215.706992 96.010482 
L 216.478602 95.66198 
L 217.054307 95.322793 
L 217.250212 95.204707 
L 218.021822 94.63168 
L 218.145341 94.522301 
L 218.793432 93.925254 
L 218.98272 93.721808 
L 219.565042 93.068852 
L 219.682324 92.921316 
L 220.296928 92.120824 
L 220.336652 92.068138 
L 220.860704 91.320331 
L 221.108262 90.953198 
L 221.386169 90.519839 
L 221.879372 89.719346 
L 221.879872 89.718544 
L 222.364001 88.918854 
L 222.651482 88.42265 
L 222.825595 88.118361 
L 223.274438 87.317869 
L 223.423092 87.047254 
L 223.714773 86.517377 
L 224.134764 85.716884 
L 224.194702 85.601635 
L 224.55656 84.916392 
L 224.95115 84.115899 
L 224.966312 84.084911 
L 225.353774 83.315407 
L 225.725069 82.514915 
L 225.737922 82.486722 
L 226.105509 81.714422 
L 226.454419 80.91393 
L 226.509532 80.782388 
L 226.806699 80.113437 
L 227.132399 79.312945 
L 227.281142 78.919 
L 227.446599 78.512452 
L 227.746098 77.71196 
L 228.012969 76.911468 
L 228.052752 76.779756 
L 228.275296 76.110975 
L 228.507656 75.310483 
L 228.706105 74.50999 
L 228.824362 73.93629 
L 228.877053 73.709498 
L 229.023025 72.909006 
L 229.1266 72.108513 
L 229.183922 71.308021 
L 229.188513 70.507528 
L 229.130567 69.707036 
L 228.996049 68.906543 
L 228.824362 68.297374 
L 228.768644 68.106051 
L 228.429986 67.305559 
L 228.052752 66.683055 
L 227.93266 66.505066 
L 227.281142 65.762722 
L 227.221102 65.704574 
L 226.509532 65.128893 
L 226.1613 64.904081 
L 225.737922 64.660085 
L 224.966312 64.309104 
L 224.362955 64.103589 
L 224.194702 64.04829 
L 223.423092 63.851287 
L 222.651482 63.715321 
L 221.879872 63.630677 
L 221.108262 63.590113 
L 220.336652 63.588473 
L 219.565042 63.622388 
L 218.793432 63.690056 
L 218.021822 63.791086 
L 217.250212 63.926402 
L 216.478602 64.098212 
L 216.458499 64.103589 
L 215.706992 64.281819 
L 214.935382 64.501011 
L 214.163772 64.761359 
L 213.795859 64.904081 
L 213.392162 65.046299 
L 212.620552 65.356198 
L 211.874747 65.704574 
L 211.848942 65.715714 
L 211.077332 66.077948 
L 210.305722 66.496794 
L 210.291405 66.505066 
L 209.534112 66.916726 
L 208.901815 67.305559 
L 208.762502 67.387134 
L 207.990892 67.869945 
L 207.644557 68.106051 
L 207.219282 68.386191 
L 206.497833 68.906543 
L 206.447672 68.941971 
L 205.676062 69.51211 
L 205.429545 69.707036 
L 204.904452 70.120602 
L 204.443736 70.507528 
L 204.132843 70.771511 
L 203.533569 71.308021 
L 203.361233 71.466377 
L 202.690418 72.108513 
L 202.589623 72.209013 
L 201.907089 72.909006 
L 201.818013 73.005508 
L 201.17787 73.709498 
L 201.046403 73.864253 
L 200.498735 74.50999 
L 200.274793 74.796111 
L 199.867524 75.310483 
L 199.503183 75.814877 
L 199.28403 76.110975 
L 198.747878 76.911468 
L 198.731573 76.937875 
L 198.232257 77.71196 
L 197.959963 78.190032 
L 197.765908 78.512452 
L 197.335389 79.312945 
L 197.188353 79.621083 
L 196.935658 80.113437 
L 196.575676 80.91393 
L 196.416743 81.317519 
L 196.245778 81.714422 
L 195.944686 82.514915 
L 195.684496 83.315407 
L 195.645133 83.455549 
L 195.438068 84.115899 
L 195.222447 84.916392 
L 195.037518 85.716884 
L 194.880353 86.517377 
L 194.873523 86.561151 
L 194.740082 87.317869 
L 194.632353 88.118361 
L 194.561874 88.918854 
L 194.536283 89.719346 
L 194.567368 90.519839 
L 194.671656 91.320331 
L 194.87097 92.120824 
L 194.873523 92.127776 
L 195.197435 92.921316 
L 195.645133 93.648229 
L 195.697823 93.721808 
L 196.416743 94.481258 
L 196.464221 94.522301 
L 197.188353 95.038211 
L 197.705425 95.322793 
L 197.959963 95.445866 
L 198.731573 95.748747 
L 199.503183 95.97975 
L 200.117616 96.123286 
z
M 206.859683 94.522301 
L 206.447672 94.480396 
L 205.676062 94.374523 
L 204.904452 94.238755 
L 204.132843 94.070373 
L 203.361233 93.865057 
L 202.90257 93.721808 
L 202.589623 93.619537 
L 201.818013 93.324026 
L 201.046403 92.957457 
L 200.979158 92.921316 
L 200.274793 92.492192 
L 199.778589 92.120824 
L 199.503183 91.874014 
L 198.980216 91.320331 
L 198.731573 90.981556 
L 198.434004 90.519839 
L 198.060034 89.719346 
L 197.959963 89.417569 
L 197.806157 88.918854 
L 197.643222 88.118361 
L 197.554003 87.317869 
L 197.525029 86.517377 
L 197.547969 85.716884 
L 197.618254 84.916392 
L 197.73414 84.115899 
L 197.896126 83.315407 
L 197.959963 83.073723 
L 198.09415 82.514915 
L 198.332833 81.714422 
L 198.621991 80.91393 
L 198.731573 80.65612 
L 198.946541 80.113437 
L 199.317316 79.312945 
L 199.503183 78.962763 
L 199.730046 78.512452 
L 200.191653 77.71196 
L 200.274793 77.581867 
L 200.68918 76.911468 
L 201.046403 76.397543 
L 201.241512 76.110975 
L 201.818013 75.348605 
L 201.846621 75.310483 
L 202.497628 74.50999 
L 202.589623 74.405071 
L 203.207509 73.709498 
L 203.361233 73.547439 
L 203.982948 72.909006 
L 204.132843 72.762766 
L 204.830175 72.108513 
L 204.904452 72.041299 
L 205.676062 71.371553 
L 205.752816 71.308021 
L 206.447672 70.74324 
L 206.758097 70.507528 
L 207.219282 70.158332 
L 207.864477 69.707036 
L 207.990892 69.617553 
L 208.762502 69.10271 
L 209.082376 68.906543 
L 209.534112 68.621659 
L 210.305722 68.180922 
L 210.447561 68.106051 
L 211.077332 67.759038 
L 211.848942 67.383571 
L 212.02613 67.305559 
L 212.620552 67.028219 
L 213.392162 66.714621 
L 213.989409 66.505066 
L 214.163772 66.439153 
L 214.935382 66.187059 
L 215.706992 65.978836 
L 216.478602 65.811089 
L 217.11408 65.704574 
L 217.250212 65.679318 
L 218.021822 65.578738 
L 218.793432 65.520725 
L 219.565042 65.506473 
L 220.336652 65.538947 
L 221.108262 65.623184 
L 221.557642 65.704574 
L 221.879872 65.763637 
L 222.651482 65.969103 
L 223.423092 66.261081 
L 223.911648 66.505066 
L 224.194702 66.663111 
L 224.966312 67.217138 
L 225.068301 67.305559 
L 225.737922 68.021859 
L 225.804783 68.106051 
L 226.302342 68.906543 
L 226.509532 69.386879 
L 226.63713 69.707036 
L 226.853805 70.507528 
L 226.974694 71.308021 
L 227.019184 72.108513 
L 227.000704 72.909006 
L 226.928302 73.709498 
L 226.807777 74.50999 
L 226.642482 75.310483 
L 226.509532 75.822454 
L 226.440717 76.110975 
L 226.213276 76.911468 
L 225.948373 77.71196 
L 225.737922 78.27258 
L 225.653075 78.512452 
L 225.341542 79.312945 
L 224.993212 80.113437 
L 224.966312 80.171949 
L 224.637753 80.91393 
L 224.248335 81.714422 
L 224.194702 81.820418 
L 223.850742 82.514915 
L 223.423092 83.310738 
L 223.420605 83.315407 
L 222.985737 84.115899 
L 222.651482 84.692896 
L 222.521309 84.916392 
L 222.040705 85.716884 
L 221.879872 85.977071 
L 221.539476 86.517377 
L 221.108262 87.173387 
L 221.010238 87.317869 
L 220.457329 88.118361 
L 220.336652 88.289838 
L 219.871901 88.918854 
L 219.565042 89.321926 
L 219.241936 89.719346 
L 218.793432 90.256248 
L 218.553477 90.519839 
L 218.021822 91.089185 
L 217.780782 91.320331 
L 217.250212 91.817035 
L 216.876851 92.120824 
L 216.478602 92.437904 
L 215.753889 92.921316 
L 215.706992 92.952065 
L 214.935382 93.387044 
L 214.177634 93.721808 
L 214.163772 93.727922 
L 213.392162 94.012062 
L 212.620552 94.228833 
L 211.848942 94.39024 
L 211.077332 94.50522 
L 210.905198 94.522301 
L 210.305722 94.584763 
L 209.534112 94.62771 
L 208.762502 94.636459 
L 207.990892 94.613503 
L 207.219282 94.560336 
z
" style="fill:#fcc2aa;"/>
   </g>
   <g id="PathCollection_4">
    <path clip-path="url(#p5d017dee64)" d="M 207.219282 94.560336 
L 207.990892 94.613503 
L 208.762502 94.636459 
L 209.534112 94.62771 
L 210.305722 94.584763 
L 210.905198 94.522301 
L 211.077332 94.50522 
L 211.848942 94.39024 
L 212.620552 94.228833 
L 213.392162 94.012062 
L 214.163772 93.727922 
L 214.177634 93.721808 
L 214.935382 93.387044 
L 215.706992 92.952065 
L 215.753889 92.921316 
L 216.478602 92.437904 
L 216.876851 92.120824 
L 217.250212 91.817035 
L 217.780782 91.320331 
L 218.021822 91.089185 
L 218.553477 90.519839 
L 218.793432 90.256248 
L 219.241936 89.719346 
L 219.565042 89.321926 
L 219.871901 88.918854 
L 220.336652 88.289838 
L 220.457329 88.118361 
L 221.010238 87.317869 
L 221.108262 87.173387 
L 221.539476 86.517377 
L 221.879872 85.977071 
L 222.040705 85.716884 
L 222.521309 84.916392 
L 222.651482 84.692896 
L 222.985737 84.115899 
L 223.420605 83.315407 
L 223.423092 83.310738 
L 223.850742 82.514915 
L 224.194702 81.820418 
L 224.248335 81.714422 
L 224.637753 80.91393 
L 224.966312 80.171949 
L 224.993212 80.113437 
L 225.341542 79.312945 
L 225.653075 78.512452 
L 225.737922 78.27258 
L 225.948373 77.71196 
L 226.213276 76.911468 
L 226.440717 76.110975 
L 226.509532 75.822454 
L 226.642482 75.310483 
L 226.807777 74.50999 
L 226.928302 73.709498 
L 227.000704 72.909006 
L 227.019184 72.108513 
L 226.974694 71.308021 
L 226.853805 70.507528 
L 226.63713 69.707036 
L 226.509532 69.386879 
L 226.302342 68.906543 
L 225.804783 68.106051 
L 225.737922 68.021859 
L 225.068301 67.305559 
L 224.966312 67.217138 
L 224.194702 66.663111 
L 223.911648 66.505066 
L 223.423092 66.261081 
L 222.651482 65.969103 
L 221.879872 65.763637 
L 221.557642 65.704574 
L 221.108262 65.623184 
L 220.336652 65.538947 
L 219.565042 65.506473 
L 218.793432 65.520725 
L 218.021822 65.578738 
L 217.250212 65.679318 
L 217.11408 65.704574 
L 216.478602 65.811089 
L 215.706992 65.978836 
L 214.935382 66.187059 
L 214.163772 66.439153 
L 213.989409 66.505066 
L 213.392162 66.714621 
L 212.620552 67.028219 
L 212.02613 67.305559 
L 211.848942 67.383571 
L 211.077332 67.759038 
L 210.447561 68.106051 
L 210.305722 68.180922 
L 209.534112 68.621659 
L 209.082376 68.906543 
L 208.762502 69.10271 
L 207.990892 69.617553 
L 207.864477 69.707036 
L 207.219282 70.158332 
L 206.758097 70.507528 
L 206.447672 70.74324 
L 205.752816 71.308021 
L 205.676062 71.371553 
L 204.904452 72.041299 
L 204.830175 72.108513 
L 204.132843 72.762766 
L 203.982948 72.909006 
L 203.361233 73.547439 
L 203.207509 73.709498 
L 202.589623 74.405071 
L 202.497628 74.50999 
L 201.846621 75.310483 
L 201.818013 75.348605 
L 201.241512 76.110975 
L 201.046403 76.397543 
L 200.68918 76.911468 
L 200.274793 77.581867 
L 200.191653 77.71196 
L 199.730046 78.512452 
L 199.503183 78.962763 
L 199.317316 79.312945 
L 198.946541 80.113437 
L 198.731573 80.65612 
L 198.621991 80.91393 
L 198.332833 81.714422 
L 198.09415 82.514915 
L 197.959963 83.073723 
L 197.896126 83.315407 
L 197.73414 84.115899 
L 197.618254 84.916392 
L 197.547969 85.716884 
L 197.525029 86.517377 
L 197.554003 87.317869 
L 197.643222 88.118361 
L 197.806157 88.918854 
L 197.959963 89.417569 
L 198.060034 89.719346 
L 198.434004 90.519839 
L 198.731573 90.981556 
L 198.980216 91.320331 
L 199.503183 91.874014 
L 199.778589 92.120824 
L 200.274793 92.492192 
L 200.979158 92.921316 
L 201.046403 92.957457 
L 201.818013 93.324026 
L 202.589623 93.619537 
L 202.90257 93.721808 
L 203.361233 93.865057 
L 204.132843 94.070373 
L 204.904452 94.238755 
L 205.676062 94.374523 
L 206.447672 94.480396 
L 206.859683 94.522301 
z
M 204.950867 92.120824 
L 204.904452 92.10666 
L 204.132843 91.821355 
L 203.361233 91.460894 
L 203.106264 91.320331 
L 202.589623 91.004227 
L 201.940269 90.519839 
L 201.818013 90.413757 
L 201.136398 89.719346 
L 201.046403 89.606081 
L 200.564812 88.918854 
L 200.274793 88.362455 
L 200.158774 88.118361 
L 199.874601 87.317869 
L 199.690466 86.517377 
L 199.588125 85.716884 
L 199.555488 84.916392 
L 199.584792 84.115899 
L 199.671445 83.315407 
L 199.813318 82.514915 
L 200.010387 81.714422 
L 200.264638 80.91393 
L 200.274793 80.887837 
L 200.55893 80.113437 
L 200.911551 79.312945 
L 201.046403 79.049726 
L 201.310773 78.512452 
L 201.767464 77.71196 
L 201.818013 77.6327 
L 202.268263 76.911468 
L 202.589623 76.455129 
L 202.829976 76.110975 
L 203.361233 75.427098 
L 203.452278 75.310483 
L 204.132843 74.51543 
L 204.137585 74.50999 
L 204.890366 73.709498 
L 204.904452 73.695425 
L 205.676062 72.949959 
L 205.720308 72.909006 
L 206.447672 72.265716 
L 206.635751 72.108513 
L 207.219282 71.634893 
L 207.650463 71.308021 
L 207.990892 71.053392 
L 208.762502 70.519794 
L 208.781305 70.507528 
L 209.534112 70.0145 
L 210.052865 69.707036 
L 210.305722 69.554399 
L 211.077332 69.127802 
L 211.523177 68.906543 
L 211.848942 68.739334 
L 212.620552 68.38544 
L 213.321847 68.106051 
L 213.392162 68.076627 
L 214.163772 67.794619 
L 214.935382 67.559736 
L 215.706992 67.369296 
L 216.042206 67.305559 
L 216.478602 67.216343 
L 217.250212 67.106694 
L 218.021822 67.045765 
L 218.793432 67.03593 
L 219.565042 67.081655 
L 220.336652 67.18999 
L 220.840697 67.305559 
L 221.108262 67.370238 
L 221.879872 67.638143 
L 222.651482 68.02056 
L 222.788672 68.106051 
L 223.423092 68.571781 
L 223.782953 68.906543 
L 224.194702 69.395809 
L 224.416696 69.707036 
L 224.833054 70.507528 
L 224.966312 70.889863 
L 225.100943 71.308021 
L 225.257413 72.108513 
L 225.324156 72.909006 
L 225.317177 73.709498 
L 225.247345 74.50999 
L 225.121792 75.310483 
L 224.966312 76.013728 
L 224.946191 76.110975 
L 224.735429 76.911468 
L 224.482037 77.71196 
L 224.194702 78.489049 
L 224.186383 78.512452 
L 223.869227 79.312945 
L 223.512191 80.113437 
L 223.423092 80.298728 
L 223.132213 80.91393 
L 222.718055 81.714422 
L 222.651482 81.836944 
L 222.28335 82.514915 
L 221.879872 83.205087 
L 221.814607 83.315407 
L 221.324152 84.115899 
L 221.108262 84.452412 
L 220.802745 84.916392 
L 220.336652 85.593426 
L 220.24835 85.716884 
L 219.661878 86.517377 
L 219.565042 86.646793 
L 219.035257 87.317869 
L 218.793432 87.616232 
L 218.357524 88.118361 
L 218.021822 88.496714 
L 217.613511 88.918854 
L 217.250212 89.287471 
L 216.776278 89.719346 
L 216.478602 89.986143 
L 215.798245 90.519839 
L 215.706992 90.590398 
L 214.935382 91.112004 
L 214.566921 91.320331 
L 214.163772 91.546864 
L 213.392162 91.903348 
L 212.798027 92.120824 
L 212.620552 92.186232 
L 211.848942 92.410643 
L 211.077332 92.573095 
L 210.305722 92.680612 
L 209.534112 92.738134 
L 208.762502 92.748856 
L 207.990892 92.714444 
L 207.219282 92.635122 
L 206.447672 92.509628 
L 205.676062 92.335026 
z
" style="fill:#fca588;"/>
   </g>
   <g id="PathCollection_5">
    <path clip-path="url(#p5d017dee64)" d="M 205.676062 92.335026 
L 206.447672 92.509628 
L 207.219282 92.635122 
L 207.990892 92.714444 
L 208.762502 92.748856 
L 209.534112 92.738134 
L 210.305722 92.680612 
L 211.077332 92.573095 
L 211.848942 92.410643 
L 212.620552 92.186232 
L 212.798027 92.120824 
L 213.392162 91.903348 
L 214.163772 91.546864 
L 214.566921 91.320331 
L 214.935382 91.112004 
L 215.706992 90.590398 
L 215.798245 90.519839 
L 216.478602 89.986143 
L 216.776278 89.719346 
L 217.250212 89.287471 
L 217.613511 88.918854 
L 218.021822 88.496714 
L 218.357524 88.118361 
L 218.793432 87.616232 
L 219.035257 87.317869 
L 219.565042 86.646793 
L 219.661878 86.517377 
L 220.24835 85.716884 
L 220.336652 85.593426 
L 220.802745 84.916392 
L 221.108262 84.452412 
L 221.324152 84.115899 
L 221.814607 83.315407 
L 221.879872 83.205087 
L 222.28335 82.514915 
L 222.651482 81.836944 
L 222.718055 81.714422 
L 223.132213 80.91393 
L 223.423092 80.298728 
L 223.512191 80.113437 
L 223.869227 79.312945 
L 224.186383 78.512452 
L 224.194702 78.489049 
L 224.482037 77.71196 
L 224.735429 76.911468 
L 224.946191 76.110975 
L 224.966312 76.013728 
L 225.121792 75.310483 
L 225.247345 74.50999 
L 225.317177 73.709498 
L 225.324156 72.909006 
L 225.257413 72.108513 
L 225.100943 71.308021 
L 224.966312 70.889863 
L 224.833054 70.507528 
L 224.416696 69.707036 
L 224.194702 69.395809 
L 223.782953 68.906543 
L 223.423092 68.571781 
L 222.788672 68.106051 
L 222.651482 68.02056 
L 221.879872 67.638143 
L 221.108262 67.370238 
L 220.840697 67.305559 
L 220.336652 67.18999 
L 219.565042 67.081655 
L 218.793432 67.03593 
L 218.021822 67.045765 
L 217.250212 67.106694 
L 216.478602 67.216343 
L 216.042206 67.305559 
L 215.706992 67.369296 
L 214.935382 67.559736 
L 214.163772 67.794619 
L 213.392162 68.076627 
L 213.321847 68.106051 
L 212.620552 68.38544 
L 211.848942 68.739334 
L 211.523177 68.906543 
L 211.077332 69.127802 
L 210.305722 69.554399 
L 210.052865 69.707036 
L 209.534112 70.0145 
L 208.781305 70.507528 
L 208.762502 70.519794 
L 207.990892 71.053392 
L 207.650463 71.308021 
L 207.219282 71.634893 
L 206.635751 72.108513 
L 206.447672 72.265716 
L 205.720308 72.909006 
L 205.676062 72.949959 
L 204.904452 73.695425 
L 204.890366 73.709498 
L 204.137585 74.50999 
L 204.132843 74.51543 
L 203.452278 75.310483 
L 203.361233 75.427098 
L 202.829976 76.110975 
L 202.589623 76.455129 
L 202.268263 76.911468 
L 201.818013 77.6327 
L 201.767464 77.71196 
L 201.310773 78.512452 
L 201.046403 79.049726 
L 200.911551 79.312945 
L 200.55893 80.113437 
L 200.274793 80.887837 
L 200.264638 80.91393 
L 200.010387 81.714422 
L 199.813318 82.514915 
L 199.671445 83.315407 
L 199.584792 84.115899 
L 199.555488 84.916392 
L 199.588125 85.716884 
L 199.690466 86.517377 
L 199.874601 87.317869 
L 200.158774 88.118361 
L 200.274793 88.362455 
L 200.564812 88.918854 
L 201.046403 89.606081 
L 201.136398 89.719346 
L 201.818013 90.413757 
L 201.940269 90.519839 
L 202.589623 91.004227 
L 203.106264 91.320331 
L 203.361233 91.460894 
L 204.132843 91.821355 
L 204.904452 92.10666 
L 204.950867 92.120824 
z
M 205.909851 90.519839 
L 205.676062 90.439497 
L 204.904452 90.098363 
L 204.239061 89.719346 
L 204.132843 89.651919 
L 203.361233 89.057614 
L 203.20983 88.918854 
L 202.589623 88.234799 
L 202.498414 88.118361 
L 201.995463 87.317869 
L 201.818013 86.934781 
L 201.641996 86.517377 
L 201.406798 85.716884 
L 201.269437 84.916392 
L 201.21603 84.115899 
L 201.237056 83.315407 
L 201.326289 82.514915 
L 201.480196 81.714422 
L 201.697667 80.91393 
L 201.818013 80.572618 
L 201.972845 80.113437 
L 202.305114 79.312945 
L 202.589623 78.739238 
L 202.699154 78.512452 
L 203.148547 77.71196 
L 203.361233 77.380691 
L 203.660181 76.911468 
L 204.132843 76.256208 
L 204.238196 76.110975 
L 204.884296 75.310483 
L 204.904452 75.287515 
L 205.604186 74.50999 
L 205.676062 74.435995 
L 206.409231 73.709498 
L 206.447672 73.673631 
L 207.219282 72.984845 
L 207.309033 72.909006 
L 207.990892 72.356553 
L 208.319231 72.108513 
L 208.762502 71.782054 
L 209.461318 71.308021 
L 209.534112 71.259104 
L 210.305722 70.776093 
L 210.780126 70.507528 
L 211.077332 70.338026 
L 211.848942 69.94067 
L 212.361213 69.707036 
L 212.620552 69.585978 
L 213.392162 69.270484 
L 214.163772 69.003038 
L 214.500686 68.906543 
L 214.935382 68.776826 
L 215.706992 68.597169 
L 216.478602 68.468888 
L 217.250212 68.393911 
L 218.021822 68.376195 
L 218.793432 68.422171 
L 219.565042 68.541442 
L 220.336652 68.74784 
L 220.744672 68.906543 
L 221.108262 69.066932 
L 221.879872 69.53947 
L 222.091999 69.707036 
L 222.651482 70.263979 
L 222.850212 70.507528 
L 223.327487 71.308021 
L 223.423092 71.546028 
L 223.625252 72.108513 
L 223.793835 72.909006 
L 223.861908 73.709498 
L 223.84794 74.50999 
L 223.764542 75.310483 
L 223.620093 76.110975 
L 223.423092 76.898407 
L 223.419952 76.911468 
L 223.177453 77.71196 
L 222.888376 78.512452 
L 222.651482 79.081441 
L 222.556483 79.312945 
L 222.190197 80.113437 
L 221.879872 80.72427 
L 221.783186 80.91393 
L 221.344004 81.714422 
L 221.108262 82.114315 
L 220.867451 82.514915 
L 220.353801 83.315407 
L 220.336652 83.341282 
L 219.805423 84.115899 
L 219.565042 84.450652 
L 219.214667 84.916392 
L 218.793432 85.4566 
L 218.578024 85.716884 
L 218.021822 86.370817 
L 217.887614 86.517377 
L 217.250212 87.199217 
L 217.128808 87.317869 
L 216.478602 87.943477 
L 216.2757 88.118361 
L 215.706992 88.602708 
L 215.282493 88.918854 
L 214.935382 89.175043 
L 214.163772 89.661453 
L 214.055548 89.719346 
L 213.392162 90.073457 
L 212.620552 90.403403 
L 212.273809 90.519839 
L 211.848942 90.663652 
L 211.077332 90.85649 
L 210.305722 90.983155 
L 209.534112 91.047644 
L 208.762502 91.05199 
L 207.990892 90.99634 
L 207.219282 90.87887 
L 206.447672 90.695511 
z
" style="fill:#fc8767;"/>
   </g>
   <g id="PathCollection_6">
    <path clip-path="url(#p5d017dee64)" d="M 206.447672 90.695511 
L 207.219282 90.87887 
L 207.990892 90.99634 
L 208.762502 91.05199 
L 209.534112 91.047644 
L 210.305722 90.983155 
L 211.077332 90.85649 
L 211.848942 90.663652 
L 212.273809 90.519839 
L 212.620552 90.403403 
L 213.392162 90.073457 
L 214.055548 89.719346 
L 214.163772 89.661453 
L 214.935382 89.175043 
L 215.282493 88.918854 
L 215.706992 88.602708 
L 216.2757 88.118361 
L 216.478602 87.943477 
L 217.128808 87.317869 
L 217.250212 87.199217 
L 217.887614 86.517377 
L 218.021822 86.370817 
L 218.578024 85.716884 
L 218.793432 85.4566 
L 219.214667 84.916392 
L 219.565042 84.450652 
L 219.805423 84.115899 
L 220.336652 83.341282 
L 220.353801 83.315407 
L 220.867451 82.514915 
L 221.108262 82.114315 
L 221.344004 81.714422 
L 221.783186 80.91393 
L 221.879872 80.72427 
L 222.190197 80.113437 
L 222.556483 79.312945 
L 222.651482 79.081441 
L 222.888376 78.512452 
L 223.177453 77.71196 
L 223.419952 76.911468 
L 223.423092 76.898407 
L 223.620093 76.110975 
L 223.764542 75.310483 
L 223.84794 74.50999 
L 223.861908 73.709498 
L 223.793835 72.909006 
L 223.625252 72.108513 
L 223.423092 71.546028 
L 223.327487 71.308021 
L 222.850212 70.507528 
L 222.651482 70.263979 
L 222.091999 69.707036 
L 221.879872 69.53947 
L 221.108262 69.066932 
L 220.744672 68.906543 
L 220.336652 68.74784 
L 219.565042 68.541442 
L 218.793432 68.422171 
L 218.021822 68.376195 
L 217.250212 68.393911 
L 216.478602 68.468888 
L 215.706992 68.597169 
L 214.935382 68.776826 
L 214.500686 68.906543 
L 214.163772 69.003038 
L 213.392162 69.270484 
L 212.620552 69.585978 
L 212.361213 69.707036 
L 211.848942 69.94067 
L 211.077332 70.338026 
L 210.780126 70.507528 
L 210.305722 70.776093 
L 209.534112 71.259104 
L 209.461318 71.308021 
L 208.762502 71.782054 
L 208.319231 72.108513 
L 207.990892 72.356553 
L 207.309033 72.909006 
L 207.219282 72.984845 
L 206.447672 73.673631 
L 206.409231 73.709498 
L 205.676062 74.435995 
L 205.604186 74.50999 
L 204.904452 75.287515 
L 204.884296 75.310483 
L 204.238196 76.110975 
L 204.132843 76.256208 
L 203.660181 76.911468 
L 203.361233 77.380691 
L 203.148547 77.71196 
L 202.699154 78.512452 
L 202.589623 78.739238 
L 202.305114 79.312945 
L 201.972845 80.113437 
L 201.818013 80.572618 
L 201.697667 80.91393 
L 201.480196 81.714422 
L 201.326289 82.514915 
L 201.237056 83.315407 
L 201.21603 84.115899 
L 201.269437 84.916392 
L 201.406798 85.716884 
L 201.641996 86.517377 
L 201.818013 86.934781 
L 201.995463 87.317869 
L 202.498414 88.118361 
L 202.589623 88.234799 
L 203.20983 88.918854 
L 203.361233 89.057614 
L 204.132843 89.651919 
L 204.239061 89.719346 
L 204.904452 90.098363 
L 205.676062 90.439497 
L 205.909851 90.519839 
z
M 206.453912 88.918854 
L 206.447672 88.916564 
L 205.676062 88.537671 
L 205.036295 88.118361 
L 204.904452 88.018718 
L 204.162398 87.317869 
L 204.132843 87.283498 
L 203.577249 86.517377 
L 203.361233 86.113669 
L 203.173948 85.716884 
L 202.912207 84.916392 
L 202.762576 84.115899 
L 202.709367 83.315407 
L 202.741205 82.514915 
L 202.850182 81.714422 
L 203.031414 80.91393 
L 203.282897 80.113437 
L 203.361233 79.919289 
L 203.60024 79.312945 
L 203.984762 78.512452 
L 204.132843 78.251161 
L 204.436777 77.71196 
L 204.904452 76.996213 
L 204.960271 76.911468 
L 205.557001 76.110975 
L 205.676062 75.967449 
L 206.235801 75.310483 
L 206.447672 75.083762 
L 207.005718 74.50999 
L 207.219282 74.306312 
L 207.879029 73.709498 
L 207.990892 73.613989 
L 208.762502 72.993849 
L 208.875577 72.909006 
L 209.534112 72.433942 
L 210.026294 72.108513 
L 210.305722 71.927847 
L 211.077332 71.473185 
L 211.388658 71.308021 
L 211.848942 71.065098 
L 212.620552 70.705866 
L 213.112419 70.507528 
L 213.392162 70.393471 
L 214.163772 70.12989 
L 214.935382 69.918679 
L 215.706992 69.761305 
L 216.132708 69.707036 
L 216.478602 69.661583 
L 217.250212 69.626334 
L 218.021822 69.663173 
L 218.315167 69.707036 
L 218.793432 69.785573 
L 219.565042 70.01481 
L 220.336652 70.377146 
L 220.541263 70.507528 
L 221.108262 70.958866 
L 221.443045 71.308021 
L 221.879872 71.942379 
L 221.975059 72.108513 
L 222.286549 72.909006 
L 222.454192 73.709498 
L 222.509666 74.50999 
L 222.474719 75.310483 
L 222.364182 76.110975 
L 222.187919 76.911468 
L 221.952122 77.71196 
L 221.879872 77.911156 
L 221.663623 78.512452 
L 221.325925 79.312945 
L 221.108262 79.766956 
L 220.940453 80.113437 
L 220.510678 80.91393 
L 220.336652 81.212071 
L 220.035415 81.714422 
L 219.565042 82.440789 
L 219.515081 82.514915 
L 218.94743 83.315407 
L 218.793432 83.522605 
L 218.327462 84.115899 
L 218.021822 84.490219 
L 217.649078 84.916392 
L 217.250212 85.35942 
L 216.900248 85.716884 
L 216.478602 86.138644 
L 216.059608 86.517377 
L 215.706992 86.831443 
L 215.089762 87.317869 
L 214.935382 87.438314 
L 214.163772 87.963375 
L 213.894921 88.118361 
L 213.392162 88.407141 
L 212.620552 88.76851 
L 212.211785 88.918854 
L 211.848942 89.052839 
L 211.077332 89.261833 
L 210.305722 89.395524 
L 209.534112 89.455774 
L 208.762502 89.442192 
L 207.990892 89.352019 
L 207.219282 89.179779 
z
" style="fill:#fb694a;"/>
   </g>
   <g id="PathCollection_7">
    <path clip-path="url(#p5d017dee64)" d="M 207.219282 89.179779 
L 207.990892 89.352019 
L 208.762502 89.442192 
L 209.534112 89.455774 
L 210.305722 89.395524 
L 211.077332 89.261833 
L 211.848942 89.052839 
L 212.211785 88.918854 
L 212.620552 88.76851 
L 213.392162 88.407141 
L 213.894921 88.118361 
L 214.163772 87.963375 
L 214.935382 87.438314 
L 215.089762 87.317869 
L 215.706992 86.831443 
L 216.059608 86.517377 
L 216.478602 86.138644 
L 216.900248 85.716884 
L 217.250212 85.35942 
L 217.649078 84.916392 
L 218.021822 84.490219 
L 218.327462 84.115899 
L 218.793432 83.522605 
L 218.94743 83.315407 
L 219.515081 82.514915 
L 219.565042 82.440789 
L 220.035415 81.714422 
L 220.336652 81.212071 
L 220.510678 80.91393 
L 220.940453 80.113437 
L 221.108262 79.766956 
L 221.325925 79.312945 
L 221.663623 78.512452 
L 221.879872 77.911156 
L 221.952122 77.71196 
L 222.187919 76.911468 
L 222.364182 76.110975 
L 222.474719 75.310483 
L 222.509666 74.50999 
L 222.454192 73.709498 
L 222.286549 72.909006 
L 221.975059 72.108513 
L 221.879872 71.942379 
L 221.443045 71.308021 
L 221.108262 70.958866 
L 220.541263 70.507528 
L 220.336652 70.377146 
L 219.565042 70.01481 
L 218.793432 69.785573 
L 218.315167 69.707036 
L 218.021822 69.663173 
L 217.250212 69.626334 
L 216.478602 69.661583 
L 216.132708 69.707036 
L 215.706992 69.761305 
L 214.935382 69.918679 
L 214.163772 70.12989 
L 213.392162 70.393471 
L 213.112419 70.507528 
L 212.620552 70.705866 
L 211.848942 71.065098 
L 211.388658 71.308021 
L 211.077332 71.473185 
L 210.305722 71.927847 
L 210.026294 72.108513 
L 209.534112 72.433942 
L 208.875577 72.909006 
L 208.762502 72.993849 
L 207.990892 73.613989 
L 207.879029 73.709498 
L 207.219282 74.306312 
L 207.005718 74.50999 
L 206.447672 75.083762 
L 206.235801 75.310483 
L 205.676062 75.967449 
L 205.557001 76.110975 
L 204.960271 76.911468 
L 204.904452 76.996213 
L 204.436777 77.71196 
L 204.132843 78.251161 
L 203.984762 78.512452 
L 203.60024 79.312945 
L 203.361233 79.919289 
L 203.282897 80.113437 
L 203.031414 80.91393 
L 202.850182 81.714422 
L 202.741205 82.514915 
L 202.709367 83.315407 
L 202.762576 84.115899 
L 202.912207 84.916392 
L 203.173948 85.716884 
L 203.361233 86.113669 
L 203.577249 86.517377 
L 204.132843 87.283498 
L 204.162398 87.317869 
L 204.904452 88.018718 
L 205.036295 88.118361 
L 205.676062 88.537671 
L 206.447672 88.916564 
L 206.453912 88.918854 
z
M 206.979968 87.317869 
L 206.447672 87.024967 
L 205.777932 86.517377 
L 205.676062 86.423382 
L 205.071691 85.716884 
L 204.904452 85.454231 
L 204.616779 84.916392 
L 204.332212 84.115899 
L 204.178919 83.315407 
L 204.13746 82.514915 
L 204.193221 81.714422 
L 204.335744 80.91393 
L 204.558383 80.113437 
L 204.858173 79.312945 
L 204.904452 79.215272 
L 205.23721 78.512452 
L 205.676062 77.740533 
L 205.692517 77.71196 
L 206.231971 76.911468 
L 206.447672 76.631028 
L 206.860059 76.110975 
L 207.219282 75.706308 
L 207.586488 75.310483 
L 207.990892 74.91357 
L 208.426416 74.50999 
L 208.762502 74.22102 
L 209.401045 73.709498 
L 209.534112 73.608741 
L 210.305722 73.069598 
L 210.55823 72.909006 
L 211.077332 72.59113 
L 211.848942 72.168692 
L 211.974105 72.108513 
L 212.620552 71.803935 
L 213.392162 71.493631 
L 213.953127 71.308021 
L 214.163772 71.238568 
L 214.935382 71.046075 
L 215.706992 70.917441 
L 216.478602 70.85966 
L 217.250212 70.883451 
L 218.021822 71.004364 
L 218.793432 71.244529 
L 218.929239 71.308021 
L 219.565042 71.677532 
L 220.075928 72.108513 
L 220.336652 72.414295 
L 220.665727 72.909006 
L 220.995243 73.709498 
L 221.108262 74.258023 
L 221.153711 74.50999 
L 221.185446 75.310483 
L 221.119581 76.110975 
L 221.108262 76.170596 
L 220.968517 76.911468 
L 220.746317 77.71196 
L 220.460712 78.512452 
L 220.336652 78.801028 
L 220.112737 79.312945 
L 219.709211 80.113437 
L 219.565042 80.369437 
L 219.247543 80.91393 
L 218.793432 81.623144 
L 218.73207 81.714422 
L 218.155348 82.514915 
L 218.021822 82.689996 
L 217.512972 83.315407 
L 217.250212 83.623991 
L 216.796735 84.115899 
L 216.478602 84.449571 
L 215.988716 84.916392 
L 215.706992 85.178498 
L 215.057556 85.716884 
L 214.935382 85.816533 
L 214.163772 86.36764 
L 213.917347 86.517377 
L 213.392162 86.833773 
L 212.620552 87.213935 
L 212.350873 87.317869 
L 211.848942 87.51101 
L 211.077332 87.723444 
L 210.305722 87.851314 
L 209.534112 87.892793 
L 208.762502 87.843123 
L 207.990892 87.694159 
L 207.219282 87.433541 
z
" style="fill:#f24734;"/>
   </g>
   <g id="PathCollection_8">
    <path clip-path="url(#p5d017dee64)" d="M 207.219282 87.433541 
L 207.990892 87.694159 
L 208.762502 87.843123 
L 209.534112 87.892793 
L 210.305722 87.851314 
L 211.077332 87.723444 
L 211.848942 87.51101 
L 212.350873 87.317869 
L 212.620552 87.213935 
L 213.392162 86.833773 
L 213.917347 86.517377 
L 214.163772 86.36764 
L 214.935382 85.816533 
L 215.057556 85.716884 
L 215.706992 85.178498 
L 215.988716 84.916392 
L 216.478602 84.449571 
L 216.796735 84.115899 
L 217.250212 83.623991 
L 217.512972 83.315407 
L 218.021822 82.689996 
L 218.155348 82.514915 
L 218.73207 81.714422 
L 218.793432 81.623144 
L 219.247543 80.91393 
L 219.565042 80.369437 
L 219.709211 80.113437 
L 220.112737 79.312945 
L 220.336652 78.801028 
L 220.460712 78.512452 
L 220.746317 77.71196 
L 220.968517 76.911468 
L 221.108262 76.170596 
L 221.119581 76.110975 
L 221.185446 75.310483 
L 221.153711 74.50999 
L 221.108262 74.258023 
L 220.995243 73.709498 
L 220.665727 72.909006 
L 220.336652 72.414295 
L 220.075928 72.108513 
L 219.565042 71.677532 
L 218.929239 71.308021 
L 218.793432 71.244529 
L 218.021822 71.004364 
L 217.250212 70.883451 
L 216.478602 70.85966 
L 215.706992 70.917441 
L 214.935382 71.046075 
L 214.163772 71.238568 
L 213.953127 71.308021 
L 213.392162 71.493631 
L 212.620552 71.803935 
L 211.974105 72.108513 
L 211.848942 72.168692 
L 211.077332 72.59113 
L 210.55823 72.909006 
L 210.305722 73.069598 
L 209.534112 73.608741 
L 209.401045 73.709498 
L 208.762502 74.22102 
L 208.426416 74.50999 
L 207.990892 74.91357 
L 207.586488 75.310483 
L 207.219282 75.706308 
L 206.860059 76.110975 
L 206.447672 76.631028 
L 206.231971 76.911468 
L 205.692517 77.71196 
L 205.676062 77.740533 
L 205.23721 78.512452 
L 204.904452 79.215272 
L 204.858173 79.312945 
L 204.558383 80.113437 
L 204.335744 80.91393 
L 204.193221 81.714422 
L 204.13746 82.514915 
L 204.178919 83.315407 
L 204.332212 84.115899 
L 204.616779 84.916392 
L 204.904452 85.454231 
L 205.071691 85.716884 
L 205.676062 86.423382 
L 205.777932 86.517377 
L 206.447672 87.024967 
L 206.979968 87.317869 
z
M 207.646046 85.716884 
L 207.219282 85.444211 
L 206.641873 84.916392 
L 206.447672 84.678719 
L 206.090424 84.115899 
L 205.766933 83.315407 
L 205.676062 82.87561 
L 205.612446 82.514915 
L 205.5894 81.714422 
L 205.674302 80.91393 
L 205.676062 80.906477 
L 205.864433 80.113437 
L 206.144729 79.312945 
L 206.447672 78.653118 
L 206.513647 78.512452 
L 206.980776 77.71196 
L 207.219282 77.366774 
L 207.545941 76.911468 
L 207.990892 76.373018 
L 208.218966 76.110975 
L 208.762502 75.556298 
L 209.019874 75.310483 
L 209.534112 74.864696 
L 209.977699 74.50999 
L 210.305722 74.266932 
L 211.077332 73.747883 
L 211.141641 73.709498 
L 211.848942 73.310834 
L 212.620552 72.930702 
L 212.673798 72.909006 
L 213.392162 72.627534 
L 214.163772 72.388607 
L 214.935382 72.218891 
L 215.706992 72.129166 
L 216.478602 72.136032 
L 217.250212 72.264018 
L 218.021822 72.548964 
L 218.600947 72.909006 
L 218.793432 73.075921 
L 219.307392 73.709498 
L 219.565042 74.252481 
L 219.662294 74.50999 
L 219.804296 75.310483 
L 219.808153 76.110975 
L 219.702662 76.911468 
L 219.565042 77.468656 
L 219.503568 77.71196 
L 219.218015 78.512452 
L 218.864534 79.312945 
L 218.793432 79.449366 
L 218.431769 80.113437 
L 218.021822 80.779741 
L 217.93423 80.91393 
L 217.358872 81.714422 
L 217.250212 81.854791 
L 216.69874 82.514915 
L 216.478602 82.763734 
L 215.943031 83.315407 
L 215.706992 83.54836 
L 215.063837 84.115899 
L 214.935382 84.225819 
L 214.163772 84.803237 
L 213.985811 84.916392 
L 213.392162 85.286195 
L 212.620552 85.678564 
L 212.521944 85.716884 
L 211.848942 85.975207 
L 211.077332 86.177536 
L 210.305722 86.282036 
L 209.534112 86.280345 
L 208.762502 86.159262 
L 207.990892 85.89944 
z
" style="fill:#de2b25;"/>
   </g>
   <g id="PathCollection_9">
    <path clip-path="url(#p5d017dee64)" d="M 207.990892 85.89944 
L 208.762502 86.159262 
L 209.534112 86.280345 
L 210.305722 86.282036 
L 211.077332 86.177536 
L 211.848942 85.975207 
L 212.521944 85.716884 
L 212.620552 85.678564 
L 213.392162 85.286195 
L 213.985811 84.916392 
L 214.163772 84.803237 
L 214.935382 84.225819 
L 215.063837 84.115899 
L 215.706992 83.54836 
L 215.943031 83.315407 
L 216.478602 82.763734 
L 216.69874 82.514915 
L 217.250212 81.854791 
L 217.358872 81.714422 
L 217.93423 80.91393 
L 218.021822 80.779741 
L 218.431769 80.113437 
L 218.793432 79.449366 
L 218.864534 79.312945 
L 219.218015 78.512452 
L 219.503568 77.71196 
L 219.565042 77.468656 
L 219.702662 76.911468 
L 219.808153 76.110975 
L 219.804296 75.310483 
L 219.662294 74.50999 
L 219.565042 74.252481 
L 219.307392 73.709498 
L 218.793432 73.075921 
L 218.600947 72.909006 
L 218.021822 72.548964 
L 217.250212 72.264018 
L 216.478602 72.136032 
L 215.706992 72.129166 
L 214.935382 72.218891 
L 214.163772 72.388607 
L 213.392162 72.627534 
L 212.673798 72.909006 
L 212.620552 72.930702 
L 211.848942 73.310834 
L 211.141641 73.709498 
L 211.077332 73.747883 
L 210.305722 74.266932 
L 209.977699 74.50999 
L 209.534112 74.864696 
L 209.019874 75.310483 
L 208.762502 75.556298 
L 208.218966 76.110975 
L 207.990892 76.373018 
L 207.545941 76.911468 
L 207.219282 77.366774 
L 206.980776 77.71196 
L 206.513647 78.512452 
L 206.447672 78.653118 
L 206.144729 79.312945 
L 205.864433 80.113437 
L 205.676062 80.906477 
L 205.674302 80.91393 
L 205.5894 81.714422 
L 205.612446 82.514915 
L 205.676062 82.87561 
L 205.766933 83.315407 
L 206.090424 84.115899 
L 206.447672 84.678719 
L 206.641873 84.916392 
L 207.219282 85.444211 
L 207.646046 85.716884 
z
M 208.643289 84.115899 
L 207.990892 83.58229 
L 207.77134 83.315407 
L 207.353356 82.514915 
L 207.219282 81.960816 
L 207.172193 81.714422 
L 207.163839 80.91393 
L 207.219282 80.559984 
L 207.291913 80.113437 
L 207.545794 79.312945 
L 207.903845 78.512452 
L 207.990892 78.363639 
L 208.391704 77.71196 
L 208.762502 77.212073 
L 209.000676 76.911468 
L 209.534112 76.335425 
L 209.759786 76.110975 
L 210.305722 75.6334 
L 210.713481 75.310483 
L 211.077332 75.050605 
L 211.848942 74.563088 
L 211.948834 74.50999 
L 212.620552 74.181586 
L 213.392162 73.874647 
L 213.959702 73.709498 
L 214.163772 73.653837 
L 214.935382 73.540782 
L 215.706992 73.537256 
L 216.478602 73.673035 
L 216.575323 73.709498 
L 217.250212 74.066557 
L 217.730327 74.50999 
L 218.021822 74.982963 
L 218.16683 75.310483 
L 218.310946 76.110975 
L 218.284725 76.911468 
L 218.129877 77.71196 
L 218.021822 78.040094 
L 217.857494 78.512452 
L 217.486767 79.312945 
L 217.250212 79.734108 
L 217.020934 80.113437 
L 216.478602 80.896067 
L 216.46503 80.91393 
L 215.786821 81.714422 
L 215.706992 81.801564 
L 214.976222 82.514915 
L 214.935382 82.552509 
L 214.163772 83.169609 
L 213.947521 83.315407 
L 213.392162 83.673436 
L 212.620552 84.074691 
L 212.511182 84.115899 
L 211.848942 84.357109 
L 211.077332 84.526986 
L 210.305722 84.572544 
L 209.534112 84.47113 
L 208.762502 84.188834 
z
" style="fill:#c4161c;"/>
   </g>
   <g id="PathCollection_10">
    <path clip-path="url(#p5d017dee64)" d="M 208.762502 84.188834 
L 209.534112 84.47113 
L 210.305722 84.572544 
L 211.077332 84.526986 
L 211.848942 84.357109 
L 212.511182 84.115899 
L 212.620552 84.074691 
L 213.392162 83.673436 
L 213.947521 83.315407 
L 214.163772 83.169609 
L 214.935382 82.552509 
L 214.976222 82.514915 
L 215.706992 81.801564 
L 215.786821 81.714422 
L 216.46503 80.91393 
L 216.478602 80.896067 
L 217.020934 80.113437 
L 217.250212 79.734108 
L 217.486767 79.312945 
L 217.857494 78.512452 
L 218.021822 78.040094 
L 218.129877 77.71196 
L 218.284725 76.911468 
L 218.310946 76.110975 
L 218.16683 75.310483 
L 218.021822 74.982963 
L 217.730327 74.50999 
L 217.250212 74.066557 
L 216.575323 73.709498 
L 216.478602 73.673035 
L 215.706992 73.537256 
L 214.935382 73.540782 
L 214.163772 73.653837 
L 213.959702 73.709498 
L 213.392162 73.874647 
L 212.620552 74.181586 
L 211.948834 74.50999 
L 211.848942 74.563088 
L 211.077332 75.050605 
L 210.713481 75.310483 
L 210.305722 75.6334 
L 209.759786 76.110975 
L 209.534112 76.335425 
L 209.000676 76.911468 
L 208.762502 77.212073 
L 208.391704 77.71196 
L 207.990892 78.363639 
L 207.903845 78.512452 
L 207.545794 79.312945 
L 207.291913 80.113437 
L 207.219282 80.559984 
L 207.163839 80.91393 
L 207.172193 81.714422 
L 207.219282 81.960816 
L 207.353356 82.514915 
L 207.77134 83.315407 
L 207.990892 83.58229 
L 208.643289 84.115899 
z
M 210.988309 82.514915 
L 210.305722 82.367865 
L 209.534112 81.821956 
L 209.449398 81.714422 
L 209.132816 80.91393 
L 209.100644 80.113437 
L 209.272169 79.312945 
L 209.534112 78.682625 
L 209.612378 78.512452 
L 210.144496 77.71196 
L 210.305722 77.520969 
L 210.881962 76.911468 
L 211.077332 76.739049 
L 211.848942 76.149115 
L 211.91128 76.110975 
L 212.620552 75.740617 
L 213.392162 75.437078 
L 213.976319 75.310483 
L 214.163772 75.275029 
L 214.935382 75.292031 
L 215.004407 75.310483 
L 215.706992 75.618719 
L 216.18047 76.110975 
L 216.452896 76.911468 
L 216.406379 77.71196 
L 216.16334 78.512452 
L 215.786688 79.312945 
L 215.706992 79.439996 
L 215.23061 80.113437 
L 214.935382 80.466939 
L 214.5018 80.91393 
L 214.163772 81.22138 
L 213.509852 81.714422 
L 213.392162 81.795163 
L 212.620552 82.188018 
L 211.848942 82.447121 
L 211.215682 82.514915 
L 211.077332 82.52846 
z
" style="fill:#a81016;"/>
   </g>
   <g id="PathCollection_11">
    <path clip-path="url(#p5d017dee64)" d="M 211.077332 82.52846 
L 211.215682 82.514915 
L 211.848942 82.447121 
L 212.620552 82.188018 
L 213.392162 81.795163 
L 213.509852 81.714422 
L 214.163772 81.22138 
L 214.5018 80.91393 
L 214.935382 80.466939 
L 215.23061 80.113437 
L 215.706992 79.439996 
L 215.786688 79.312945 
L 216.16334 78.512452 
L 216.406379 77.71196 
L 216.452896 76.911468 
L 216.18047 76.110975 
L 215.706992 75.618719 
L 215.004407 75.310483 
L 214.935382 75.292031 
L 214.163772 75.275029 
L 213.976319 75.310483 
L 213.392162 75.437078 
L 212.620552 75.740617 
L 211.91128 76.110975 
L 211.848942 76.149115 
L 211.077332 76.739049 
L 210.881962 76.911468 
L 210.305722 77.520969 
L 210.144496 77.71196 
L 209.612378 78.512452 
L 209.534112 78.682625 
L 209.272169 79.312945 
L 209.100644 80.113437 
L 209.132816 80.91393 
L 209.449398 81.714422 
L 209.534112 81.821956 
L 210.305722 82.367865 
L 210.988309 82.514915 
z
" style="fill:#7c0510;"/>
   </g>
   <g id="matplotlib.axis_1">
    <g id="xtick_1">
     <g id="line2d_1">
      <defs>
       <path d="M 0 0 
L 0 3.5 
" id="mbe08b04226" style="stroke:#262626;stroke-width:0.8;"/>
      </defs>
      <g>
       <use style="fill:#262626;stroke:#262626;stroke-width:0.8;" x="67.334837" xlink:href="#mbe08b04226" y="223"/>
      </g>
     </g>
     <g id="line2d_2">
      <defs>
       <path d="M 0 0 
L 0 -3.5 
" id="m243129f2ad" style="stroke:#262626;stroke-width:0.8;"/>
      </defs>
      <g>
       <use style="fill:#262626;stroke:#262626;stroke-width:0.8;" x="67.334837" xlink:href="#m243129f2ad" y="25.44"/>
      </g>
     </g>
     <g id="text_1">
      <!-- 0.0 -->
      <defs>
       <path d="M 31.78125 66.40625 
Q 24.171875 66.40625 20.328125 58.90625 
Q 16.5 51.421875 16.5 36.375 
Q 16.5 21.390625 20.328125 13.890625 
Q 24.171875 6.390625 31.78125 6.390625 
Q 39.453125 6.390625 43.28125 13.890625 
Q 47.125 21.390625 47.125 36.375 
Q 47.125 51.421875 43.28125 58.90625 
Q 39.453125 66.40625 31.78125 66.40625 
z
M 31.78125 74.21875 
Q 44.046875 74.21875 50.515625 64.515625 
Q 56.984375 54.828125 56.984375 36.375 
Q 56.984375 17.96875 50.515625 8.265625 
Q 44.046875 -1.421875 31.78125 -1.421875 
Q 19.53125 -1.421875 13.0625 8.265625 
Q 6.59375 17.96875 6.59375 36.375 
Q 6.59375 54.828125 13.0625 64.515625 
Q 19.53125 74.21875 31.78125 74.21875 
z
" id="DejaVuSans-30"/>
       <path d="M 10.6875 12.40625 
L 21 12.40625 
L 21 0 
L 10.6875 0 
z
" id="DejaVuSans-2e"/>
      </defs>
      <g style="fill:#262626;" transform="translate(58.588118 238.358281)scale(0.11 -0.11)">
       <use xlink:href="#DejaVuSans-30"/>
       <use x="63.623047" xlink:href="#DejaVuSans-2e"/>
       <use x="95.410156" xlink:href="#DejaVuSans-30"/>
      </g>
     </g>
    </g>
    <g id="xtick_2">
     <g id="line2d_3">
      <g>
       <use style="fill:#262626;stroke:#262626;stroke-width:0.8;" x="106.432402" xlink:href="#mbe08b04226" y="223"/>
      </g>
     </g>
     <g id="line2d_4">
      <g>
       <use style="fill:#262626;stroke:#262626;stroke-width:0.8;" x="106.432402" xlink:href="#m243129f2ad" y="25.44"/>
      </g>
     </g>
     <g id="text_2">
      <!-- 1.0 -->
      <defs>
       <path d="M 12.40625 8.296875 
L 28.515625 8.296875 
L 28.515625 63.921875 
L 10.984375 60.40625 
L 10.984375 69.390625 
L 28.421875 72.90625 
L 38.28125 72.90625 
L 38.28125 8.296875 
L 54.390625 8.296875 
L 54.390625 0 
L 12.40625 0 
z
" id="DejaVuSans-31"/>
      </defs>
      <g style="fill:#262626;" transform="translate(97.685684 238.358281)scale(0.11 -0.11)">
       <use xlink:href="#DejaVuSans-31"/>
       <use x="63.623047" xlink:href="#DejaVuSans-2e"/>
       <use x="95.410156" xlink:href="#DejaVuSans-30"/>
      </g>
     </g>
    </g>
    <g id="xtick_3">
     <g id="line2d_5">
      <g>
       <use style="fill:#262626;stroke:#262626;stroke-width:0.8;" x="145.529968" xlink:href="#mbe08b04226" y="223"/>
      </g>
     </g>
     <g id="line2d_6">
      <g>
       <use style="fill:#262626;stroke:#262626;stroke-width:0.8;" x="145.529968" xlink:href="#m243129f2ad" y="25.44"/>
      </g>
     </g>
     <g id="text_3">
      <!-- 2.0 -->
      <defs>
       <path d="M 19.1875 8.296875 
L 53.609375 8.296875 
L 53.609375 0 
L 7.328125 0 
L 7.328125 8.296875 
Q 12.9375 14.109375 22.625 23.890625 
Q 32.328125 33.6875 34.8125 36.53125 
Q 39.546875 41.84375 41.421875 45.53125 
Q 43.3125 49.21875 43.3125 52.78125 
Q 43.3125 58.59375 39.234375 62.25 
Q 35.15625 65.921875 28.609375 65.921875 
Q 23.96875 65.921875 18.8125 64.3125 
Q 13.671875 62.703125 7.8125 59.421875 
L 7.8125 69.390625 
Q 13.765625 71.78125 18.9375 73 
Q 24.125 74.21875 28.421875 74.21875 
Q 39.75 74.21875 46.484375 68.546875 
Q 53.21875 62.890625 53.21875 53.421875 
Q 53.21875 48.921875 51.53125 44.890625 
Q 49.859375 40.875 45.40625 35.40625 
Q 44.1875 33.984375 37.640625 27.21875 
Q 31.109375 20.453125 19.1875 8.296875 
z
" id="DejaVuSans-32"/>
      </defs>
      <g style="fill:#262626;" transform="translate(136.783249 238.358281)scale(0.11 -0.11)">
       <use xlink:href="#DejaVuSans-32"/>
       <use x="63.623047" xlink:href="#DejaVuSans-2e"/>
       <use x="95.410156" xlink:href="#DejaVuSans-30"/>
      </g>
     </g>
    </g>
    <g id="xtick_4">
     <g id="line2d_7">
      <g>
       <use style="fill:#262626;stroke:#262626;stroke-width:0.8;" x="184.627533" xlink:href="#mbe08b04226" y="223"/>
      </g>
     </g>
     <g id="line2d_8">
      <g>
       <use style="fill:#262626;stroke:#262626;stroke-width:0.8;" x="184.627533" xlink:href="#m243129f2ad" y="25.44"/>
      </g>
     </g>
     <g id="text_4">
      <!-- 3.0 -->
      <defs>
       <path d="M 40.578125 39.3125 
Q 47.65625 37.796875 51.625 33 
Q 55.609375 28.21875 55.609375 21.1875 
Q 55.609375 10.40625 48.1875 4.484375 
Q 40.765625 -1.421875 27.09375 -1.421875 
Q 22.515625 -1.421875 17.65625 -0.515625 
Q 12.796875 0.390625 7.625 2.203125 
L 7.625 11.71875 
Q 11.71875 9.328125 16.59375 8.109375 
Q 21.484375 6.890625 26.8125 6.890625 
Q 36.078125 6.890625 40.9375 10.546875 
Q 45.796875 14.203125 45.796875 21.1875 
Q 45.796875 27.640625 41.28125 31.265625 
Q 36.765625 34.90625 28.71875 34.90625 
L 20.21875 34.90625 
L 20.21875 43.015625 
L 29.109375 43.015625 
Q 36.375 43.015625 40.234375 45.921875 
Q 44.09375 48.828125 44.09375 54.296875 
Q 44.09375 59.90625 40.109375 62.90625 
Q 36.140625 65.921875 28.71875 65.921875 
Q 24.65625 65.921875 20.015625 65.03125 
Q 15.375 64.15625 9.8125 62.3125 
L 9.8125 71.09375 
Q 15.4375 72.65625 20.34375 73.4375 
Q 25.25 74.21875 29.59375 74.21875 
Q 40.828125 74.21875 47.359375 69.109375 
Q 53.90625 64.015625 53.90625 55.328125 
Q 53.90625 49.265625 50.4375 45.09375 
Q 46.96875 40.921875 40.578125 39.3125 
z
" id="DejaVuSans-33"/>
      </defs>
      <g style="fill:#262626;" transform="translate(175.880814 238.358281)scale(0.11 -0.11)">
       <use xlink:href="#DejaVuSans-33"/>
       <use x="63.623047" xlink:href="#DejaVuSans-2e"/>
       <use x="95.410156" xlink:href="#DejaVuSans-30"/>
      </g>
     </g>
    </g>
    <g id="xtick_5">
     <g id="line2d_9">
      <g>
       <use style="fill:#262626;stroke:#262626;stroke-width:0.8;" x="223.725099" xlink:href="#mbe08b04226" y="223"/>
      </g>
     </g>
     <g id="line2d_10">
      <g>
       <use style="fill:#262626;stroke:#262626;stroke-width:0.8;" x="223.725099" xlink:href="#m243129f2ad" y="25.44"/>
      </g>
     </g>
     <g id="text_5">
      <!-- 4.0 -->
      <defs>
       <path d="M 37.796875 64.3125 
L 12.890625 25.390625 
L 37.796875 25.390625 
z
M 35.203125 72.90625 
L 47.609375 72.90625 
L 47.609375 25.390625 
L 58.015625 25.390625 
L 58.015625 17.1875 
L 47.609375 17.1875 
L 47.609375 0 
L 37.796875 0 
L 37.796875 17.1875 
L 4.890625 17.1875 
L 4.890625 26.703125 
z
" id="DejaVuSans-34"/>
      </defs>
      <g style="fill:#262626;" transform="translate(214.97838 238.358281)scale(0.11 -0.11)">
       <use xlink:href="#DejaVuSans-34"/>
       <use x="63.623047" xlink:href="#DejaVuSans-2e"/>
       <use x="95.410156" xlink:href="#DejaVuSans-30"/>
      </g>
     </g>
    </g>
    <g id="text_6">
     <!-- log10 counts (Control) -->
     <defs>
      <path d="M 9.421875 75.984375 
L 18.40625 75.984375 
L 18.40625 0 
L 9.421875 0 
z
" id="DejaVuSans-6c"/>
      <path d="M 30.609375 48.390625 
Q 23.390625 48.390625 19.1875 42.75 
Q 14.984375 37.109375 14.984375 27.296875 
Q 14.984375 17.484375 19.15625 11.84375 
Q 23.34375 6.203125 30.609375 6.203125 
Q 37.796875 6.203125 41.984375 11.859375 
Q 46.1875 17.53125 46.1875 27.296875 
Q 46.1875 37.015625 41.984375 42.703125 
Q 37.796875 48.390625 30.609375 48.390625 
z
M 30.609375 56 
Q 42.328125 56 49.015625 48.375 
Q 55.71875 40.765625 55.71875 27.296875 
Q 55.71875 13.875 49.015625 6.21875 
Q 42.328125 -1.421875 30.609375 -1.421875 
Q 18.84375 -1.421875 12.171875 6.21875 
Q 5.515625 13.875 5.515625 27.296875 
Q 5.515625 40.765625 12.171875 48.375 
Q 18.84375 56 30.609375 56 
z
" id="DejaVuSans-6f"/>
      <path d="M 45.40625 27.984375 
Q 45.40625 37.75 41.375 43.109375 
Q 37.359375 48.484375 30.078125 48.484375 
Q 22.859375 48.484375 18.828125 43.109375 
Q 14.796875 37.75 14.796875 27.984375 
Q 14.796875 18.265625 18.828125 12.890625 
Q 22.859375 7.515625 30.078125 7.515625 
Q 37.359375 7.515625 41.375 12.890625 
Q 45.40625 18.265625 45.40625 27.984375 
z
M 54.390625 6.78125 
Q 54.390625 -7.171875 48.1875 -13.984375 
Q 42 -20.796875 29.203125 -20.796875 
Q 24.46875 -20.796875 20.265625 -20.09375 
Q 16.0625 -19.390625 12.109375 -17.921875 
L 12.109375 -9.1875 
Q 16.0625 -11.328125 19.921875 -12.34375 
Q 23.78125 -13.375 27.78125 -13.375 
Q 36.625 -13.375 41.015625 -8.765625 
Q 45.40625 -4.15625 45.40625 5.171875 
L 45.40625 9.625 
Q 42.625 4.78125 38.28125 2.390625 
Q 33.9375 0 27.875 0 
Q 17.828125 0 11.671875 7.65625 
Q 5.515625 15.328125 5.515625 27.984375 
Q 5.515625 40.671875 11.671875 48.328125 
Q 17.828125 56 27.875 56 
Q 33.9375 56 38.28125 53.609375 
Q 42.625 51.21875 45.40625 46.390625 
L 45.40625 54.6875 
L 54.390625 54.6875 
z
" id="DejaVuSans-67"/>
      <path id="DejaVuSans-20"/>
      <path d="M 48.78125 52.59375 
L 48.78125 44.1875 
Q 44.96875 46.296875 41.140625 47.34375 
Q 37.3125 48.390625 33.40625 48.390625 
Q 24.65625 48.390625 19.8125 42.84375 
Q 14.984375 37.3125 14.984375 27.296875 
Q 14.984375 17.28125 19.8125 11.734375 
Q 24.65625 6.203125 33.40625 6.203125 
Q 37.3125 6.203125 41.140625 7.25 
Q 44.96875 8.296875 48.78125 10.40625 
L 48.78125 2.09375 
Q 45.015625 0.34375 40.984375 -0.53125 
Q 36.96875 -1.421875 32.421875 -1.421875 
Q 20.0625 -1.421875 12.78125 6.34375 
Q 5.515625 14.109375 5.515625 27.296875 
Q 5.515625 40.671875 12.859375 48.328125 
Q 20.21875 56 33.015625 56 
Q 37.15625 56 41.109375 55.140625 
Q 45.0625 54.296875 48.78125 52.59375 
z
" id="DejaVuSans-63"/>
      <path d="M 8.5 21.578125 
L 8.5 54.6875 
L 17.484375 54.6875 
L 17.484375 21.921875 
Q 17.484375 14.15625 20.5 10.265625 
Q 23.53125 6.390625 29.59375 6.390625 
Q 36.859375 6.390625 41.078125 11.03125 
Q 45.3125 15.671875 45.3125 23.6875 
L 45.3125 54.6875 
L 54.296875 54.6875 
L 54.296875 0 
L 45.3125 0 
L 45.3125 8.40625 
Q 42.046875 3.421875 37.71875 1 
Q 33.40625 -1.421875 27.6875 -1.421875 
Q 18.265625 -1.421875 13.375 4.4375 
Q 8.5 10.296875 8.5 21.578125 
z
M 31.109375 56 
z
" id="DejaVuSans-75"/>
      <path d="M 54.890625 33.015625 
L 54.890625 0 
L 45.90625 0 
L 45.90625 32.71875 
Q 45.90625 40.484375 42.875 44.328125 
Q 39.84375 48.1875 33.796875 48.1875 
Q 26.515625 48.1875 22.3125 43.546875 
Q 18.109375 38.921875 18.109375 30.90625 
L 18.109375 0 
L 9.078125 0 
L 9.078125 54.6875 
L 18.109375 54.6875 
L 18.109375 46.1875 
Q 21.34375 51.125 25.703125 53.5625 
Q 30.078125 56 35.796875 56 
Q 45.21875 56 50.046875 50.171875 
Q 54.890625 44.34375 54.890625 33.015625 
z
" id="DejaVuSans-6e"/>
      <path d="M 18.3125 70.21875 
L 18.3125 54.6875 
L 36.8125 54.6875 
L 36.8125 47.703125 
L 18.3125 47.703125 
L 18.3125 18.015625 
Q 18.3125 11.328125 20.140625 9.421875 
Q 21.96875 7.515625 27.59375 7.515625 
L 36.8125 7.515625 
L 36.8125 0 
L 27.59375 0 
Q 17.1875 0 13.234375 3.875 
Q 9.28125 7.765625 9.28125 18.015625 
L 9.28125 47.703125 
L 2.6875 47.703125 
L 2.6875 54.6875 
L 9.28125 54.6875 
L 9.28125 70.21875 
z
" id="DejaVuSans-74"/>
      <path d="M 44.28125 53.078125 
L 44.28125 44.578125 
Q 40.484375 46.53125 36.375 47.5 
Q 32.28125 48.484375 27.875 48.484375 
Q 21.1875 48.484375 17.84375 46.4375 
Q 14.5 44.390625 14.5 40.28125 
Q 14.5 37.15625 16.890625 35.375 
Q 19.28125 33.59375 26.515625 31.984375 
L 29.59375 31.296875 
Q 39.15625 29.25 43.1875 25.515625 
Q 47.21875 21.78125 47.21875 15.09375 
Q 47.21875 7.46875 41.1875 3.015625 
Q 35.15625 -1.421875 24.609375 -1.421875 
Q 20.21875 -1.421875 15.453125 -0.5625 
Q 10.6875 0.296875 5.421875 2 
L 5.421875 11.28125 
Q 10.40625 8.6875 15.234375 7.390625 
Q 20.0625 6.109375 24.8125 6.109375 
Q 31.15625 6.109375 34.5625 8.28125 
Q 37.984375 10.453125 37.984375 14.40625 
Q 37.984375 18.0625 35.515625 20.015625 
Q 33.0625 21.96875 24.703125 23.78125 
L 21.578125 24.515625 
Q 13.234375 26.265625 9.515625 29.90625 
Q 5.8125 33.546875 5.8125 39.890625 
Q 5.8125 47.609375 11.28125 51.796875 
Q 16.75 56 26.8125 56 
Q 31.78125 56 36.171875 55.265625 
Q 40.578125 54.546875 44.28125 53.078125 
z
" id="DejaVuSans-73"/>
      <path d="M 31 75.875 
Q 24.46875 64.65625 21.28125 53.65625 
Q 18.109375 42.671875 18.109375 31.390625 
Q 18.109375 20.125 21.3125 9.0625 
Q 24.515625 -2 31 -13.1875 
L 23.1875 -13.1875 
Q 15.875 -1.703125 12.234375 9.375 
Q 8.59375 20.453125 8.59375 31.390625 
Q 8.59375 42.28125 12.203125 53.3125 
Q 15.828125 64.359375 23.1875 75.875 
z
" id="DejaVuSans-28"/>
      <path d="M 64.40625 67.28125 
L 64.40625 56.890625 
Q 59.421875 61.53125 53.78125 63.8125 
Q 48.140625 66.109375 41.796875 66.109375 
Q 29.296875 66.109375 22.65625 58.46875 
Q 16.015625 50.828125 16.015625 36.375 
Q 16.015625 21.96875 22.65625 14.328125 
Q 29.296875 6.6875 41.796875 6.6875 
Q 48.140625 6.6875 53.78125 8.984375 
Q 59.421875 11.28125 64.40625 15.921875 
L 64.40625 5.609375 
Q 59.234375 2.09375 53.4375 0.328125 
Q 47.65625 -1.421875 41.21875 -1.421875 
Q 24.65625 -1.421875 15.125 8.703125 
Q 5.609375 18.84375 5.609375 36.375 
Q 5.609375 53.953125 15.125 64.078125 
Q 24.65625 74.21875 41.21875 74.21875 
Q 47.75 74.21875 53.53125 72.484375 
Q 59.328125 70.75 64.40625 67.28125 
z
" id="DejaVuSans-43"/>
      <path d="M 41.109375 46.296875 
Q 39.59375 47.171875 37.8125 47.578125 
Q 36.03125 48 33.890625 48 
Q 26.265625 48 22.1875 43.046875 
Q 18.109375 38.09375 18.109375 28.8125 
L 18.109375 0 
L 9.078125 0 
L 9.078125 54.6875 
L 18.109375 54.6875 
L 18.109375 46.1875 
Q 20.953125 51.171875 25.484375 53.578125 
Q 30.03125 56 36.53125 56 
Q 37.453125 56 38.578125 55.875 
Q 39.703125 55.765625 41.0625 55.515625 
z
" id="DejaVuSans-72"/>
      <path d="M 8.015625 75.875 
L 15.828125 75.875 
Q 23.140625 64.359375 26.78125 53.3125 
Q 30.421875 42.28125 30.421875 31.390625 
Q 30.421875 20.453125 26.78125 9.375 
Q 23.140625 -1.703125 15.828125 -13.1875 
L 8.015625 -13.1875 
Q 14.5 -2 17.703125 9.0625 
Q 20.90625 20.125 20.90625 31.390625 
Q 20.90625 42.671875 17.703125 53.65625 
Q 14.5 64.65625 8.015625 75.875 
z
" id="DejaVuSans-29"/>
     </defs>
     <g transform="translate(83.294531 253.004219)scale(0.11 -0.11)">
      <use xlink:href="#DejaVuSans-6c"/>
      <use x="27.783203" xlink:href="#DejaVuSans-6f"/>
      <use x="88.964844" xlink:href="#DejaVuSans-67"/>
      <use x="152.441406" xlink:href="#DejaVuSans-31"/>
      <use x="216.064453" xlink:href="#DejaVuSans-30"/>
      <use x="279.6875" xlink:href="#DejaVuSans-20"/>
      <use x="311.474609" xlink:href="#DejaVuSans-63"/>
      <use x="366.455078" xlink:href="#DejaVuSans-6f"/>
      <use x="427.636719" xlink:href="#DejaVuSans-75"/>
      <use x="491.015625" xlink:href="#DejaVuSans-6e"/>
      <use x="554.394531" xlink:href="#DejaVuSans-74"/>
      <use x="593.603516" xlink:href="#DejaVuSans-73"/>
      <use x="645.703125" xlink:href="#DejaVuSans-20"/>
      <use x="677.490234" xlink:href="#DejaVuSans-28"/>
      <use x="716.503906" xlink:href="#DejaVuSans-43"/>
      <use x="786.328125" xlink:href="#DejaVuSans-6f"/>
      <use x="847.509766" xlink:href="#DejaVuSans-6e"/>
      <use x="910.888672" xlink:href="#DejaVuSans-74"/>
      <use x="950.097656" xlink:href="#DejaVuSans-72"/>
      <use x="991.179688" xlink:href="#DejaVuSans-6f"/>
      <use x="1052.361328" xlink:href="#DejaVuSans-6c"/>
      <use x="1080.144531" xlink:href="#DejaVuSans-29"/>
     </g>
    </g>
   </g>
   <g id="matplotlib.axis_2">
    <g id="ytick_1">
     <g id="line2d_11">
      <defs>
       <path d="M 0 0 
L -3.5 0 
" id="m6b81bfec1c" style="stroke:#262626;stroke-width:0.8;"/>
      </defs>
      <g>
       <use style="fill:#262626;stroke:#262626;stroke-width:0.8;" x="51.01625" xlink:href="#m6b81bfec1c" y="208.365926"/>
      </g>
     </g>
     <g id="line2d_12">
      <defs>
       <path d="M 0 0 
L 3.5 0 
" id="m6982bc81b2" style="stroke:#262626;stroke-width:0.8;"/>
      </defs>
      <g>
       <use style="fill:#262626;stroke:#262626;stroke-width:0.8;" x="238.68" xlink:href="#m6982bc81b2" y="208.365926"/>
      </g>
     </g>
     <g id="text_7">
      <!-- 0.0 -->
      <g style="fill:#262626;" transform="translate(26.522813 212.545067)scale(0.11 -0.11)">
       <use xlink:href="#DejaVuSans-30"/>
       <use x="63.623047" xlink:href="#DejaVuSans-2e"/>
       <use x="95.410156" xlink:href="#DejaVuSans-30"/>
      </g>
     </g>
    </g>
    <g id="ytick_2">
     <g id="line2d_13">
      <g>
       <use style="fill:#262626;stroke:#262626;stroke-width:0.8;" x="51.01625" xlink:href="#m6b81bfec1c" y="173.849416"/>
      </g>
     </g>
     <g id="line2d_14">
      <g>
       <use style="fill:#262626;stroke:#262626;stroke-width:0.8;" x="238.68" xlink:href="#m6982bc81b2" y="173.849416"/>
      </g>
     </g>
     <g id="text_8">
      <!-- 1.0 -->
      <g style="fill:#262626;" transform="translate(26.522813 178.028557)scale(0.11 -0.11)">
       <use xlink:href="#DejaVuSans-31"/>
       <use x="63.623047" xlink:href="#DejaVuSans-2e"/>
       <use x="95.410156" xlink:href="#DejaVuSans-30"/>
      </g>
     </g>
    </g>
    <g id="ytick_3">
     <g id="line2d_15">
      <g>
       <use style="fill:#262626;stroke:#262626;stroke-width:0.8;" x="51.01625" xlink:href="#m6b81bfec1c" y="139.332907"/>
      </g>
     </g>
     <g id="line2d_16">
      <g>
       <use style="fill:#262626;stroke:#262626;stroke-width:0.8;" x="238.68" xlink:href="#m6982bc81b2" y="139.332907"/>
      </g>
     </g>
     <g id="text_9">
      <!-- 2.0 -->
      <g style="fill:#262626;" transform="translate(26.522813 143.512047)scale(0.11 -0.11)">
       <use xlink:href="#DejaVuSans-32"/>
       <use x="63.623047" xlink:href="#DejaVuSans-2e"/>
       <use x="95.410156" xlink:href="#DejaVuSans-30"/>
      </g>
     </g>
    </g>
    <g id="ytick_4">
     <g id="line2d_17">
      <g>
       <use style="fill:#262626;stroke:#262626;stroke-width:0.8;" x="51.01625" xlink:href="#m6b81bfec1c" y="104.816397"/>
      </g>
     </g>
     <g id="line2d_18">
      <g>
       <use style="fill:#262626;stroke:#262626;stroke-width:0.8;" x="238.68" xlink:href="#m6982bc81b2" y="104.816397"/>
      </g>
     </g>
     <g id="text_10">
      <!-- 3.0 -->
      <g style="fill:#262626;" transform="translate(26.522813 108.995538)scale(0.11 -0.11)">
       <use xlink:href="#DejaVuSans-33"/>
       <use x="63.623047" xlink:href="#DejaVuSans-2e"/>
       <use x="95.410156" xlink:href="#DejaVuSans-30"/>
      </g>
     </g>
    </g>
    <g id="ytick_5">
     <g id="line2d_19">
      <g>
       <use style="fill:#262626;stroke:#262626;stroke-width:0.8;" x="51.01625" xlink:href="#m6b81bfec1c" y="70.299888"/>
      </g>
     </g>
     <g id="line2d_20">
      <g>
       <use style="fill:#262626;stroke:#262626;stroke-width:0.8;" x="238.68" xlink:href="#m6982bc81b2" y="70.299888"/>
      </g>
     </g>
     <g id="text_11">
      <!-- 4.0 -->
      <g style="fill:#262626;" transform="translate(26.522813 74.479028)scale(0.11 -0.11)">
       <use xlink:href="#DejaVuSans-34"/>
       <use x="63.623047" xlink:href="#DejaVuSans-2e"/>
       <use x="95.410156" xlink:href="#DejaVuSans-30"/>
      </g>
     </g>
    </g>
    <g id="ytick_6">
     <g id="line2d_21">
      <g>
       <use style="fill:#262626;stroke:#262626;stroke-width:0.8;" x="51.01625" xlink:href="#m6b81bfec1c" y="35.783378"/>
      </g>
     </g>
     <g id="line2d_22">
      <g>
       <use style="fill:#262626;stroke:#262626;stroke-width:0.8;" x="238.68" xlink:href="#m6982bc81b2" y="35.783378"/>
      </g>
     </g>
     <g id="text_12">
      <!-- 5.0 -->
      <defs>
       <path d="M 10.796875 72.90625 
L 49.515625 72.90625 
L 49.515625 64.59375 
L 19.828125 64.59375 
L 19.828125 46.734375 
Q 21.96875 47.46875 24.109375 47.828125 
Q 26.265625 48.1875 28.421875 48.1875 
Q 40.625 48.1875 47.75 41.5 
Q 54.890625 34.8125 54.890625 23.390625 
Q 54.890625 11.625 47.5625 5.09375 
Q 40.234375 -1.421875 26.90625 -1.421875 
Q 22.3125 -1.421875 17.546875 -0.640625 
Q 12.796875 0.140625 7.71875 1.703125 
L 7.71875 11.625 
Q 12.109375 9.234375 16.796875 8.0625 
Q 21.484375 6.890625 26.703125 6.890625 
Q 35.15625 6.890625 40.078125 11.328125 
Q 45.015625 15.765625 45.015625 23.390625 
Q 45.015625 31 40.078125 35.4375 
Q 35.15625 39.890625 26.703125 39.890625 
Q 22.75 39.890625 18.8125 39.015625 
Q 14.890625 38.140625 10.796875 36.28125 
z
" id="DejaVuSans-35"/>
      </defs>
      <g style="fill:#262626;" transform="translate(26.522813 39.962519)scale(0.11 -0.11)">
       <use xlink:href="#DejaVuSans-35"/>
       <use x="63.623047" xlink:href="#DejaVuSans-2e"/>
       <use x="95.410156" xlink:href="#DejaVuSans-30"/>
      </g>
     </g>
    </g>
    <g id="text_13">
     <!-- log10 counts (CD107a_positive_5) -->
     <defs>
      <path d="M 19.671875 64.796875 
L 19.671875 8.109375 
L 31.59375 8.109375 
Q 46.6875 8.109375 53.6875 14.9375 
Q 60.6875 21.78125 60.6875 36.53125 
Q 60.6875 51.171875 53.6875 57.984375 
Q 46.6875 64.796875 31.59375 64.796875 
z
M 9.8125 72.90625 
L 30.078125 72.90625 
Q 51.265625 72.90625 61.171875 64.09375 
Q 71.09375 55.28125 71.09375 36.53125 
Q 71.09375 17.671875 61.125 8.828125 
Q 51.171875 0 30.078125 0 
L 9.8125 0 
z
" id="DejaVuSans-44"/>
      <path d="M 8.203125 72.90625 
L 55.078125 72.90625 
L 55.078125 68.703125 
L 28.609375 0 
L 18.3125 0 
L 43.21875 64.59375 
L 8.203125 64.59375 
z
" id="DejaVuSans-37"/>
      <path d="M 34.28125 27.484375 
Q 23.390625 27.484375 19.1875 25 
Q 14.984375 22.515625 14.984375 16.5 
Q 14.984375 11.71875 18.140625 8.90625 
Q 21.296875 6.109375 26.703125 6.109375 
Q 34.1875 6.109375 38.703125 11.40625 
Q 43.21875 16.703125 43.21875 25.484375 
L 43.21875 27.484375 
z
M 52.203125 31.203125 
L 52.203125 0 
L 43.21875 0 
L 43.21875 8.296875 
Q 40.140625 3.328125 35.546875 0.953125 
Q 30.953125 -1.421875 24.3125 -1.421875 
Q 15.921875 -1.421875 10.953125 3.296875 
Q 6 8.015625 6 15.921875 
Q 6 25.140625 12.171875 29.828125 
Q 18.359375 34.515625 30.609375 34.515625 
L 43.21875 34.515625 
L 43.21875 35.40625 
Q 43.21875 41.609375 39.140625 45 
Q 35.0625 48.390625 27.6875 48.390625 
Q 23 48.390625 18.546875 47.265625 
Q 14.109375 46.140625 10.015625 43.890625 
L 10.015625 52.203125 
Q 14.9375 54.109375 19.578125 55.046875 
Q 24.21875 56 28.609375 56 
Q 40.484375 56 46.34375 49.84375 
Q 52.203125 43.703125 52.203125 31.203125 
z
" id="DejaVuSans-61"/>
      <path d="M 50.984375 -16.609375 
L 50.984375 -23.578125 
L -0.984375 -23.578125 
L -0.984375 -16.609375 
z
" id="DejaVuSans-5f"/>
      <path d="M 18.109375 8.203125 
L 18.109375 -20.796875 
L 9.078125 -20.796875 
L 9.078125 54.6875 
L 18.109375 54.6875 
L 18.109375 46.390625 
Q 20.953125 51.265625 25.265625 53.625 
Q 29.59375 56 35.59375 56 
Q 45.5625 56 51.78125 48.09375 
Q 58.015625 40.1875 58.015625 27.296875 
Q 58.015625 14.40625 51.78125 6.484375 
Q 45.5625 -1.421875 35.59375 -1.421875 
Q 29.59375 -1.421875 25.265625 0.953125 
Q 20.953125 3.328125 18.109375 8.203125 
z
M 48.6875 27.296875 
Q 48.6875 37.203125 44.609375 42.84375 
Q 40.53125 48.484375 33.40625 48.484375 
Q 26.265625 48.484375 22.1875 42.84375 
Q 18.109375 37.203125 18.109375 27.296875 
Q 18.109375 17.390625 22.1875 11.75 
Q 26.265625 6.109375 33.40625 6.109375 
Q 40.53125 6.109375 44.609375 11.75 
Q 48.6875 17.390625 48.6875 27.296875 
z
" id="DejaVuSans-70"/>
      <path d="M 9.421875 54.6875 
L 18.40625 54.6875 
L 18.40625 0 
L 9.421875 0 
z
M 9.421875 75.984375 
L 18.40625 75.984375 
L 18.40625 64.59375 
L 9.421875 64.59375 
z
" id="DejaVuSans-69"/>
      <path d="M 2.984375 54.6875 
L 12.5 54.6875 
L 29.59375 8.796875 
L 46.6875 54.6875 
L 56.203125 54.6875 
L 35.6875 0 
L 23.484375 0 
z
" id="DejaVuSans-76"/>
      <path d="M 56.203125 29.59375 
L 56.203125 25.203125 
L 14.890625 25.203125 
Q 15.484375 15.921875 20.484375 11.0625 
Q 25.484375 6.203125 34.421875 6.203125 
Q 39.59375 6.203125 44.453125 7.46875 
Q 49.3125 8.734375 54.109375 11.28125 
L 54.109375 2.78125 
Q 49.265625 0.734375 44.1875 -0.34375 
Q 39.109375 -1.421875 33.890625 -1.421875 
Q 20.796875 -1.421875 13.15625 6.1875 
Q 5.515625 13.8125 5.515625 26.8125 
Q 5.515625 40.234375 12.765625 48.109375 
Q 20.015625 56 32.328125 56 
Q 43.359375 56 49.78125 48.890625 
Q 56.203125 41.796875 56.203125 29.59375 
z
M 47.21875 32.234375 
Q 47.125 39.59375 43.09375 43.984375 
Q 39.0625 48.390625 32.421875 48.390625 
Q 24.90625 48.390625 20.390625 44.140625 
Q 15.875 39.890625 15.1875 32.171875 
z
" id="DejaVuSans-65"/>
     </defs>
     <g transform="translate(19.929219 218.290625)rotate(-90)scale(0.11 -0.11)">
      <use xlink:href="#DejaVuSans-6c"/>
      <use x="27.783203" xlink:href="#DejaVuSans-6f"/>
      <use x="88.964844" xlink:href="#DejaVuSans-67"/>
      <use x="152.441406" xlink:href="#DejaVuSans-31"/>
      <use x="216.064453" xlink:href="#DejaVuSans-30"/>
      <use x="279.6875" xlink:href="#DejaVuSans-20"/>
      <use x="311.474609" xlink:href="#DejaVuSans-63"/>
      <use x="366.455078" xlink:href="#DejaVuSans-6f"/>
      <use x="427.636719" xlink:href="#DejaVuSans-75"/>
      <use x="491.015625" xlink:href="#DejaVuSans-6e"/>
      <use x="554.394531" xlink:href="#DejaVuSans-74"/>
      <use x="593.603516" xlink:href="#DejaVuSans-73"/>
      <use x="645.703125" xlink:href="#DejaVuSans-20"/>
      <use x="677.490234" xlink:href="#DejaVuSans-28"/>
      <use x="716.503906" xlink:href="#DejaVuSans-43"/>
      <use x="786.328125" xlink:href="#DejaVuSans-44"/>
      <use x="863.330078" xlink:href="#DejaVuSans-31"/>
      <use x="926.953125" xlink:href="#DejaVuSans-30"/>
      <use x="990.576172" xlink:href="#DejaVuSans-37"/>
      <use x="1054.199219" xlink:href="#DejaVuSans-61"/>
      <use x="1115.478516" xlink:href="#DejaVuSans-5f"/>
      <use x="1165.478516" xlink:href="#DejaVuSans-70"/>
      <use x="1228.955078" xlink:href="#DejaVuSans-6f"/>
      <use x="1290.136719" xlink:href="#DejaVuSans-73"/>
      <use x="1342.236328" xlink:href="#DejaVuSans-69"/>
      <use x="1370.019531" xlink:href="#DejaVuSans-74"/>
      <use x="1409.228516" xlink:href="#DejaVuSans-69"/>
      <use x="1437.011719" xlink:href="#DejaVuSans-76"/>
      <use x="1496.191406" xlink:href="#DejaVuSans-65"/>
      <use x="1557.714844" xlink:href="#DejaVuSans-5f"/>
      <use x="1607.714844" xlink:href="#DejaVuSans-35"/>
      <use x="1671.337891" xlink:href="#DejaVuSans-29"/>
     </g>
    </g>
   </g>
   <g id="line2d_23">
    <path clip-path="url(#p5d017dee64)" d="M 51.01625 222.772467 
L 238.68 57.09725 
" style="fill:none;opacity:0.75;stroke:#808080;stroke-dasharray:5.55,2.4;stroke-dashoffset:0;stroke-width:1.5;"/>
   </g>
   <g id="patch_3">
    <path d="M 51.01625 223 
L 51.01625 25.44 
" style="fill:none;stroke:#000000;stroke-linecap:square;stroke-linejoin:miter;stroke-width:0.8;"/>
   </g>
   <g id="patch_4">
    <path d="M 238.68 223 
L 238.68 25.44 
" style="fill:none;stroke:#000000;stroke-linecap:square;stroke-linejoin:miter;stroke-width:0.8;"/>
   </g>
   <g id="patch_5">
    <path d="M 51.01625 223 
L 238.68 223 
" style="fill:none;stroke:#000000;stroke-linecap:square;stroke-linejoin:miter;stroke-width:0.8;"/>
   </g>
   <g id="patch_6">
    <path d="M 51.01625 25.44 
L 238.68 25.44 
" style="fill:none;stroke:#000000;stroke-linecap:square;stroke-linejoin:miter;stroke-width:0.8;"/>
   </g>
   <g id="text_14">
    <!-- sgRNA Density -->
    <defs>
     <path d="M 44.390625 34.1875 
Q 47.5625 33.109375 50.5625 29.59375 
Q 53.5625 26.078125 56.59375 19.921875 
L 66.609375 0 
L 56 0 
L 46.6875 18.703125 
Q 43.0625 26.03125 39.671875 28.421875 
Q 36.28125 30.8125 30.421875 30.8125 
L 19.671875 30.8125 
L 19.671875 0 
L 9.8125 0 
L 9.8125 72.90625 
L 32.078125 72.90625 
Q 44.578125 72.90625 50.734375 67.671875 
Q 56.890625 62.453125 56.890625 51.90625 
Q 56.890625 45.015625 53.6875 40.46875 
Q 50.484375 35.9375 44.390625 34.1875 
z
M 19.671875 64.796875 
L 19.671875 38.921875 
L 32.078125 38.921875 
Q 39.203125 38.921875 42.84375 42.21875 
Q 46.484375 45.515625 46.484375 51.90625 
Q 46.484375 58.296875 42.84375 61.546875 
Q 39.203125 64.796875 32.078125 64.796875 
z
" id="DejaVuSans-52"/>
     <path d="M 9.8125 72.90625 
L 23.09375 72.90625 
L 55.421875 11.921875 
L 55.421875 72.90625 
L 64.984375 72.90625 
L 64.984375 0 
L 51.703125 0 
L 19.390625 60.984375 
L 19.390625 0 
L 9.8125 0 
z
" id="DejaVuSans-4e"/>
     <path d="M 34.1875 63.1875 
L 20.796875 26.90625 
L 47.609375 26.90625 
z
M 28.609375 72.90625 
L 39.796875 72.90625 
L 67.578125 0 
L 57.328125 0 
L 50.6875 18.703125 
L 17.828125 18.703125 
L 11.1875 0 
L 0.78125 0 
z
" id="DejaVuSans-41"/>
     <path d="M 32.171875 -5.078125 
Q 28.375 -14.84375 24.75 -17.8125 
Q 21.140625 -20.796875 15.09375 -20.796875 
L 7.90625 -20.796875 
L 7.90625 -13.28125 
L 13.1875 -13.28125 
Q 16.890625 -13.28125 18.9375 -11.515625 
Q 21 -9.765625 23.484375 -3.21875 
L 25.09375 0.875 
L 2.984375 54.6875 
L 12.5 54.6875 
L 29.59375 11.921875 
L 46.6875 54.6875 
L 56.203125 54.6875 
z
" id="DejaVuSans-79"/>
    </defs>
    <g transform="translate(100.434063 19.44)scale(0.12 -0.12)">
     <use xlink:href="#DejaVuSans-73"/>
     <use x="52.099609" xlink:href="#DejaVuSans-67"/>
     <use x="115.576172" xlink:href="#DejaVuSans-52"/>
     <use x="185.058594" xlink:href="#DejaVuSans-4e"/>
     <use x="259.863281" xlink:href="#DejaVuSans-41"/>
     <use x="328.271484" xlink:href="#DejaVuSans-20"/>
     <use x="360.058594" xlink:href="#DejaVuSans-44"/>
     <use x="437.060547" xlink:href="#DejaVuSans-65"/>
     <use x="498.583984" xlink:href="#DejaVuSans-6e"/>
     <use x="561.962891" xlink:href="#DejaVuSans-73"/>
     <use x="614.0625" xlink:href="#DejaVuSans-69"/>
     <use x="641.845703" xlink:href="#DejaVuSans-74"/>
     <use x="681.054688" xlink:href="#DejaVuSans-79"/>
    </g>
   </g>
  </g>
 </g>
 <defs>
  <clipPath id="p5d017dee64">
   <rect height="197.56" width="187.66375" x="51.01625" y="25.44"/>
  </clipPath>
 </defs>
</svg>
