<?xml version="1.0" encoding="utf-8" standalone="no"?>
<!DOCTYPE svg PUBLIC "-//W3C//DTD SVG 1.1//EN"
  "http://www.w3.org/Graphics/SVG/1.1/DTD/svg11.dtd">
<!-- Created with matplotlib (http://matplotlib.org/) -->
<svg height="266pt" version="1.1" viewBox="0 0 252 266" width="252pt" xmlns="http://www.w3.org/2000/svg" xmlns:xlink="http://www.w3.org/1999/xlink">
 <defs>
  <style type="text/css">
*{stroke-linecap:butt;stroke-linejoin:round;}
  </style>
 </defs>
 <g id="figure_1">
  <g id="patch_1">
   <path d="M 0 266.4 
L 252 266.4 
L 252 0 
L 0 0 
z
" style="fill:#ffffff;"/>
  </g>
  <g id="axes_1">
   <g id="patch_2">
    <path d="M 51.01625 223 
L 238.68 223 
L 238.68 25.44 
L 51.01625 25.44 
z
" style="fill:#ffffff;"/>
   </g>
   <g id="PathCollection_1">
    <path clip-path="url(#pf392fb79c2)" d="M 172.496834 138.971403 
L 173.268444 138.971403 
L 174.040054 138.971403 
L 174.811664 138.971403 
L 175.583274 138.971403 
L 176.354884 138.971403 
L 177.126493 138.971403 
L 177.898103 138.971403 
L 178.669713 138.971403 
L 179.441323 138.971403 
L 180.212933 138.971403 
L 180.984543 138.971403 
L 181.756153 138.971403 
L 182.527763 138.971403 
L 183.299373 138.971403 
L 184.070983 138.971403 
L 184.842593 138.971403 
L 185.614203 138.971403 
L 186.385813 138.971403 
L 187.157423 138.971403 
L 187.929033 138.971403 
L 188.700643 138.971403 
L 189.472253 138.971403 
L 190.243863 138.971403 
L 191.015473 138.971403 
L 191.787083 138.971403 
L 192.558693 138.971403 
L 193.330303 138.971403 
L 194.101913 138.971403 
L 194.873523 138.971403 
L 195.645133 138.971403 
L 196.416743 138.971403 
L 197.188353 138.971403 
L 197.959963 138.971403 
L 198.731573 138.971403 
L 199.503183 138.971403 
L 200.274793 138.971403 
L 201.046403 138.971403 
L 201.818013 138.971403 
L 202.589623 138.971403 
L 203.361233 138.971403 
L 204.132843 138.971403 
L 204.904452 138.971403 
L 205.676062 138.971403 
L 206.447672 138.971403 
L 207.219282 138.971403 
L 207.990892 138.971403 
L 208.762502 138.971403 
L 209.534112 138.971403 
L 210.305722 138.971403 
L 211.077332 138.971403 
L 211.848942 138.971403 
L 212.620552 138.971403 
L 213.392162 138.971403 
L 214.163772 138.971403 
L 214.935382 138.971403 
L 215.706992 138.971403 
L 216.478602 138.971403 
L 217.250212 138.971403 
L 218.021822 138.971403 
L 218.793432 138.971403 
L 219.565042 138.971403 
L 220.336652 138.971403 
L 221.108262 138.971403 
L 221.879872 138.971403 
L 222.651482 138.971403 
L 223.423092 138.971403 
L 224.194702 138.971403 
L 224.966312 138.971403 
L 225.737922 138.971403 
L 226.509532 138.971403 
L 227.281142 138.971403 
L 228.052752 138.971403 
L 228.824362 138.971403 
L 229.595972 138.971403 
L 230.367582 138.971403 
L 231.139192 138.971403 
L 231.910802 138.971403 
L 232.682411 138.971403 
L 233.454021 138.971403 
L 234.225631 138.971403 
L 234.997241 138.971403 
L 235.768851 138.971403 
L 236.540461 138.971403 
L 237.312071 138.971403 
L 238.083681 138.971403 
L 238.855291 138.971403 
L 239.626901 138.971403 
L 240.398511 138.971403 
L 241.170121 138.971403 
L 241.941731 138.971403 
L 242.713341 138.971403 
L 243.484951 138.971403 
L 244.256561 138.971403 
L 245.028171 138.971403 
L 245.799781 138.971403 
L 246.571391 138.971403 
L 247.343001 138.971403 
L 248.114611 138.971403 
L 248.114611 138.036745 
L 248.114611 137.102086 
L 248.114611 136.167427 
L 248.114611 135.232768 
L 248.114611 134.298109 
L 248.114611 133.363451 
L 248.114611 132.428792 
L 248.114611 131.494133 
L 248.114611 130.559474 
L 248.114611 129.624815 
L 248.114611 128.690157 
L 248.114611 127.755498 
L 248.114611 126.820839 
L 248.114611 125.88618 
L 248.114611 124.951522 
L 248.114611 124.016863 
L 248.114611 123.082204 
L 248.114611 122.147545 
L 248.114611 121.212886 
L 248.114611 120.278228 
L 248.114611 119.343569 
L 248.114611 118.40891 
L 248.114611 117.474251 
L 248.114611 116.539592 
L 248.114611 115.604934 
L 248.114611 114.670275 
L 248.114611 113.735616 
L 248.114611 112.800957 
L 248.114611 111.866298 
L 248.114611 110.93164 
L 248.114611 109.996981 
L 248.114611 109.062322 
L 248.114611 108.127663 
L 248.114611 107.193004 
L 248.114611 106.258346 
L 248.114611 105.323687 
L 248.114611 104.389028 
L 248.114611 103.454369 
L 248.114611 102.51971 
L 248.114611 101.585052 
L 248.114611 100.650393 
L 248.114611 99.715734 
L 248.114611 98.781075 
L 248.114611 97.846416 
L 248.114611 96.911758 
L 248.114611 95.977099 
L 248.114611 95.04244 
L 248.114611 94.107781 
L 248.114611 93.173122 
L 248.114611 92.238464 
L 248.114611 91.303805 
L 248.114611 90.369146 
L 248.114611 89.434487 
L 248.114611 88.499828 
L 248.114611 87.56517 
L 248.114611 86.630511 
L 248.114611 85.695852 
L 248.114611 84.761193 
L 248.114611 83.826534 
L 248.114611 82.891876 
L 248.114611 81.957217 
L 248.114611 81.022558 
L 248.114611 80.087899 
L 248.114611 79.15324 
L 248.114611 78.218582 
L 248.114611 77.283923 
L 248.114611 76.349264 
L 248.114611 75.414605 
L 248.114611 74.479947 
L 248.114611 73.545288 
L 248.114611 72.610629 
L 248.114611 71.67597 
L 248.114611 70.741311 
L 248.114611 69.806653 
L 248.114611 68.871994 
L 248.114611 67.937335 
L 248.114611 67.002676 
L 248.114611 66.068017 
L 248.114611 65.133359 
L 248.114611 64.1987 
L 248.114611 63.264041 
L 248.114611 62.329382 
L 248.114611 61.394723 
L 248.114611 60.460065 
L 248.114611 59.525406 
L 248.114611 58.590747 
L 248.114611 57.656088 
L 248.114611 56.721429 
L 248.114611 55.786771 
L 248.114611 54.852112 
L 248.114611 53.917453 
L 248.114611 52.982794 
L 248.114611 52.048135 
L 248.114611 51.113477 
L 248.114611 50.178818 
L 248.114611 49.244159 
L 248.114611 48.3095 
L 248.114611 47.374841 
L 248.114611 46.440183 
L 247.343001 46.440183 
L 246.571391 46.440183 
L 245.799781 46.440183 
L 245.028171 46.440183 
L 244.256561 46.440183 
L 243.484951 46.440183 
L 242.713341 46.440183 
L 241.941731 46.440183 
L 241.170121 46.440183 
L 240.398511 46.440183 
L 239.626901 46.440183 
L 238.855291 46.440183 
L 238.083681 46.440183 
L 237.312071 46.440183 
L 236.540461 46.440183 
L 235.768851 46.440183 
L 234.997241 46.440183 
L 234.225631 46.440183 
L 233.454021 46.440183 
L 232.682411 46.440183 
L 231.910802 46.440183 
L 231.139192 46.440183 
L 230.367582 46.440183 
L 229.595972 46.440183 
L 228.824362 46.440183 
L 228.052752 46.440183 
L 227.281142 46.440183 
L 226.509532 46.440183 
L 225.737922 46.440183 
L 224.966312 46.440183 
L 224.194702 46.440183 
L 223.423092 46.440183 
L 222.651482 46.440183 
L 221.879872 46.440183 
L 221.108262 46.440183 
L 220.336652 46.440183 
L 219.565042 46.440183 
L 218.793432 46.440183 
L 218.021822 46.440183 
L 217.250212 46.440183 
L 216.478602 46.440183 
L 215.706992 46.440183 
L 214.935382 46.440183 
L 214.163772 46.440183 
L 213.392162 46.440183 
L 212.620552 46.440183 
L 211.848942 46.440183 
L 211.077332 46.440183 
L 210.305722 46.440183 
L 209.534112 46.440183 
L 208.762502 46.440183 
L 207.990892 46.440183 
L 207.219282 46.440183 
L 206.447672 46.440183 
L 205.676062 46.440183 
L 204.904452 46.440183 
L 204.132843 46.440183 
L 203.361233 46.440183 
L 202.589623 46.440183 
L 201.818013 46.440183 
L 201.046403 46.440183 
L 200.274793 46.440183 
L 199.503183 46.440183 
L 198.731573 46.440183 
L 197.959963 46.440183 
L 197.188353 46.440183 
L 196.416743 46.440183 
L 195.645133 46.440183 
L 194.873523 46.440183 
L 194.101913 46.440183 
L 193.330303 46.440183 
L 192.558693 46.440183 
L 191.787083 46.440183 
L 191.015473 46.440183 
L 190.243863 46.440183 
L 189.472253 46.440183 
L 188.700643 46.440183 
L 187.929033 46.440183 
L 187.157423 46.440183 
L 186.385813 46.440183 
L 185.614203 46.440183 
L 184.842593 46.440183 
L 184.070983 46.440183 
L 183.299373 46.440183 
L 182.527763 46.440183 
L 181.756153 46.440183 
L 180.984543 46.440183 
L 180.212933 46.440183 
L 179.441323 46.440183 
L 178.669713 46.440183 
L 177.898103 46.440183 
L 177.126493 46.440183 
L 176.354884 46.440183 
L 175.583274 46.440183 
L 174.811664 46.440183 
L 174.040054 46.440183 
L 173.268444 46.440183 
L 172.496834 46.440183 
L 171.725224 46.440183 
L 171.725224 47.374841 
L 171.725224 48.3095 
L 171.725224 49.244159 
L 171.725224 50.178818 
L 171.725224 51.113477 
L 171.725224 52.048135 
L 171.725224 52.982794 
L 171.725224 53.917453 
L 171.725224 54.852112 
L 171.725224 55.786771 
L 171.725224 56.721429 
L 171.725224 57.656088 
L 171.725224 58.590747 
L 171.725224 59.525406 
L 171.725224 60.460065 
L 171.725224 61.394723 
L 171.725224 62.329382 
L 171.725224 63.264041 
L 171.725224 64.1987 
L 171.725224 65.133359 
L 171.725224 66.068017 
L 171.725224 67.002676 
L 171.725224 67.937335 
L 171.725224 68.871994 
L 171.725224 69.806653 
L 171.725224 70.741311 
L 171.725224 71.67597 
L 171.725224 72.610629 
L 171.725224 73.545288 
L 171.725224 74.479947 
L 171.725224 75.414605 
L 171.725224 76.349264 
L 171.725224 77.283923 
L 171.725224 78.218582 
L 171.725224 79.15324 
L 171.725224 80.087899 
L 171.725224 81.022558 
L 171.725224 81.957217 
L 171.725224 82.891876 
L 171.725224 83.826534 
L 171.725224 84.761193 
L 171.725224 85.695852 
L 171.725224 86.630511 
L 171.725224 87.56517 
L 171.725224 88.499828 
L 171.725224 89.434487 
L 171.725224 90.369146 
L 171.725224 91.303805 
L 171.725224 92.238464 
L 171.725224 93.173122 
L 171.725224 94.107781 
L 171.725224 95.04244 
L 171.725224 95.977099 
L 171.725224 96.911758 
L 171.725224 97.846416 
L 171.725224 98.781075 
L 171.725224 99.715734 
L 171.725224 100.650393 
L 171.725224 101.585052 
L 171.725224 102.51971 
L 171.725224 103.454369 
L 171.725224 104.389028 
L 171.725224 105.323687 
L 171.725224 106.258346 
L 171.725224 107.193004 
L 171.725224 108.127663 
L 171.725224 109.062322 
L 171.725224 109.996981 
L 171.725224 110.93164 
L 171.725224 111.866298 
L 171.725224 112.800957 
L 171.725224 113.735616 
L 171.725224 114.670275 
L 171.725224 115.604934 
L 171.725224 116.539592 
L 171.725224 117.474251 
L 171.725224 118.40891 
L 171.725224 119.343569 
L 171.725224 120.278228 
L 171.725224 121.212886 
L 171.725224 122.147545 
L 171.725224 123.082204 
L 171.725224 124.016863 
L 171.725224 124.951522 
L 171.725224 125.88618 
L 171.725224 126.820839 
L 171.725224 127.755498 
L 171.725224 128.690157 
L 171.725224 129.624815 
L 171.725224 130.559474 
L 171.725224 131.494133 
L 171.725224 132.428792 
L 171.725224 133.363451 
L 171.725224 134.298109 
L 171.725224 135.232768 
L 171.725224 136.167427 
L 171.725224 137.102086 
L 171.725224 138.036745 
L 171.725224 138.971403 
z
M 196.310363 102.51971 
L 195.645133 102.150375 
L 194.888777 101.585052 
L 194.873523 101.573091 
L 194.101913 100.831696 
L 193.94613 100.650393 
L 193.330303 99.846539 
L 193.243914 99.715734 
L 192.712321 98.781075 
L 192.558693 98.440914 
L 192.313312 97.846416 
L 192.029425 96.911758 
L 191.849148 95.977099 
L 191.787083 95.327055 
L 191.760186 95.04244 
L 191.753189 94.107781 
L 191.787083 93.644027 
L 191.818732 93.173122 
L 191.941376 92.238464 
L 192.111239 91.303805 
L 192.3167 90.369146 
L 192.546682 89.434487 
L 192.558693 89.38845 
L 192.767908 88.499828 
L 192.990714 87.56517 
L 193.213099 86.630511 
L 193.330303 86.136084 
L 193.422878 85.695852 
L 193.620332 84.761193 
L 193.825426 83.826534 
L 194.046732 82.891876 
L 194.101913 82.678282 
L 194.26881 81.957217 
L 194.5149 81.022558 
L 194.80271 80.087899 
L 194.873523 79.884619 
L 195.106856 79.15324 
L 195.456031 78.218582 
L 195.645133 77.775099 
L 195.840139 77.283923 
L 196.264266 76.349264 
L 196.416743 76.046989 
L 196.719096 75.414605 
L 197.188353 74.552445 
L 197.226265 74.479947 
L 197.755091 73.545288 
L 197.959963 73.216649 
L 198.332563 72.610629 
L 198.731573 72.020295 
L 198.965763 71.67597 
L 199.503183 70.949265 
L 199.66134 70.741311 
L 200.274793 69.989726 
L 200.431935 69.806653 
L 201.046403 69.129086 
L 201.296932 68.871994 
L 201.818013 68.356665 
L 202.282481 67.937335 
L 202.589623 67.66481 
L 203.361233 67.043624 
L 203.414909 67.002676 
L 204.132843 66.4498 
L 204.687628 66.068017 
L 204.904452 65.914474 
L 205.676062 65.395708 
L 206.096473 65.133359 
L 206.447672 64.903003 
L 207.219282 64.421797 
L 207.594962 64.1987 
L 207.990892 63.947956 
L 208.762502 63.48115 
L 209.137385 63.264041 
L 209.534112 63.017006 
L 210.305722 62.559851 
L 210.717599 62.329382 
L 211.077332 62.111867 
L 211.848942 61.672813 
L 212.382987 61.394723 
L 212.620552 61.260186 
L 213.392162 60.852284 
L 214.163772 60.495163 
L 214.245853 60.460065 
L 214.935382 60.135414 
L 215.706992 59.821927 
L 216.478602 59.55503 
L 216.576373 59.525406 
L 217.250212 59.295624 
L 218.021822 59.078142 
L 218.793432 58.903341 
L 219.565042 58.767749 
L 220.336652 58.668988 
L 221.108262 58.605706 
L 221.520276 58.590747 
L 221.879872 58.575459 
L 222.651482 58.584273 
L 222.750665 58.590747 
L 223.423092 58.630108 
L 224.194702 58.715294 
L 224.966312 58.844734 
L 225.737922 59.023979 
L 226.509532 59.260376 
L 227.190506 59.525406 
L 227.281142 59.560977 
L 228.052752 59.920871 
L 228.824362 60.376399 
L 228.948177 60.460065 
L 229.595972 60.946056 
L 230.096488 61.394723 
L 230.367582 61.684688 
L 230.898746 62.329382 
L 231.139192 62.709491 
L 231.463898 63.264041 
L 231.844579 64.1987 
L 231.910802 64.448585 
L 232.091635 65.133359 
L 232.223683 66.068017 
L 232.26047 67.002676 
L 232.220153 67.937335 
L 232.115933 68.871994 
L 231.957334 69.806653 
L 231.910802 70.019121 
L 231.771306 70.741311 
L 231.557031 71.67597 
L 231.312907 72.610629 
L 231.139192 73.215529 
L 231.055529 73.545288 
L 230.80453 74.479947 
L 230.538701 75.414605 
L 230.367582 75.994552 
L 230.275773 76.349264 
L 230.030485 77.283923 
L 229.776639 78.218582 
L 229.595972 78.864766 
L 229.525347 79.15324 
L 229.292302 80.087899 
L 229.04384 81.022558 
L 228.824362 81.788037 
L 228.781187 81.957217 
L 228.52843 82.891876 
L 228.241509 83.826534 
L 228.052752 84.376937 
L 227.931349 84.761193 
L 227.601391 85.695852 
L 227.281142 86.475353 
L 227.22046 86.630511 
L 226.82054 87.56517 
L 226.509532 88.199944 
L 226.365243 88.499828 
L 225.872045 89.434487 
L 225.737922 89.672623 
L 225.343055 90.369146 
L 224.966312 90.9868 
L 224.768743 91.303805 
L 224.194702 92.186331 
L 224.159633 92.238464 
L 223.535059 93.173122 
L 223.423092 93.341932 
L 222.892969 94.107781 
L 222.651482 94.462967 
L 222.235819 95.04244 
L 221.879872 95.552936 
L 221.563418 95.977099 
L 221.108262 96.605472 
L 220.866309 96.911758 
L 220.336652 97.597283 
L 220.12136 97.846416 
L 219.565042 98.496268 
L 219.283462 98.781075 
L 218.793432 99.274952 
L 218.268223 99.715734 
L 218.021822 99.920163 
L 217.250212 100.453807 
L 216.898314 100.650393 
L 216.478602 100.886076 
L 215.706992 101.237807 
L 214.935382 101.509997 
L 214.674855 101.585052 
L 214.163772 101.739991 
L 213.392162 101.9301 
L 212.620552 102.081892 
L 211.848942 102.204405 
L 211.077332 102.304939 
L 210.305722 102.389453 
L 209.534112 102.462882 
L 208.876136 102.51971 
L 208.762502 102.531117 
L 207.990892 102.605623 
L 207.219282 102.67948 
L 206.447672 102.755168 
L 205.676062 102.834323 
L 204.904452 102.917503 
L 204.132843 103.003926 
L 203.361233 103.091189 
L 202.589623 103.175039 
L 201.818013 103.249235 
L 201.046403 103.305519 
L 200.274793 103.333716 
L 199.503183 103.321892 
L 198.731573 103.25651 
L 197.959963 103.122446 
L 197.188353 102.902743 
L 196.416743 102.577974 
z
" style="fill:none;"/>
   </g>
   <g id="PathCollection_2">
    <path clip-path="url(#pf392fb79c2)" d="M 196.416743 102.577974 
L 197.188353 102.902743 
L 197.959963 103.122446 
L 198.731573 103.25651 
L 199.503183 103.321892 
L 200.274793 103.333716 
L 201.046403 103.305519 
L 201.818013 103.249235 
L 202.589623 103.175039 
L 203.361233 103.091189 
L 204.132843 103.003926 
L 204.904452 102.917503 
L 205.676062 102.834323 
L 206.447672 102.755168 
L 207.219282 102.67948 
L 207.990892 102.605623 
L 208.762502 102.531117 
L 208.876136 102.51971 
L 209.534112 102.462882 
L 210.305722 102.389453 
L 211.077332 102.304939 
L 211.848942 102.204405 
L 212.620552 102.081892 
L 213.392162 101.9301 
L 214.163772 101.739991 
L 214.674855 101.585052 
L 214.935382 101.509997 
L 215.706992 101.237807 
L 216.478602 100.886076 
L 216.898314 100.650393 
L 217.250212 100.453807 
L 218.021822 99.920163 
L 218.268223 99.715734 
L 218.793432 99.274952 
L 219.283462 98.781075 
L 219.565042 98.496268 
L 220.12136 97.846416 
L 220.336652 97.597283 
L 220.866309 96.911758 
L 221.108262 96.605472 
L 221.563418 95.977099 
L 221.879872 95.552936 
L 222.235819 95.04244 
L 222.651482 94.462967 
L 222.892969 94.107781 
L 223.423092 93.341932 
L 223.535059 93.173122 
L 224.159633 92.238464 
L 224.194702 92.186331 
L 224.768743 91.303805 
L 224.966312 90.9868 
L 225.343055 90.369146 
L 225.737922 89.672623 
L 225.872045 89.434487 
L 226.365243 88.499828 
L 226.509532 88.199944 
L 226.82054 87.56517 
L 227.22046 86.630511 
L 227.281142 86.475353 
L 227.601391 85.695852 
L 227.931349 84.761193 
L 228.052752 84.376937 
L 228.241509 83.826534 
L 228.52843 82.891876 
L 228.781187 81.957217 
L 228.824362 81.788037 
L 229.04384 81.022558 
L 229.292302 80.087899 
L 229.525347 79.15324 
L 229.595972 78.864766 
L 229.776639 78.218582 
L 230.030485 77.283923 
L 230.275773 76.349264 
L 230.367582 75.994552 
L 230.538701 75.414605 
L 230.80453 74.479947 
L 231.055529 73.545288 
L 231.139192 73.215529 
L 231.312907 72.610629 
L 231.557031 71.67597 
L 231.771306 70.741311 
L 231.910802 70.019121 
L 231.957334 69.806653 
L 232.115933 68.871994 
L 232.220153 67.937335 
L 232.26047 67.002676 
L 232.223683 66.068017 
L 232.091635 65.133359 
L 231.910802 64.448585 
L 231.844579 64.1987 
L 231.463898 63.264041 
L 231.139192 62.709491 
L 230.898746 62.329382 
L 230.367582 61.684688 
L 230.096488 61.394723 
L 229.595972 60.946056 
L 228.948177 60.460065 
L 228.824362 60.376399 
L 228.052752 59.920871 
L 227.281142 59.560977 
L 227.190506 59.525406 
L 226.509532 59.260376 
L 225.737922 59.023979 
L 224.966312 58.844734 
L 224.194702 58.715294 
L 223.423092 58.630108 
L 222.750665 58.590747 
L 222.651482 58.584273 
L 221.879872 58.575459 
L 221.520276 58.590747 
L 221.108262 58.605706 
L 220.336652 58.668988 
L 219.565042 58.767749 
L 218.793432 58.903341 
L 218.021822 59.078142 
L 217.250212 59.295624 
L 216.576373 59.525406 
L 216.478602 59.55503 
L 215.706992 59.821927 
L 214.935382 60.135414 
L 214.245853 60.460065 
L 214.163772 60.495163 
L 213.392162 60.852284 
L 212.620552 61.260186 
L 212.382987 61.394723 
L 211.848942 61.672813 
L 211.077332 62.111867 
L 210.717599 62.329382 
L 210.305722 62.559851 
L 209.534112 63.017006 
L 209.137385 63.264041 
L 208.762502 63.48115 
L 207.990892 63.947956 
L 207.594962 64.1987 
L 207.219282 64.421797 
L 206.447672 64.903003 
L 206.096473 65.133359 
L 205.676062 65.395708 
L 204.904452 65.914474 
L 204.687628 66.068017 
L 204.132843 66.4498 
L 203.414909 67.002676 
L 203.361233 67.043624 
L 202.589623 67.66481 
L 202.282481 67.937335 
L 201.818013 68.356665 
L 201.296932 68.871994 
L 201.046403 69.129086 
L 200.431935 69.806653 
L 200.274793 69.989726 
L 199.66134 70.741311 
L 199.503183 70.949265 
L 198.965763 71.67597 
L 198.731573 72.020295 
L 198.332563 72.610629 
L 197.959963 73.216649 
L 197.755091 73.545288 
L 197.226265 74.479947 
L 197.188353 74.552445 
L 196.719096 75.414605 
L 196.416743 76.046989 
L 196.264266 76.349264 
L 195.840139 77.283923 
L 195.645133 77.775099 
L 195.456031 78.218582 
L 195.106856 79.15324 
L 194.873523 79.884619 
L 194.80271 80.087899 
L 194.5149 81.022558 
L 194.26881 81.957217 
L 194.101913 82.678282 
L 194.046732 82.891876 
L 193.825426 83.826534 
L 193.620332 84.761193 
L 193.422878 85.695852 
L 193.330303 86.136084 
L 193.213099 86.630511 
L 192.990714 87.56517 
L 192.767908 88.499828 
L 192.558693 89.38845 
L 192.546682 89.434487 
L 192.3167 90.369146 
L 192.111239 91.303805 
L 191.941376 92.238464 
L 191.818732 93.173122 
L 191.787083 93.644027 
L 191.753189 94.107781 
L 191.760186 95.04244 
L 191.787083 95.327055 
L 191.849148 95.977099 
L 192.029425 96.911758 
L 192.313312 97.846416 
L 192.558693 98.440914 
L 192.712321 98.781075 
L 193.243914 99.715734 
L 193.330303 99.846539 
L 193.94613 100.650393 
L 194.101913 100.831696 
L 194.873523 101.573091 
L 194.888777 101.585052 
L 195.645133 102.150375 
L 196.310363 102.51971 
z
M 201.269033 97.846416 
L 201.046403 97.767408 
L 200.274793 97.431745 
L 199.503183 96.990131 
L 199.387419 96.911758 
L 198.731573 96.390007 
L 198.314634 95.977099 
L 197.959963 95.526037 
L 197.635919 95.04244 
L 197.203073 94.107781 
L 197.188353 94.060934 
L 196.93089 93.173122 
L 196.776186 92.238464 
L 196.703446 91.303805 
L 196.686072 90.369146 
L 196.705266 89.434487 
L 196.748795 88.499828 
L 196.809909 87.56517 
L 196.886316 86.630511 
L 196.979209 85.695852 
L 197.092368 84.761193 
L 197.188353 84.116057 
L 197.226823 83.826534 
L 197.37976 82.891876 
L 197.567818 81.957217 
L 197.798231 81.022558 
L 197.959963 80.475229 
L 198.065794 80.087899 
L 198.366865 79.15324 
L 198.726989 78.218582 
L 198.731573 78.207944 
L 199.110048 77.283923 
L 199.503183 76.465836 
L 199.557221 76.349264 
L 200.03959 75.414605 
L 200.274793 75.010802 
L 200.580899 74.479947 
L 201.046403 73.761985 
L 201.188123 73.545288 
L 201.818013 72.676673 
L 201.867267 72.610629 
L 202.589623 71.723071 
L 202.6298 71.67597 
L 203.361233 70.875731 
L 203.492225 70.741311 
L 204.132843 70.11525 
L 204.474217 69.806653 
L 204.904452 69.428254 
L 205.594691 68.871994 
L 205.676062 68.806821 
L 206.447672 68.215066 
L 206.839732 67.937335 
L 207.219282 67.663263 
L 207.990892 67.141139 
L 208.204781 67.002676 
L 208.762502 66.627256 
L 209.534112 66.1436 
L 209.65846 66.068017 
L 210.305722 65.653753 
L 211.077332 65.196299 
L 211.187499 65.133359 
L 211.848942 64.733081 
L 212.620552 64.305031 
L 212.824533 64.1987 
L 213.392162 63.884416 
L 214.163772 63.498131 
L 214.684381 63.264041 
L 214.935382 63.143649 
L 215.706992 62.813238 
L 216.478602 62.530504 
L 217.12915 62.329382 
L 217.250212 62.289046 
L 218.021822 62.077478 
L 218.793432 61.914938 
L 219.565042 61.800371 
L 220.336652 61.733989 
L 221.108262 61.717371 
L 221.879872 61.753607 
L 222.651482 61.847516 
L 223.423092 62.005954 
L 224.194702 62.238239 
L 224.427397 62.329382 
L 224.966312 62.557213 
L 225.737922 62.986274 
L 226.137016 63.264041 
L 226.509532 63.570524 
L 227.131379 64.1987 
L 227.281142 64.393446 
L 227.774029 65.133359 
L 228.052752 65.738064 
L 228.191844 66.068017 
L 228.451172 67.002676 
L 228.588945 67.937335 
L 228.635177 68.871994 
L 228.612075 69.806653 
L 228.536266 70.741311 
L 228.420313 71.67597 
L 228.273705 72.610629 
L 228.103469 73.545288 
L 228.052752 73.7955 
L 227.928911 74.479947 
L 227.748195 75.414605 
L 227.557406 76.349264 
L 227.355669 77.283923 
L 227.281142 77.610984 
L 227.157127 78.218582 
L 226.953501 79.15324 
L 226.730697 80.087899 
L 226.509532 80.920929 
L 226.484795 81.022558 
L 226.234688 81.957217 
L 225.945304 82.891876 
L 225.737922 83.476851 
L 225.619862 83.826534 
L 225.261078 84.761193 
L 224.966312 85.421597 
L 224.845837 85.695852 
L 224.383915 86.630511 
L 224.194702 86.973358 
L 223.863491 87.56517 
L 223.423092 88.27173 
L 223.276302 88.499828 
L 222.651482 89.398913 
L 222.625581 89.434487 
L 221.916314 90.369146 
L 221.879872 90.41599 
L 221.146471 91.303805 
L 221.108262 91.349799 
L 220.336652 92.219185 
L 220.318303 92.238464 
L 219.565042 93.044247 
L 219.433743 93.173122 
L 218.793432 93.820174 
L 218.478914 94.107781 
L 218.021822 94.540613 
L 217.424811 95.04244 
L 217.250212 95.194704 
L 216.478602 95.796165 
L 216.212959 95.977099 
L 215.706992 96.335393 
L 214.935382 96.796198 
L 214.711073 96.911758 
L 214.163772 97.20721 
L 213.392162 97.552122 
L 212.620552 97.829882 
L 212.566003 97.846416 
L 211.848942 98.079788 
L 211.077332 98.278249 
L 210.305722 98.431438 
L 209.534112 98.545811 
L 208.762502 98.626243 
L 207.990892 98.676306 
L 207.219282 98.698441 
L 206.447672 98.694037 
L 205.676062 98.663419 
L 204.904452 98.605737 
L 204.132843 98.51876 
L 203.361233 98.398563 
L 202.589623 98.239103 
L 201.818013 98.031675 
z
" style="fill:#fed9c9;"/>
   </g>
   <g id="PathCollection_3">
    <path clip-path="url(#pf392fb79c2)" d="M 201.818013 98.031675 
L 202.589623 98.239103 
L 203.361233 98.398563 
L 204.132843 98.51876 
L 204.904452 98.605737 
L 205.676062 98.663419 
L 206.447672 98.694037 
L 207.219282 98.698441 
L 207.990892 98.676306 
L 208.762502 98.626243 
L 209.534112 98.545811 
L 210.305722 98.431438 
L 211.077332 98.278249 
L 211.848942 98.079788 
L 212.566003 97.846416 
L 212.620552 97.829882 
L 213.392162 97.552122 
L 214.163772 97.20721 
L 214.711073 96.911758 
L 214.935382 96.796198 
L 215.706992 96.335393 
L 216.212959 95.977099 
L 216.478602 95.796165 
L 217.250212 95.194704 
L 217.424811 95.04244 
L 218.021822 94.540613 
L 218.478914 94.107781 
L 218.793432 93.820174 
L 219.433743 93.173122 
L 219.565042 93.044247 
L 220.318303 92.238464 
L 220.336652 92.219185 
L 221.108262 91.349799 
L 221.146471 91.303805 
L 221.879872 90.41599 
L 221.916314 90.369146 
L 222.625581 89.434487 
L 222.651482 89.398913 
L 223.276302 88.499828 
L 223.423092 88.27173 
L 223.863491 87.56517 
L 224.194702 86.973358 
L 224.383915 86.630511 
L 224.845837 85.695852 
L 224.966312 85.421597 
L 225.261078 84.761193 
L 225.619862 83.826534 
L 225.737922 83.476851 
L 225.945304 82.891876 
L 226.234688 81.957217 
L 226.484795 81.022558 
L 226.509532 80.920929 
L 226.730697 80.087899 
L 226.953501 79.15324 
L 227.157127 78.218582 
L 227.281142 77.610984 
L 227.355669 77.283923 
L 227.557406 76.349264 
L 227.748195 75.414605 
L 227.928911 74.479947 
L 228.052752 73.7955 
L 228.103469 73.545288 
L 228.273705 72.610629 
L 228.420313 71.67597 
L 228.536266 70.741311 
L 228.612075 69.806653 
L 228.635177 68.871994 
L 228.588945 67.937335 
L 228.451172 67.002676 
L 228.191844 66.068017 
L 228.052752 65.738064 
L 227.774029 65.133359 
L 227.281142 64.393446 
L 227.131379 64.1987 
L 226.509532 63.570524 
L 226.137016 63.264041 
L 225.737922 62.986274 
L 224.966312 62.557213 
L 224.427397 62.329382 
L 224.194702 62.238239 
L 223.423092 62.005954 
L 222.651482 61.847516 
L 221.879872 61.753607 
L 221.108262 61.717371 
L 220.336652 61.733989 
L 219.565042 61.800371 
L 218.793432 61.914938 
L 218.021822 62.077478 
L 217.250212 62.289046 
L 217.12915 62.329382 
L 216.478602 62.530504 
L 215.706992 62.813238 
L 214.935382 63.143649 
L 214.684381 63.264041 
L 214.163772 63.498131 
L 213.392162 63.884416 
L 212.824533 64.1987 
L 212.620552 64.305031 
L 211.848942 64.733081 
L 211.187499 65.133359 
L 211.077332 65.196299 
L 210.305722 65.653753 
L 209.65846 66.068017 
L 209.534112 66.1436 
L 208.762502 66.627256 
L 208.204781 67.002676 
L 207.990892 67.141139 
L 207.219282 67.663263 
L 206.839732 67.937335 
L 206.447672 68.215066 
L 205.676062 68.806821 
L 205.594691 68.871994 
L 204.904452 69.428254 
L 204.474217 69.806653 
L 204.132843 70.11525 
L 203.492225 70.741311 
L 203.361233 70.875731 
L 202.6298 71.67597 
L 202.589623 71.723071 
L 201.867267 72.610629 
L 201.818013 72.676673 
L 201.188123 73.545288 
L 201.046403 73.761985 
L 200.580899 74.479947 
L 200.274793 75.010802 
L 200.03959 75.414605 
L 199.557221 76.349264 
L 199.503183 76.465836 
L 199.110048 77.283923 
L 198.731573 78.207944 
L 198.726989 78.218582 
L 198.366865 79.15324 
L 198.065794 80.087899 
L 197.959963 80.475229 
L 197.798231 81.022558 
L 197.567818 81.957217 
L 197.37976 82.891876 
L 197.226823 83.826534 
L 197.188353 84.116057 
L 197.092368 84.761193 
L 196.979209 85.695852 
L 196.886316 86.630511 
L 196.809909 87.56517 
L 196.748795 88.499828 
L 196.705266 89.434487 
L 196.686072 90.369146 
L 196.703446 91.303805 
L 196.776186 92.238464 
L 196.93089 93.173122 
L 197.188353 94.060934 
L 197.203073 94.107781 
L 197.635919 95.04244 
L 197.959963 95.526037 
L 198.314634 95.977099 
L 198.731573 96.390007 
L 199.387419 96.911758 
L 199.503183 96.990131 
L 200.274793 97.431745 
L 201.046403 97.767408 
L 201.269033 97.846416 
z
M 206.107709 95.977099 
L 205.676062 95.908779 
L 204.904452 95.729958 
L 204.132843 95.481902 
L 203.361233 95.15047 
L 203.154336 95.04244 
L 202.589623 94.712698 
L 201.818013 94.129162 
L 201.793699 94.107781 
L 201.046403 93.300805 
L 200.946738 93.173122 
L 200.381855 92.238464 
L 200.274793 91.997401 
L 199.993893 91.303805 
L 199.729134 90.369146 
L 199.552333 89.434487 
L 199.503183 89.047405 
L 199.434252 88.499828 
L 199.363323 87.56517 
L 199.334291 86.630511 
L 199.3436 85.695852 
L 199.391057 84.761193 
L 199.47877 83.826534 
L 199.503183 83.653087 
L 199.601314 82.891876 
L 199.765546 81.957217 
L 199.978267 81.022558 
L 200.245152 80.087899 
L 200.274793 80.000365 
L 200.547203 79.15324 
L 200.908451 78.218582 
L 201.046403 77.909042 
L 201.316989 77.283923 
L 201.790167 76.349264 
L 201.818013 76.299736 
L 202.313821 75.414605 
L 202.589623 74.981645 
L 202.913843 74.479947 
L 203.361233 73.861269 
L 203.59731 73.545288 
L 204.132843 72.893127 
L 204.376703 72.610629 
L 204.904452 72.043137 
L 205.268858 71.67597 
L 205.676062 71.286757 
L 206.29217 70.741311 
L 206.447672 70.607746 
L 207.219282 69.983354 
L 207.453189 69.806653 
L 207.990892 69.401225 
L 208.755945 68.871994 
L 208.762502 68.867378 
L 209.534112 68.343368 
L 210.184515 67.937335 
L 210.305722 67.858805 
L 211.077332 67.381233 
L 211.739563 67.002676 
L 211.848942 66.937012 
L 212.620552 66.499155 
L 213.392162 66.09991 
L 213.458817 66.068017 
L 214.163772 65.712189 
L 214.935382 65.365259 
L 215.520961 65.133359 
L 215.706992 65.055602 
L 216.478602 64.779402 
L 217.250212 64.553278 
L 218.021822 64.378089 
L 218.793432 64.256152 
L 219.481502 64.1987 
L 219.565042 64.191326 
L 220.336652 64.190071 
L 220.434523 64.1987 
L 221.108262 64.260815 
L 221.879872 64.415345 
L 222.651482 64.669913 
L 223.423092 65.046339 
L 223.561366 65.133359 
L 224.194702 65.612991 
L 224.654831 66.068017 
L 224.966312 66.472632 
L 225.304852 67.002676 
L 225.709977 67.937335 
L 225.737922 68.035353 
L 225.954356 68.871994 
L 226.087536 69.806653 
L 226.140205 70.741311 
L 226.134599 71.67597 
L 226.086778 72.610629 
L 226.007982 73.545288 
L 225.905543 74.479947 
L 225.78354 75.414605 
L 225.737922 75.715734 
L 225.650883 76.349264 
L 225.505768 77.283923 
L 225.342031 78.218582 
L 225.155098 79.15324 
L 224.966312 79.970774 
L 224.941096 80.087899 
L 224.710088 81.022558 
L 224.437653 81.957217 
L 224.194702 82.665742 
L 224.119541 82.891876 
L 223.762114 83.826534 
L 223.423092 84.576112 
L 223.339284 84.761193 
L 222.860395 85.695852 
L 222.651482 86.056633 
L 222.309096 86.630511 
L 221.879872 87.276858 
L 221.679295 87.56517 
L 221.108262 88.325748 
L 220.969528 88.499828 
L 220.336652 89.25749 
L 220.178132 89.434487 
L 219.565042 90.104721 
L 219.303583 90.369146 
L 218.793432 90.885179 
L 218.342434 91.303805 
L 218.021822 91.606287 
L 217.284059 92.238464 
L 217.250212 92.268264 
L 216.478602 92.898472 
L 216.100335 93.173122 
L 215.706992 93.468707 
L 214.935382 93.979574 
L 214.716401 94.107781 
L 214.163772 94.44421 
L 213.392162 94.842873 
L 212.933693 95.04244 
L 212.620552 95.185278 
L 211.848942 95.47788 
L 211.077332 95.708361 
L 210.305722 95.883247 
L 209.722592 95.977099 
L 209.534112 96.009713 
L 208.762502 96.091369 
L 207.990892 96.122036 
L 207.219282 96.102351 
L 206.447672 96.031151 
z
" style="fill:#fcbba1;"/>
   </g>
   <g id="PathCollection_4">
    <path clip-path="url(#pf392fb79c2)" d="M 206.447672 96.031151 
L 207.219282 96.102351 
L 207.990892 96.122036 
L 208.762502 96.091369 
L 209.534112 96.009713 
L 209.722592 95.977099 
L 210.305722 95.883247 
L 211.077332 95.708361 
L 211.848942 95.47788 
L 212.620552 95.185278 
L 212.933693 95.04244 
L 213.392162 94.842873 
L 214.163772 94.44421 
L 214.716401 94.107781 
L 214.935382 93.979574 
L 215.706992 93.468707 
L 216.100335 93.173122 
L 216.478602 92.898472 
L 217.250212 92.268264 
L 217.284059 92.238464 
L 218.021822 91.606287 
L 218.342434 91.303805 
L 218.793432 90.885179 
L 219.303583 90.369146 
L 219.565042 90.104721 
L 220.178132 89.434487 
L 220.336652 89.25749 
L 220.969528 88.499828 
L 221.108262 88.325748 
L 221.679295 87.56517 
L 221.879872 87.276858 
L 222.309096 86.630511 
L 222.651482 86.056633 
L 222.860395 85.695852 
L 223.339284 84.761193 
L 223.423092 84.576112 
L 223.762114 83.826534 
L 224.119541 82.891876 
L 224.194702 82.665742 
L 224.437653 81.957217 
L 224.710088 81.022558 
L 224.941096 80.087899 
L 224.966312 79.970774 
L 225.155098 79.15324 
L 225.342031 78.218582 
L 225.505768 77.283923 
L 225.650883 76.349264 
L 225.737922 75.715734 
L 225.78354 75.414605 
L 225.905543 74.479947 
L 226.007982 73.545288 
L 226.086778 72.610629 
L 226.134599 71.67597 
L 226.140205 70.741311 
L 226.087536 69.806653 
L 225.954356 68.871994 
L 225.737922 68.035353 
L 225.709977 67.937335 
L 225.304852 67.002676 
L 224.966312 66.472632 
L 224.654831 66.068017 
L 224.194702 65.612991 
L 223.561366 65.133359 
L 223.423092 65.046339 
L 222.651482 64.669913 
L 221.879872 64.415345 
L 221.108262 64.260815 
L 220.434523 64.1987 
L 220.336652 64.190071 
L 219.565042 64.191326 
L 219.481502 64.1987 
L 218.793432 64.256152 
L 218.021822 64.378089 
L 217.250212 64.553278 
L 216.478602 64.779402 
L 215.706992 65.055602 
L 215.520961 65.133359 
L 214.935382 65.365259 
L 214.163772 65.712189 
L 213.458817 66.068017 
L 213.392162 66.09991 
L 212.620552 66.499155 
L 211.848942 66.937012 
L 211.739563 67.002676 
L 211.077332 67.381233 
L 210.305722 67.858805 
L 210.184515 67.937335 
L 209.534112 68.343368 
L 208.762502 68.867378 
L 208.755945 68.871994 
L 207.990892 69.401225 
L 207.453189 69.806653 
L 207.219282 69.983354 
L 206.447672 70.607746 
L 206.29217 70.741311 
L 205.676062 71.286757 
L 205.268858 71.67597 
L 204.904452 72.043137 
L 204.376703 72.610629 
L 204.132843 72.893127 
L 203.59731 73.545288 
L 203.361233 73.861269 
L 202.913843 74.479947 
L 202.589623 74.981645 
L 202.313821 75.414605 
L 201.818013 76.299736 
L 201.790167 76.349264 
L 201.316989 77.283923 
L 201.046403 77.909042 
L 200.908451 78.218582 
L 200.547203 79.15324 
L 200.274793 80.000365 
L 200.245152 80.087899 
L 199.978267 81.022558 
L 199.765546 81.957217 
L 199.601314 82.891876 
L 199.503183 83.653087 
L 199.47877 83.826534 
L 199.391057 84.761193 
L 199.3436 85.695852 
L 199.334291 86.630511 
L 199.363323 87.56517 
L 199.434252 88.499828 
L 199.503183 89.047405 
L 199.552333 89.434487 
L 199.729134 90.369146 
L 199.993893 91.303805 
L 200.274793 91.997401 
L 200.381855 92.238464 
L 200.946738 93.173122 
L 201.046403 93.300805 
L 201.793699 94.107781 
L 201.818013 94.129162 
L 202.589623 94.712698 
L 203.154336 95.04244 
L 203.361233 95.15047 
L 204.132843 95.481902 
L 204.904452 95.729958 
L 205.676062 95.908779 
L 206.107709 95.977099 
z
M 204.928463 93.173122 
L 204.904452 93.161055 
L 204.132843 92.665745 
L 203.624311 92.238464 
L 203.361233 91.974236 
L 202.81383 91.303805 
L 202.589623 90.954142 
L 202.263146 90.369146 
L 201.877277 89.434487 
L 201.818013 89.24333 
L 201.602478 88.499828 
L 201.413197 87.56517 
L 201.293203 86.630511 
L 201.23232 85.695852 
L 201.225216 84.761193 
L 201.269814 83.826534 
L 201.366238 82.891876 
L 201.516195 81.957217 
L 201.722721 81.022558 
L 201.818013 80.68491 
L 201.979469 80.087899 
L 202.291458 79.15324 
L 202.589623 78.414456 
L 202.667082 78.218582 
L 203.098013 77.283923 
L 203.361233 76.79335 
L 203.600537 76.349264 
L 204.132843 75.492015 
L 204.181979 75.414605 
L 204.848722 74.479947 
L 204.904452 74.409289 
L 205.619644 73.545288 
L 205.676062 73.482729 
L 206.447672 72.674518 
L 206.512739 72.610629 
L 207.219282 71.955433 
L 207.546142 71.67597 
L 207.990892 71.308163 
L 208.738952 70.741311 
L 208.762502 70.723647 
L 209.534112 70.175313 
L 210.10224 69.806653 
L 210.305722 69.672403 
L 211.077332 69.196397 
L 211.650242 68.871994 
L 211.848942 68.75524 
L 212.620552 68.335337 
L 213.392162 67.954162 
L 213.429864 67.937335 
L 214.163772 67.592733 
L 214.935382 67.273357 
L 215.691976 67.002676 
L 215.706992 66.997015 
L 216.478602 66.760322 
L 217.250212 66.579634 
L 218.021822 66.460244 
L 218.793432 66.410144 
L 219.565042 66.440741 
L 220.336652 66.567915 
L 221.108262 66.813577 
L 221.496801 67.002676 
L 221.879872 67.2252 
L 222.651482 67.877782 
L 222.705974 67.937335 
L 223.34958 68.871994 
L 223.423092 69.023828 
L 223.740452 69.806653 
L 223.983134 70.741311 
L 224.125314 71.67597 
L 224.194702 72.583012 
L 224.19668 72.610629 
L 224.217601 73.545288 
L 224.199319 74.479947 
L 224.194702 74.561834 
L 224.150467 75.414605 
L 224.074381 76.349264 
L 223.971309 77.283923 
L 223.839261 78.218582 
L 223.674223 79.15324 
L 223.470318 80.087899 
L 223.423092 80.267508 
L 223.231656 81.022558 
L 222.944353 81.957217 
L 222.651482 82.746272 
L 222.597665 82.891876 
L 222.195326 83.826534 
L 221.879872 84.448306 
L 221.716892 84.761193 
L 221.159119 85.695852 
L 221.108262 85.773243 
L 220.515531 86.630511 
L 220.336652 86.867475 
L 219.775037 87.56517 
L 219.565042 87.811453 
L 218.932772 88.499828 
L 218.793432 88.646983 
L 218.021822 89.399951 
L 217.983651 89.434487 
L 217.250212 90.096623 
L 216.917445 90.369146 
L 216.478602 90.73349 
L 215.712567 91.303805 
L 215.706992 91.308058 
L 214.935382 91.847452 
L 214.292222 92.238464 
L 214.163772 92.319133 
L 213.392162 92.746333 
L 212.620552 93.104092 
L 212.442122 93.173122 
L 211.848942 93.412039 
L 211.077332 93.656637 
L 210.305722 93.836788 
L 209.534112 93.954269 
L 208.762502 94.008903 
L 207.990892 93.998421 
L 207.219282 93.918139 
L 206.447672 93.760401 
L 205.676062 93.513689 
z
" style="fill:#fc9b7c;"/>
   </g>
   <g id="PathCollection_5">
    <path clip-path="url(#pf392fb79c2)" d="M 205.676062 93.513689 
L 206.447672 93.760401 
L 207.219282 93.918139 
L 207.990892 93.998421 
L 208.762502 94.008903 
L 209.534112 93.954269 
L 210.305722 93.836788 
L 211.077332 93.656637 
L 211.848942 93.412039 
L 212.442122 93.173122 
L 212.620552 93.104092 
L 213.392162 92.746333 
L 214.163772 92.319133 
L 214.292222 92.238464 
L 214.935382 91.847452 
L 215.706992 91.308058 
L 215.712567 91.303805 
L 216.478602 90.73349 
L 216.917445 90.369146 
L 217.250212 90.096623 
L 217.983651 89.434487 
L 218.021822 89.399951 
L 218.793432 88.646983 
L 218.932772 88.499828 
L 219.565042 87.811453 
L 219.775037 87.56517 
L 220.336652 86.867475 
L 220.515531 86.630511 
L 221.108262 85.773243 
L 221.159119 85.695852 
L 221.716892 84.761193 
L 221.879872 84.448306 
L 222.195326 83.826534 
L 222.597665 82.891876 
L 222.651482 82.746272 
L 222.944353 81.957217 
L 223.231656 81.022558 
L 223.423092 80.267508 
L 223.470318 80.087899 
L 223.674223 79.15324 
L 223.839261 78.218582 
L 223.971309 77.283923 
L 224.074381 76.349264 
L 224.150467 75.414605 
L 224.194702 74.561834 
L 224.199319 74.479947 
L 224.217601 73.545288 
L 224.19668 72.610629 
L 224.194702 72.583012 
L 224.125314 71.67597 
L 223.983134 70.741311 
L 223.740452 69.806653 
L 223.423092 69.023828 
L 223.34958 68.871994 
L 222.705974 67.937335 
L 222.651482 67.877782 
L 221.879872 67.2252 
L 221.496801 67.002676 
L 221.108262 66.813577 
L 220.336652 66.567915 
L 219.565042 66.440741 
L 218.793432 66.410144 
L 218.021822 66.460244 
L 217.250212 66.579634 
L 216.478602 66.760322 
L 215.706992 66.997015 
L 215.691976 67.002676 
L 214.935382 67.273357 
L 214.163772 67.592733 
L 213.429864 67.937335 
L 213.392162 67.954162 
L 212.620552 68.335337 
L 211.848942 68.75524 
L 211.650242 68.871994 
L 211.077332 69.196397 
L 210.305722 69.672403 
L 210.10224 69.806653 
L 209.534112 70.175313 
L 208.762502 70.723647 
L 208.738952 70.741311 
L 207.990892 71.308163 
L 207.546142 71.67597 
L 207.219282 71.955433 
L 206.512739 72.610629 
L 206.447672 72.674518 
L 205.676062 73.482729 
L 205.619644 73.545288 
L 204.904452 74.409289 
L 204.848722 74.479947 
L 204.181979 75.414605 
L 204.132843 75.492015 
L 203.600537 76.349264 
L 203.361233 76.79335 
L 203.098013 77.283923 
L 202.667082 78.218582 
L 202.589623 78.414456 
L 202.291458 79.15324 
L 201.979469 80.087899 
L 201.818013 80.68491 
L 201.722721 81.022558 
L 201.516195 81.957217 
L 201.366238 82.891876 
L 201.269814 83.826534 
L 201.225216 84.761193 
L 201.23232 85.695852 
L 201.293203 86.630511 
L 201.413197 87.56517 
L 201.602478 88.499828 
L 201.818013 89.24333 
L 201.877277 89.434487 
L 202.263146 90.369146 
L 202.589623 90.954142 
L 202.81383 91.303805 
L 203.361233 91.974236 
L 203.624311 92.238464 
L 204.132843 92.665745 
L 204.904452 93.161055 
L 204.928463 93.173122 
z
M 205.985646 91.303805 
L 205.676062 91.11198 
L 204.904452 90.464422 
L 204.813434 90.369146 
L 204.132843 89.487439 
L 204.098733 89.434487 
L 203.617736 88.499828 
L 203.361233 87.805087 
L 203.280999 87.56517 
L 203.054309 86.630511 
L 202.914387 85.695852 
L 202.849487 84.761193 
L 202.852685 83.826534 
L 202.920371 82.891876 
L 203.051366 81.957217 
L 203.246525 81.022558 
L 203.361233 80.61062 
L 203.503262 80.087899 
L 203.82318 79.15324 
L 204.132843 78.413941 
L 204.214511 78.218582 
L 204.675546 77.283923 
L 204.904452 76.885839 
L 205.220175 76.349264 
L 205.676062 75.67513 
L 205.859604 75.414605 
L 206.447672 74.672282 
L 206.609175 74.479947 
L 207.219282 73.818577 
L 207.490657 73.545288 
L 207.990892 73.075299 
L 208.529805 72.610629 
L 208.762502 72.418649 
L 209.534112 71.832298 
L 209.758775 71.67597 
L 210.305722 71.30006 
L 211.077332 70.820073 
L 211.216411 70.741311 
L 211.848942 70.377161 
L 212.620552 69.978511 
L 212.994346 69.806653 
L 213.392162 69.616563 
L 214.163772 69.294926 
L 214.935382 69.020471 
L 215.451723 68.871994 
L 215.706992 68.794554 
L 216.478602 68.62539 
L 217.250212 68.525371 
L 218.021822 68.507073 
L 218.793432 68.588822 
L 219.565042 68.796911 
L 219.734154 68.871994 
L 220.336652 69.190326 
L 221.069235 69.806653 
L 221.108262 69.848663 
L 221.720857 70.741311 
L 221.879872 71.068697 
L 222.120473 71.67597 
L 222.374171 72.610629 
L 222.53292 73.545288 
L 222.621253 74.479947 
L 222.651482 75.331158 
L 222.654275 75.414605 
L 222.651482 75.594535 
L 222.640453 76.349264 
L 222.583716 77.283923 
L 222.484468 78.218582 
L 222.340413 79.15324 
L 222.146922 80.087899 
L 221.897171 81.022558 
L 221.879872 81.07531 
L 221.590584 81.957217 
L 221.212814 82.891876 
L 221.108262 83.111919 
L 220.758024 83.826534 
L 220.336652 84.558337 
L 220.213826 84.761193 
L 219.571488 85.695852 
L 219.565042 85.704431 
L 218.819073 86.630511 
L 218.793432 86.660188 
L 218.021822 87.489231 
L 217.944787 87.56517 
L 217.250212 88.22679 
L 216.934598 88.499828 
L 216.478602 88.88989 
L 215.771401 89.434487 
L 215.706992 89.484411 
L 214.935382 90.02811 
L 214.385256 90.369146 
L 214.163772 90.509388 
L 213.392162 90.936784 
L 212.620552 91.297285 
L 212.603588 91.303805 
L 211.848942 91.603013 
L 211.077332 91.837972 
L 210.305722 92.001649 
L 209.534112 92.091418 
L 208.762502 92.102047 
L 207.990892 92.025229 
L 207.219282 91.848773 
L 206.447672 91.5553 
z
" style="fill:#fb7a5a;"/>
   </g>
   <g id="PathCollection_6">
    <path clip-path="url(#pf392fb79c2)" d="M 206.447672 91.5553 
L 207.219282 91.848773 
L 207.990892 92.025229 
L 208.762502 92.102047 
L 209.534112 92.091418 
L 210.305722 92.001649 
L 211.077332 91.837972 
L 211.848942 91.603013 
L 212.603588 91.303805 
L 212.620552 91.297285 
L 213.392162 90.936784 
L 214.163772 90.509388 
L 214.385256 90.369146 
L 214.935382 90.02811 
L 215.706992 89.484411 
L 215.771401 89.434487 
L 216.478602 88.88989 
L 216.934598 88.499828 
L 217.250212 88.22679 
L 217.944787 87.56517 
L 218.021822 87.489231 
L 218.793432 86.660188 
L 218.819073 86.630511 
L 219.565042 85.704431 
L 219.571488 85.695852 
L 220.213826 84.761193 
L 220.336652 84.558337 
L 220.758024 83.826534 
L 221.108262 83.111919 
L 221.212814 82.891876 
L 221.590584 81.957217 
L 221.879872 81.07531 
L 221.897171 81.022558 
L 222.146922 80.087899 
L 222.340413 79.15324 
L 222.484468 78.218582 
L 222.583716 77.283923 
L 222.640453 76.349264 
L 222.651482 75.594535 
L 222.654275 75.414605 
L 222.651482 75.331158 
L 222.621253 74.479947 
L 222.53292 73.545288 
L 222.374171 72.610629 
L 222.120473 71.67597 
L 221.879872 71.068697 
L 221.720857 70.741311 
L 221.108262 69.848663 
L 221.069235 69.806653 
L 220.336652 69.190326 
L 219.734154 68.871994 
L 219.565042 68.796911 
L 218.793432 68.588822 
L 218.021822 68.507073 
L 217.250212 68.525371 
L 216.478602 68.62539 
L 215.706992 68.794554 
L 215.451723 68.871994 
L 214.935382 69.020471 
L 214.163772 69.294926 
L 213.392162 69.616563 
L 212.994346 69.806653 
L 212.620552 69.978511 
L 211.848942 70.377161 
L 211.216411 70.741311 
L 211.077332 70.820073 
L 210.305722 71.30006 
L 209.758775 71.67597 
L 209.534112 71.832298 
L 208.762502 72.418649 
L 208.529805 72.610629 
L 207.990892 73.075299 
L 207.490657 73.545288 
L 207.219282 73.818577 
L 206.609175 74.479947 
L 206.447672 74.672282 
L 205.859604 75.414605 
L 205.676062 75.67513 
L 205.220175 76.349264 
L 204.904452 76.885839 
L 204.675546 77.283923 
L 204.214511 78.218582 
L 204.132843 78.413941 
L 203.82318 79.15324 
L 203.503262 80.087899 
L 203.361233 80.61062 
L 203.246525 81.022558 
L 203.051366 81.957217 
L 202.920371 82.891876 
L 202.852685 83.826534 
L 202.849487 84.761193 
L 202.914387 85.695852 
L 203.054309 86.630511 
L 203.280999 87.56517 
L 203.361233 87.805087 
L 203.617736 88.499828 
L 204.098733 89.434487 
L 204.132843 89.487439 
L 204.813434 90.369146 
L 204.904452 90.464422 
L 205.676062 91.11198 
L 205.985646 91.303805 
z
M 206.789566 89.434487 
L 206.447672 89.176866 
L 205.792533 88.499828 
L 205.676062 88.347148 
L 205.195563 87.56517 
L 204.904452 86.905311 
L 204.799493 86.630511 
L 204.549552 85.695852 
L 204.405948 84.761193 
L 204.353916 83.826534 
L 204.384008 82.891876 
L 204.490683 81.957217 
L 204.6716 81.022558 
L 204.904452 80.171667 
L 204.927287 80.087899 
L 205.257593 79.15324 
L 205.668908 78.218582 
L 205.676062 78.204841 
L 206.168189 77.283923 
L 206.447672 76.838658 
L 206.768828 76.349264 
L 207.219282 75.750235 
L 207.488068 75.414605 
L 207.990892 74.852564 
L 208.35209 74.479947 
L 208.762502 74.090759 
L 209.394907 73.545288 
L 209.534112 73.431875 
L 210.305722 72.859461 
L 210.681214 72.610629 
L 211.077332 72.354115 
L 211.848942 71.910549 
L 212.315693 71.67597 
L 212.620552 71.521357 
L 213.392162 71.186308 
L 214.163772 70.906978 
L 214.748506 70.741311 
L 214.935382 70.686138 
L 215.706992 70.532388 
L 216.478602 70.45792 
L 217.250212 70.479612 
L 218.021822 70.623061 
L 218.342001 70.741311 
L 218.793432 70.937024 
L 219.565042 71.500893 
L 219.731503 71.67597 
L 220.336652 72.514098 
L 220.389633 72.610629 
L 220.778689 73.545288 
L 221.030819 74.479947 
L 221.108262 74.941346 
L 221.178467 75.414605 
L 221.246708 76.349264 
L 221.248407 77.283923 
L 221.187718 78.218582 
L 221.108262 78.81941 
L 221.064643 79.15324 
L 220.876969 80.087899 
L 220.620728 81.022558 
L 220.336652 81.823887 
L 220.287989 81.957217 
L 219.868507 82.891876 
L 219.565042 83.454166 
L 219.352278 83.826534 
L 218.793432 84.668491 
L 218.727166 84.761193 
L 218.021822 85.642803 
L 217.975488 85.695852 
L 217.250212 86.463785 
L 217.076477 86.630511 
L 216.478602 87.177481 
L 216.006773 87.56517 
L 215.706992 87.806038 
L 214.935382 88.359919 
L 214.714499 88.499828 
L 214.163772 88.849016 
L 213.392162 89.270481 
L 213.034052 89.434487 
L 212.620552 89.626954 
L 211.848942 89.912555 
L 211.077332 90.122276 
L 210.305722 90.250833 
L 209.534112 90.289396 
L 208.762502 90.224998 
L 207.990892 90.039511 
L 207.219282 89.707986 
z
" style="fill:#f6583e;"/>
   </g>
   <g id="PathCollection_7">
    <path clip-path="url(#pf392fb79c2)" d="M 207.219282 89.707986 
L 207.990892 90.039511 
L 208.762502 90.224998 
L 209.534112 90.289396 
L 210.305722 90.250833 
L 211.077332 90.122276 
L 211.848942 89.912555 
L 212.620552 89.626954 
L 213.034052 89.434487 
L 213.392162 89.270481 
L 214.163772 88.849016 
L 214.714499 88.499828 
L 214.935382 88.359919 
L 215.706992 87.806038 
L 216.006773 87.56517 
L 216.478602 87.177481 
L 217.076477 86.630511 
L 217.250212 86.463785 
L 217.975488 85.695852 
L 218.021822 85.642803 
L 218.727166 84.761193 
L 218.793432 84.668491 
L 219.352278 83.826534 
L 219.565042 83.454166 
L 219.868507 82.891876 
L 220.287989 81.957217 
L 220.336652 81.823887 
L 220.620728 81.022558 
L 220.876969 80.087899 
L 221.064643 79.15324 
L 221.108262 78.81941 
L 221.187718 78.218582 
L 221.248407 77.283923 
L 221.246708 76.349264 
L 221.178467 75.414605 
L 221.108262 74.941346 
L 221.030819 74.479947 
L 220.778689 73.545288 
L 220.389633 72.610629 
L 220.336652 72.514098 
L 219.731503 71.67597 
L 219.565042 71.500893 
L 218.793432 70.937024 
L 218.342001 70.741311 
L 218.021822 70.623061 
L 217.250212 70.479612 
L 216.478602 70.45792 
L 215.706992 70.532388 
L 214.935382 70.686138 
L 214.748506 70.741311 
L 214.163772 70.906978 
L 213.392162 71.186308 
L 212.620552 71.521357 
L 212.315693 71.67597 
L 211.848942 71.910549 
L 211.077332 72.354115 
L 210.681214 72.610629 
L 210.305722 72.859461 
L 209.534112 73.431875 
L 209.394907 73.545288 
L 208.762502 74.090759 
L 208.35209 74.479947 
L 207.990892 74.852564 
L 207.488068 75.414605 
L 207.219282 75.750235 
L 206.768828 76.349264 
L 206.447672 76.838658 
L 206.168189 77.283923 
L 205.676062 78.204841 
L 205.668908 78.218582 
L 205.257593 79.15324 
L 204.927287 80.087899 
L 204.904452 80.171667 
L 204.6716 81.022558 
L 204.490683 81.957217 
L 204.384008 82.891876 
L 204.353916 83.826534 
L 204.405948 84.761193 
L 204.549552 85.695852 
L 204.799493 86.630511 
L 204.904452 86.905311 
L 205.195563 87.56517 
L 205.676062 88.347148 
L 205.792533 88.499828 
L 206.447672 89.176866 
L 206.789566 89.434487 
z
M 207.606032 87.56517 
L 207.219282 87.19822 
L 206.782406 86.630511 
L 206.447672 86.021844 
L 206.30224 85.695852 
L 206.025367 84.761193 
L 205.883076 83.826534 
L 205.854142 82.891876 
L 205.92467 81.957217 
L 206.08645 81.022558 
L 206.336134 80.087899 
L 206.447672 79.779976 
L 206.680602 79.15324 
L 207.120128 78.218582 
L 207.219282 78.04416 
L 207.674063 77.283923 
L 207.990892 76.833894 
L 208.357309 76.349264 
L 208.762502 75.880264 
L 209.203299 75.414605 
L 209.534112 75.09953 
L 210.259989 74.479947 
L 210.305722 74.443677 
L 211.077332 73.900236 
L 211.659832 73.545288 
L 211.848942 73.43423 
L 212.620552 73.051405 
L 213.392162 72.738205 
L 213.808667 72.610629 
L 214.163772 72.501121 
L 214.935382 72.347862 
L 215.706992 72.287681 
L 216.478602 72.341125 
L 217.250212 72.540379 
L 217.400769 72.610629 
L 218.021822 72.962326 
L 218.647392 73.545288 
L 218.793432 73.725588 
L 219.239588 74.479947 
L 219.565042 75.316594 
L 219.596006 75.414605 
L 219.78792 76.349264 
L 219.873295 77.283923 
L 219.866195 78.218582 
L 219.773471 79.15324 
L 219.596763 80.087899 
L 219.565042 80.200568 
L 219.324806 81.022558 
L 218.960236 81.957217 
L 218.793432 82.298602 
L 218.483641 82.891876 
L 218.021822 83.628257 
L 217.886386 83.826534 
L 217.250212 84.636798 
L 217.142157 84.761193 
L 216.478602 85.452604 
L 216.217012 85.695852 
L 215.706992 86.140133 
L 215.068989 86.630511 
L 214.935382 86.729516 
L 214.163772 87.22694 
L 213.546335 87.56517 
L 213.392162 87.648741 
L 212.620552 87.986927 
L 211.848942 88.244316 
L 211.077332 88.413587 
L 210.305722 88.482152 
L 209.534112 88.431216 
L 208.762502 88.234289 
L 207.990892 87.854846 
z
" style="fill:#e83429;"/>
   </g>
   <g id="PathCollection_8">
    <path clip-path="url(#pf392fb79c2)" d="M 207.990892 87.854846 
L 208.762502 88.234289 
L 209.534112 88.431216 
L 210.305722 88.482152 
L 211.077332 88.413587 
L 211.848942 88.244316 
L 212.620552 87.986927 
L 213.392162 87.648741 
L 213.546335 87.56517 
L 214.163772 87.22694 
L 214.935382 86.729516 
L 215.068989 86.630511 
L 215.706992 86.140133 
L 216.217012 85.695852 
L 216.478602 85.452604 
L 217.142157 84.761193 
L 217.250212 84.636798 
L 217.886386 83.826534 
L 218.021822 83.628257 
L 218.483641 82.891876 
L 218.793432 82.298602 
L 218.960236 81.957217 
L 219.324806 81.022558 
L 219.565042 80.200568 
L 219.596763 80.087899 
L 219.773471 79.15324 
L 219.866195 78.218582 
L 219.873295 77.283923 
L 219.78792 76.349264 
L 219.596006 75.414605 
L 219.565042 75.316594 
L 219.239588 74.479947 
L 218.793432 73.725588 
L 218.647392 73.545288 
L 218.021822 72.962326 
L 217.400769 72.610629 
L 217.250212 72.540379 
L 216.478602 72.341125 
L 215.706992 72.287681 
L 214.935382 72.347862 
L 214.163772 72.501121 
L 213.808667 72.610629 
L 213.392162 72.738205 
L 212.620552 73.051405 
L 211.848942 73.43423 
L 211.659832 73.545288 
L 211.077332 73.900236 
L 210.305722 74.443677 
L 210.259989 74.479947 
L 209.534112 75.09953 
L 209.203299 75.414605 
L 208.762502 75.880264 
L 208.357309 76.349264 
L 207.990892 76.833894 
L 207.674063 77.283923 
L 207.219282 78.04416 
L 207.120128 78.218582 
L 206.680602 79.15324 
L 206.447672 79.779976 
L 206.336134 80.087899 
L 206.08645 81.022558 
L 205.92467 81.957217 
L 205.854142 82.891876 
L 205.883076 83.826534 
L 206.025367 84.761193 
L 206.30224 85.695852 
L 206.447672 86.021844 
L 206.782406 86.630511 
L 207.219282 87.19822 
L 207.606032 87.56517 
z
M 208.622064 85.695852 
L 207.990892 84.853691 
L 207.94011 84.761193 
L 207.610085 83.826534 
L 207.463315 82.891876 
L 207.464469 81.957217 
L 207.591289 81.022558 
L 207.831266 80.087899 
L 207.990892 79.66352 
L 208.194154 79.15324 
L 208.680873 78.218582 
L 208.762502 78.091594 
L 209.327739 77.283923 
L 209.534112 77.034452 
L 210.166563 76.349264 
L 210.305722 76.21704 
L 211.077332 75.577079 
L 211.309199 75.414605 
L 211.848942 75.069737 
L 212.620552 74.668927 
L 213.103201 74.479947 
L 213.392162 74.372303 
L 214.163772 74.189827 
L 214.935382 74.121626 
L 215.706992 74.192837 
L 216.478602 74.443675 
L 216.541698 74.479947 
L 217.250212 75.01049 
L 217.59145 75.414605 
L 218.021822 76.17843 
L 218.093841 76.349264 
L 218.331237 77.283923 
L 218.415444 78.218582 
L 218.369783 79.15324 
L 218.206657 80.087899 
L 218.021822 80.711876 
L 217.922513 81.022558 
L 217.503118 81.957217 
L 217.250212 82.399532 
L 216.938345 82.891876 
L 216.478602 83.497802 
L 216.196823 83.826534 
L 215.706992 84.327859 
L 215.220386 84.761193 
L 214.935382 84.993252 
L 214.163772 85.527365 
L 213.865995 85.695852 
L 213.392162 85.950257 
L 212.620552 86.268162 
L 211.848942 86.484908 
L 211.077332 86.583592 
L 210.305722 86.537087 
L 209.534112 86.304883 
L 208.762502 85.828235 
z
" style="fill:#ca181d;"/>
   </g>
   <g id="PathCollection_9">
    <path clip-path="url(#pf392fb79c2)" d="M 208.762502 85.828235 
L 209.534112 86.304883 
L 210.305722 86.537087 
L 211.077332 86.583592 
L 211.848942 86.484908 
L 212.620552 86.268162 
L 213.392162 85.950257 
L 213.865995 85.695852 
L 214.163772 85.527365 
L 214.935382 84.993252 
L 215.220386 84.761193 
L 215.706992 84.327859 
L 216.196823 83.826534 
L 216.478602 83.497802 
L 216.938345 82.891876 
L 217.250212 82.399532 
L 217.503118 81.957217 
L 217.922513 81.022558 
L 218.021822 80.711876 
L 218.206657 80.087899 
L 218.369783 79.15324 
L 218.415444 78.218582 
L 218.331237 77.283923 
L 218.093841 76.349264 
L 218.021822 76.17843 
L 217.59145 75.414605 
L 217.250212 75.01049 
L 216.541698 74.479947 
L 216.478602 74.443675 
L 215.706992 74.192837 
L 214.935382 74.121626 
L 214.163772 74.189827 
L 213.392162 74.372303 
L 213.103201 74.479947 
L 212.620552 74.668927 
L 211.848942 75.069737 
L 211.309199 75.414605 
L 211.077332 75.577079 
L 210.305722 76.21704 
L 210.166563 76.349264 
L 209.534112 77.034452 
L 209.327739 77.283923 
L 208.762502 78.091594 
L 208.680873 78.218582 
L 208.194154 79.15324 
L 207.990892 79.66352 
L 207.831266 80.087899 
L 207.591289 81.022558 
L 207.464469 81.957217 
L 207.463315 82.891876 
L 207.610085 83.826534 
L 207.94011 84.761193 
L 207.990892 84.853691 
L 208.622064 85.695852 
z
M 210.195325 83.826534 
L 209.556438 82.891876 
L 209.534112 82.812103 
L 209.36651 81.957217 
L 209.397316 81.022558 
L 209.534112 80.409972 
L 209.614235 80.087899 
L 210.025632 79.15324 
L 210.305722 78.695281 
L 210.642326 78.218582 
L 211.077332 77.734266 
L 211.565438 77.283923 
L 211.848942 77.065669 
L 212.620552 76.612427 
L 213.287194 76.349264 
L 213.392162 76.312895 
L 214.163772 76.210453 
L 214.935382 76.298371 
L 215.062148 76.349264 
L 215.706992 76.725012 
L 216.195306 77.283923 
L 216.478602 77.913557 
L 216.572627 78.218582 
L 216.642567 79.15324 
L 216.52062 80.087899 
L 216.478602 80.220238 
L 216.187549 81.022558 
L 215.706992 81.914077 
L 215.679481 81.957217 
L 214.935382 82.848641 
L 214.891084 82.891876 
L 214.163772 83.480956 
L 213.617335 83.826534 
L 213.392162 83.951933 
L 212.620552 84.234313 
L 211.848942 84.358741 
L 211.077332 84.279734 
L 210.305722 83.922126 
z
" style="fill:#ac1117;"/>
   </g>
   <g id="PathCollection_10">
    <path clip-path="url(#pf392fb79c2)" d="M 210.305722 83.922126 
L 211.077332 84.279734 
L 211.848942 84.358741 
L 212.620552 84.234313 
L 213.392162 83.951933 
L 213.617335 83.826534 
L 214.163772 83.480956 
L 214.891084 82.891876 
L 214.935382 82.848641 
L 215.679481 81.957217 
L 215.706992 81.914077 
L 216.187549 81.022558 
L 216.478602 80.220238 
L 216.52062 80.087899 
L 216.642567 79.15324 
L 216.572627 78.218582 
L 216.478602 77.913557 
L 216.195306 77.283923 
L 215.706992 76.725012 
L 215.062148 76.349264 
L 214.935382 76.298371 
L 214.163772 76.210453 
L 213.392162 76.312895 
L 213.287194 76.349264 
L 212.620552 76.612427 
L 211.848942 77.065669 
L 211.565438 77.283923 
L 211.077332 77.734266 
L 210.642326 78.218582 
L 210.305722 78.695281 
L 210.025632 79.15324 
L 209.614235 80.087899 
L 209.534112 80.409972 
L 209.397316 81.022558 
L 209.36651 81.957217 
L 209.534112 82.812103 
L 209.556438 82.891876 
L 210.195325 83.826534 
z
" style="fill:#7e0610;"/>
   </g>
   <g id="matplotlib.axis_1">
    <g id="xtick_1">
     <g id="line2d_1">
      <defs>
       <path d="M 0 0 
L 0 3.5 
" id="m952e3ccd31" style="stroke:#262626;stroke-width:0.8;"/>
      </defs>
      <g>
       <use style="fill:#262626;stroke:#262626;stroke-width:0.8;" x="67.334837" xlink:href="#m952e3ccd31" y="223"/>
      </g>
     </g>
     <g id="line2d_2">
      <defs>
       <path d="M 0 0 
L 0 -3.5 
" id="m47f6678648" style="stroke:#262626;stroke-width:0.8;"/>
      </defs>
      <g>
       <use style="fill:#262626;stroke:#262626;stroke-width:0.8;" x="67.334837" xlink:href="#m47f6678648" y="25.44"/>
      </g>
     </g>
     <g id="text_1">
      <!-- 0.0 -->
      <defs>
       <path d="M 31.78125 66.40625 
Q 24.171875 66.40625 20.328125 58.90625 
Q 16.5 51.421875 16.5 36.375 
Q 16.5 21.390625 20.328125 13.890625 
Q 24.171875 6.390625 31.78125 6.390625 
Q 39.453125 6.390625 43.28125 13.890625 
Q 47.125 21.390625 47.125 36.375 
Q 47.125 51.421875 43.28125 58.90625 
Q 39.453125 66.40625 31.78125 66.40625 
z
M 31.78125 74.21875 
Q 44.046875 74.21875 50.515625 64.515625 
Q 56.984375 54.828125 56.984375 36.375 
Q 56.984375 17.96875 50.515625 8.265625 
Q 44.046875 -1.421875 31.78125 -1.421875 
Q 19.53125 -1.421875 13.0625 8.265625 
Q 6.59375 17.96875 6.59375 36.375 
Q 6.59375 54.828125 13.0625 64.515625 
Q 19.53125 74.21875 31.78125 74.21875 
z
" id="DejaVuSans-30"/>
       <path d="M 10.6875 12.40625 
L 21 12.40625 
L 21 0 
L 10.6875 0 
z
" id="DejaVuSans-2e"/>
      </defs>
      <g style="fill:#262626;" transform="translate(58.588118 238.358281)scale(0.11 -0.11)">
       <use xlink:href="#DejaVuSans-30"/>
       <use x="63.623047" xlink:href="#DejaVuSans-2e"/>
       <use x="95.410156" xlink:href="#DejaVuSans-30"/>
      </g>
     </g>
    </g>
    <g id="xtick_2">
     <g id="line2d_3">
      <g>
       <use style="fill:#262626;stroke:#262626;stroke-width:0.8;" x="106.432402" xlink:href="#m952e3ccd31" y="223"/>
      </g>
     </g>
     <g id="line2d_4">
      <g>
       <use style="fill:#262626;stroke:#262626;stroke-width:0.8;" x="106.432402" xlink:href="#m47f6678648" y="25.44"/>
      </g>
     </g>
     <g id="text_2">
      <!-- 1.0 -->
      <defs>
       <path d="M 12.40625 8.296875 
L 28.515625 8.296875 
L 28.515625 63.921875 
L 10.984375 60.40625 
L 10.984375 69.390625 
L 28.421875 72.90625 
L 38.28125 72.90625 
L 38.28125 8.296875 
L 54.390625 8.296875 
L 54.390625 0 
L 12.40625 0 
z
" id="DejaVuSans-31"/>
      </defs>
      <g style="fill:#262626;" transform="translate(97.685684 238.358281)scale(0.11 -0.11)">
       <use xlink:href="#DejaVuSans-31"/>
       <use x="63.623047" xlink:href="#DejaVuSans-2e"/>
       <use x="95.410156" xlink:href="#DejaVuSans-30"/>
      </g>
     </g>
    </g>
    <g id="xtick_3">
     <g id="line2d_5">
      <g>
       <use style="fill:#262626;stroke:#262626;stroke-width:0.8;" x="145.529968" xlink:href="#m952e3ccd31" y="223"/>
      </g>
     </g>
     <g id="line2d_6">
      <g>
       <use style="fill:#262626;stroke:#262626;stroke-width:0.8;" x="145.529968" xlink:href="#m47f6678648" y="25.44"/>
      </g>
     </g>
     <g id="text_3">
      <!-- 2.0 -->
      <defs>
       <path d="M 19.1875 8.296875 
L 53.609375 8.296875 
L 53.609375 0 
L 7.328125 0 
L 7.328125 8.296875 
Q 12.9375 14.109375 22.625 23.890625 
Q 32.328125 33.6875 34.8125 36.53125 
Q 39.546875 41.84375 41.421875 45.53125 
Q 43.3125 49.21875 43.3125 52.78125 
Q 43.3125 58.59375 39.234375 62.25 
Q 35.15625 65.921875 28.609375 65.921875 
Q 23.96875 65.921875 18.8125 64.3125 
Q 13.671875 62.703125 7.8125 59.421875 
L 7.8125 69.390625 
Q 13.765625 71.78125 18.9375 73 
Q 24.125 74.21875 28.421875 74.21875 
Q 39.75 74.21875 46.484375 68.546875 
Q 53.21875 62.890625 53.21875 53.421875 
Q 53.21875 48.921875 51.53125 44.890625 
Q 49.859375 40.875 45.40625 35.40625 
Q 44.1875 33.984375 37.640625 27.21875 
Q 31.109375 20.453125 19.1875 8.296875 
z
" id="DejaVuSans-32"/>
      </defs>
      <g style="fill:#262626;" transform="translate(136.783249 238.358281)scale(0.11 -0.11)">
       <use xlink:href="#DejaVuSans-32"/>
       <use x="63.623047" xlink:href="#DejaVuSans-2e"/>
       <use x="95.410156" xlink:href="#DejaVuSans-30"/>
      </g>
     </g>
    </g>
    <g id="xtick_4">
     <g id="line2d_7">
      <g>
       <use style="fill:#262626;stroke:#262626;stroke-width:0.8;" x="184.627533" xlink:href="#m952e3ccd31" y="223"/>
      </g>
     </g>
     <g id="line2d_8">
      <g>
       <use style="fill:#262626;stroke:#262626;stroke-width:0.8;" x="184.627533" xlink:href="#m47f6678648" y="25.44"/>
      </g>
     </g>
     <g id="text_4">
      <!-- 3.0 -->
      <defs>
       <path d="M 40.578125 39.3125 
Q 47.65625 37.796875 51.625 33 
Q 55.609375 28.21875 55.609375 21.1875 
Q 55.609375 10.40625 48.1875 4.484375 
Q 40.765625 -1.421875 27.09375 -1.421875 
Q 22.515625 -1.421875 17.65625 -0.515625 
Q 12.796875 0.390625 7.625 2.203125 
L 7.625 11.71875 
Q 11.71875 9.328125 16.59375 8.109375 
Q 21.484375 6.890625 26.8125 6.890625 
Q 36.078125 6.890625 40.9375 10.546875 
Q 45.796875 14.203125 45.796875 21.1875 
Q 45.796875 27.640625 41.28125 31.265625 
Q 36.765625 34.90625 28.71875 34.90625 
L 20.21875 34.90625 
L 20.21875 43.015625 
L 29.109375 43.015625 
Q 36.375 43.015625 40.234375 45.921875 
Q 44.09375 48.828125 44.09375 54.296875 
Q 44.09375 59.90625 40.109375 62.90625 
Q 36.140625 65.921875 28.71875 65.921875 
Q 24.65625 65.921875 20.015625 65.03125 
Q 15.375 64.15625 9.8125 62.3125 
L 9.8125 71.09375 
Q 15.4375 72.65625 20.34375 73.4375 
Q 25.25 74.21875 29.59375 74.21875 
Q 40.828125 74.21875 47.359375 69.109375 
Q 53.90625 64.015625 53.90625 55.328125 
Q 53.90625 49.265625 50.4375 45.09375 
Q 46.96875 40.921875 40.578125 39.3125 
z
" id="DejaVuSans-33"/>
      </defs>
      <g style="fill:#262626;" transform="translate(175.880814 238.358281)scale(0.11 -0.11)">
       <use xlink:href="#DejaVuSans-33"/>
       <use x="63.623047" xlink:href="#DejaVuSans-2e"/>
       <use x="95.410156" xlink:href="#DejaVuSans-30"/>
      </g>
     </g>
    </g>
    <g id="xtick_5">
     <g id="line2d_9">
      <g>
       <use style="fill:#262626;stroke:#262626;stroke-width:0.8;" x="223.725099" xlink:href="#m952e3ccd31" y="223"/>
      </g>
     </g>
     <g id="line2d_10">
      <g>
       <use style="fill:#262626;stroke:#262626;stroke-width:0.8;" x="223.725099" xlink:href="#m47f6678648" y="25.44"/>
      </g>
     </g>
     <g id="text_5">
      <!-- 4.0 -->
      <defs>
       <path d="M 37.796875 64.3125 
L 12.890625 25.390625 
L 37.796875 25.390625 
z
M 35.203125 72.90625 
L 47.609375 72.90625 
L 47.609375 25.390625 
L 58.015625 25.390625 
L 58.015625 17.1875 
L 47.609375 17.1875 
L 47.609375 0 
L 37.796875 0 
L 37.796875 17.1875 
L 4.890625 17.1875 
L 4.890625 26.703125 
z
" id="DejaVuSans-34"/>
      </defs>
      <g style="fill:#262626;" transform="translate(214.97838 238.358281)scale(0.11 -0.11)">
       <use xlink:href="#DejaVuSans-34"/>
       <use x="63.623047" xlink:href="#DejaVuSans-2e"/>
       <use x="95.410156" xlink:href="#DejaVuSans-30"/>
      </g>
     </g>
    </g>
    <g id="text_6">
     <!-- log10 counts (Control) -->
     <defs>
      <path d="M 9.421875 75.984375 
L 18.40625 75.984375 
L 18.40625 0 
L 9.421875 0 
z
" id="DejaVuSans-6c"/>
      <path d="M 30.609375 48.390625 
Q 23.390625 48.390625 19.1875 42.75 
Q 14.984375 37.109375 14.984375 27.296875 
Q 14.984375 17.484375 19.15625 11.84375 
Q 23.34375 6.203125 30.609375 6.203125 
Q 37.796875 6.203125 41.984375 11.859375 
Q 46.1875 17.53125 46.1875 27.296875 
Q 46.1875 37.015625 41.984375 42.703125 
Q 37.796875 48.390625 30.609375 48.390625 
z
M 30.609375 56 
Q 42.328125 56 49.015625 48.375 
Q 55.71875 40.765625 55.71875 27.296875 
Q 55.71875 13.875 49.015625 6.21875 
Q 42.328125 -1.421875 30.609375 -1.421875 
Q 18.84375 -1.421875 12.171875 6.21875 
Q 5.515625 13.875 5.515625 27.296875 
Q 5.515625 40.765625 12.171875 48.375 
Q 18.84375 56 30.609375 56 
z
" id="DejaVuSans-6f"/>
      <path d="M 45.40625 27.984375 
Q 45.40625 37.75 41.375 43.109375 
Q 37.359375 48.484375 30.078125 48.484375 
Q 22.859375 48.484375 18.828125 43.109375 
Q 14.796875 37.75 14.796875 27.984375 
Q 14.796875 18.265625 18.828125 12.890625 
Q 22.859375 7.515625 30.078125 7.515625 
Q 37.359375 7.515625 41.375 12.890625 
Q 45.40625 18.265625 45.40625 27.984375 
z
M 54.390625 6.78125 
Q 54.390625 -7.171875 48.1875 -13.984375 
Q 42 -20.796875 29.203125 -20.796875 
Q 24.46875 -20.796875 20.265625 -20.09375 
Q 16.0625 -19.390625 12.109375 -17.921875 
L 12.109375 -9.1875 
Q 16.0625 -11.328125 19.921875 -12.34375 
Q 23.78125 -13.375 27.78125 -13.375 
Q 36.625 -13.375 41.015625 -8.765625 
Q 45.40625 -4.15625 45.40625 5.171875 
L 45.40625 9.625 
Q 42.625 4.78125 38.28125 2.390625 
Q 33.9375 0 27.875 0 
Q 17.828125 0 11.671875 7.65625 
Q 5.515625 15.328125 5.515625 27.984375 
Q 5.515625 40.671875 11.671875 48.328125 
Q 17.828125 56 27.875 56 
Q 33.9375 56 38.28125 53.609375 
Q 42.625 51.21875 45.40625 46.390625 
L 45.40625 54.6875 
L 54.390625 54.6875 
z
" id="DejaVuSans-67"/>
      <path id="DejaVuSans-20"/>
      <path d="M 48.78125 52.59375 
L 48.78125 44.1875 
Q 44.96875 46.296875 41.140625 47.34375 
Q 37.3125 48.390625 33.40625 48.390625 
Q 24.65625 48.390625 19.8125 42.84375 
Q 14.984375 37.3125 14.984375 27.296875 
Q 14.984375 17.28125 19.8125 11.734375 
Q 24.65625 6.203125 33.40625 6.203125 
Q 37.3125 6.203125 41.140625 7.25 
Q 44.96875 8.296875 48.78125 10.40625 
L 48.78125 2.09375 
Q 45.015625 0.34375 40.984375 -0.53125 
Q 36.96875 -1.421875 32.421875 -1.421875 
Q 20.0625 -1.421875 12.78125 6.34375 
Q 5.515625 14.109375 5.515625 27.296875 
Q 5.515625 40.671875 12.859375 48.328125 
Q 20.21875 56 33.015625 56 
Q 37.15625 56 41.109375 55.140625 
Q 45.0625 54.296875 48.78125 52.59375 
z
" id="DejaVuSans-63"/>
      <path d="M 8.5 21.578125 
L 8.5 54.6875 
L 17.484375 54.6875 
L 17.484375 21.921875 
Q 17.484375 14.15625 20.5 10.265625 
Q 23.53125 6.390625 29.59375 6.390625 
Q 36.859375 6.390625 41.078125 11.03125 
Q 45.3125 15.671875 45.3125 23.6875 
L 45.3125 54.6875 
L 54.296875 54.6875 
L 54.296875 0 
L 45.3125 0 
L 45.3125 8.40625 
Q 42.046875 3.421875 37.71875 1 
Q 33.40625 -1.421875 27.6875 -1.421875 
Q 18.265625 -1.421875 13.375 4.4375 
Q 8.5 10.296875 8.5 21.578125 
z
M 31.109375 56 
z
" id="DejaVuSans-75"/>
      <path d="M 54.890625 33.015625 
L 54.890625 0 
L 45.90625 0 
L 45.90625 32.71875 
Q 45.90625 40.484375 42.875 44.328125 
Q 39.84375 48.1875 33.796875 48.1875 
Q 26.515625 48.1875 22.3125 43.546875 
Q 18.109375 38.921875 18.109375 30.90625 
L 18.109375 0 
L 9.078125 0 
L 9.078125 54.6875 
L 18.109375 54.6875 
L 18.109375 46.1875 
Q 21.34375 51.125 25.703125 53.5625 
Q 30.078125 56 35.796875 56 
Q 45.21875 56 50.046875 50.171875 
Q 54.890625 44.34375 54.890625 33.015625 
z
" id="DejaVuSans-6e"/>
      <path d="M 18.3125 70.21875 
L 18.3125 54.6875 
L 36.8125 54.6875 
L 36.8125 47.703125 
L 18.3125 47.703125 
L 18.3125 18.015625 
Q 18.3125 11.328125 20.140625 9.421875 
Q 21.96875 7.515625 27.59375 7.515625 
L 36.8125 7.515625 
L 36.8125 0 
L 27.59375 0 
Q 17.1875 0 13.234375 3.875 
Q 9.28125 7.765625 9.28125 18.015625 
L 9.28125 47.703125 
L 2.6875 47.703125 
L 2.6875 54.6875 
L 9.28125 54.6875 
L 9.28125 70.21875 
z
" id="DejaVuSans-74"/>
      <path d="M 44.28125 53.078125 
L 44.28125 44.578125 
Q 40.484375 46.53125 36.375 47.5 
Q 32.28125 48.484375 27.875 48.484375 
Q 21.1875 48.484375 17.84375 46.4375 
Q 14.5 44.390625 14.5 40.28125 
Q 14.5 37.15625 16.890625 35.375 
Q 19.28125 33.59375 26.515625 31.984375 
L 29.59375 31.296875 
Q 39.15625 29.25 43.1875 25.515625 
Q 47.21875 21.78125 47.21875 15.09375 
Q 47.21875 7.46875 41.1875 3.015625 
Q 35.15625 -1.421875 24.609375 -1.421875 
Q 20.21875 -1.421875 15.453125 -0.5625 
Q 10.6875 0.296875 5.421875 2 
L 5.421875 11.28125 
Q 10.40625 8.6875 15.234375 7.390625 
Q 20.0625 6.109375 24.8125 6.109375 
Q 31.15625 6.109375 34.5625 8.28125 
Q 37.984375 10.453125 37.984375 14.40625 
Q 37.984375 18.0625 35.515625 20.015625 
Q 33.0625 21.96875 24.703125 23.78125 
L 21.578125 24.515625 
Q 13.234375 26.265625 9.515625 29.90625 
Q 5.8125 33.546875 5.8125 39.890625 
Q 5.8125 47.609375 11.28125 51.796875 
Q 16.75 56 26.8125 56 
Q 31.78125 56 36.171875 55.265625 
Q 40.578125 54.546875 44.28125 53.078125 
z
" id="DejaVuSans-73"/>
      <path d="M 31 75.875 
Q 24.46875 64.65625 21.28125 53.65625 
Q 18.109375 42.671875 18.109375 31.390625 
Q 18.109375 20.125 21.3125 9.0625 
Q 24.515625 -2 31 -13.1875 
L 23.1875 -13.1875 
Q 15.875 -1.703125 12.234375 9.375 
Q 8.59375 20.453125 8.59375 31.390625 
Q 8.59375 42.28125 12.203125 53.3125 
Q 15.828125 64.359375 23.1875 75.875 
z
" id="DejaVuSans-28"/>
      <path d="M 64.40625 67.28125 
L 64.40625 56.890625 
Q 59.421875 61.53125 53.78125 63.8125 
Q 48.140625 66.109375 41.796875 66.109375 
Q 29.296875 66.109375 22.65625 58.46875 
Q 16.015625 50.828125 16.015625 36.375 
Q 16.015625 21.96875 22.65625 14.328125 
Q 29.296875 6.6875 41.796875 6.6875 
Q 48.140625 6.6875 53.78125 8.984375 
Q 59.421875 11.28125 64.40625 15.921875 
L 64.40625 5.609375 
Q 59.234375 2.09375 53.4375 0.328125 
Q 47.65625 -1.421875 41.21875 -1.421875 
Q 24.65625 -1.421875 15.125 8.703125 
Q 5.609375 18.84375 5.609375 36.375 
Q 5.609375 53.953125 15.125 64.078125 
Q 24.65625 74.21875 41.21875 74.21875 
Q 47.75 74.21875 53.53125 72.484375 
Q 59.328125 70.75 64.40625 67.28125 
z
" id="DejaVuSans-43"/>
      <path d="M 41.109375 46.296875 
Q 39.59375 47.171875 37.8125 47.578125 
Q 36.03125 48 33.890625 48 
Q 26.265625 48 22.1875 43.046875 
Q 18.109375 38.09375 18.109375 28.8125 
L 18.109375 0 
L 9.078125 0 
L 9.078125 54.6875 
L 18.109375 54.6875 
L 18.109375 46.1875 
Q 20.953125 51.171875 25.484375 53.578125 
Q 30.03125 56 36.53125 56 
Q 37.453125 56 38.578125 55.875 
Q 39.703125 55.765625 41.0625 55.515625 
z
" id="DejaVuSans-72"/>
      <path d="M 8.015625 75.875 
L 15.828125 75.875 
Q 23.140625 64.359375 26.78125 53.3125 
Q 30.421875 42.28125 30.421875 31.390625 
Q 30.421875 20.453125 26.78125 9.375 
Q 23.140625 -1.703125 15.828125 -13.1875 
L 8.015625 -13.1875 
Q 14.5 -2 17.703125 9.0625 
Q 20.90625 20.125 20.90625 31.390625 
Q 20.90625 42.671875 17.703125 53.65625 
Q 14.5 64.65625 8.015625 75.875 
z
" id="DejaVuSans-29"/>
     </defs>
     <g transform="translate(83.294531 253.004219)scale(0.11 -0.11)">
      <use xlink:href="#DejaVuSans-6c"/>
      <use x="27.783203" xlink:href="#DejaVuSans-6f"/>
      <use x="88.964844" xlink:href="#DejaVuSans-67"/>
      <use x="152.441406" xlink:href="#DejaVuSans-31"/>
      <use x="216.064453" xlink:href="#DejaVuSans-30"/>
      <use x="279.6875" xlink:href="#DejaVuSans-20"/>
      <use x="311.474609" xlink:href="#DejaVuSans-63"/>
      <use x="366.455078" xlink:href="#DejaVuSans-6f"/>
      <use x="427.636719" xlink:href="#DejaVuSans-75"/>
      <use x="491.015625" xlink:href="#DejaVuSans-6e"/>
      <use x="554.394531" xlink:href="#DejaVuSans-74"/>
      <use x="593.603516" xlink:href="#DejaVuSans-73"/>
      <use x="645.703125" xlink:href="#DejaVuSans-20"/>
      <use x="677.490234" xlink:href="#DejaVuSans-28"/>
      <use x="716.503906" xlink:href="#DejaVuSans-43"/>
      <use x="786.328125" xlink:href="#DejaVuSans-6f"/>
      <use x="847.509766" xlink:href="#DejaVuSans-6e"/>
      <use x="910.888672" xlink:href="#DejaVuSans-74"/>
      <use x="950.097656" xlink:href="#DejaVuSans-72"/>
      <use x="991.179688" xlink:href="#DejaVuSans-6f"/>
      <use x="1052.361328" xlink:href="#DejaVuSans-6c"/>
      <use x="1080.144531" xlink:href="#DejaVuSans-29"/>
     </g>
    </g>
   </g>
   <g id="matplotlib.axis_2">
    <g id="ytick_1">
     <g id="line2d_11">
      <defs>
       <path d="M 0 0 
L -3.5 0 
" id="m453743385d" style="stroke:#262626;stroke-width:0.8;"/>
      </defs>
      <g>
       <use style="fill:#262626;stroke:#262626;stroke-width:0.8;" x="51.01625" xlink:href="#m453743385d" y="208.365926"/>
      </g>
     </g>
     <g id="line2d_12">
      <defs>
       <path d="M 0 0 
L 3.5 0 
" id="mebb210fcf4" style="stroke:#262626;stroke-width:0.8;"/>
      </defs>
      <g>
       <use style="fill:#262626;stroke:#262626;stroke-width:0.8;" x="238.68" xlink:href="#mebb210fcf4" y="208.365926"/>
      </g>
     </g>
     <g id="text_7">
      <!-- 0.0 -->
      <g style="fill:#262626;" transform="translate(26.522813 212.545067)scale(0.11 -0.11)">
       <use xlink:href="#DejaVuSans-30"/>
       <use x="63.623047" xlink:href="#DejaVuSans-2e"/>
       <use x="95.410156" xlink:href="#DejaVuSans-30"/>
      </g>
     </g>
    </g>
    <g id="ytick_2">
     <g id="line2d_13">
      <g>
       <use style="fill:#262626;stroke:#262626;stroke-width:0.8;" x="51.01625" xlink:href="#m453743385d" y="173.732587"/>
      </g>
     </g>
     <g id="line2d_14">
      <g>
       <use style="fill:#262626;stroke:#262626;stroke-width:0.8;" x="238.68" xlink:href="#mebb210fcf4" y="173.732587"/>
      </g>
     </g>
     <g id="text_8">
      <!-- 1.0 -->
      <g style="fill:#262626;" transform="translate(26.522813 177.911727)scale(0.11 -0.11)">
       <use xlink:href="#DejaVuSans-31"/>
       <use x="63.623047" xlink:href="#DejaVuSans-2e"/>
       <use x="95.410156" xlink:href="#DejaVuSans-30"/>
      </g>
     </g>
    </g>
    <g id="ytick_3">
     <g id="line2d_15">
      <g>
       <use style="fill:#262626;stroke:#262626;stroke-width:0.8;" x="51.01625" xlink:href="#m453743385d" y="139.099248"/>
      </g>
     </g>
     <g id="line2d_16">
      <g>
       <use style="fill:#262626;stroke:#262626;stroke-width:0.8;" x="238.68" xlink:href="#mebb210fcf4" y="139.099248"/>
      </g>
     </g>
     <g id="text_9">
      <!-- 2.0 -->
      <g style="fill:#262626;" transform="translate(26.522813 143.278388)scale(0.11 -0.11)">
       <use xlink:href="#DejaVuSans-32"/>
       <use x="63.623047" xlink:href="#DejaVuSans-2e"/>
       <use x="95.410156" xlink:href="#DejaVuSans-30"/>
      </g>
     </g>
    </g>
    <g id="ytick_4">
     <g id="line2d_17">
      <g>
       <use style="fill:#262626;stroke:#262626;stroke-width:0.8;" x="51.01625" xlink:href="#m453743385d" y="104.465909"/>
      </g>
     </g>
     <g id="line2d_18">
      <g>
       <use style="fill:#262626;stroke:#262626;stroke-width:0.8;" x="238.68" xlink:href="#mebb210fcf4" y="104.465909"/>
      </g>
     </g>
     <g id="text_10">
      <!-- 3.0 -->
      <g style="fill:#262626;" transform="translate(26.522813 108.645049)scale(0.11 -0.11)">
       <use xlink:href="#DejaVuSans-33"/>
       <use x="63.623047" xlink:href="#DejaVuSans-2e"/>
       <use x="95.410156" xlink:href="#DejaVuSans-30"/>
      </g>
     </g>
    </g>
    <g id="ytick_5">
     <g id="line2d_19">
      <g>
       <use style="fill:#262626;stroke:#262626;stroke-width:0.8;" x="51.01625" xlink:href="#m453743385d" y="69.83257"/>
      </g>
     </g>
     <g id="line2d_20">
      <g>
       <use style="fill:#262626;stroke:#262626;stroke-width:0.8;" x="238.68" xlink:href="#mebb210fcf4" y="69.83257"/>
      </g>
     </g>
     <g id="text_11">
      <!-- 4.0 -->
      <g style="fill:#262626;" transform="translate(26.522813 74.01171)scale(0.11 -0.11)">
       <use xlink:href="#DejaVuSans-34"/>
       <use x="63.623047" xlink:href="#DejaVuSans-2e"/>
       <use x="95.410156" xlink:href="#DejaVuSans-30"/>
      </g>
     </g>
    </g>
    <g id="ytick_6">
     <g id="line2d_21">
      <g>
       <use style="fill:#262626;stroke:#262626;stroke-width:0.8;" x="51.01625" xlink:href="#m453743385d" y="35.199231"/>
      </g>
     </g>
     <g id="line2d_22">
      <g>
       <use style="fill:#262626;stroke:#262626;stroke-width:0.8;" x="238.68" xlink:href="#mebb210fcf4" y="35.199231"/>
      </g>
     </g>
     <g id="text_12">
      <!-- 5.0 -->
      <defs>
       <path d="M 10.796875 72.90625 
L 49.515625 72.90625 
L 49.515625 64.59375 
L 19.828125 64.59375 
L 19.828125 46.734375 
Q 21.96875 47.46875 24.109375 47.828125 
Q 26.265625 48.1875 28.421875 48.1875 
Q 40.625 48.1875 47.75 41.5 
Q 54.890625 34.8125 54.890625 23.390625 
Q 54.890625 11.625 47.5625 5.09375 
Q 40.234375 -1.421875 26.90625 -1.421875 
Q 22.3125 -1.421875 17.546875 -0.640625 
Q 12.796875 0.140625 7.71875 1.703125 
L 7.71875 11.625 
Q 12.109375 9.234375 16.796875 8.0625 
Q 21.484375 6.890625 26.703125 6.890625 
Q 35.15625 6.890625 40.078125 11.328125 
Q 45.015625 15.765625 45.015625 23.390625 
Q 45.015625 31 40.078125 35.4375 
Q 35.15625 39.890625 26.703125 39.890625 
Q 22.75 39.890625 18.8125 39.015625 
Q 14.890625 38.140625 10.796875 36.28125 
z
" id="DejaVuSans-35"/>
      </defs>
      <g style="fill:#262626;" transform="translate(26.522813 39.378371)scale(0.11 -0.11)">
       <use xlink:href="#DejaVuSans-35"/>
       <use x="63.623047" xlink:href="#DejaVuSans-2e"/>
       <use x="95.410156" xlink:href="#DejaVuSans-30"/>
      </g>
     </g>
    </g>
    <g id="text_13">
     <!-- log10 counts (CD107a_positive_1) -->
     <defs>
      <path d="M 19.671875 64.796875 
L 19.671875 8.109375 
L 31.59375 8.109375 
Q 46.6875 8.109375 53.6875 14.9375 
Q 60.6875 21.78125 60.6875 36.53125 
Q 60.6875 51.171875 53.6875 57.984375 
Q 46.6875 64.796875 31.59375 64.796875 
z
M 9.8125 72.90625 
L 30.078125 72.90625 
Q 51.265625 72.90625 61.171875 64.09375 
Q 71.09375 55.28125 71.09375 36.53125 
Q 71.09375 17.671875 61.125 8.828125 
Q 51.171875 0 30.078125 0 
L 9.8125 0 
z
" id="DejaVuSans-44"/>
      <path d="M 8.203125 72.90625 
L 55.078125 72.90625 
L 55.078125 68.703125 
L 28.609375 0 
L 18.3125 0 
L 43.21875 64.59375 
L 8.203125 64.59375 
z
" id="DejaVuSans-37"/>
      <path d="M 34.28125 27.484375 
Q 23.390625 27.484375 19.1875 25 
Q 14.984375 22.515625 14.984375 16.5 
Q 14.984375 11.71875 18.140625 8.90625 
Q 21.296875 6.109375 26.703125 6.109375 
Q 34.1875 6.109375 38.703125 11.40625 
Q 43.21875 16.703125 43.21875 25.484375 
L 43.21875 27.484375 
z
M 52.203125 31.203125 
L 52.203125 0 
L 43.21875 0 
L 43.21875 8.296875 
Q 40.140625 3.328125 35.546875 0.953125 
Q 30.953125 -1.421875 24.3125 -1.421875 
Q 15.921875 -1.421875 10.953125 3.296875 
Q 6 8.015625 6 15.921875 
Q 6 25.140625 12.171875 29.828125 
Q 18.359375 34.515625 30.609375 34.515625 
L 43.21875 34.515625 
L 43.21875 35.40625 
Q 43.21875 41.609375 39.140625 45 
Q 35.0625 48.390625 27.6875 48.390625 
Q 23 48.390625 18.546875 47.265625 
Q 14.109375 46.140625 10.015625 43.890625 
L 10.015625 52.203125 
Q 14.9375 54.109375 19.578125 55.046875 
Q 24.21875 56 28.609375 56 
Q 40.484375 56 46.34375 49.84375 
Q 52.203125 43.703125 52.203125 31.203125 
z
" id="DejaVuSans-61"/>
      <path d="M 50.984375 -16.609375 
L 50.984375 -23.578125 
L -0.984375 -23.578125 
L -0.984375 -16.609375 
z
" id="DejaVuSans-5f"/>
      <path d="M 18.109375 8.203125 
L 18.109375 -20.796875 
L 9.078125 -20.796875 
L 9.078125 54.6875 
L 18.109375 54.6875 
L 18.109375 46.390625 
Q 20.953125 51.265625 25.265625 53.625 
Q 29.59375 56 35.59375 56 
Q 45.5625 56 51.78125 48.09375 
Q 58.015625 40.1875 58.015625 27.296875 
Q 58.015625 14.40625 51.78125 6.484375 
Q 45.5625 -1.421875 35.59375 -1.421875 
Q 29.59375 -1.421875 25.265625 0.953125 
Q 20.953125 3.328125 18.109375 8.203125 
z
M 48.6875 27.296875 
Q 48.6875 37.203125 44.609375 42.84375 
Q 40.53125 48.484375 33.40625 48.484375 
Q 26.265625 48.484375 22.1875 42.84375 
Q 18.109375 37.203125 18.109375 27.296875 
Q 18.109375 17.390625 22.1875 11.75 
Q 26.265625 6.109375 33.40625 6.109375 
Q 40.53125 6.109375 44.609375 11.75 
Q 48.6875 17.390625 48.6875 27.296875 
z
" id="DejaVuSans-70"/>
      <path d="M 9.421875 54.6875 
L 18.40625 54.6875 
L 18.40625 0 
L 9.421875 0 
z
M 9.421875 75.984375 
L 18.40625 75.984375 
L 18.40625 64.59375 
L 9.421875 64.59375 
z
" id="DejaVuSans-69"/>
      <path d="M 2.984375 54.6875 
L 12.5 54.6875 
L 29.59375 8.796875 
L 46.6875 54.6875 
L 56.203125 54.6875 
L 35.6875 0 
L 23.484375 0 
z
" id="DejaVuSans-76"/>
      <path d="M 56.203125 29.59375 
L 56.203125 25.203125 
L 14.890625 25.203125 
Q 15.484375 15.921875 20.484375 11.0625 
Q 25.484375 6.203125 34.421875 6.203125 
Q 39.59375 6.203125 44.453125 7.46875 
Q 49.3125 8.734375 54.109375 11.28125 
L 54.109375 2.78125 
Q 49.265625 0.734375 44.1875 -0.34375 
Q 39.109375 -1.421875 33.890625 -1.421875 
Q 20.796875 -1.421875 13.15625 6.1875 
Q 5.515625 13.8125 5.515625 26.8125 
Q 5.515625 40.234375 12.765625 48.109375 
Q 20.015625 56 32.328125 56 
Q 43.359375 56 49.78125 48.890625 
Q 56.203125 41.796875 56.203125 29.59375 
z
M 47.21875 32.234375 
Q 47.125 39.59375 43.09375 43.984375 
Q 39.0625 48.390625 32.421875 48.390625 
Q 24.90625 48.390625 20.390625 44.140625 
Q 15.875 39.890625 15.1875 32.171875 
z
" id="DejaVuSans-65"/>
     </defs>
     <g transform="translate(19.929219 218.290625)rotate(-90)scale(0.11 -0.11)">
      <use xlink:href="#DejaVuSans-6c"/>
      <use x="27.783203" xlink:href="#DejaVuSans-6f"/>
      <use x="88.964844" xlink:href="#DejaVuSans-67"/>
      <use x="152.441406" xlink:href="#DejaVuSans-31"/>
      <use x="216.064453" xlink:href="#DejaVuSans-30"/>
      <use x="279.6875" xlink:href="#DejaVuSans-20"/>
      <use x="311.474609" xlink:href="#DejaVuSans-63"/>
      <use x="366.455078" xlink:href="#DejaVuSans-6f"/>
      <use x="427.636719" xlink:href="#DejaVuSans-75"/>
      <use x="491.015625" xlink:href="#DejaVuSans-6e"/>
      <use x="554.394531" xlink:href="#DejaVuSans-74"/>
      <use x="593.603516" xlink:href="#DejaVuSans-73"/>
      <use x="645.703125" xlink:href="#DejaVuSans-20"/>
      <use x="677.490234" xlink:href="#DejaVuSans-28"/>
      <use x="716.503906" xlink:href="#DejaVuSans-43"/>
      <use x="786.328125" xlink:href="#DejaVuSans-44"/>
      <use x="863.330078" xlink:href="#DejaVuSans-31"/>
      <use x="926.953125" xlink:href="#DejaVuSans-30"/>
      <use x="990.576172" xlink:href="#DejaVuSans-37"/>
      <use x="1054.199219" xlink:href="#DejaVuSans-61"/>
      <use x="1115.478516" xlink:href="#DejaVuSans-5f"/>
      <use x="1165.478516" xlink:href="#DejaVuSans-70"/>
      <use x="1228.955078" xlink:href="#DejaVuSans-6f"/>
      <use x="1290.136719" xlink:href="#DejaVuSans-73"/>
      <use x="1342.236328" xlink:href="#DejaVuSans-69"/>
      <use x="1370.019531" xlink:href="#DejaVuSans-74"/>
      <use x="1409.228516" xlink:href="#DejaVuSans-69"/>
      <use x="1437.011719" xlink:href="#DejaVuSans-76"/>
      <use x="1496.191406" xlink:href="#DejaVuSans-65"/>
      <use x="1557.714844" xlink:href="#DejaVuSans-5f"/>
      <use x="1607.714844" xlink:href="#DejaVuSans-31"/>
      <use x="1671.337891" xlink:href="#DejaVuSans-29"/>
     </g>
    </g>
   </g>
   <g id="line2d_23">
    <path clip-path="url(#pf392fb79c2)" d="M 51.01625 222.821229 
L 238.68 56.585244 
" style="fill:none;opacity:0.75;stroke:#808080;stroke-dasharray:5.55,2.4;stroke-dashoffset:0;stroke-width:1.5;"/>
   </g>
   <g id="patch_3">
    <path d="M 51.01625 223 
L 51.01625 25.44 
" style="fill:none;stroke:#000000;stroke-linecap:square;stroke-linejoin:miter;stroke-width:0.8;"/>
   </g>
   <g id="patch_4">
    <path d="M 238.68 223 
L 238.68 25.44 
" style="fill:none;stroke:#000000;stroke-linecap:square;stroke-linejoin:miter;stroke-width:0.8;"/>
   </g>
   <g id="patch_5">
    <path d="M 51.01625 223 
L 238.68 223 
" style="fill:none;stroke:#000000;stroke-linecap:square;stroke-linejoin:miter;stroke-width:0.8;"/>
   </g>
   <g id="patch_6">
    <path d="M 51.01625 25.44 
L 238.68 25.44 
" style="fill:none;stroke:#000000;stroke-linecap:square;stroke-linejoin:miter;stroke-width:0.8;"/>
   </g>
   <g id="text_14">
    <!-- sgRNA Density -->
    <defs>
     <path d="M 44.390625 34.1875 
Q 47.5625 33.109375 50.5625 29.59375 
Q 53.5625 26.078125 56.59375 19.921875 
L 66.609375 0 
L 56 0 
L 46.6875 18.703125 
Q 43.0625 26.03125 39.671875 28.421875 
Q 36.28125 30.8125 30.421875 30.8125 
L 19.671875 30.8125 
L 19.671875 0 
L 9.8125 0 
L 9.8125 72.90625 
L 32.078125 72.90625 
Q 44.578125 72.90625 50.734375 67.671875 
Q 56.890625 62.453125 56.890625 51.90625 
Q 56.890625 45.015625 53.6875 40.46875 
Q 50.484375 35.9375 44.390625 34.1875 
z
M 19.671875 64.796875 
L 19.671875 38.921875 
L 32.078125 38.921875 
Q 39.203125 38.921875 42.84375 42.21875 
Q 46.484375 45.515625 46.484375 51.90625 
Q 46.484375 58.296875 42.84375 61.546875 
Q 39.203125 64.796875 32.078125 64.796875 
z
" id="DejaVuSans-52"/>
     <path d="M 9.8125 72.90625 
L 23.09375 72.90625 
L 55.421875 11.921875 
L 55.421875 72.90625 
L 64.984375 72.90625 
L 64.984375 0 
L 51.703125 0 
L 19.390625 60.984375 
L 19.390625 0 
L 9.8125 0 
z
" id="DejaVuSans-4e"/>
     <path d="M 34.1875 63.1875 
L 20.796875 26.90625 
L 47.609375 26.90625 
z
M 28.609375 72.90625 
L 39.796875 72.90625 
L 67.578125 0 
L 57.328125 0 
L 50.6875 18.703125 
L 17.828125 18.703125 
L 11.1875 0 
L 0.78125 0 
z
" id="DejaVuSans-41"/>
     <path d="M 32.171875 -5.078125 
Q 28.375 -14.84375 24.75 -17.8125 
Q 21.140625 -20.796875 15.09375 -20.796875 
L 7.90625 -20.796875 
L 7.90625 -13.28125 
L 13.1875 -13.28125 
Q 16.890625 -13.28125 18.9375 -11.515625 
Q 21 -9.765625 23.484375 -3.21875 
L 25.09375 0.875 
L 2.984375 54.6875 
L 12.5 54.6875 
L 29.59375 11.921875 
L 46.6875 54.6875 
L 56.203125 54.6875 
z
" id="DejaVuSans-79"/>
    </defs>
    <g transform="translate(100.434063 19.44)scale(0.12 -0.12)">
     <use xlink:href="#DejaVuSans-73"/>
     <use x="52.099609" xlink:href="#DejaVuSans-67"/>
     <use x="115.576172" xlink:href="#DejaVuSans-52"/>
     <use x="185.058594" xlink:href="#DejaVuSans-4e"/>
     <use x="259.863281" xlink:href="#DejaVuSans-41"/>
     <use x="328.271484" xlink:href="#DejaVuSans-20"/>
     <use x="360.058594" xlink:href="#DejaVuSans-44"/>
     <use x="437.060547" xlink:href="#DejaVuSans-65"/>
     <use x="498.583984" xlink:href="#DejaVuSans-6e"/>
     <use x="561.962891" xlink:href="#DejaVuSans-73"/>
     <use x="614.0625" xlink:href="#DejaVuSans-69"/>
     <use x="641.845703" xlink:href="#DejaVuSans-74"/>
     <use x="681.054688" xlink:href="#DejaVuSans-79"/>
    </g>
   </g>
  </g>
 </g>
 <defs>
  <clipPath id="pf392fb79c2">
   <rect height="197.56" width="187.66375" x="51.01625" y="25.44"/>
  </clipPath>
 </defs>
</svg>
