<?xml version="1.0" encoding="utf-8" standalone="no"?>
<!DOCTYPE svg PUBLIC "-//W3C//DTD SVG 1.1//EN"
  "http://www.w3.org/Graphics/SVG/1.1/DTD/svg11.dtd">
<!-- Created with matplotlib (http://matplotlib.org/) -->
<svg height="266pt" version="1.1" viewBox="0 0 252 266" width="252pt" xmlns="http://www.w3.org/2000/svg" xmlns:xlink="http://www.w3.org/1999/xlink">
 <defs>
  <style type="text/css">
*{stroke-linecap:butt;stroke-linejoin:round;}
  </style>
 </defs>
 <g id="figure_1">
  <g id="patch_1">
   <path d="M 0 266.4 
L 252 266.4 
L 252 0 
L 0 0 
z
" style="fill:#ffffff;"/>
  </g>
  <g id="axes_1">
   <g id="patch_2">
    <path d="M 51.01625 223 
L 238.68 223 
L 238.68 25.44 
L 51.01625 25.44 
z
" style="fill:#ffffff;"/>
   </g>
   <g id="PathCollection_1">
    <path clip-path="url(#p34cc639b82)" d="M 172.496834 113.020073 
L 173.268444 113.020073 
L 174.040054 113.020073 
L 174.811664 113.020073 
L 175.583274 113.020073 
L 176.354884 113.020073 
L 177.126493 113.020073 
L 177.898103 113.020073 
L 178.669713 113.020073 
L 179.441323 113.020073 
L 180.212933 113.020073 
L 180.984543 113.020073 
L 181.756153 113.020073 
L 182.527763 113.020073 
L 183.299373 113.020073 
L 184.070983 113.020073 
L 184.842593 113.020073 
L 185.614203 113.020073 
L 186.385813 113.020073 
L 187.157423 113.020073 
L 187.929033 113.020073 
L 188.700643 113.020073 
L 189.472253 113.020073 
L 190.243863 113.020073 
L 191.015473 113.020073 
L 191.787083 113.020073 
L 192.558693 113.020073 
L 193.330303 113.020073 
L 194.101913 113.020073 
L 194.873523 113.020073 
L 195.645133 113.020073 
L 196.416743 113.020073 
L 197.188353 113.020073 
L 197.959963 113.020073 
L 198.731573 113.020073 
L 199.503183 113.020073 
L 200.274793 113.020073 
L 201.046403 113.020073 
L 201.818013 113.020073 
L 202.589623 113.020073 
L 203.361233 113.020073 
L 204.132843 113.020073 
L 204.904452 113.020073 
L 205.676062 113.020073 
L 206.447672 113.020073 
L 207.219282 113.020073 
L 207.990892 113.020073 
L 208.762502 113.020073 
L 209.534112 113.020073 
L 210.305722 113.020073 
L 211.077332 113.020073 
L 211.848942 113.020073 
L 212.620552 113.020073 
L 213.392162 113.020073 
L 214.163772 113.020073 
L 214.935382 113.020073 
L 215.706992 113.020073 
L 216.478602 113.020073 
L 217.250212 113.020073 
L 218.021822 113.020073 
L 218.793432 113.020073 
L 219.565042 113.020073 
L 220.336652 113.020073 
L 221.108262 113.020073 
L 221.879872 113.020073 
L 222.651482 113.020073 
L 223.423092 113.020073 
L 224.194702 113.020073 
L 224.966312 113.020073 
L 225.737922 113.020073 
L 226.509532 113.020073 
L 227.281142 113.020073 
L 228.052752 113.020073 
L 228.824362 113.020073 
L 229.595972 113.020073 
L 230.367582 113.020073 
L 231.139192 113.020073 
L 231.910802 113.020073 
L 232.682411 113.020073 
L 233.454021 113.020073 
L 234.225631 113.020073 
L 234.997241 113.020073 
L 235.768851 113.020073 
L 236.540461 113.020073 
L 237.312071 113.020073 
L 238.083681 113.020073 
L 238.855291 113.020073 
L 239.626901 113.020073 
L 240.398511 113.020073 
L 241.170121 113.020073 
L 241.941731 113.020073 
L 242.713341 113.020073 
L 243.484951 113.020073 
L 244.256561 113.020073 
L 245.028171 113.020073 
L 245.799781 113.020073 
L 246.571391 113.020073 
L 247.343001 113.020073 
L 248.114611 113.020073 
L 248.114611 112.346676 
L 248.114611 111.673279 
L 248.114611 110.999882 
L 248.114611 110.326484 
L 248.114611 109.653087 
L 248.114611 108.97969 
L 248.114611 108.306293 
L 248.114611 107.632896 
L 248.114611 106.959499 
L 248.114611 106.286102 
L 248.114611 105.612705 
L 248.114611 104.939308 
L 248.114611 104.265911 
L 248.114611 103.592514 
L 248.114611 102.919117 
L 248.114611 102.24572 
L 248.114611 101.572323 
L 248.114611 100.898926 
L 248.114611 100.225529 
L 248.114611 99.552132 
L 248.114611 98.878735 
L 248.114611 98.205337 
L 248.114611 97.53194 
L 248.114611 96.858543 
L 248.114611 96.185146 
L 248.114611 95.511749 
L 248.114611 94.838352 
L 248.114611 94.164955 
L 248.114611 93.491558 
L 248.114611 92.818161 
L 248.114611 92.144764 
L 248.114611 91.471367 
L 248.114611 90.79797 
L 248.114611 90.124573 
L 248.114611 89.451176 
L 248.114611 88.777779 
L 248.114611 88.104382 
L 248.114611 87.430985 
L 248.114611 86.757588 
L 248.114611 86.08419 
L 248.114611 85.410793 
L 248.114611 84.737396 
L 248.114611 84.063999 
L 248.114611 83.390602 
L 248.114611 82.717205 
L 248.114611 82.043808 
L 248.114611 81.370411 
L 248.114611 80.697014 
L 248.114611 80.023617 
L 248.114611 79.35022 
L 248.114611 78.676823 
L 248.114611 78.003426 
L 248.114611 77.330029 
L 248.114611 76.656632 
L 248.114611 75.983235 
L 248.114611 75.309838 
L 248.114611 74.636441 
L 248.114611 73.963043 
L 248.114611 73.289646 
L 248.114611 72.616249 
L 248.114611 71.942852 
L 248.114611 71.269455 
L 248.114611 70.596058 
L 248.114611 69.922661 
L 248.114611 69.249264 
L 248.114611 68.575867 
L 248.114611 67.90247 
L 248.114611 67.229073 
L 248.114611 66.555676 
L 248.114611 65.882279 
L 248.114611 65.208882 
L 248.114611 64.535485 
L 248.114611 63.862088 
L 248.114611 63.188691 
L 248.114611 62.515294 
L 248.114611 61.841896 
L 248.114611 61.168499 
L 248.114611 60.495102 
L 248.114611 59.821705 
L 248.114611 59.148308 
L 248.114611 58.474911 
L 248.114611 57.801514 
L 248.114611 57.128117 
L 248.114611 56.45472 
L 248.114611 55.781323 
L 248.114611 55.107926 
L 248.114611 54.434529 
L 248.114611 53.761132 
L 248.114611 53.087735 
L 248.114611 52.414338 
L 248.114611 51.740941 
L 248.114611 51.067544 
L 248.114611 50.394147 
L 248.114611 49.720749 
L 248.114611 49.047352 
L 248.114611 48.373955 
L 248.114611 47.700558 
L 248.114611 47.027161 
L 248.114611 46.353764 
L 247.343001 46.353764 
L 246.571391 46.353764 
L 245.799781 46.353764 
L 245.028171 46.353764 
L 244.256561 46.353764 
L 243.484951 46.353764 
L 242.713341 46.353764 
L 241.941731 46.353764 
L 241.170121 46.353764 
L 240.398511 46.353764 
L 239.626901 46.353764 
L 238.855291 46.353764 
L 238.083681 46.353764 
L 237.312071 46.353764 
L 236.540461 46.353764 
L 235.768851 46.353764 
L 234.997241 46.353764 
L 234.225631 46.353764 
L 233.454021 46.353764 
L 232.682411 46.353764 
L 231.910802 46.353764 
L 231.139192 46.353764 
L 230.367582 46.353764 
L 229.595972 46.353764 
L 228.824362 46.353764 
L 228.052752 46.353764 
L 227.281142 46.353764 
L 226.509532 46.353764 
L 225.737922 46.353764 
L 224.966312 46.353764 
L 224.194702 46.353764 
L 223.423092 46.353764 
L 222.651482 46.353764 
L 221.879872 46.353764 
L 221.108262 46.353764 
L 220.336652 46.353764 
L 219.565042 46.353764 
L 218.793432 46.353764 
L 218.021822 46.353764 
L 217.250212 46.353764 
L 216.478602 46.353764 
L 215.706992 46.353764 
L 214.935382 46.353764 
L 214.163772 46.353764 
L 213.392162 46.353764 
L 212.620552 46.353764 
L 211.848942 46.353764 
L 211.077332 46.353764 
L 210.305722 46.353764 
L 209.534112 46.353764 
L 208.762502 46.353764 
L 207.990892 46.353764 
L 207.219282 46.353764 
L 206.447672 46.353764 
L 205.676062 46.353764 
L 204.904452 46.353764 
L 204.132843 46.353764 
L 203.361233 46.353764 
L 202.589623 46.353764 
L 201.818013 46.353764 
L 201.046403 46.353764 
L 200.274793 46.353764 
L 199.503183 46.353764 
L 198.731573 46.353764 
L 197.959963 46.353764 
L 197.188353 46.353764 
L 196.416743 46.353764 
L 195.645133 46.353764 
L 194.873523 46.353764 
L 194.101913 46.353764 
L 193.330303 46.353764 
L 192.558693 46.353764 
L 191.787083 46.353764 
L 191.015473 46.353764 
L 190.243863 46.353764 
L 189.472253 46.353764 
L 188.700643 46.353764 
L 187.929033 46.353764 
L 187.157423 46.353764 
L 186.385813 46.353764 
L 185.614203 46.353764 
L 184.842593 46.353764 
L 184.070983 46.353764 
L 183.299373 46.353764 
L 182.527763 46.353764 
L 181.756153 46.353764 
L 180.984543 46.353764 
L 180.212933 46.353764 
L 179.441323 46.353764 
L 178.669713 46.353764 
L 177.898103 46.353764 
L 177.126493 46.353764 
L 176.354884 46.353764 
L 175.583274 46.353764 
L 174.811664 46.353764 
L 174.040054 46.353764 
L 173.268444 46.353764 
L 172.496834 46.353764 
L 171.725224 46.353764 
L 171.725224 47.027161 
L 171.725224 47.700558 
L 171.725224 48.373955 
L 171.725224 49.047352 
L 171.725224 49.720749 
L 171.725224 50.394147 
L 171.725224 51.067544 
L 171.725224 51.740941 
L 171.725224 52.414338 
L 171.725224 53.087735 
L 171.725224 53.761132 
L 171.725224 54.434529 
L 171.725224 55.107926 
L 171.725224 55.781323 
L 171.725224 56.45472 
L 171.725224 57.128117 
L 171.725224 57.801514 
L 171.725224 58.474911 
L 171.725224 59.148308 
L 171.725224 59.821705 
L 171.725224 60.495102 
L 171.725224 61.168499 
L 171.725224 61.841896 
L 171.725224 62.515294 
L 171.725224 63.188691 
L 171.725224 63.862088 
L 171.725224 64.535485 
L 171.725224 65.208882 
L 171.725224 65.882279 
L 171.725224 66.555676 
L 171.725224 67.229073 
L 171.725224 67.90247 
L 171.725224 68.575867 
L 171.725224 69.249264 
L 171.725224 69.922661 
L 171.725224 70.596058 
L 171.725224 71.269455 
L 171.725224 71.942852 
L 171.725224 72.616249 
L 171.725224 73.289646 
L 171.725224 73.963043 
L 171.725224 74.636441 
L 171.725224 75.309838 
L 171.725224 75.983235 
L 171.725224 76.656632 
L 171.725224 77.330029 
L 171.725224 78.003426 
L 171.725224 78.676823 
L 171.725224 79.35022 
L 171.725224 80.023617 
L 171.725224 80.697014 
L 171.725224 81.370411 
L 171.725224 82.043808 
L 171.725224 82.717205 
L 171.725224 83.390602 
L 171.725224 84.063999 
L 171.725224 84.737396 
L 171.725224 85.410793 
L 171.725224 86.08419 
L 171.725224 86.757588 
L 171.725224 87.430985 
L 171.725224 88.104382 
L 171.725224 88.777779 
L 171.725224 89.451176 
L 171.725224 90.124573 
L 171.725224 90.79797 
L 171.725224 91.471367 
L 171.725224 92.144764 
L 171.725224 92.818161 
L 171.725224 93.491558 
L 171.725224 94.164955 
L 171.725224 94.838352 
L 171.725224 95.511749 
L 171.725224 96.185146 
L 171.725224 96.858543 
L 171.725224 97.53194 
L 171.725224 98.205337 
L 171.725224 98.878735 
L 171.725224 99.552132 
L 171.725224 100.225529 
L 171.725224 100.898926 
L 171.725224 101.572323 
L 171.725224 102.24572 
L 171.725224 102.919117 
L 171.725224 103.592514 
L 171.725224 104.265911 
L 171.725224 104.939308 
L 171.725224 105.612705 
L 171.725224 106.286102 
L 171.725224 106.959499 
L 171.725224 107.632896 
L 171.725224 108.306293 
L 171.725224 108.97969 
L 171.725224 109.653087 
L 171.725224 110.326484 
L 171.725224 110.999882 
L 171.725224 111.673279 
L 171.725224 112.346676 
L 171.725224 113.020073 
z
M 195.853657 97.53194 
L 195.645133 97.463398 
L 194.873523 97.136663 
L 194.360275 96.858543 
L 194.101913 96.703734 
L 193.394998 96.185146 
L 193.330303 96.130195 
L 192.703998 95.511749 
L 192.558693 95.336671 
L 192.1863 94.838352 
L 191.798086 94.164955 
L 191.787083 94.140572 
L 191.507879 93.491558 
L 191.301679 92.818161 
L 191.16567 92.144764 
L 191.088201 91.471367 
L 191.059496 90.79797 
L 191.071365 90.124573 
L 191.117031 89.451176 
L 191.191044 88.777779 
L 191.289247 88.104382 
L 191.408756 87.430985 
L 191.547969 86.757588 
L 191.706571 86.08419 
L 191.787083 85.777928 
L 191.874431 85.410793 
L 192.051739 84.737396 
L 192.250308 84.063999 
L 192.474639 83.390602 
L 192.558693 83.162624 
L 192.708637 82.717205 
L 192.964072 82.043808 
L 193.259245 81.370411 
L 193.330303 81.224072 
L 193.566238 80.697014 
L 193.913556 80.023617 
L 194.101913 79.700306 
L 194.291016 79.35022 
L 194.70372 78.676823 
L 194.873523 78.428671 
L 195.144735 78.003426 
L 195.635616 77.330029 
L 195.645133 77.317866 
L 196.130055 76.656632 
L 196.416743 76.307487 
L 196.667281 75.983235 
L 197.188353 75.373873 
L 197.240143 75.309838 
L 197.822409 74.636441 
L 197.959963 74.488486 
L 198.426177 73.963043 
L 198.731573 73.643408 
L 199.056323 73.289646 
L 199.503183 72.833847 
L 199.709574 72.616249 
L 200.274793 72.053865 
L 200.383483 71.942852 
L 201.046403 71.299037 
L 201.076278 71.269455 
L 201.78192 70.596058 
L 201.818013 70.562678 
L 202.503206 69.922661 
L 202.589623 69.844428 
L 203.245208 69.249264 
L 203.361233 69.1466 
L 204.009543 68.575867 
L 204.132843 68.469512 
L 204.799596 67.90247 
L 204.904452 67.814644 
L 205.621009 67.229073 
L 205.676062 67.184525 
L 206.447672 66.579186 
L 206.478727 66.555676 
L 207.219282 65.995957 
L 207.378996 65.882279 
L 207.990892 65.444046 
L 208.345383 65.208882 
L 208.762502 64.927846 
L 209.402586 64.535485 
L 209.534112 64.452709 
L 210.305722 64.002127 
L 210.572659 63.862088 
L 211.077332 63.5853 
L 211.848942 63.21724 
L 211.914715 63.188691 
L 212.620552 62.8616 
L 213.392162 62.560421 
L 213.522503 62.515294 
L 214.163772 62.272773 
L 214.935382 62.027205 
L 215.634475 61.841896 
L 215.706992 61.820398 
L 216.478602 61.623579 
L 217.250212 61.464302 
L 218.021822 61.337834 
L 218.793432 61.240664 
L 219.565042 61.170353 
L 219.597216 61.168499 
L 220.336652 61.118489 
L 221.108262 61.095667 
L 221.879872 61.102364 
L 222.651482 61.139932 
L 222.969897 61.168499 
L 223.423092 61.205982 
L 224.194702 61.302802 
L 224.966312 61.440155 
L 225.737922 61.626511 
L 226.419149 61.841896 
L 226.509532 61.87065 
L 227.281142 62.169354 
L 227.969262 62.515294 
L 228.052752 62.56009 
L 228.824362 63.05362 
L 229.002618 63.188691 
L 229.595972 63.701185 
L 229.758934 63.862088 
L 230.33317 64.535485 
L 230.367582 64.583455 
L 230.786642 65.208882 
L 231.130732 65.882279 
L 231.139192 65.902352 
L 231.412076 66.555676 
L 231.623204 67.229073 
L 231.776771 67.90247 
L 231.882885 68.575867 
L 231.910802 68.851183 
L 231.95455 69.249264 
L 231.991308 69.922661 
L 231.992919 70.596058 
L 231.961493 71.269455 
L 231.910802 71.805253 
L 231.899779 71.942852 
L 231.81831 72.616249 
L 231.709148 73.289646 
L 231.570656 73.963043 
L 231.400303 74.636441 
L 231.19463 75.309838 
L 231.139192 75.467528 
L 230.97979 75.983235 
L 230.737739 76.656632 
L 230.454629 77.330029 
L 230.367582 77.516814 
L 230.163527 78.003426 
L 229.8432 78.676823 
L 229.595972 79.139242 
L 229.492762 79.35022 
L 229.135552 80.023617 
L 228.824362 80.54783 
L 228.742158 80.697014 
L 228.349519 81.370411 
L 228.052752 81.834688 
L 227.927226 82.043808 
L 227.502381 82.717205 
L 227.281142 83.047574 
L 227.063436 83.390602 
L 226.610814 84.063999 
L 226.509532 84.211512 
L 226.164698 84.737396 
L 225.737922 85.346404 
L 225.694463 85.410793 
L 225.239006 86.08419 
L 224.966312 86.467696 
L 224.76607 86.757588 
L 224.282308 87.430985 
L 224.194702 87.551357 
L 223.799338 88.104382 
L 223.423092 88.599907 
L 223.288802 88.777779 
L 222.76106 89.451176 
L 222.651482 89.586416 
L 222.210476 90.124573 
L 221.879872 90.503623 
L 221.616143 90.79797 
L 221.108262 91.332808 
L 220.970835 91.471367 
L 220.336652 92.078668 
L 220.263292 92.144764 
L 219.565042 92.747772 
L 219.476835 92.818161 
L 218.793432 93.346969 
L 218.587468 93.491558 
L 218.021822 93.881915 
L 217.561399 94.164955 
L 217.250212 94.355936 
L 216.478602 94.776925 
L 216.353959 94.838352 
L 215.706992 95.165001 
L 214.935382 95.497692 
L 214.899498 95.511749 
L 214.163772 95.814736 
L 213.392162 96.085314 
L 213.069254 96.185146 
L 212.620552 96.334579 
L 211.848942 96.559852 
L 211.077332 96.752878 
L 210.593616 96.858543 
L 210.305722 96.928194 
L 209.534112 97.09352 
L 208.762502 97.23719 
L 207.990892 97.363175 
L 207.219282 97.474926 
L 206.782739 97.53194 
L 206.447672 97.58151 
L 205.676062 97.685057 
L 204.904452 97.778978 
L 204.132843 97.86421 
L 203.361233 97.940735 
L 202.589623 98.007499 
L 201.818013 98.062371 
L 201.046403 98.102125 
L 200.274793 98.122466 
L 199.503183 98.118056 
L 198.731573 98.082533 
L 197.959963 98.008485 
L 197.188353 97.887341 
L 196.416743 97.709139 
z
" style="fill:none;"/>
   </g>
   <g id="PathCollection_2">
    <path clip-path="url(#p34cc639b82)" d="M 196.416743 97.709139 
L 197.188353 97.887341 
L 197.959963 98.008485 
L 198.731573 98.082533 
L 199.503183 98.118056 
L 200.274793 98.122466 
L 201.046403 98.102125 
L 201.818013 98.062371 
L 202.589623 98.007499 
L 203.361233 97.940735 
L 204.132843 97.86421 
L 204.904452 97.778978 
L 205.676062 97.685057 
L 206.447672 97.58151 
L 206.782739 97.53194 
L 207.219282 97.474926 
L 207.990892 97.363175 
L 208.762502 97.23719 
L 209.534112 97.09352 
L 210.305722 96.928194 
L 210.593616 96.858543 
L 211.077332 96.752878 
L 211.848942 96.559852 
L 212.620552 96.334579 
L 213.069254 96.185146 
L 213.392162 96.085314 
L 214.163772 95.814736 
L 214.899498 95.511749 
L 214.935382 95.497692 
L 215.706992 95.165001 
L 216.353959 94.838352 
L 216.478602 94.776925 
L 217.250212 94.355936 
L 217.561399 94.164955 
L 218.021822 93.881915 
L 218.587468 93.491558 
L 218.793432 93.346969 
L 219.476835 92.818161 
L 219.565042 92.747772 
L 220.263292 92.144764 
L 220.336652 92.078668 
L 220.970835 91.471367 
L 221.108262 91.332808 
L 221.616143 90.79797 
L 221.879872 90.503623 
L 222.210476 90.124573 
L 222.651482 89.586416 
L 222.76106 89.451176 
L 223.288802 88.777779 
L 223.423092 88.599907 
L 223.799338 88.104382 
L 224.194702 87.551357 
L 224.282308 87.430985 
L 224.76607 86.757588 
L 224.966312 86.467696 
L 225.239006 86.08419 
L 225.694463 85.410793 
L 225.737922 85.346404 
L 226.164698 84.737396 
L 226.509532 84.211512 
L 226.610814 84.063999 
L 227.063436 83.390602 
L 227.281142 83.047574 
L 227.502381 82.717205 
L 227.927226 82.043808 
L 228.052752 81.834688 
L 228.349519 81.370411 
L 228.742158 80.697014 
L 228.824362 80.54783 
L 229.135552 80.023617 
L 229.492762 79.35022 
L 229.595972 79.139242 
L 229.8432 78.676823 
L 230.163527 78.003426 
L 230.367582 77.516814 
L 230.454629 77.330029 
L 230.737739 76.656632 
L 230.97979 75.983235 
L 231.139192 75.467528 
L 231.19463 75.309838 
L 231.400303 74.636441 
L 231.570656 73.963043 
L 231.709148 73.289646 
L 231.81831 72.616249 
L 231.899779 71.942852 
L 231.910802 71.805253 
L 231.961493 71.269455 
L 231.992919 70.596058 
L 231.991308 69.922661 
L 231.95455 69.249264 
L 231.910802 68.851183 
L 231.882885 68.575867 
L 231.776771 67.90247 
L 231.623204 67.229073 
L 231.412076 66.555676 
L 231.139192 65.902352 
L 231.130732 65.882279 
L 230.786642 65.208882 
L 230.367582 64.583455 
L 230.33317 64.535485 
L 229.758934 63.862088 
L 229.595972 63.701185 
L 229.002618 63.188691 
L 228.824362 63.05362 
L 228.052752 62.56009 
L 227.969262 62.515294 
L 227.281142 62.169354 
L 226.509532 61.87065 
L 226.419149 61.841896 
L 225.737922 61.626511 
L 224.966312 61.440155 
L 224.194702 61.302802 
L 223.423092 61.205982 
L 222.969897 61.168499 
L 222.651482 61.139932 
L 221.879872 61.102364 
L 221.108262 61.095667 
L 220.336652 61.118489 
L 219.597216 61.168499 
L 219.565042 61.170353 
L 218.793432 61.240664 
L 218.021822 61.337834 
L 217.250212 61.464302 
L 216.478602 61.623579 
L 215.706992 61.820398 
L 215.634475 61.841896 
L 214.935382 62.027205 
L 214.163772 62.272773 
L 213.522503 62.515294 
L 213.392162 62.560421 
L 212.620552 62.8616 
L 211.914715 63.188691 
L 211.848942 63.21724 
L 211.077332 63.5853 
L 210.572659 63.862088 
L 210.305722 64.002127 
L 209.534112 64.452709 
L 209.402586 64.535485 
L 208.762502 64.927846 
L 208.345383 65.208882 
L 207.990892 65.444046 
L 207.378996 65.882279 
L 207.219282 65.995957 
L 206.478727 66.555676 
L 206.447672 66.579186 
L 205.676062 67.184525 
L 205.621009 67.229073 
L 204.904452 67.814644 
L 204.799596 67.90247 
L 204.132843 68.469512 
L 204.009543 68.575867 
L 203.361233 69.1466 
L 203.245208 69.249264 
L 202.589623 69.844428 
L 202.503206 69.922661 
L 201.818013 70.562678 
L 201.78192 70.596058 
L 201.076278 71.269455 
L 201.046403 71.299037 
L 200.383483 71.942852 
L 200.274793 72.053865 
L 199.709574 72.616249 
L 199.503183 72.833847 
L 199.056323 73.289646 
L 198.731573 73.643408 
L 198.426177 73.963043 
L 197.959963 74.488486 
L 197.822409 74.636441 
L 197.240143 75.309838 
L 197.188353 75.373873 
L 196.667281 75.983235 
L 196.416743 76.307487 
L 196.130055 76.656632 
L 195.645133 77.317866 
L 195.635616 77.330029 
L 195.144735 78.003426 
L 194.873523 78.428671 
L 194.70372 78.676823 
L 194.291016 79.35022 
L 194.101913 79.700306 
L 193.913556 80.023617 
L 193.566238 80.697014 
L 193.330303 81.224072 
L 193.259245 81.370411 
L 192.964072 82.043808 
L 192.708637 82.717205 
L 192.558693 83.162624 
L 192.474639 83.390602 
L 192.250308 84.063999 
L 192.051739 84.737396 
L 191.874431 85.410793 
L 191.787083 85.777928 
L 191.706571 86.08419 
L 191.547969 86.757588 
L 191.408756 87.430985 
L 191.289247 88.104382 
L 191.191044 88.777779 
L 191.117031 89.451176 
L 191.071365 90.124573 
L 191.059496 90.79797 
L 191.088201 91.471367 
L 191.16567 92.144764 
L 191.301679 92.818161 
L 191.507879 93.491558 
L 191.787083 94.140572 
L 191.798086 94.164955 
L 192.1863 94.838352 
L 192.558693 95.336671 
L 192.703998 95.511749 
L 193.330303 96.130195 
L 193.394998 96.185146 
L 194.101913 96.703734 
L 194.360275 96.858543 
L 194.873523 97.136663 
L 195.645133 97.463398 
L 195.853657 97.53194 
z
M 200.017539 94.164955 
L 199.503183 94.019706 
L 198.731573 93.728037 
L 198.252788 93.491558 
L 197.959963 93.325121 
L 197.26079 92.818161 
L 197.188353 92.754201 
L 196.612652 92.144764 
L 196.416743 91.873589 
L 196.161572 91.471367 
L 195.844479 90.79797 
L 195.645133 90.186674 
L 195.626124 90.124573 
L 195.478581 89.451176 
L 195.390344 88.777779 
L 195.350648 88.104382 
L 195.351931 87.430985 
L 195.389212 86.757588 
L 195.45962 86.08419 
L 195.562029 85.410793 
L 195.645133 84.99635 
L 195.692057 84.737396 
L 195.844134 84.063999 
L 196.027607 83.390602 
L 196.245767 82.717205 
L 196.416743 82.265676 
L 196.493767 82.043808 
L 196.761362 81.370411 
L 197.07163 80.697014 
L 197.188353 80.471513 
L 197.403391 80.023617 
L 197.769793 79.35022 
L 197.959963 79.037141 
L 198.164757 78.676823 
L 198.592208 78.003426 
L 198.731573 77.802792 
L 199.041752 77.330029 
L 199.503183 76.700584 
L 199.533838 76.656632 
L 200.03596 75.983235 
L 200.274793 75.690112 
L 200.572627 75.309838 
L 201.046403 74.753773 
L 201.143232 74.636441 
L 201.735187 73.963043 
L 201.818013 73.873679 
L 202.347415 73.289646 
L 202.589623 73.037956 
L 202.98933 72.616249 
L 203.361233 72.243623 
L 203.658974 71.942852 
L 204.132843 71.484783 
L 204.35539 71.269455 
L 204.904452 70.757559 
L 205.078895 70.596058 
L 205.676062 70.059993 
L 205.831522 69.922661 
L 206.447672 69.391844 
L 206.617638 69.249264 
L 207.219282 68.754282 
L 207.444771 68.575867 
L 207.990892 68.149544 
L 208.32474 67.90247 
L 208.762502 67.580659 
L 209.27527 67.229073 
L 209.534112 67.051366 
L 210.305722 66.565206 
L 210.32193 66.555676 
L 211.077332 66.104846 
L 211.498858 65.882279 
L 211.848942 65.692412 
L 212.620552 65.321669 
L 212.887073 65.208882 
L 213.392162 64.985018 
L 214.163772 64.692365 
L 214.653496 64.535485 
L 214.935382 64.438792 
L 215.706992 64.215966 
L 216.478602 64.037767 
L 217.250212 63.899776 
L 217.537686 63.862088 
L 218.021822 63.791469 
L 218.793432 63.71893 
L 219.565042 63.685781 
L 220.336652 63.692425 
L 221.108262 63.740804 
L 221.879872 63.834604 
L 222.033239 63.862088 
L 222.651482 63.970193 
L 223.423092 64.160074 
L 224.194702 64.418585 
L 224.474789 64.535485 
L 224.966312 64.751049 
L 225.737922 65.184788 
L 225.774659 65.208882 
L 226.509532 65.748264 
L 226.664413 65.882279 
L 227.281142 66.509099 
L 227.321921 66.555676 
L 227.825989 67.229073 
L 228.052752 67.615159 
L 228.212628 67.90247 
L 228.511466 68.575867 
L 228.730794 69.249264 
L 228.824362 69.646682 
L 228.890675 69.922661 
L 229.000689 70.596058 
L 229.060167 71.269455 
L 229.074225 71.942852 
L 229.046135 72.616249 
L 228.977624 73.289646 
L 228.869079 73.963043 
L 228.824362 74.166385 
L 228.731864 74.636441 
L 228.563235 75.309838 
L 228.355964 75.983235 
L 228.106903 76.656632 
L 228.052752 76.785087 
L 227.840842 77.330029 
L 227.538865 78.003426 
L 227.281142 78.508509 
L 227.200508 78.676823 
L 226.847692 79.35022 
L 226.509532 79.924249 
L 226.45375 80.023617 
L 226.052106 80.697014 
L 225.737922 81.177427 
L 225.616221 81.370411 
L 225.168515 82.043808 
L 224.966312 82.331386 
L 224.702282 82.717205 
L 224.21136 83.390602 
L 224.194702 83.413169 
L 223.723397 84.063999 
L 223.423092 84.457617 
L 223.212004 84.737396 
L 222.683015 85.410793 
L 222.651482 85.450652 
L 222.151347 86.08419 
L 221.879872 86.414101 
L 221.595049 86.757588 
L 221.108262 87.32202 
L 221.012524 87.430985 
L 220.404546 88.104382 
L 220.336652 88.177817 
L 219.762481 88.777779 
L 219.565042 88.976336 
L 219.069136 89.451176 
L 218.793432 89.706101 
L 218.310487 90.124573 
L 218.021822 90.367359 
L 217.466053 90.79797 
L 217.250212 90.96148 
L 216.506159 91.471367 
L 216.478602 91.490006 
L 215.706992 91.970201 
L 215.387909 92.144764 
L 214.935382 92.393847 
L 214.163772 92.762925 
L 214.033749 92.818161 
L 213.392162 93.09834 
L 212.620552 93.384423 
L 212.285526 93.491558 
L 211.848942 93.638386 
L 211.077332 93.859841 
L 210.305722 94.04372 
L 209.691323 94.164955 
L 209.534112 94.198567 
L 208.762502 94.335045 
L 207.990892 94.443478 
L 207.219282 94.526963 
L 206.447672 94.587853 
L 205.676062 94.627742 
L 204.904452 94.647401 
L 204.132843 94.646645 
L 203.361233 94.624141 
L 202.589623 94.577139 
L 201.818013 94.501128 
L 201.046403 94.389406 
L 200.274793 94.232565 
z
" style="fill:#fed9c9;"/>
   </g>
   <g id="PathCollection_3">
    <path clip-path="url(#p34cc639b82)" d="M 200.274793 94.232565 
L 201.046403 94.389406 
L 201.818013 94.501128 
L 202.589623 94.577139 
L 203.361233 94.624141 
L 204.132843 94.646645 
L 204.904452 94.647401 
L 205.676062 94.627742 
L 206.447672 94.587853 
L 207.219282 94.526963 
L 207.990892 94.443478 
L 208.762502 94.335045 
L 209.534112 94.198567 
L 209.691323 94.164955 
L 210.305722 94.04372 
L 211.077332 93.859841 
L 211.848942 93.638386 
L 212.285526 93.491558 
L 212.620552 93.384423 
L 213.392162 93.09834 
L 214.033749 92.818161 
L 214.163772 92.762925 
L 214.935382 92.393847 
L 215.387909 92.144764 
L 215.706992 91.970201 
L 216.478602 91.490006 
L 216.506159 91.471367 
L 217.250212 90.96148 
L 217.466053 90.79797 
L 218.021822 90.367359 
L 218.310487 90.124573 
L 218.793432 89.706101 
L 219.069136 89.451176 
L 219.565042 88.976336 
L 219.762481 88.777779 
L 220.336652 88.177817 
L 220.404546 88.104382 
L 221.012524 87.430985 
L 221.108262 87.32202 
L 221.595049 86.757588 
L 221.879872 86.414101 
L 222.151347 86.08419 
L 222.651482 85.450652 
L 222.683015 85.410793 
L 223.212004 84.737396 
L 223.423092 84.457617 
L 223.723397 84.063999 
L 224.194702 83.413169 
L 224.21136 83.390602 
L 224.702282 82.717205 
L 224.966312 82.331386 
L 225.168515 82.043808 
L 225.616221 81.370411 
L 225.737922 81.177427 
L 226.052106 80.697014 
L 226.45375 80.023617 
L 226.509532 79.924249 
L 226.847692 79.35022 
L 227.200508 78.676823 
L 227.281142 78.508509 
L 227.538865 78.003426 
L 227.840842 77.330029 
L 228.052752 76.785087 
L 228.106903 76.656632 
L 228.355964 75.983235 
L 228.563235 75.309838 
L 228.731864 74.636441 
L 228.824362 74.166385 
L 228.869079 73.963043 
L 228.977624 73.289646 
L 229.046135 72.616249 
L 229.074225 71.942852 
L 229.060167 71.269455 
L 229.000689 70.596058 
L 228.890675 69.922661 
L 228.824362 69.646682 
L 228.730794 69.249264 
L 228.511466 68.575867 
L 228.212628 67.90247 
L 228.052752 67.615159 
L 227.825989 67.229073 
L 227.321921 66.555676 
L 227.281142 66.509099 
L 226.664413 65.882279 
L 226.509532 65.748264 
L 225.774659 65.208882 
L 225.737922 65.184788 
L 224.966312 64.751049 
L 224.474789 64.535485 
L 224.194702 64.418585 
L 223.423092 64.160074 
L 222.651482 63.970193 
L 222.033239 63.862088 
L 221.879872 63.834604 
L 221.108262 63.740804 
L 220.336652 63.692425 
L 219.565042 63.685781 
L 218.793432 63.71893 
L 218.021822 63.791469 
L 217.537686 63.862088 
L 217.250212 63.899776 
L 216.478602 64.037767 
L 215.706992 64.215966 
L 214.935382 64.438792 
L 214.653496 64.535485 
L 214.163772 64.692365 
L 213.392162 64.985018 
L 212.887073 65.208882 
L 212.620552 65.321669 
L 211.848942 65.692412 
L 211.498858 65.882279 
L 211.077332 66.104846 
L 210.32193 66.555676 
L 210.305722 66.565206 
L 209.534112 67.051366 
L 209.27527 67.229073 
L 208.762502 67.580659 
L 208.32474 67.90247 
L 207.990892 68.149544 
L 207.444771 68.575867 
L 207.219282 68.754282 
L 206.617638 69.249264 
L 206.447672 69.391844 
L 205.831522 69.922661 
L 205.676062 70.059993 
L 205.078895 70.596058 
L 204.904452 70.757559 
L 204.35539 71.269455 
L 204.132843 71.484783 
L 203.658974 71.942852 
L 203.361233 72.243623 
L 202.98933 72.616249 
L 202.589623 73.037956 
L 202.347415 73.289646 
L 201.818013 73.873679 
L 201.735187 73.963043 
L 201.143232 74.636441 
L 201.046403 74.753773 
L 200.572627 75.309838 
L 200.274793 75.690112 
L 200.03596 75.983235 
L 199.533838 76.656632 
L 199.503183 76.700584 
L 199.041752 77.330029 
L 198.731573 77.802792 
L 198.592208 78.003426 
L 198.164757 78.676823 
L 197.959963 79.037141 
L 197.769793 79.35022 
L 197.403391 80.023617 
L 197.188353 80.471513 
L 197.07163 80.697014 
L 196.761362 81.370411 
L 196.493767 82.043808 
L 196.416743 82.265676 
L 196.245767 82.717205 
L 196.027607 83.390602 
L 195.844134 84.063999 
L 195.692057 84.737396 
L 195.645133 84.99635 
L 195.562029 85.410793 
L 195.45962 86.08419 
L 195.389212 86.757588 
L 195.351931 87.430985 
L 195.350648 88.104382 
L 195.390344 88.777779 
L 195.478581 89.451176 
L 195.626124 90.124573 
L 195.645133 90.186674 
L 195.844479 90.79797 
L 196.161572 91.471367 
L 196.416743 91.873589 
L 196.612652 92.144764 
L 197.188353 92.754201 
L 197.26079 92.818161 
L 197.959963 93.325121 
L 198.252788 93.491558 
L 198.731573 93.728037 
L 199.503183 94.019706 
L 200.017539 94.164955 
z
M 203.192823 92.144764 
L 202.589623 91.987855 
L 201.818013 91.718892 
L 201.272071 91.471367 
L 201.046403 91.355891 
L 200.274793 90.859173 
L 200.195511 90.79797 
L 199.503183 90.143333 
L 199.486276 90.124573 
L 198.991408 89.451176 
L 198.731573 88.963134 
L 198.6413 88.777779 
L 198.394915 88.104382 
L 198.23238 87.430985 
L 198.137619 86.757588 
L 198.099519 86.08419 
L 198.110575 85.410793 
L 198.165963 84.737396 
L 198.262915 84.063999 
L 198.400322 83.390602 
L 198.578486 82.717205 
L 198.731573 82.248422 
L 198.793394 82.043808 
L 199.035236 81.370411 
L 199.319056 80.697014 
L 199.503183 80.316476 
L 199.636175 80.023617 
L 199.981511 79.35022 
L 200.274793 78.844959 
L 200.367402 78.676823 
L 200.776088 78.003426 
L 201.046403 77.602558 
L 201.222702 77.330029 
L 201.700218 76.656632 
L 201.818013 76.50261 
L 202.203109 75.983235 
L 202.589623 75.505299 
L 202.744093 75.309838 
L 203.315857 74.636441 
L 203.361233 74.585652 
L 203.909858 73.963043 
L 204.132843 73.724975 
L 204.537869 73.289646 
L 204.904452 72.915804 
L 205.198346 72.616249 
L 205.676062 72.150668 
L 205.891063 71.942852 
L 206.447672 71.424877 
L 206.617552 71.269455 
L 207.219282 70.736188 
L 207.381777 70.596058 
L 207.990892 70.084362 
L 208.191132 69.922661 
L 208.762502 69.470648 
L 209.057831 69.249264 
L 209.534112 68.897334 
L 210.000953 68.575867 
L 210.305722 68.367497 
L 211.049506 67.90247 
L 211.077332 67.885045 
L 211.848942 67.43762 
L 212.256517 67.229073 
L 212.620552 67.039772 
L 213.392162 66.688041 
L 213.728751 66.555676 
L 214.163772 66.378593 
L 214.935382 66.114009 
L 215.706992 65.899897 
L 215.786896 65.882279 
L 216.478602 65.719882 
L 217.250212 65.586896 
L 218.021822 65.50044 
L 218.793432 65.460091 
L 219.565042 65.467094 
L 220.336652 65.524558 
L 221.108262 65.637777 
L 221.879872 65.814741 
L 222.098156 65.882279 
L 222.651482 66.059883 
L 223.423092 66.393131 
L 223.72262 66.555676 
L 224.194702 66.838416 
L 224.722361 67.229073 
L 224.966312 67.43829 
L 225.429738 67.90247 
L 225.737922 68.280698 
L 225.954182 68.575867 
L 226.346653 69.249264 
L 226.509532 69.617192 
L 226.638912 69.922661 
L 226.851204 70.596058 
L 226.991749 71.269455 
L 227.070783 71.942852 
L 227.095595 72.616249 
L 227.071165 73.289646 
L 227.000609 73.963043 
L 226.885504 74.636441 
L 226.726096 75.309838 
L 226.521447 75.983235 
L 226.509532 76.015948 
L 226.290685 76.656632 
L 226.017567 77.330029 
L 225.737922 77.922398 
L 225.701393 78.003426 
L 225.364533 78.676823 
L 224.981426 79.35022 
L 224.966312 79.375067 
L 224.583304 80.023617 
L 224.194702 80.618399 
L 224.144337 80.697014 
L 223.691215 81.370411 
L 223.423092 81.743012 
L 223.208956 82.043808 
L 222.702943 82.717205 
L 222.651482 82.784014 
L 222.185756 83.390602 
L 221.879872 83.771337 
L 221.643717 84.063999 
L 221.108262 84.702637 
L 221.078754 84.737396 
L 220.499385 85.410793 
L 220.336652 85.594477 
L 219.892713 86.08419 
L 219.565042 86.434684 
L 219.252731 86.757588 
L 218.793432 87.218891 
L 218.572199 87.430985 
L 218.021822 87.944516 
L 217.839748 88.104382 
L 217.250212 88.609522 
L 217.038182 88.777779 
L 216.478602 89.212882 
L 216.141802 89.451176 
L 215.706992 89.754378 
L 215.112239 90.124573 
L 214.935382 90.233921 
L 214.163772 90.660719 
L 213.880124 90.79797 
L 213.392162 91.03633 
L 212.620552 91.359179 
L 212.306833 91.471367 
L 211.848942 91.639852 
L 211.077332 91.877587 
L 210.305722 92.070237 
L 209.931372 92.144764 
L 209.534112 92.228454 
L 208.762502 92.35217 
L 207.990892 92.438606 
L 207.219282 92.489578 
L 206.447672 92.505736 
L 205.676062 92.48647 
L 204.904452 92.42972 
L 204.132843 92.331654 
L 203.361233 92.186191 
z
" style="fill:#fcbba1;"/>
   </g>
   <g id="PathCollection_4">
    <path clip-path="url(#p34cc639b82)" d="M 203.361233 92.186191 
L 204.132843 92.331654 
L 204.904452 92.42972 
L 205.676062 92.48647 
L 206.447672 92.505736 
L 207.219282 92.489578 
L 207.990892 92.438606 
L 208.762502 92.35217 
L 209.534112 92.228454 
L 209.931372 92.144764 
L 210.305722 92.070237 
L 211.077332 91.877587 
L 211.848942 91.639852 
L 212.306833 91.471367 
L 212.620552 91.359179 
L 213.392162 91.03633 
L 213.880124 90.79797 
L 214.163772 90.660719 
L 214.935382 90.233921 
L 215.112239 90.124573 
L 215.706992 89.754378 
L 216.141802 89.451176 
L 216.478602 89.212882 
L 217.038182 88.777779 
L 217.250212 88.609522 
L 217.839748 88.104382 
L 218.021822 87.944516 
L 218.572199 87.430985 
L 218.793432 87.218891 
L 219.252731 86.757588 
L 219.565042 86.434684 
L 219.892713 86.08419 
L 220.336652 85.594477 
L 220.499385 85.410793 
L 221.078754 84.737396 
L 221.108262 84.702637 
L 221.643717 84.063999 
L 221.879872 83.771337 
L 222.185756 83.390602 
L 222.651482 82.784014 
L 222.702943 82.717205 
L 223.208956 82.043808 
L 223.423092 81.743012 
L 223.691215 81.370411 
L 224.144337 80.697014 
L 224.194702 80.618399 
L 224.583304 80.023617 
L 224.966312 79.375067 
L 224.981426 79.35022 
L 225.364533 78.676823 
L 225.701393 78.003426 
L 225.737922 77.922398 
L 226.017567 77.330029 
L 226.290685 76.656632 
L 226.509532 76.015948 
L 226.521447 75.983235 
L 226.726096 75.309838 
L 226.885504 74.636441 
L 227.000609 73.963043 
L 227.071165 73.289646 
L 227.095595 72.616249 
L 227.070783 71.942852 
L 226.991749 71.269455 
L 226.851204 70.596058 
L 226.638912 69.922661 
L 226.509532 69.617192 
L 226.346653 69.249264 
L 225.954182 68.575867 
L 225.737922 68.280698 
L 225.429738 67.90247 
L 224.966312 67.43829 
L 224.722361 67.229073 
L 224.194702 66.838416 
L 223.72262 66.555676 
L 223.423092 66.393131 
L 222.651482 66.059883 
L 222.098156 65.882279 
L 221.879872 65.814741 
L 221.108262 65.637777 
L 220.336652 65.524558 
L 219.565042 65.467094 
L 218.793432 65.460091 
L 218.021822 65.50044 
L 217.250212 65.586896 
L 216.478602 65.719882 
L 215.786896 65.882279 
L 215.706992 65.899897 
L 214.935382 66.114009 
L 214.163772 66.378593 
L 213.728751 66.555676 
L 213.392162 66.688041 
L 212.620552 67.039772 
L 212.256517 67.229073 
L 211.848942 67.43762 
L 211.077332 67.885045 
L 211.049506 67.90247 
L 210.305722 68.367497 
L 210.000953 68.575867 
L 209.534112 68.897334 
L 209.057831 69.249264 
L 208.762502 69.470648 
L 208.191132 69.922661 
L 207.990892 70.084362 
L 207.381777 70.596058 
L 207.219282 70.736188 
L 206.617552 71.269455 
L 206.447672 71.424877 
L 205.891063 71.942852 
L 205.676062 72.150668 
L 205.198346 72.616249 
L 204.904452 72.915804 
L 204.537869 73.289646 
L 204.132843 73.724975 
L 203.909858 73.963043 
L 203.361233 74.585652 
L 203.315857 74.636441 
L 202.744093 75.309838 
L 202.589623 75.505299 
L 202.203109 75.983235 
L 201.818013 76.50261 
L 201.700218 76.656632 
L 201.222702 77.330029 
L 201.046403 77.602558 
L 200.776088 78.003426 
L 200.367402 78.676823 
L 200.274793 78.844959 
L 199.981511 79.35022 
L 199.636175 80.023617 
L 199.503183 80.316476 
L 199.319056 80.697014 
L 199.035236 81.370411 
L 198.793394 82.043808 
L 198.731573 82.248422 
L 198.578486 82.717205 
L 198.400322 83.390602 
L 198.262915 84.063999 
L 198.165963 84.737396 
L 198.110575 85.410793 
L 198.099519 86.08419 
L 198.137619 86.757588 
L 198.23238 87.430985 
L 198.394915 88.104382 
L 198.6413 88.777779 
L 198.731573 88.963134 
L 198.991408 89.451176 
L 199.486276 90.124573 
L 199.503183 90.143333 
L 200.195511 90.79797 
L 200.274793 90.859173 
L 201.046403 91.355891 
L 201.272071 91.471367 
L 201.818013 91.718892 
L 202.589623 91.987855 
L 203.192823 92.144764 
z
M 203.665396 90.124573 
L 203.361233 89.995677 
L 202.589623 89.570131 
L 202.414888 89.451176 
L 201.818013 88.963229 
L 201.629003 88.777779 
L 201.090425 88.104382 
L 201.046403 88.032604 
L 200.715178 87.430985 
L 200.458789 86.757588 
L 200.29618 86.08419 
L 200.274793 85.924415 
L 200.207916 85.410793 
L 200.184848 84.737396 
L 200.219958 84.063999 
L 200.274793 83.649656 
L 200.306647 83.390602 
L 200.437516 82.717205 
L 200.613194 82.043808 
L 200.833444 81.370411 
L 201.046403 80.830372 
L 201.096238 80.697014 
L 201.38932 80.023617 
L 201.72757 79.35022 
L 201.818013 79.189675 
L 202.095737 78.676823 
L 202.505641 78.003426 
L 202.589623 77.877381 
L 202.944065 77.330029 
L 203.361233 76.747622 
L 203.425118 76.656632 
L 203.933744 75.983235 
L 204.132843 75.738903 
L 204.478725 75.309838 
L 204.904452 74.818065 
L 205.061148 74.636441 
L 205.676062 73.966364 
L 205.679121 73.963043 
L 206.326702 73.289646 
L 206.447672 73.169673 
L 207.0129 72.616249 
L 207.219282 72.422225 
L 207.74045 71.942852 
L 207.990892 71.720316 
L 208.515079 71.269455 
L 208.762502 71.062732 
L 209.347001 70.596058 
L 209.534112 70.450147 
L 210.25288 69.922661 
L 210.305722 69.884558 
L 211.077332 69.363513 
L 211.262431 69.249264 
L 211.848942 68.89027 
L 212.426314 68.575867 
L 212.620552 68.46998 
L 213.392162 68.096992 
L 213.862607 67.90247 
L 214.163772 67.775846 
L 214.935382 67.503057 
L 215.706992 67.28501 
L 215.965996 67.229073 
L 216.478602 67.113611 
L 217.250212 66.994001 
L 218.021822 66.928863 
L 218.793432 66.919779 
L 219.565042 66.970477 
L 220.336652 67.087228 
L 220.914998 67.229073 
L 221.108262 67.278727 
L 221.879872 67.557789 
L 222.568729 67.90247 
L 222.651482 67.948764 
L 223.423092 68.492955 
L 223.520066 68.575867 
L 224.174738 69.249264 
L 224.194702 69.274668 
L 224.644321 69.922661 
L 224.966312 70.557443 
L 224.984457 70.596058 
L 225.223996 71.269455 
L 225.378937 71.942852 
L 225.461563 72.616249 
L 225.480718 73.289646 
L 225.442576 73.963043 
L 225.3512 74.636441 
L 225.208925 75.309838 
L 225.016633 75.983235 
L 224.966312 76.124828 
L 224.785077 76.656632 
L 224.510145 77.330029 
L 224.194702 77.989035 
L 224.187985 78.003426 
L 223.837506 78.676823 
L 223.441336 79.35022 
L 223.423092 79.379095 
L 223.02052 80.023617 
L 222.651482 80.564185 
L 222.561039 80.697014 
L 222.077621 81.370411 
L 221.879872 81.631556 
L 221.566207 82.043808 
L 221.108262 82.616265 
L 221.026545 82.717205 
L 220.465702 83.390602 
L 220.336652 83.541169 
L 219.879693 84.063999 
L 219.565042 84.412965 
L 219.264122 84.737396 
L 218.793432 85.231146 
L 218.615471 85.410793 
L 218.021822 85.995306 
L 217.926899 86.08419 
L 217.250212 86.703383 
L 217.187061 86.757588 
L 216.478602 87.353039 
L 216.378159 87.430985 
L 215.706992 87.942485 
L 215.472739 88.104382 
L 214.935382 88.470677 
L 214.42849 88.777779 
L 214.163772 88.936927 
L 213.392162 89.345396 
L 213.161846 89.451176 
L 212.620552 89.701098 
L 211.848942 90.000657 
L 211.463283 90.124573 
L 211.077332 90.251296 
L 210.305722 90.454396 
L 209.534112 90.608007 
L 208.762502 90.714759 
L 207.990892 90.775715 
L 207.219282 90.790319 
L 206.447672 90.756225 
L 205.676062 90.668962 
L 204.904452 90.521388 
L 204.132843 90.302839 
z
" style="fill:#fc9b7c;"/>
   </g>
   <g id="PathCollection_5">
    <path clip-path="url(#p34cc639b82)" d="M 204.132843 90.302839 
L 204.904452 90.521388 
L 205.676062 90.668962 
L 206.447672 90.756225 
L 207.219282 90.790319 
L 207.990892 90.775715 
L 208.762502 90.714759 
L 209.534112 90.608007 
L 210.305722 90.454396 
L 211.077332 90.251296 
L 211.463283 90.124573 
L 211.848942 90.000657 
L 212.620552 89.701098 
L 213.161846 89.451176 
L 213.392162 89.345396 
L 214.163772 88.936927 
L 214.42849 88.777779 
L 214.935382 88.470677 
L 215.472739 88.104382 
L 215.706992 87.942485 
L 216.378159 87.430985 
L 216.478602 87.353039 
L 217.187061 86.757588 
L 217.250212 86.703383 
L 217.926899 86.08419 
L 218.021822 85.995306 
L 218.615471 85.410793 
L 218.793432 85.231146 
L 219.264122 84.737396 
L 219.565042 84.412965 
L 219.879693 84.063999 
L 220.336652 83.541169 
L 220.465702 83.390602 
L 221.026545 82.717205 
L 221.108262 82.616265 
L 221.566207 82.043808 
L 221.879872 81.631556 
L 222.077621 81.370411 
L 222.561039 80.697014 
L 222.651482 80.564185 
L 223.02052 80.023617 
L 223.423092 79.379095 
L 223.441336 79.35022 
L 223.837506 78.676823 
L 224.187985 78.003426 
L 224.194702 77.989035 
L 224.510145 77.330029 
L 224.785077 76.656632 
L 224.966312 76.124828 
L 225.016633 75.983235 
L 225.208925 75.309838 
L 225.3512 74.636441 
L 225.442576 73.963043 
L 225.480718 73.289646 
L 225.461563 72.616249 
L 225.378937 71.942852 
L 225.223996 71.269455 
L 224.984457 70.596058 
L 224.966312 70.557443 
L 224.644321 69.922661 
L 224.194702 69.274668 
L 224.174738 69.249264 
L 223.520066 68.575867 
L 223.423092 68.492955 
L 222.651482 67.948764 
L 222.568729 67.90247 
L 221.879872 67.557789 
L 221.108262 67.278727 
L 220.914998 67.229073 
L 220.336652 67.087228 
L 219.565042 66.970477 
L 218.793432 66.919779 
L 218.021822 66.928863 
L 217.250212 66.994001 
L 216.478602 67.113611 
L 215.965996 67.229073 
L 215.706992 67.28501 
L 214.935382 67.503057 
L 214.163772 67.775846 
L 213.862607 67.90247 
L 213.392162 68.096992 
L 212.620552 68.46998 
L 212.426314 68.575867 
L 211.848942 68.89027 
L 211.262431 69.249264 
L 211.077332 69.363513 
L 210.305722 69.884558 
L 210.25288 69.922661 
L 209.534112 70.450147 
L 209.347001 70.596058 
L 208.762502 71.062732 
L 208.515079 71.269455 
L 207.990892 71.720316 
L 207.74045 71.942852 
L 207.219282 72.422225 
L 207.0129 72.616249 
L 206.447672 73.169673 
L 206.326702 73.289646 
L 205.679121 73.963043 
L 205.676062 73.966364 
L 205.061148 74.636441 
L 204.904452 74.818065 
L 204.478725 75.309838 
L 204.132843 75.738903 
L 203.933744 75.983235 
L 203.425118 76.656632 
L 203.361233 76.747622 
L 202.944065 77.330029 
L 202.589623 77.877381 
L 202.505641 78.003426 
L 202.095737 78.676823 
L 201.818013 79.189675 
L 201.72757 79.35022 
L 201.38932 80.023617 
L 201.096238 80.697014 
L 201.046403 80.830372 
L 200.833444 81.370411 
L 200.613194 82.043808 
L 200.437516 82.717205 
L 200.306647 83.390602 
L 200.274793 83.649656 
L 200.219958 84.063999 
L 200.184848 84.737396 
L 200.207916 85.410793 
L 200.274793 85.924415 
L 200.29618 86.08419 
L 200.458789 86.757588 
L 200.715178 87.430985 
L 201.046403 88.032604 
L 201.090425 88.104382 
L 201.629003 88.777779 
L 201.818013 88.963229 
L 202.414888 89.451176 
L 202.589623 89.570131 
L 203.361233 89.995677 
L 203.665396 90.124573 
z
M 205.222858 88.777779 
L 204.904452 88.652849 
L 204.132843 88.2373 
L 203.939917 88.104382 
L 203.361233 87.616644 
L 203.181179 87.430985 
L 202.678797 86.757588 
L 202.589623 86.593867 
L 202.343604 86.08419 
L 202.128539 85.410793 
L 202.008269 84.737396 
L 201.966796 84.063999 
L 201.992673 83.390602 
L 202.077876 82.717205 
L 202.217057 82.043808 
L 202.407078 81.370411 
L 202.589623 80.857909 
L 202.644823 80.697014 
L 202.922608 80.023617 
L 203.246419 79.35022 
L 203.361233 79.140457 
L 203.608975 78.676823 
L 204.013385 78.003426 
L 204.132843 77.823165 
L 204.455158 77.330029 
L 204.904452 76.705827 
L 204.939669 76.656632 
L 205.458253 75.983235 
L 205.676062 75.720574 
L 206.017516 75.309838 
L 206.447672 74.825283 
L 206.616974 74.636441 
L 207.219282 74.001551 
L 207.256461 73.963043 
L 207.937074 73.289646 
L 207.990892 73.238562 
L 208.665008 72.616249 
L 208.762502 72.529568 
L 209.44873 71.942852 
L 209.534112 71.872171 
L 210.301708 71.269455 
L 210.305722 71.266387 
L 211.077332 70.711561 
L 211.252147 70.596058 
L 211.848942 70.20974 
L 212.342748 69.922661 
L 212.620552 69.763235 
L 213.392162 69.372471 
L 213.674943 69.249264 
L 214.163772 69.036447 
L 214.935382 68.758367 
L 215.576356 68.575867 
L 215.706992 68.538075 
L 216.478602 68.374562 
L 217.250212 68.272736 
L 218.021822 68.234789 
L 218.793432 68.2653 
L 219.565042 68.371726 
L 220.336652 68.565134 
L 220.366649 68.575867 
L 221.108262 68.869177 
L 221.785869 69.249264 
L 221.879872 69.310802 
L 222.608967 69.922661 
L 222.651482 69.967146 
L 223.155637 70.596058 
L 223.423092 71.050259 
L 223.537822 71.269455 
L 223.7921 71.942852 
L 223.948611 72.616249 
L 224.022105 73.289646 
L 224.023353 73.963043 
L 223.960088 74.636441 
L 223.837668 75.309838 
L 223.659546 75.983235 
L 223.427596 76.656632 
L 223.423092 76.667419 
L 223.150935 77.330029 
L 222.826207 78.003426 
L 222.651482 78.32248 
L 222.458059 78.676823 
L 222.049953 79.35022 
L 221.879872 79.607982 
L 221.603945 80.023617 
L 221.12125 80.697014 
L 221.108262 80.7143 
L 220.608813 81.370411 
L 220.336652 81.709745 
L 220.063312 82.043808 
L 219.565042 82.628153 
L 219.487014 82.717205 
L 218.880374 83.390602 
L 218.793432 83.484723 
L 218.238863 84.063999 
L 218.021822 84.284915 
L 217.556326 84.737396 
L 217.250212 85.028138 
L 216.823134 85.410793 
L 216.478602 85.713014 
L 216.023504 86.08419 
L 215.706992 86.337424 
L 215.132538 86.757588 
L 214.935382 86.89943 
L 214.163772 87.398384 
L 214.107078 87.430985 
L 213.392162 87.838089 
L 212.846972 88.104382 
L 212.620552 88.214611 
L 211.848942 88.532817 
L 211.116418 88.777779 
L 211.077332 88.790973 
L 210.305722 88.994757 
L 209.534112 89.140298 
L 208.762502 89.228232 
L 207.990892 89.257082 
L 207.219282 89.223011 
L 206.447672 89.119366 
L 205.676062 88.935927 
z
" style="fill:#fb7a5a;"/>
   </g>
   <g id="PathCollection_6">
    <path clip-path="url(#p34cc639b82)" d="M 205.676062 88.935927 
L 206.447672 89.119366 
L 207.219282 89.223011 
L 207.990892 89.257082 
L 208.762502 89.228232 
L 209.534112 89.140298 
L 210.305722 88.994757 
L 211.077332 88.790973 
L 211.116418 88.777779 
L 211.848942 88.532817 
L 212.620552 88.214611 
L 212.846972 88.104382 
L 213.392162 87.838089 
L 214.107078 87.430985 
L 214.163772 87.398384 
L 214.935382 86.89943 
L 215.132538 86.757588 
L 215.706992 86.337424 
L 216.023504 86.08419 
L 216.478602 85.713014 
L 216.823134 85.410793 
L 217.250212 85.028138 
L 217.556326 84.737396 
L 218.021822 84.284915 
L 218.238863 84.063999 
L 218.793432 83.484723 
L 218.880374 83.390602 
L 219.487014 82.717205 
L 219.565042 82.628153 
L 220.063312 82.043808 
L 220.336652 81.709745 
L 220.608813 81.370411 
L 221.108262 80.7143 
L 221.12125 80.697014 
L 221.603945 80.023617 
L 221.879872 79.607982 
L 222.049953 79.35022 
L 222.458059 78.676823 
L 222.651482 78.32248 
L 222.826207 78.003426 
L 223.150935 77.330029 
L 223.423092 76.667419 
L 223.427596 76.656632 
L 223.659546 75.983235 
L 223.837668 75.309838 
L 223.960088 74.636441 
L 224.023353 73.963043 
L 224.022105 73.289646 
L 223.948611 72.616249 
L 223.7921 71.942852 
L 223.537822 71.269455 
L 223.423092 71.050259 
L 223.155637 70.596058 
L 222.651482 69.967146 
L 222.608967 69.922661 
L 221.879872 69.310802 
L 221.785869 69.249264 
L 221.108262 68.869177 
L 220.366649 68.575867 
L 220.336652 68.565134 
L 219.565042 68.371726 
L 218.793432 68.2653 
L 218.021822 68.234789 
L 217.250212 68.272736 
L 216.478602 68.374562 
L 215.706992 68.538075 
L 215.576356 68.575867 
L 214.935382 68.758367 
L 214.163772 69.036447 
L 213.674943 69.249264 
L 213.392162 69.372471 
L 212.620552 69.763235 
L 212.342748 69.922661 
L 211.848942 70.20974 
L 211.252147 70.596058 
L 211.077332 70.711561 
L 210.305722 71.266387 
L 210.301708 71.269455 
L 209.534112 71.872171 
L 209.44873 71.942852 
L 208.762502 72.529568 
L 208.665008 72.616249 
L 207.990892 73.238562 
L 207.937074 73.289646 
L 207.256461 73.963043 
L 207.219282 74.001551 
L 206.616974 74.636441 
L 206.447672 74.825283 
L 206.017516 75.309838 
L 205.676062 75.720574 
L 205.458253 75.983235 
L 204.939669 76.656632 
L 204.904452 76.705827 
L 204.455158 77.330029 
L 204.132843 77.823165 
L 204.013385 78.003426 
L 203.608975 78.676823 
L 203.361233 79.140457 
L 203.246419 79.35022 
L 202.922608 80.023617 
L 202.644823 80.697014 
L 202.589623 80.857909 
L 202.407078 81.370411 
L 202.217057 82.043808 
L 202.077876 82.717205 
L 201.992673 83.390602 
L 201.966796 84.063999 
L 202.008269 84.737396 
L 202.128539 85.410793 
L 202.343604 86.08419 
L 202.589623 86.593867 
L 202.678797 86.757588 
L 203.181179 87.430985 
L 203.361233 87.616644 
L 203.939917 88.104382 
L 204.132843 88.2373 
L 204.904452 88.652849 
L 205.222858 88.777779 
z
M 206.469185 87.430985 
L 206.447672 87.424225 
L 205.676062 87.061505 
L 205.221345 86.757588 
L 204.904452 86.490707 
L 204.526983 86.08419 
L 204.132843 85.491553 
L 204.087563 85.410793 
L 203.822937 84.737396 
L 203.67379 84.063999 
L 203.619006 83.390602 
L 203.643289 82.717205 
L 203.73572 82.043808 
L 203.888803 81.370411 
L 204.097822 80.697014 
L 204.132843 80.607959 
L 204.358829 80.023617 
L 204.667977 79.35022 
L 204.904452 78.905095 
L 205.024986 78.676823 
L 205.426483 78.003426 
L 205.676062 77.62704 
L 205.87352 77.330029 
L 206.363779 76.656632 
L 206.447672 76.550075 
L 206.898408 75.983235 
L 207.219282 75.607267 
L 207.477595 75.309838 
L 207.990892 74.753794 
L 208.102015 74.636441 
L 208.762502 73.974863 
L 208.774719 73.963043 
L 209.503202 73.289646 
L 209.534112 73.262222 
L 210.297642 72.616249 
L 210.305722 72.609657 
L 211.077332 72.016846 
L 211.181449 71.942852 
L 211.848942 71.483307 
L 212.192283 71.269455 
L 212.620552 71.009573 
L 213.392162 70.597137 
L 213.394512 70.596058 
L 214.163772 70.249025 
L 214.935382 69.963851 
L 215.080207 69.922661 
L 215.706992 69.745306 
L 216.478602 69.595465 
L 217.250212 69.517477 
L 218.021822 69.517611 
L 218.793432 69.605505 
L 219.565042 69.795104 
L 219.895639 69.922661 
L 220.336652 70.119639 
L 221.074089 70.596058 
L 221.108262 70.623442 
L 221.733635 71.269455 
L 221.879872 71.475236 
L 222.158852 71.942852 
L 222.429149 72.616249 
L 222.583177 73.289646 
L 222.640058 73.963043 
L 222.613977 74.636441 
L 222.515403 75.309838 
L 222.351939 75.983235 
L 222.128913 76.656632 
L 221.879872 77.257443 
L 221.849572 77.330029 
L 221.51704 78.003426 
L 221.136883 78.676823 
L 221.108262 78.722603 
L 220.709595 79.35022 
L 220.336652 79.888407 
L 220.24071 80.023617 
L 219.731758 80.697014 
L 219.565042 80.906065 
L 219.183825 81.370411 
L 218.793432 81.825528 
L 218.599278 82.043808 
L 218.021822 82.670918 
L 217.977255 82.717205 
L 217.311485 83.390602 
L 217.250212 83.451091 
L 216.594118 84.063999 
L 216.478602 84.169494 
L 215.812763 84.737396 
L 215.706992 84.825769 
L 214.945284 85.410793 
L 214.935382 85.418258 
L 214.163772 85.945759 
L 213.934788 86.08419 
L 213.392162 86.407388 
L 212.709309 86.757588 
L 212.620552 86.802633 
L 211.848942 87.131109 
L 211.077332 87.393879 
L 210.930607 87.430985 
L 210.305722 87.589211 
L 209.534112 87.715623 
L 208.762502 87.770411 
L 207.990892 87.747528 
L 207.219282 87.63716 
z
" style="fill:#f6583e;"/>
   </g>
   <g id="PathCollection_7">
    <path clip-path="url(#p34cc639b82)" d="M 207.219282 87.63716 
L 207.990892 87.747528 
L 208.762502 87.770411 
L 209.534112 87.715623 
L 210.305722 87.589211 
L 210.930607 87.430985 
L 211.077332 87.393879 
L 211.848942 87.131109 
L 212.620552 86.802633 
L 212.709309 86.757588 
L 213.392162 86.407388 
L 213.934788 86.08419 
L 214.163772 85.945759 
L 214.935382 85.418258 
L 214.945284 85.410793 
L 215.706992 84.825769 
L 215.812763 84.737396 
L 216.478602 84.169494 
L 216.594118 84.063999 
L 217.250212 83.451091 
L 217.311485 83.390602 
L 217.977255 82.717205 
L 218.021822 82.670918 
L 218.599278 82.043808 
L 218.793432 81.825528 
L 219.183825 81.370411 
L 219.565042 80.906065 
L 219.731758 80.697014 
L 220.24071 80.023617 
L 220.336652 79.888407 
L 220.709595 79.35022 
L 221.108262 78.722603 
L 221.136883 78.676823 
L 221.51704 78.003426 
L 221.849572 77.330029 
L 221.879872 77.257443 
L 222.128913 76.656632 
L 222.351939 75.983235 
L 222.515403 75.309838 
L 222.613977 74.636441 
L 222.640058 73.963043 
L 222.583177 73.289646 
L 222.429149 72.616249 
L 222.158852 71.942852 
L 221.879872 71.475236 
L 221.733635 71.269455 
L 221.108262 70.623442 
L 221.074089 70.596058 
L 220.336652 70.119639 
L 219.895639 69.922661 
L 219.565042 69.795104 
L 218.793432 69.605505 
L 218.021822 69.517611 
L 217.250212 69.517477 
L 216.478602 69.595465 
L 215.706992 69.745306 
L 215.080207 69.922661 
L 214.935382 69.963851 
L 214.163772 70.249025 
L 213.394512 70.596058 
L 213.392162 70.597137 
L 212.620552 71.009573 
L 212.192283 71.269455 
L 211.848942 71.483307 
L 211.181449 71.942852 
L 211.077332 72.016846 
L 210.305722 72.609657 
L 210.297642 72.616249 
L 209.534112 73.262222 
L 209.503202 73.289646 
L 208.774719 73.963043 
L 208.762502 73.974863 
L 208.102015 74.636441 
L 207.990892 74.753794 
L 207.477595 75.309838 
L 207.219282 75.607267 
L 206.898408 75.983235 
L 206.447672 76.550075 
L 206.363779 76.656632 
L 205.87352 77.330029 
L 205.676062 77.62704 
L 205.426483 78.003426 
L 205.024986 78.676823 
L 204.904452 78.905095 
L 204.667977 79.35022 
L 204.358829 80.023617 
L 204.132843 80.607959 
L 204.097822 80.697014 
L 203.888803 81.370411 
L 203.73572 82.043808 
L 203.643289 82.717205 
L 203.619006 83.390602 
L 203.67379 84.063999 
L 203.822937 84.737396 
L 204.087563 85.410793 
L 204.132843 85.491553 
L 204.526983 86.08419 
L 204.904452 86.490707 
L 205.221345 86.757588 
L 205.676062 87.061505 
L 206.447672 87.424225 
L 206.469185 87.430985 
z
M 207.907359 86.08419 
L 207.219282 85.834797 
L 206.520033 85.410793 
L 206.447672 85.353072 
L 205.890886 84.737396 
L 205.676062 84.376769 
L 205.526461 84.063999 
L 205.335807 83.390602 
L 205.262404 82.717205 
L 205.284223 82.043808 
L 205.385561 81.370411 
L 205.555523 80.697014 
L 205.676062 80.351063 
L 205.790886 80.023617 
L 206.08545 79.35022 
L 206.430613 78.676823 
L 206.447672 78.648039 
L 206.834742 78.003426 
L 207.219282 77.426859 
L 207.285266 77.330029 
L 207.790014 76.656632 
L 207.990892 76.409194 
L 208.346299 75.983235 
L 208.762502 75.516899 
L 208.954048 75.309838 
L 209.534112 74.718563 
L 209.618463 74.636441 
L 210.305722 74.001339 
L 210.349665 73.963043 
L 211.077332 73.358111 
L 211.166107 73.289646 
L 211.848942 72.785222 
L 212.100784 72.616249 
L 212.620552 72.280798 
L 213.212875 71.942852 
L 213.392162 71.843938 
L 214.163772 71.482815 
L 214.72597 71.269455 
L 214.935382 71.192088 
L 215.706992 70.983415 
L 216.478602 70.854833 
L 217.250212 70.815973 
L 218.021822 70.880933 
L 218.793432 71.069648 
L 219.261801 71.269455 
L 219.565042 71.429357 
L 220.21937 71.942852 
L 220.336652 72.068725 
L 220.728631 72.616249 
L 221.032697 73.289646 
L 221.108262 73.603971 
L 221.182345 73.963043 
L 221.217352 74.636441 
L 221.160744 75.309838 
L 221.108262 75.56493 
L 221.020313 75.983235 
L 220.806032 76.656632 
L 220.52955 77.330029 
L 220.336652 77.718539 
L 220.190878 78.003426 
L 219.795291 78.676823 
L 219.565042 79.028927 
L 219.3473 79.35022 
L 218.853097 80.023617 
L 218.793432 80.099702 
L 218.305933 80.697014 
L 218.021822 81.028503 
L 217.71453 81.370411 
L 217.250212 81.867668 
L 217.076189 82.043808 
L 216.478602 82.630222 
L 216.383753 82.717205 
L 215.706992 83.321642 
L 215.623182 83.390602 
L 214.935382 83.943254 
L 214.769301 84.063999 
L 214.163772 84.494711 
L 213.77813 84.737396 
L 213.392162 84.975503 
L 212.620552 85.384696 
L 212.560507 85.410793 
L 211.848942 85.714829 
L 211.077332 85.971202 
L 210.583726 86.08419 
L 210.305722 86.147112 
L 209.534112 86.234123 
L 208.762502 86.226632 
L 207.990892 86.109369 
z
" style="fill:#e83429;"/>
   </g>
   <g id="PathCollection_8">
    <path clip-path="url(#p34cc639b82)" d="M 207.990892 86.109369 
L 208.762502 86.226632 
L 209.534112 86.234123 
L 210.305722 86.147112 
L 210.583726 86.08419 
L 211.077332 85.971202 
L 211.848942 85.714829 
L 212.560507 85.410793 
L 212.620552 85.384696 
L 213.392162 84.975503 
L 213.77813 84.737396 
L 214.163772 84.494711 
L 214.769301 84.063999 
L 214.935382 83.943254 
L 215.623182 83.390602 
L 215.706992 83.321642 
L 216.383753 82.717205 
L 216.478602 82.630222 
L 217.076189 82.043808 
L 217.250212 81.867668 
L 217.71453 81.370411 
L 218.021822 81.028503 
L 218.305933 80.697014 
L 218.793432 80.099702 
L 218.853097 80.023617 
L 219.3473 79.35022 
L 219.565042 79.028927 
L 219.795291 78.676823 
L 220.190878 78.003426 
L 220.336652 77.718539 
L 220.52955 77.330029 
L 220.806032 76.656632 
L 221.020313 75.983235 
L 221.108262 75.56493 
L 221.160744 75.309838 
L 221.217352 74.636441 
L 221.182345 73.963043 
L 221.108262 73.603971 
L 221.032697 73.289646 
L 220.728631 72.616249 
L 220.336652 72.068725 
L 220.21937 71.942852 
L 219.565042 71.429357 
L 219.261801 71.269455 
L 218.793432 71.069648 
L 218.021822 70.880933 
L 217.250212 70.815973 
L 216.478602 70.854833 
L 215.706992 70.983415 
L 214.935382 71.192088 
L 214.72597 71.269455 
L 214.163772 71.482815 
L 213.392162 71.843938 
L 213.212875 71.942852 
L 212.620552 72.280798 
L 212.100784 72.616249 
L 211.848942 72.785222 
L 211.166107 73.289646 
L 211.077332 73.358111 
L 210.349665 73.963043 
L 210.305722 74.001339 
L 209.618463 74.636441 
L 209.534112 74.718563 
L 208.954048 75.309838 
L 208.762502 75.516899 
L 208.346299 75.983235 
L 207.990892 76.409194 
L 207.790014 76.656632 
L 207.285266 77.330029 
L 207.219282 77.426859 
L 206.834742 78.003426 
L 206.447672 78.648039 
L 206.430613 78.676823 
L 206.08545 79.35022 
L 205.790886 80.023617 
L 205.676062 80.351063 
L 205.555523 80.697014 
L 205.385561 81.370411 
L 205.284223 82.043808 
L 205.262404 82.717205 
L 205.335807 83.390602 
L 205.526461 84.063999 
L 205.676062 84.376769 
L 205.890886 84.737396 
L 206.447672 85.353072 
L 206.520033 85.410793 
L 207.219282 85.834797 
L 207.907359 86.08419 
z
M 208.172228 84.063999 
L 207.990892 83.940314 
L 207.490111 83.390602 
L 207.219282 82.870358 
L 207.159985 82.717205 
L 207.039242 82.043808 
L 207.042665 81.370411 
L 207.144538 80.697014 
L 207.219282 80.430272 
L 207.337438 80.023617 
L 207.607056 79.35022 
L 207.93517 78.676823 
L 207.990892 78.581332 
L 208.340678 78.003426 
L 208.762502 77.377755 
L 208.796177 77.330029 
L 209.326213 76.656632 
L 209.534112 76.412839 
L 209.919444 75.983235 
L 210.305722 75.58082 
L 210.582509 75.309838 
L 211.077332 74.854052 
L 211.332586 74.636441 
L 211.848942 74.220313 
L 212.201003 73.963043 
L 212.620552 73.672187 
L 213.246143 73.289646 
L 213.392162 73.20463 
L 214.163772 72.831457 
L 214.727745 72.616249 
L 214.935382 72.540735 
L 215.706992 72.355824 
L 216.478602 72.275108 
L 217.250212 72.321867 
L 218.021822 72.529535 
L 218.19594 72.616249 
L 218.793432 73.024753 
L 219.044991 73.289646 
L 219.443757 73.963043 
L 219.565042 74.390985 
L 219.619723 74.636441 
L 219.642101 75.309838 
L 219.565042 75.906349 
L 219.554511 75.983235 
L 219.361029 76.656632 
L 219.09116 77.330029 
L 218.793432 77.929475 
L 218.754528 78.003426 
L 218.336067 78.676823 
L 218.021822 79.133115 
L 217.863123 79.35022 
L 217.329752 80.023617 
L 217.250212 80.117391 
L 216.726798 80.697014 
L 216.478602 80.959738 
L 216.061274 81.370411 
L 215.706992 81.706546 
L 215.31941 82.043808 
L 214.935382 82.367693 
L 214.475386 82.717205 
L 214.163772 82.947375 
L 213.481917 83.390602 
L 213.392162 83.447429 
L 212.620552 83.855479 
L 212.129644 84.063999 
L 211.848942 84.180078 
L 211.077332 84.403403 
L 210.305722 84.524475 
L 209.534112 84.519592 
L 208.762502 84.351874 
z
" style="fill:#ca181d;"/>
   </g>
   <g id="PathCollection_9">
    <path clip-path="url(#p34cc639b82)" d="M 208.762502 84.351874 
L 209.534112 84.519592 
L 210.305722 84.524475 
L 211.077332 84.403403 
L 211.848942 84.180078 
L 212.129644 84.063999 
L 212.620552 83.855479 
L 213.392162 83.447429 
L 213.481917 83.390602 
L 214.163772 82.947375 
L 214.475386 82.717205 
L 214.935382 82.367693 
L 215.31941 82.043808 
L 215.706992 81.706546 
L 216.061274 81.370411 
L 216.478602 80.959738 
L 216.726798 80.697014 
L 217.250212 80.117391 
L 217.329752 80.023617 
L 217.863123 79.35022 
L 218.021822 79.133115 
L 218.336067 78.676823 
L 218.754528 78.003426 
L 218.793432 77.929475 
L 219.09116 77.330029 
L 219.361029 76.656632 
L 219.554511 75.983235 
L 219.565042 75.906349 
L 219.642101 75.309838 
L 219.619723 74.636441 
L 219.565042 74.390985 
L 219.443757 73.963043 
L 219.044991 73.289646 
L 218.793432 73.024753 
L 218.19594 72.616249 
L 218.021822 72.529535 
L 217.250212 72.321867 
L 216.478602 72.275108 
L 215.706992 72.355824 
L 214.935382 72.540735 
L 214.727745 72.616249 
L 214.163772 72.831457 
L 213.392162 73.20463 
L 213.246143 73.289646 
L 212.620552 73.672187 
L 212.201003 73.963043 
L 211.848942 74.220313 
L 211.332586 74.636441 
L 211.077332 74.854052 
L 210.582509 75.309838 
L 210.305722 75.58082 
L 209.919444 75.983235 
L 209.534112 76.412839 
L 209.326213 76.656632 
L 208.796177 77.330029 
L 208.762502 77.377755 
L 208.340678 78.003426 
L 207.990892 78.581332 
L 207.93517 78.676823 
L 207.607056 79.35022 
L 207.337438 80.023617 
L 207.219282 80.430272 
L 207.144538 80.697014 
L 207.042665 81.370411 
L 207.039242 82.043808 
L 207.159985 82.717205 
L 207.219282 82.870358 
L 207.490111 83.390602 
L 207.990892 83.940314 
L 208.172228 84.063999 
z
M 209.888517 82.043808 
L 209.534112 81.697185 
L 209.356848 81.370411 
L 209.233978 80.697014 
L 209.290627 80.023617 
L 209.470329 79.35022 
L 209.534112 79.201456 
L 209.778352 78.676823 
L 210.16464 78.003426 
L 210.305722 77.798055 
L 210.655056 77.330029 
L 211.077332 76.820216 
L 211.226907 76.656632 
L 211.848942 76.03645 
L 211.909178 75.983235 
L 212.620552 75.406325 
L 212.759254 75.309838 
L 213.392162 74.904068 
L 213.903616 74.636441 
L 214.163772 74.510603 
L 214.935382 74.259008 
L 215.706992 74.149784 
L 216.478602 74.253937 
L 217.159582 74.636441 
L 217.250212 74.733871 
L 217.546023 75.309838 
L 217.630022 75.983235 
L 217.535587 76.656632 
L 217.318596 77.330029 
L 217.250212 77.472189 
L 216.968423 78.003426 
L 216.545066 78.676823 
L 216.478602 78.766949 
L 216.005106 79.35022 
L 215.706992 79.689623 
L 215.379411 80.023617 
L 214.935382 80.449026 
L 214.640515 80.697014 
L 214.163772 81.077594 
L 213.733651 81.370411 
L 213.392162 81.592325 
L 212.620552 81.996823 
L 212.486981 82.043808 
L 211.848942 82.256744 
L 211.077332 82.367477 
L 210.305722 82.265073 
z
" style="fill:#ac1117;"/>
   </g>
   <g id="PathCollection_10">
    <path clip-path="url(#p34cc639b82)" d="M 210.305722 82.265073 
L 211.077332 82.367477 
L 211.848942 82.256744 
L 212.486981 82.043808 
L 212.620552 81.996823 
L 213.392162 81.592325 
L 213.733651 81.370411 
L 214.163772 81.077594 
L 214.640515 80.697014 
L 214.935382 80.449026 
L 215.379411 80.023617 
L 215.706992 79.689623 
L 216.005106 79.35022 
L 216.478602 78.766949 
L 216.545066 78.676823 
L 216.968423 78.003426 
L 217.250212 77.472189 
L 217.318596 77.330029 
L 217.535587 76.656632 
L 217.630022 75.983235 
L 217.546023 75.309838 
L 217.250212 74.733871 
L 217.159582 74.636441 
L 216.478602 74.253937 
L 215.706992 74.149784 
L 214.935382 74.259008 
L 214.163772 74.510603 
L 213.903616 74.636441 
L 213.392162 74.904068 
L 212.759254 75.309838 
L 212.620552 75.406325 
L 211.909178 75.983235 
L 211.848942 76.03645 
L 211.226907 76.656632 
L 211.077332 76.820216 
L 210.655056 77.330029 
L 210.305722 77.798055 
L 210.16464 78.003426 
L 209.778352 78.676823 
L 209.534112 79.201456 
L 209.470329 79.35022 
L 209.290627 80.023617 
L 209.233978 80.697014 
L 209.356848 81.370411 
L 209.534112 81.697185 
L 209.888517 82.043808 
z
" style="fill:#7e0610;"/>
   </g>
   <g id="matplotlib.axis_1">
    <g id="xtick_1">
     <g id="line2d_1">
      <defs>
       <path d="M 0 0 
L 0 3.5 
" id="m97abedb236" style="stroke:#262626;stroke-width:0.8;"/>
      </defs>
      <g>
       <use style="fill:#262626;stroke:#262626;stroke-width:0.8;" x="67.334837" xlink:href="#m97abedb236" y="223"/>
      </g>
     </g>
     <g id="line2d_2">
      <defs>
       <path d="M 0 0 
L 0 -3.5 
" id="mf1a1cf0615" style="stroke:#262626;stroke-width:0.8;"/>
      </defs>
      <g>
       <use style="fill:#262626;stroke:#262626;stroke-width:0.8;" x="67.334837" xlink:href="#mf1a1cf0615" y="25.44"/>
      </g>
     </g>
     <g id="text_1">
      <!-- 0.0 -->
      <defs>
       <path d="M 31.78125 66.40625 
Q 24.171875 66.40625 20.328125 58.90625 
Q 16.5 51.421875 16.5 36.375 
Q 16.5 21.390625 20.328125 13.890625 
Q 24.171875 6.390625 31.78125 6.390625 
Q 39.453125 6.390625 43.28125 13.890625 
Q 47.125 21.390625 47.125 36.375 
Q 47.125 51.421875 43.28125 58.90625 
Q 39.453125 66.40625 31.78125 66.40625 
z
M 31.78125 74.21875 
Q 44.046875 74.21875 50.515625 64.515625 
Q 56.984375 54.828125 56.984375 36.375 
Q 56.984375 17.96875 50.515625 8.265625 
Q 44.046875 -1.421875 31.78125 -1.421875 
Q 19.53125 -1.421875 13.0625 8.265625 
Q 6.59375 17.96875 6.59375 36.375 
Q 6.59375 54.828125 13.0625 64.515625 
Q 19.53125 74.21875 31.78125 74.21875 
z
" id="DejaVuSans-30"/>
       <path d="M 10.6875 12.40625 
L 21 12.40625 
L 21 0 
L 10.6875 0 
z
" id="DejaVuSans-2e"/>
      </defs>
      <g style="fill:#262626;" transform="translate(58.588118 238.358281)scale(0.11 -0.11)">
       <use xlink:href="#DejaVuSans-30"/>
       <use x="63.623047" xlink:href="#DejaVuSans-2e"/>
       <use x="95.410156" xlink:href="#DejaVuSans-30"/>
      </g>
     </g>
    </g>
    <g id="xtick_2">
     <g id="line2d_3">
      <g>
       <use style="fill:#262626;stroke:#262626;stroke-width:0.8;" x="106.432402" xlink:href="#m97abedb236" y="223"/>
      </g>
     </g>
     <g id="line2d_4">
      <g>
       <use style="fill:#262626;stroke:#262626;stroke-width:0.8;" x="106.432402" xlink:href="#mf1a1cf0615" y="25.44"/>
      </g>
     </g>
     <g id="text_2">
      <!-- 1.0 -->
      <defs>
       <path d="M 12.40625 8.296875 
L 28.515625 8.296875 
L 28.515625 63.921875 
L 10.984375 60.40625 
L 10.984375 69.390625 
L 28.421875 72.90625 
L 38.28125 72.90625 
L 38.28125 8.296875 
L 54.390625 8.296875 
L 54.390625 0 
L 12.40625 0 
z
" id="DejaVuSans-31"/>
      </defs>
      <g style="fill:#262626;" transform="translate(97.685684 238.358281)scale(0.11 -0.11)">
       <use xlink:href="#DejaVuSans-31"/>
       <use x="63.623047" xlink:href="#DejaVuSans-2e"/>
       <use x="95.410156" xlink:href="#DejaVuSans-30"/>
      </g>
     </g>
    </g>
    <g id="xtick_3">
     <g id="line2d_5">
      <g>
       <use style="fill:#262626;stroke:#262626;stroke-width:0.8;" x="145.529968" xlink:href="#m97abedb236" y="223"/>
      </g>
     </g>
     <g id="line2d_6">
      <g>
       <use style="fill:#262626;stroke:#262626;stroke-width:0.8;" x="145.529968" xlink:href="#mf1a1cf0615" y="25.44"/>
      </g>
     </g>
     <g id="text_3">
      <!-- 2.0 -->
      <defs>
       <path d="M 19.1875 8.296875 
L 53.609375 8.296875 
L 53.609375 0 
L 7.328125 0 
L 7.328125 8.296875 
Q 12.9375 14.109375 22.625 23.890625 
Q 32.328125 33.6875 34.8125 36.53125 
Q 39.546875 41.84375 41.421875 45.53125 
Q 43.3125 49.21875 43.3125 52.78125 
Q 43.3125 58.59375 39.234375 62.25 
Q 35.15625 65.921875 28.609375 65.921875 
Q 23.96875 65.921875 18.8125 64.3125 
Q 13.671875 62.703125 7.8125 59.421875 
L 7.8125 69.390625 
Q 13.765625 71.78125 18.9375 73 
Q 24.125 74.21875 28.421875 74.21875 
Q 39.75 74.21875 46.484375 68.546875 
Q 53.21875 62.890625 53.21875 53.421875 
Q 53.21875 48.921875 51.53125 44.890625 
Q 49.859375 40.875 45.40625 35.40625 
Q 44.1875 33.984375 37.640625 27.21875 
Q 31.109375 20.453125 19.1875 8.296875 
z
" id="DejaVuSans-32"/>
      </defs>
      <g style="fill:#262626;" transform="translate(136.783249 238.358281)scale(0.11 -0.11)">
       <use xlink:href="#DejaVuSans-32"/>
       <use x="63.623047" xlink:href="#DejaVuSans-2e"/>
       <use x="95.410156" xlink:href="#DejaVuSans-30"/>
      </g>
     </g>
    </g>
    <g id="xtick_4">
     <g id="line2d_7">
      <g>
       <use style="fill:#262626;stroke:#262626;stroke-width:0.8;" x="184.627533" xlink:href="#m97abedb236" y="223"/>
      </g>
     </g>
     <g id="line2d_8">
      <g>
       <use style="fill:#262626;stroke:#262626;stroke-width:0.8;" x="184.627533" xlink:href="#mf1a1cf0615" y="25.44"/>
      </g>
     </g>
     <g id="text_4">
      <!-- 3.0 -->
      <defs>
       <path d="M 40.578125 39.3125 
Q 47.65625 37.796875 51.625 33 
Q 55.609375 28.21875 55.609375 21.1875 
Q 55.609375 10.40625 48.1875 4.484375 
Q 40.765625 -1.421875 27.09375 -1.421875 
Q 22.515625 -1.421875 17.65625 -0.515625 
Q 12.796875 0.390625 7.625 2.203125 
L 7.625 11.71875 
Q 11.71875 9.328125 16.59375 8.109375 
Q 21.484375 6.890625 26.8125 6.890625 
Q 36.078125 6.890625 40.9375 10.546875 
Q 45.796875 14.203125 45.796875 21.1875 
Q 45.796875 27.640625 41.28125 31.265625 
Q 36.765625 34.90625 28.71875 34.90625 
L 20.21875 34.90625 
L 20.21875 43.015625 
L 29.109375 43.015625 
Q 36.375 43.015625 40.234375 45.921875 
Q 44.09375 48.828125 44.09375 54.296875 
Q 44.09375 59.90625 40.109375 62.90625 
Q 36.140625 65.921875 28.71875 65.921875 
Q 24.65625 65.921875 20.015625 65.03125 
Q 15.375 64.15625 9.8125 62.3125 
L 9.8125 71.09375 
Q 15.4375 72.65625 20.34375 73.4375 
Q 25.25 74.21875 29.59375 74.21875 
Q 40.828125 74.21875 47.359375 69.109375 
Q 53.90625 64.015625 53.90625 55.328125 
Q 53.90625 49.265625 50.4375 45.09375 
Q 46.96875 40.921875 40.578125 39.3125 
z
" id="DejaVuSans-33"/>
      </defs>
      <g style="fill:#262626;" transform="translate(175.880814 238.358281)scale(0.11 -0.11)">
       <use xlink:href="#DejaVuSans-33"/>
       <use x="63.623047" xlink:href="#DejaVuSans-2e"/>
       <use x="95.410156" xlink:href="#DejaVuSans-30"/>
      </g>
     </g>
    </g>
    <g id="xtick_5">
     <g id="line2d_9">
      <g>
       <use style="fill:#262626;stroke:#262626;stroke-width:0.8;" x="223.725099" xlink:href="#m97abedb236" y="223"/>
      </g>
     </g>
     <g id="line2d_10">
      <g>
       <use style="fill:#262626;stroke:#262626;stroke-width:0.8;" x="223.725099" xlink:href="#mf1a1cf0615" y="25.44"/>
      </g>
     </g>
     <g id="text_5">
      <!-- 4.0 -->
      <defs>
       <path d="M 37.796875 64.3125 
L 12.890625 25.390625 
L 37.796875 25.390625 
z
M 35.203125 72.90625 
L 47.609375 72.90625 
L 47.609375 25.390625 
L 58.015625 25.390625 
L 58.015625 17.1875 
L 47.609375 17.1875 
L 47.609375 0 
L 37.796875 0 
L 37.796875 17.1875 
L 4.890625 17.1875 
L 4.890625 26.703125 
z
" id="DejaVuSans-34"/>
      </defs>
      <g style="fill:#262626;" transform="translate(214.97838 238.358281)scale(0.11 -0.11)">
       <use xlink:href="#DejaVuSans-34"/>
       <use x="63.623047" xlink:href="#DejaVuSans-2e"/>
       <use x="95.410156" xlink:href="#DejaVuSans-30"/>
      </g>
     </g>
    </g>
    <g id="text_6">
     <!-- log10 counts (Control) -->
     <defs>
      <path d="M 9.421875 75.984375 
L 18.40625 75.984375 
L 18.40625 0 
L 9.421875 0 
z
" id="DejaVuSans-6c"/>
      <path d="M 30.609375 48.390625 
Q 23.390625 48.390625 19.1875 42.75 
Q 14.984375 37.109375 14.984375 27.296875 
Q 14.984375 17.484375 19.15625 11.84375 
Q 23.34375 6.203125 30.609375 6.203125 
Q 37.796875 6.203125 41.984375 11.859375 
Q 46.1875 17.53125 46.1875 27.296875 
Q 46.1875 37.015625 41.984375 42.703125 
Q 37.796875 48.390625 30.609375 48.390625 
z
M 30.609375 56 
Q 42.328125 56 49.015625 48.375 
Q 55.71875 40.765625 55.71875 27.296875 
Q 55.71875 13.875 49.015625 6.21875 
Q 42.328125 -1.421875 30.609375 -1.421875 
Q 18.84375 -1.421875 12.171875 6.21875 
Q 5.515625 13.875 5.515625 27.296875 
Q 5.515625 40.765625 12.171875 48.375 
Q 18.84375 56 30.609375 56 
z
" id="DejaVuSans-6f"/>
      <path d="M 45.40625 27.984375 
Q 45.40625 37.75 41.375 43.109375 
Q 37.359375 48.484375 30.078125 48.484375 
Q 22.859375 48.484375 18.828125 43.109375 
Q 14.796875 37.75 14.796875 27.984375 
Q 14.796875 18.265625 18.828125 12.890625 
Q 22.859375 7.515625 30.078125 7.515625 
Q 37.359375 7.515625 41.375 12.890625 
Q 45.40625 18.265625 45.40625 27.984375 
z
M 54.390625 6.78125 
Q 54.390625 -7.171875 48.1875 -13.984375 
Q 42 -20.796875 29.203125 -20.796875 
Q 24.46875 -20.796875 20.265625 -20.09375 
Q 16.0625 -19.390625 12.109375 -17.921875 
L 12.109375 -9.1875 
Q 16.0625 -11.328125 19.921875 -12.34375 
Q 23.78125 -13.375 27.78125 -13.375 
Q 36.625 -13.375 41.015625 -8.765625 
Q 45.40625 -4.15625 45.40625 5.171875 
L 45.40625 9.625 
Q 42.625 4.78125 38.28125 2.390625 
Q 33.9375 0 27.875 0 
Q 17.828125 0 11.671875 7.65625 
Q 5.515625 15.328125 5.515625 27.984375 
Q 5.515625 40.671875 11.671875 48.328125 
Q 17.828125 56 27.875 56 
Q 33.9375 56 38.28125 53.609375 
Q 42.625 51.21875 45.40625 46.390625 
L 45.40625 54.6875 
L 54.390625 54.6875 
z
" id="DejaVuSans-67"/>
      <path id="DejaVuSans-20"/>
      <path d="M 48.78125 52.59375 
L 48.78125 44.1875 
Q 44.96875 46.296875 41.140625 47.34375 
Q 37.3125 48.390625 33.40625 48.390625 
Q 24.65625 48.390625 19.8125 42.84375 
Q 14.984375 37.3125 14.984375 27.296875 
Q 14.984375 17.28125 19.8125 11.734375 
Q 24.65625 6.203125 33.40625 6.203125 
Q 37.3125 6.203125 41.140625 7.25 
Q 44.96875 8.296875 48.78125 10.40625 
L 48.78125 2.09375 
Q 45.015625 0.34375 40.984375 -0.53125 
Q 36.96875 -1.421875 32.421875 -1.421875 
Q 20.0625 -1.421875 12.78125 6.34375 
Q 5.515625 14.109375 5.515625 27.296875 
Q 5.515625 40.671875 12.859375 48.328125 
Q 20.21875 56 33.015625 56 
Q 37.15625 56 41.109375 55.140625 
Q 45.0625 54.296875 48.78125 52.59375 
z
" id="DejaVuSans-63"/>
      <path d="M 8.5 21.578125 
L 8.5 54.6875 
L 17.484375 54.6875 
L 17.484375 21.921875 
Q 17.484375 14.15625 20.5 10.265625 
Q 23.53125 6.390625 29.59375 6.390625 
Q 36.859375 6.390625 41.078125 11.03125 
Q 45.3125 15.671875 45.3125 23.6875 
L 45.3125 54.6875 
L 54.296875 54.6875 
L 54.296875 0 
L 45.3125 0 
L 45.3125 8.40625 
Q 42.046875 3.421875 37.71875 1 
Q 33.40625 -1.421875 27.6875 -1.421875 
Q 18.265625 -1.421875 13.375 4.4375 
Q 8.5 10.296875 8.5 21.578125 
z
M 31.109375 56 
z
" id="DejaVuSans-75"/>
      <path d="M 54.890625 33.015625 
L 54.890625 0 
L 45.90625 0 
L 45.90625 32.71875 
Q 45.90625 40.484375 42.875 44.328125 
Q 39.84375 48.1875 33.796875 48.1875 
Q 26.515625 48.1875 22.3125 43.546875 
Q 18.109375 38.921875 18.109375 30.90625 
L 18.109375 0 
L 9.078125 0 
L 9.078125 54.6875 
L 18.109375 54.6875 
L 18.109375 46.1875 
Q 21.34375 51.125 25.703125 53.5625 
Q 30.078125 56 35.796875 56 
Q 45.21875 56 50.046875 50.171875 
Q 54.890625 44.34375 54.890625 33.015625 
z
" id="DejaVuSans-6e"/>
      <path d="M 18.3125 70.21875 
L 18.3125 54.6875 
L 36.8125 54.6875 
L 36.8125 47.703125 
L 18.3125 47.703125 
L 18.3125 18.015625 
Q 18.3125 11.328125 20.140625 9.421875 
Q 21.96875 7.515625 27.59375 7.515625 
L 36.8125 7.515625 
L 36.8125 0 
L 27.59375 0 
Q 17.1875 0 13.234375 3.875 
Q 9.28125 7.765625 9.28125 18.015625 
L 9.28125 47.703125 
L 2.6875 47.703125 
L 2.6875 54.6875 
L 9.28125 54.6875 
L 9.28125 70.21875 
z
" id="DejaVuSans-74"/>
      <path d="M 44.28125 53.078125 
L 44.28125 44.578125 
Q 40.484375 46.53125 36.375 47.5 
Q 32.28125 48.484375 27.875 48.484375 
Q 21.1875 48.484375 17.84375 46.4375 
Q 14.5 44.390625 14.5 40.28125 
Q 14.5 37.15625 16.890625 35.375 
Q 19.28125 33.59375 26.515625 31.984375 
L 29.59375 31.296875 
Q 39.15625 29.25 43.1875 25.515625 
Q 47.21875 21.78125 47.21875 15.09375 
Q 47.21875 7.46875 41.1875 3.015625 
Q 35.15625 -1.421875 24.609375 -1.421875 
Q 20.21875 -1.421875 15.453125 -0.5625 
Q 10.6875 0.296875 5.421875 2 
L 5.421875 11.28125 
Q 10.40625 8.6875 15.234375 7.390625 
Q 20.0625 6.109375 24.8125 6.109375 
Q 31.15625 6.109375 34.5625 8.28125 
Q 37.984375 10.453125 37.984375 14.40625 
Q 37.984375 18.0625 35.515625 20.015625 
Q 33.0625 21.96875 24.703125 23.78125 
L 21.578125 24.515625 
Q 13.234375 26.265625 9.515625 29.90625 
Q 5.8125 33.546875 5.8125 39.890625 
Q 5.8125 47.609375 11.28125 51.796875 
Q 16.75 56 26.8125 56 
Q 31.78125 56 36.171875 55.265625 
Q 40.578125 54.546875 44.28125 53.078125 
z
" id="DejaVuSans-73"/>
      <path d="M 31 75.875 
Q 24.46875 64.65625 21.28125 53.65625 
Q 18.109375 42.671875 18.109375 31.390625 
Q 18.109375 20.125 21.3125 9.0625 
Q 24.515625 -2 31 -13.1875 
L 23.1875 -13.1875 
Q 15.875 -1.703125 12.234375 9.375 
Q 8.59375 20.453125 8.59375 31.390625 
Q 8.59375 42.28125 12.203125 53.3125 
Q 15.828125 64.359375 23.1875 75.875 
z
" id="DejaVuSans-28"/>
      <path d="M 64.40625 67.28125 
L 64.40625 56.890625 
Q 59.421875 61.53125 53.78125 63.8125 
Q 48.140625 66.109375 41.796875 66.109375 
Q 29.296875 66.109375 22.65625 58.46875 
Q 16.015625 50.828125 16.015625 36.375 
Q 16.015625 21.96875 22.65625 14.328125 
Q 29.296875 6.6875 41.796875 6.6875 
Q 48.140625 6.6875 53.78125 8.984375 
Q 59.421875 11.28125 64.40625 15.921875 
L 64.40625 5.609375 
Q 59.234375 2.09375 53.4375 0.328125 
Q 47.65625 -1.421875 41.21875 -1.421875 
Q 24.65625 -1.421875 15.125 8.703125 
Q 5.609375 18.84375 5.609375 36.375 
Q 5.609375 53.953125 15.125 64.078125 
Q 24.65625 74.21875 41.21875 74.21875 
Q 47.75 74.21875 53.53125 72.484375 
Q 59.328125 70.75 64.40625 67.28125 
z
" id="DejaVuSans-43"/>
      <path d="M 41.109375 46.296875 
Q 39.59375 47.171875 37.8125 47.578125 
Q 36.03125 48 33.890625 48 
Q 26.265625 48 22.1875 43.046875 
Q 18.109375 38.09375 18.109375 28.8125 
L 18.109375 0 
L 9.078125 0 
L 9.078125 54.6875 
L 18.109375 54.6875 
L 18.109375 46.1875 
Q 20.953125 51.171875 25.484375 53.578125 
Q 30.03125 56 36.53125 56 
Q 37.453125 56 38.578125 55.875 
Q 39.703125 55.765625 41.0625 55.515625 
z
" id="DejaVuSans-72"/>
      <path d="M 8.015625 75.875 
L 15.828125 75.875 
Q 23.140625 64.359375 26.78125 53.3125 
Q 30.421875 42.28125 30.421875 31.390625 
Q 30.421875 20.453125 26.78125 9.375 
Q 23.140625 -1.703125 15.828125 -13.1875 
L 8.015625 -13.1875 
Q 14.5 -2 17.703125 9.0625 
Q 20.90625 20.125 20.90625 31.390625 
Q 20.90625 42.671875 17.703125 53.65625 
Q 14.5 64.65625 8.015625 75.875 
z
" id="DejaVuSans-29"/>
     </defs>
     <g transform="translate(83.294531 253.004219)scale(0.11 -0.11)">
      <use xlink:href="#DejaVuSans-6c"/>
      <use x="27.783203" xlink:href="#DejaVuSans-6f"/>
      <use x="88.964844" xlink:href="#DejaVuSans-67"/>
      <use x="152.441406" xlink:href="#DejaVuSans-31"/>
      <use x="216.064453" xlink:href="#DejaVuSans-30"/>
      <use x="279.6875" xlink:href="#DejaVuSans-20"/>
      <use x="311.474609" xlink:href="#DejaVuSans-63"/>
      <use x="366.455078" xlink:href="#DejaVuSans-6f"/>
      <use x="427.636719" xlink:href="#DejaVuSans-75"/>
      <use x="491.015625" xlink:href="#DejaVuSans-6e"/>
      <use x="554.394531" xlink:href="#DejaVuSans-74"/>
      <use x="593.603516" xlink:href="#DejaVuSans-73"/>
      <use x="645.703125" xlink:href="#DejaVuSans-20"/>
      <use x="677.490234" xlink:href="#DejaVuSans-28"/>
      <use x="716.503906" xlink:href="#DejaVuSans-43"/>
      <use x="786.328125" xlink:href="#DejaVuSans-6f"/>
      <use x="847.509766" xlink:href="#DejaVuSans-6e"/>
      <use x="910.888672" xlink:href="#DejaVuSans-74"/>
      <use x="950.097656" xlink:href="#DejaVuSans-72"/>
      <use x="991.179688" xlink:href="#DejaVuSans-6f"/>
      <use x="1052.361328" xlink:href="#DejaVuSans-6c"/>
      <use x="1080.144531" xlink:href="#DejaVuSans-29"/>
     </g>
    </g>
   </g>
   <g id="matplotlib.axis_2">
    <g id="ytick_1">
     <g id="line2d_11">
      <defs>
       <path d="M 0 0 
L -3.5 0 
" id="m11e27f1a93" style="stroke:#262626;stroke-width:0.8;"/>
      </defs>
      <g>
       <use style="fill:#262626;stroke:#262626;stroke-width:0.8;" x="51.01625" xlink:href="#m11e27f1a93" y="208.365926"/>
      </g>
     </g>
     <g id="line2d_12">
      <defs>
       <path d="M 0 0 
L 3.5 0 
" id="ma117b6637b" style="stroke:#262626;stroke-width:0.8;"/>
      </defs>
      <g>
       <use style="fill:#262626;stroke:#262626;stroke-width:0.8;" x="238.68" xlink:href="#ma117b6637b" y="208.365926"/>
      </g>
     </g>
     <g id="text_7">
      <!-- 0.0 -->
      <g style="fill:#262626;" transform="translate(26.522813 212.545067)scale(0.11 -0.11)">
       <use xlink:href="#DejaVuSans-30"/>
       <use x="63.623047" xlink:href="#DejaVuSans-2e"/>
       <use x="95.410156" xlink:href="#DejaVuSans-30"/>
      </g>
     </g>
    </g>
    <g id="ytick_2">
     <g id="line2d_13">
      <g>
       <use style="fill:#262626;stroke:#262626;stroke-width:0.8;" x="51.01625" xlink:href="#m11e27f1a93" y="173.540546"/>
      </g>
     </g>
     <g id="line2d_14">
      <g>
       <use style="fill:#262626;stroke:#262626;stroke-width:0.8;" x="238.68" xlink:href="#ma117b6637b" y="173.540546"/>
      </g>
     </g>
     <g id="text_8">
      <!-- 1.0 -->
      <g style="fill:#262626;" transform="translate(26.522813 177.719687)scale(0.11 -0.11)">
       <use xlink:href="#DejaVuSans-31"/>
       <use x="63.623047" xlink:href="#DejaVuSans-2e"/>
       <use x="95.410156" xlink:href="#DejaVuSans-30"/>
      </g>
     </g>
    </g>
    <g id="ytick_3">
     <g id="line2d_15">
      <g>
       <use style="fill:#262626;stroke:#262626;stroke-width:0.8;" x="51.01625" xlink:href="#m11e27f1a93" y="138.715166"/>
      </g>
     </g>
     <g id="line2d_16">
      <g>
       <use style="fill:#262626;stroke:#262626;stroke-width:0.8;" x="238.68" xlink:href="#ma117b6637b" y="138.715166"/>
      </g>
     </g>
     <g id="text_9">
      <!-- 2.0 -->
      <g style="fill:#262626;" transform="translate(26.522813 142.894307)scale(0.11 -0.11)">
       <use xlink:href="#DejaVuSans-32"/>
       <use x="63.623047" xlink:href="#DejaVuSans-2e"/>
       <use x="95.410156" xlink:href="#DejaVuSans-30"/>
      </g>
     </g>
    </g>
    <g id="ytick_4">
     <g id="line2d_17">
      <g>
       <use style="fill:#262626;stroke:#262626;stroke-width:0.8;" x="51.01625" xlink:href="#m11e27f1a93" y="103.889786"/>
      </g>
     </g>
     <g id="line2d_18">
      <g>
       <use style="fill:#262626;stroke:#262626;stroke-width:0.8;" x="238.68" xlink:href="#ma117b6637b" y="103.889786"/>
      </g>
     </g>
     <g id="text_10">
      <!-- 3.0 -->
      <g style="fill:#262626;" transform="translate(26.522813 108.068927)scale(0.11 -0.11)">
       <use xlink:href="#DejaVuSans-33"/>
       <use x="63.623047" xlink:href="#DejaVuSans-2e"/>
       <use x="95.410156" xlink:href="#DejaVuSans-30"/>
      </g>
     </g>
    </g>
    <g id="ytick_5">
     <g id="line2d_19">
      <g>
       <use style="fill:#262626;stroke:#262626;stroke-width:0.8;" x="51.01625" xlink:href="#m11e27f1a93" y="69.064406"/>
      </g>
     </g>
     <g id="line2d_20">
      <g>
       <use style="fill:#262626;stroke:#262626;stroke-width:0.8;" x="238.68" xlink:href="#ma117b6637b" y="69.064406"/>
      </g>
     </g>
     <g id="text_11">
      <!-- 4.0 -->
      <g style="fill:#262626;" transform="translate(26.522813 73.243547)scale(0.11 -0.11)">
       <use xlink:href="#DejaVuSans-34"/>
       <use x="63.623047" xlink:href="#DejaVuSans-2e"/>
       <use x="95.410156" xlink:href="#DejaVuSans-30"/>
      </g>
     </g>
    </g>
    <g id="ytick_6">
     <g id="line2d_21">
      <g>
       <use style="fill:#262626;stroke:#262626;stroke-width:0.8;" x="51.01625" xlink:href="#m11e27f1a93" y="34.239026"/>
      </g>
     </g>
     <g id="line2d_22">
      <g>
       <use style="fill:#262626;stroke:#262626;stroke-width:0.8;" x="238.68" xlink:href="#ma117b6637b" y="34.239026"/>
      </g>
     </g>
     <g id="text_12">
      <!-- 5.0 -->
      <defs>
       <path d="M 10.796875 72.90625 
L 49.515625 72.90625 
L 49.515625 64.59375 
L 19.828125 64.59375 
L 19.828125 46.734375 
Q 21.96875 47.46875 24.109375 47.828125 
Q 26.265625 48.1875 28.421875 48.1875 
Q 40.625 48.1875 47.75 41.5 
Q 54.890625 34.8125 54.890625 23.390625 
Q 54.890625 11.625 47.5625 5.09375 
Q 40.234375 -1.421875 26.90625 -1.421875 
Q 22.3125 -1.421875 17.546875 -0.640625 
Q 12.796875 0.140625 7.71875 1.703125 
L 7.71875 11.625 
Q 12.109375 9.234375 16.796875 8.0625 
Q 21.484375 6.890625 26.703125 6.890625 
Q 35.15625 6.890625 40.078125 11.328125 
Q 45.015625 15.765625 45.015625 23.390625 
Q 45.015625 31 40.078125 35.4375 
Q 35.15625 39.890625 26.703125 39.890625 
Q 22.75 39.890625 18.8125 39.015625 
Q 14.890625 38.140625 10.796875 36.28125 
z
" id="DejaVuSans-35"/>
      </defs>
      <g style="fill:#262626;" transform="translate(26.522813 38.418167)scale(0.11 -0.11)">
       <use xlink:href="#DejaVuSans-35"/>
       <use x="63.623047" xlink:href="#DejaVuSans-2e"/>
       <use x="95.410156" xlink:href="#DejaVuSans-30"/>
      </g>
     </g>
    </g>
    <g id="text_13">
     <!-- log10 counts (CD107a_positive_4) -->
     <defs>
      <path d="M 19.671875 64.796875 
L 19.671875 8.109375 
L 31.59375 8.109375 
Q 46.6875 8.109375 53.6875 14.9375 
Q 60.6875 21.78125 60.6875 36.53125 
Q 60.6875 51.171875 53.6875 57.984375 
Q 46.6875 64.796875 31.59375 64.796875 
z
M 9.8125 72.90625 
L 30.078125 72.90625 
Q 51.265625 72.90625 61.171875 64.09375 
Q 71.09375 55.28125 71.09375 36.53125 
Q 71.09375 17.671875 61.125 8.828125 
Q 51.171875 0 30.078125 0 
L 9.8125 0 
z
" id="DejaVuSans-44"/>
      <path d="M 8.203125 72.90625 
L 55.078125 72.90625 
L 55.078125 68.703125 
L 28.609375 0 
L 18.3125 0 
L 43.21875 64.59375 
L 8.203125 64.59375 
z
" id="DejaVuSans-37"/>
      <path d="M 34.28125 27.484375 
Q 23.390625 27.484375 19.1875 25 
Q 14.984375 22.515625 14.984375 16.5 
Q 14.984375 11.71875 18.140625 8.90625 
Q 21.296875 6.109375 26.703125 6.109375 
Q 34.1875 6.109375 38.703125 11.40625 
Q 43.21875 16.703125 43.21875 25.484375 
L 43.21875 27.484375 
z
M 52.203125 31.203125 
L 52.203125 0 
L 43.21875 0 
L 43.21875 8.296875 
Q 40.140625 3.328125 35.546875 0.953125 
Q 30.953125 -1.421875 24.3125 -1.421875 
Q 15.921875 -1.421875 10.953125 3.296875 
Q 6 8.015625 6 15.921875 
Q 6 25.140625 12.171875 29.828125 
Q 18.359375 34.515625 30.609375 34.515625 
L 43.21875 34.515625 
L 43.21875 35.40625 
Q 43.21875 41.609375 39.140625 45 
Q 35.0625 48.390625 27.6875 48.390625 
Q 23 48.390625 18.546875 47.265625 
Q 14.109375 46.140625 10.015625 43.890625 
L 10.015625 52.203125 
Q 14.9375 54.109375 19.578125 55.046875 
Q 24.21875 56 28.609375 56 
Q 40.484375 56 46.34375 49.84375 
Q 52.203125 43.703125 52.203125 31.203125 
z
" id="DejaVuSans-61"/>
      <path d="M 50.984375 -16.609375 
L 50.984375 -23.578125 
L -0.984375 -23.578125 
L -0.984375 -16.609375 
z
" id="DejaVuSans-5f"/>
      <path d="M 18.109375 8.203125 
L 18.109375 -20.796875 
L 9.078125 -20.796875 
L 9.078125 54.6875 
L 18.109375 54.6875 
L 18.109375 46.390625 
Q 20.953125 51.265625 25.265625 53.625 
Q 29.59375 56 35.59375 56 
Q 45.5625 56 51.78125 48.09375 
Q 58.015625 40.1875 58.015625 27.296875 
Q 58.015625 14.40625 51.78125 6.484375 
Q 45.5625 -1.421875 35.59375 -1.421875 
Q 29.59375 -1.421875 25.265625 0.953125 
Q 20.953125 3.328125 18.109375 8.203125 
z
M 48.6875 27.296875 
Q 48.6875 37.203125 44.609375 42.84375 
Q 40.53125 48.484375 33.40625 48.484375 
Q 26.265625 48.484375 22.1875 42.84375 
Q 18.109375 37.203125 18.109375 27.296875 
Q 18.109375 17.390625 22.1875 11.75 
Q 26.265625 6.109375 33.40625 6.109375 
Q 40.53125 6.109375 44.609375 11.75 
Q 48.6875 17.390625 48.6875 27.296875 
z
" id="DejaVuSans-70"/>
      <path d="M 9.421875 54.6875 
L 18.40625 54.6875 
L 18.40625 0 
L 9.421875 0 
z
M 9.421875 75.984375 
L 18.40625 75.984375 
L 18.40625 64.59375 
L 9.421875 64.59375 
z
" id="DejaVuSans-69"/>
      <path d="M 2.984375 54.6875 
L 12.5 54.6875 
L 29.59375 8.796875 
L 46.6875 54.6875 
L 56.203125 54.6875 
L 35.6875 0 
L 23.484375 0 
z
" id="DejaVuSans-76"/>
      <path d="M 56.203125 29.59375 
L 56.203125 25.203125 
L 14.890625 25.203125 
Q 15.484375 15.921875 20.484375 11.0625 
Q 25.484375 6.203125 34.421875 6.203125 
Q 39.59375 6.203125 44.453125 7.46875 
Q 49.3125 8.734375 54.109375 11.28125 
L 54.109375 2.78125 
Q 49.265625 0.734375 44.1875 -0.34375 
Q 39.109375 -1.421875 33.890625 -1.421875 
Q 20.796875 -1.421875 13.15625 6.1875 
Q 5.515625 13.8125 5.515625 26.8125 
Q 5.515625 40.234375 12.765625 48.109375 
Q 20.015625 56 32.328125 56 
Q 43.359375 56 49.78125 48.890625 
Q 56.203125 41.796875 56.203125 29.59375 
z
M 47.21875 32.234375 
Q 47.125 39.59375 43.09375 43.984375 
Q 39.0625 48.390625 32.421875 48.390625 
Q 24.90625 48.390625 20.390625 44.140625 
Q 15.875 39.890625 15.1875 32.171875 
z
" id="DejaVuSans-65"/>
     </defs>
     <g transform="translate(19.929219 218.290625)rotate(-90)scale(0.11 -0.11)">
      <use xlink:href="#DejaVuSans-6c"/>
      <use x="27.783203" xlink:href="#DejaVuSans-6f"/>
      <use x="88.964844" xlink:href="#DejaVuSans-67"/>
      <use x="152.441406" xlink:href="#DejaVuSans-31"/>
      <use x="216.064453" xlink:href="#DejaVuSans-30"/>
      <use x="279.6875" xlink:href="#DejaVuSans-20"/>
      <use x="311.474609" xlink:href="#DejaVuSans-63"/>
      <use x="366.455078" xlink:href="#DejaVuSans-6f"/>
      <use x="427.636719" xlink:href="#DejaVuSans-75"/>
      <use x="491.015625" xlink:href="#DejaVuSans-6e"/>
      <use x="554.394531" xlink:href="#DejaVuSans-74"/>
      <use x="593.603516" xlink:href="#DejaVuSans-73"/>
      <use x="645.703125" xlink:href="#DejaVuSans-20"/>
      <use x="677.490234" xlink:href="#DejaVuSans-28"/>
      <use x="716.503906" xlink:href="#DejaVuSans-43"/>
      <use x="786.328125" xlink:href="#DejaVuSans-44"/>
      <use x="863.330078" xlink:href="#DejaVuSans-31"/>
      <use x="926.953125" xlink:href="#DejaVuSans-30"/>
      <use x="990.576172" xlink:href="#DejaVuSans-37"/>
      <use x="1054.199219" xlink:href="#DejaVuSans-61"/>
      <use x="1115.478516" xlink:href="#DejaVuSans-5f"/>
      <use x="1165.478516" xlink:href="#DejaVuSans-70"/>
      <use x="1228.955078" xlink:href="#DejaVuSans-6f"/>
      <use x="1290.136719" xlink:href="#DejaVuSans-73"/>
      <use x="1342.236328" xlink:href="#DejaVuSans-69"/>
      <use x="1370.019531" xlink:href="#DejaVuSans-74"/>
      <use x="1409.228516" xlink:href="#DejaVuSans-69"/>
      <use x="1437.011719" xlink:href="#DejaVuSans-76"/>
      <use x="1496.191406" xlink:href="#DejaVuSans-65"/>
      <use x="1557.714844" xlink:href="#DejaVuSans-5f"/>
      <use x="1607.714844" xlink:href="#DejaVuSans-34"/>
      <use x="1671.337891" xlink:href="#DejaVuSans-29"/>
     </g>
    </g>
   </g>
   <g id="line2d_23">
    <path clip-path="url(#p34cc639b82)" d="M 51.01625 222.901383 
L 238.68 55.743625 
" style="fill:none;opacity:0.75;stroke:#808080;stroke-dasharray:5.55,2.4;stroke-dashoffset:0;stroke-width:1.5;"/>
   </g>
   <g id="patch_3">
    <path d="M 51.01625 223 
L 51.01625 25.44 
" style="fill:none;stroke:#000000;stroke-linecap:square;stroke-linejoin:miter;stroke-width:0.8;"/>
   </g>
   <g id="patch_4">
    <path d="M 238.68 223 
L 238.68 25.44 
" style="fill:none;stroke:#000000;stroke-linecap:square;stroke-linejoin:miter;stroke-width:0.8;"/>
   </g>
   <g id="patch_5">
    <path d="M 51.01625 223 
L 238.68 223 
" style="fill:none;stroke:#000000;stroke-linecap:square;stroke-linejoin:miter;stroke-width:0.8;"/>
   </g>
   <g id="patch_6">
    <path d="M 51.01625 25.44 
L 238.68 25.44 
" style="fill:none;stroke:#000000;stroke-linecap:square;stroke-linejoin:miter;stroke-width:0.8;"/>
   </g>
   <g id="text_14">
    <!-- sgRNA Density -->
    <defs>
     <path d="M 44.390625 34.1875 
Q 47.5625 33.109375 50.5625 29.59375 
Q 53.5625 26.078125 56.59375 19.921875 
L 66.609375 0 
L 56 0 
L 46.6875 18.703125 
Q 43.0625 26.03125 39.671875 28.421875 
Q 36.28125 30.8125 30.421875 30.8125 
L 19.671875 30.8125 
L 19.671875 0 
L 9.8125 0 
L 9.8125 72.90625 
L 32.078125 72.90625 
Q 44.578125 72.90625 50.734375 67.671875 
Q 56.890625 62.453125 56.890625 51.90625 
Q 56.890625 45.015625 53.6875 40.46875 
Q 50.484375 35.9375 44.390625 34.1875 
z
M 19.671875 64.796875 
L 19.671875 38.921875 
L 32.078125 38.921875 
Q 39.203125 38.921875 42.84375 42.21875 
Q 46.484375 45.515625 46.484375 51.90625 
Q 46.484375 58.296875 42.84375 61.546875 
Q 39.203125 64.796875 32.078125 64.796875 
z
" id="DejaVuSans-52"/>
     <path d="M 9.8125 72.90625 
L 23.09375 72.90625 
L 55.421875 11.921875 
L 55.421875 72.90625 
L 64.984375 72.90625 
L 64.984375 0 
L 51.703125 0 
L 19.390625 60.984375 
L 19.390625 0 
L 9.8125 0 
z
" id="DejaVuSans-4e"/>
     <path d="M 34.1875 63.1875 
L 20.796875 26.90625 
L 47.609375 26.90625 
z
M 28.609375 72.90625 
L 39.796875 72.90625 
L 67.578125 0 
L 57.328125 0 
L 50.6875 18.703125 
L 17.828125 18.703125 
L 11.1875 0 
L 0.78125 0 
z
" id="DejaVuSans-41"/>
     <path d="M 32.171875 -5.078125 
Q 28.375 -14.84375 24.75 -17.8125 
Q 21.140625 -20.796875 15.09375 -20.796875 
L 7.90625 -20.796875 
L 7.90625 -13.28125 
L 13.1875 -13.28125 
Q 16.890625 -13.28125 18.9375 -11.515625 
Q 21 -9.765625 23.484375 -3.21875 
L 25.09375 0.875 
L 2.984375 54.6875 
L 12.5 54.6875 
L 29.59375 11.921875 
L 46.6875 54.6875 
L 56.203125 54.6875 
z
" id="DejaVuSans-79"/>
    </defs>
    <g transform="translate(100.434063 19.44)scale(0.12 -0.12)">
     <use xlink:href="#DejaVuSans-73"/>
     <use x="52.099609" xlink:href="#DejaVuSans-67"/>
     <use x="115.576172" xlink:href="#DejaVuSans-52"/>
     <use x="185.058594" xlink:href="#DejaVuSans-4e"/>
     <use x="259.863281" xlink:href="#DejaVuSans-41"/>
     <use x="328.271484" xlink:href="#DejaVuSans-20"/>
     <use x="360.058594" xlink:href="#DejaVuSans-44"/>
     <use x="437.060547" xlink:href="#DejaVuSans-65"/>
     <use x="498.583984" xlink:href="#DejaVuSans-6e"/>
     <use x="561.962891" xlink:href="#DejaVuSans-73"/>
     <use x="614.0625" xlink:href="#DejaVuSans-69"/>
     <use x="641.845703" xlink:href="#DejaVuSans-74"/>
     <use x="681.054688" xlink:href="#DejaVuSans-79"/>
    </g>
   </g>
  </g>
 </g>
 <defs>
  <clipPath id="p34cc639b82">
   <rect height="197.56" width="187.66375" x="51.01625" y="25.44"/>
  </clipPath>
 </defs>
</svg>
