<?xml version="1.0" encoding="utf-8" standalone="no"?>
<!DOCTYPE svg PUBLIC "-//W3C//DTD SVG 1.1//EN"
  "http://www.w3.org/Graphics/SVG/1.1/DTD/svg11.dtd">
<!-- Created with matplotlib (http://matplotlib.org/) -->
<svg height="266pt" version="1.1" viewBox="0 0 252 266" width="252pt" xmlns="http://www.w3.org/2000/svg" xmlns:xlink="http://www.w3.org/1999/xlink">
 <defs>
  <style type="text/css">
*{stroke-linecap:butt;stroke-linejoin:round;}
  </style>
 </defs>
 <g id="figure_1">
  <g id="patch_1">
   <path d="M 0 266.4 
L 252 266.4 
L 252 0 
L 0 0 
z
" style="fill:#ffffff;"/>
  </g>
  <g id="axes_1">
   <g id="patch_2">
    <path d="M 51.01625 223 
L 238.68 223 
L 238.68 25.44 
L 51.01625 25.44 
z
" style="fill:#ffffff;"/>
   </g>
   <g id="PathCollection_1">
    <path clip-path="url(#p0906d4cc7d)" d="M 172.496834 133.42082 
L 173.268444 133.42082 
L 174.040054 133.42082 
L 174.811664 133.42082 
L 175.583274 133.42082 
L 176.354884 133.42082 
L 177.126493 133.42082 
L 177.898103 133.42082 
L 178.669713 133.42082 
L 179.441323 133.42082 
L 180.212933 133.42082 
L 180.984543 133.42082 
L 181.756153 133.42082 
L 182.527763 133.42082 
L 183.299373 133.42082 
L 184.070983 133.42082 
L 184.842593 133.42082 
L 185.614203 133.42082 
L 186.385813 133.42082 
L 187.157423 133.42082 
L 187.929033 133.42082 
L 188.700643 133.42082 
L 189.472253 133.42082 
L 190.243863 133.42082 
L 191.015473 133.42082 
L 191.787083 133.42082 
L 192.558693 133.42082 
L 193.330303 133.42082 
L 194.101913 133.42082 
L 194.873523 133.42082 
L 195.645133 133.42082 
L 196.416743 133.42082 
L 197.188353 133.42082 
L 197.959963 133.42082 
L 198.731573 133.42082 
L 199.503183 133.42082 
L 200.274793 133.42082 
L 201.046403 133.42082 
L 201.818013 133.42082 
L 202.589623 133.42082 
L 203.361233 133.42082 
L 204.132843 133.42082 
L 204.904452 133.42082 
L 205.676062 133.42082 
L 206.447672 133.42082 
L 207.219282 133.42082 
L 207.990892 133.42082 
L 208.762502 133.42082 
L 209.534112 133.42082 
L 210.305722 133.42082 
L 211.077332 133.42082 
L 211.848942 133.42082 
L 212.620552 133.42082 
L 213.392162 133.42082 
L 214.163772 133.42082 
L 214.935382 133.42082 
L 215.706992 133.42082 
L 216.478602 133.42082 
L 217.250212 133.42082 
L 218.021822 133.42082 
L 218.793432 133.42082 
L 219.565042 133.42082 
L 220.336652 133.42082 
L 221.108262 133.42082 
L 221.879872 133.42082 
L 222.651482 133.42082 
L 223.423092 133.42082 
L 224.194702 133.42082 
L 224.966312 133.42082 
L 225.737922 133.42082 
L 226.509532 133.42082 
L 227.281142 133.42082 
L 228.052752 133.42082 
L 228.824362 133.42082 
L 229.595972 133.42082 
L 230.367582 133.42082 
L 231.139192 133.42082 
L 231.910802 133.42082 
L 232.682411 133.42082 
L 233.454021 133.42082 
L 234.225631 133.42082 
L 234.997241 133.42082 
L 235.768851 133.42082 
L 236.540461 133.42082 
L 237.312071 133.42082 
L 238.083681 133.42082 
L 238.855291 133.42082 
L 239.626901 133.42082 
L 240.398511 133.42082 
L 241.170121 133.42082 
L 241.941731 133.42082 
L 242.713341 133.42082 
L 243.484951 133.42082 
L 244.256561 133.42082 
L 245.028171 133.42082 
L 245.799781 133.42082 
L 246.571391 133.42082 
L 247.343001 133.42082 
L 248.114611 133.42082 
L 248.114611 132.541841 
L 248.114611 131.662862 
L 248.114611 130.783884 
L 248.114611 129.904905 
L 248.114611 129.025926 
L 248.114611 128.146948 
L 248.114611 127.267969 
L 248.114611 126.388991 
L 248.114611 125.510012 
L 248.114611 124.631033 
L 248.114611 123.752055 
L 248.114611 122.873076 
L 248.114611 121.994097 
L 248.114611 121.115119 
L 248.114611 120.23614 
L 248.114611 119.357162 
L 248.114611 118.478183 
L 248.114611 117.599204 
L 248.114611 116.720226 
L 248.114611 115.841247 
L 248.114611 114.962268 
L 248.114611 114.08329 
L 248.114611 113.204311 
L 248.114611 112.325332 
L 248.114611 111.446354 
L 248.114611 110.567375 
L 248.114611 109.688397 
L 248.114611 108.809418 
L 248.114611 107.930439 
L 248.114611 107.051461 
L 248.114611 106.172482 
L 248.114611 105.293503 
L 248.114611 104.414525 
L 248.114611 103.535546 
L 248.114611 102.656568 
L 248.114611 101.777589 
L 248.114611 100.89861 
L 248.114611 100.019632 
L 248.114611 99.140653 
L 248.114611 98.261674 
L 248.114611 97.382696 
L 248.114611 96.503717 
L 248.114611 95.624739 
L 248.114611 94.74576 
L 248.114611 93.866781 
L 248.114611 92.987803 
L 248.114611 92.108824 
L 248.114611 91.229845 
L 248.114611 90.350867 
L 248.114611 89.471888 
L 248.114611 88.592909 
L 248.114611 87.713931 
L 248.114611 86.834952 
L 248.114611 85.955974 
L 248.114611 85.076995 
L 248.114611 84.198016 
L 248.114611 83.319038 
L 248.114611 82.440059 
L 248.114611 81.56108 
L 248.114611 80.682102 
L 248.114611 79.803123 
L 248.114611 78.924145 
L 248.114611 78.045166 
L 248.114611 77.166187 
L 248.114611 76.287209 
L 248.114611 75.40823 
L 248.114611 74.529251 
L 248.114611 73.650273 
L 248.114611 72.771294 
L 248.114611 71.892315 
L 248.114611 71.013337 
L 248.114611 70.134358 
L 248.114611 69.25538 
L 248.114611 68.376401 
L 248.114611 67.497422 
L 248.114611 66.618444 
L 248.114611 65.739465 
L 248.114611 64.860486 
L 248.114611 63.981508 
L 248.114611 63.102529 
L 248.114611 62.223551 
L 248.114611 61.344572 
L 248.114611 60.465593 
L 248.114611 59.586615 
L 248.114611 58.707636 
L 248.114611 57.828657 
L 248.114611 56.949679 
L 248.114611 56.0707 
L 248.114611 55.191722 
L 248.114611 54.312743 
L 248.114611 53.433764 
L 248.114611 52.554786 
L 248.114611 51.675807 
L 248.114611 50.796828 
L 248.114611 49.91785 
L 248.114611 49.038871 
L 248.114611 48.159892 
L 248.114611 47.280914 
L 248.114611 46.401935 
L 247.343001 46.401935 
L 246.571391 46.401935 
L 245.799781 46.401935 
L 245.028171 46.401935 
L 244.256561 46.401935 
L 243.484951 46.401935 
L 242.713341 46.401935 
L 241.941731 46.401935 
L 241.170121 46.401935 
L 240.398511 46.401935 
L 239.626901 46.401935 
L 238.855291 46.401935 
L 238.083681 46.401935 
L 237.312071 46.401935 
L 236.540461 46.401935 
L 235.768851 46.401935 
L 234.997241 46.401935 
L 234.225631 46.401935 
L 233.454021 46.401935 
L 232.682411 46.401935 
L 231.910802 46.401935 
L 231.139192 46.401935 
L 230.367582 46.401935 
L 229.595972 46.401935 
L 228.824362 46.401935 
L 228.052752 46.401935 
L 227.281142 46.401935 
L 226.509532 46.401935 
L 225.737922 46.401935 
L 224.966312 46.401935 
L 224.194702 46.401935 
L 223.423092 46.401935 
L 222.651482 46.401935 
L 221.879872 46.401935 
L 221.108262 46.401935 
L 220.336652 46.401935 
L 219.565042 46.401935 
L 218.793432 46.401935 
L 218.021822 46.401935 
L 217.250212 46.401935 
L 216.478602 46.401935 
L 215.706992 46.401935 
L 214.935382 46.401935 
L 214.163772 46.401935 
L 213.392162 46.401935 
L 212.620552 46.401935 
L 211.848942 46.401935 
L 211.077332 46.401935 
L 210.305722 46.401935 
L 209.534112 46.401935 
L 208.762502 46.401935 
L 207.990892 46.401935 
L 207.219282 46.401935 
L 206.447672 46.401935 
L 205.676062 46.401935 
L 204.904452 46.401935 
L 204.132843 46.401935 
L 203.361233 46.401935 
L 202.589623 46.401935 
L 201.818013 46.401935 
L 201.046403 46.401935 
L 200.274793 46.401935 
L 199.503183 46.401935 
L 198.731573 46.401935 
L 197.959963 46.401935 
L 197.188353 46.401935 
L 196.416743 46.401935 
L 195.645133 46.401935 
L 194.873523 46.401935 
L 194.101913 46.401935 
L 193.330303 46.401935 
L 192.558693 46.401935 
L 191.787083 46.401935 
L 191.015473 46.401935 
L 190.243863 46.401935 
L 189.472253 46.401935 
L 188.700643 46.401935 
L 187.929033 46.401935 
L 187.157423 46.401935 
L 186.385813 46.401935 
L 185.614203 46.401935 
L 184.842593 46.401935 
L 184.070983 46.401935 
L 183.299373 46.401935 
L 182.527763 46.401935 
L 181.756153 46.401935 
L 180.984543 46.401935 
L 180.212933 46.401935 
L 179.441323 46.401935 
L 178.669713 46.401935 
L 177.898103 46.401935 
L 177.126493 46.401935 
L 176.354884 46.401935 
L 175.583274 46.401935 
L 174.811664 46.401935 
L 174.040054 46.401935 
L 173.268444 46.401935 
L 172.496834 46.401935 
L 171.725224 46.401935 
L 171.725224 47.280914 
L 171.725224 48.159892 
L 171.725224 49.038871 
L 171.725224 49.91785 
L 171.725224 50.796828 
L 171.725224 51.675807 
L 171.725224 52.554786 
L 171.725224 53.433764 
L 171.725224 54.312743 
L 171.725224 55.191722 
L 171.725224 56.0707 
L 171.725224 56.949679 
L 171.725224 57.828657 
L 171.725224 58.707636 
L 171.725224 59.586615 
L 171.725224 60.465593 
L 171.725224 61.344572 
L 171.725224 62.223551 
L 171.725224 63.102529 
L 171.725224 63.981508 
L 171.725224 64.860486 
L 171.725224 65.739465 
L 171.725224 66.618444 
L 171.725224 67.497422 
L 171.725224 68.376401 
L 171.725224 69.25538 
L 171.725224 70.134358 
L 171.725224 71.013337 
L 171.725224 71.892315 
L 171.725224 72.771294 
L 171.725224 73.650273 
L 171.725224 74.529251 
L 171.725224 75.40823 
L 171.725224 76.287209 
L 171.725224 77.166187 
L 171.725224 78.045166 
L 171.725224 78.924145 
L 171.725224 79.803123 
L 171.725224 80.682102 
L 171.725224 81.56108 
L 171.725224 82.440059 
L 171.725224 83.319038 
L 171.725224 84.198016 
L 171.725224 85.076995 
L 171.725224 85.955974 
L 171.725224 86.834952 
L 171.725224 87.713931 
L 171.725224 88.592909 
L 171.725224 89.471888 
L 171.725224 90.350867 
L 171.725224 91.229845 
L 171.725224 92.108824 
L 171.725224 92.987803 
L 171.725224 93.866781 
L 171.725224 94.74576 
L 171.725224 95.624739 
L 171.725224 96.503717 
L 171.725224 97.382696 
L 171.725224 98.261674 
L 171.725224 99.140653 
L 171.725224 100.019632 
L 171.725224 100.89861 
L 171.725224 101.777589 
L 171.725224 102.656568 
L 171.725224 103.535546 
L 171.725224 104.414525 
L 171.725224 105.293503 
L 171.725224 106.172482 
L 171.725224 107.051461 
L 171.725224 107.930439 
L 171.725224 108.809418 
L 171.725224 109.688397 
L 171.725224 110.567375 
L 171.725224 111.446354 
L 171.725224 112.325332 
L 171.725224 113.204311 
L 171.725224 114.08329 
L 171.725224 114.962268 
L 171.725224 115.841247 
L 171.725224 116.720226 
L 171.725224 117.599204 
L 171.725224 118.478183 
L 171.725224 119.357162 
L 171.725224 120.23614 
L 171.725224 121.115119 
L 171.725224 121.994097 
L 171.725224 122.873076 
L 171.725224 123.752055 
L 171.725224 124.631033 
L 171.725224 125.510012 
L 171.725224 126.388991 
L 171.725224 127.267969 
L 171.725224 128.146948 
L 171.725224 129.025926 
L 171.725224 129.904905 
L 171.725224 130.783884 
L 171.725224 131.662862 
L 171.725224 132.541841 
L 171.725224 133.42082 
z
M 196.346025 97.382696 
L 195.645133 97.092154 
L 194.873523 96.688179 
L 194.578218 96.503717 
L 194.101913 96.193963 
L 193.374665 95.624739 
L 193.330303 95.586709 
L 192.558693 94.827045 
L 192.4855 94.74576 
L 191.816879 93.866781 
L 191.787083 93.817402 
L 191.324223 92.987803 
L 191.015473 92.185302 
L 190.987268 92.108824 
L 190.779361 91.229845 
L 190.692623 90.350867 
L 190.71249 89.471888 
L 190.826979 88.592909 
L 191.015473 87.765513 
L 191.026137 87.713931 
L 191.279986 86.834952 
L 191.597646 85.955974 
L 191.787083 85.514627 
L 191.957611 85.076995 
L 192.34912 84.198016 
L 192.558693 83.777512 
L 192.76588 83.319038 
L 193.204127 82.440059 
L 193.330303 82.206302 
L 193.646477 81.56108 
L 194.101913 80.716515 
L 194.118769 80.682102 
L 194.576296 79.803123 
L 194.873523 79.282578 
L 195.06117 78.924145 
L 195.56382 78.045166 
L 195.645133 77.912 
L 196.069441 77.166187 
L 196.416743 76.61599 
L 196.612566 76.287209 
L 197.188353 75.418002 
L 197.194557 75.40823 
L 197.793482 74.529251 
L 197.959963 74.306695 
L 198.445403 73.650273 
L 198.731573 73.2948 
L 199.156861 72.771294 
L 199.503183 72.373929 
L 199.935779 71.892315 
L 200.274793 71.533977 
L 200.793053 71.013337 
L 201.046403 70.766544 
L 201.742689 70.134358 
L 201.818013 70.066527 
L 202.589623 69.405063 
L 202.778466 69.25538 
L 203.361233 68.784169 
L 203.922317 68.376401 
L 204.132843 68.216848 
L 204.904452 67.671885 
L 205.173003 67.497422 
L 205.676062 67.148369 
L 206.447672 66.67056 
L 206.536059 66.618444 
L 207.219282 66.179809 
L 207.990892 65.746841 
L 208.004547 65.739465 
L 208.762502 65.28711 
L 209.534112 64.886959 
L 209.587687 64.860486 
L 210.305722 64.463959 
L 211.077332 64.091269 
L 211.323168 63.981508 
L 211.848942 63.716325 
L 212.620552 63.368941 
L 213.293017 63.102529 
L 213.392162 63.057632 
L 214.163772 62.73413 
L 214.935382 62.453341 
L 215.657268 62.223551 
L 215.706992 62.20518 
L 216.478602 61.945841 
L 217.250212 61.722255 
L 218.021822 61.529771 
L 218.793432 61.364925 
L 218.905174 61.344572 
L 219.565042 61.202492 
L 220.336652 61.067227 
L 221.108262 60.962121 
L 221.879872 60.887227 
L 222.651482 60.843824 
L 223.423092 60.834524 
L 224.194702 60.863467 
L 224.966312 60.936605 
L 225.737922 61.062118 
L 226.509532 61.250978 
L 226.795768 61.344572 
L 227.281142 61.507039 
L 228.052752 61.855373 
L 228.665096 62.223551 
L 228.824362 62.330837 
L 229.595972 62.980704 
L 229.716473 63.102529 
L 230.367582 63.924946 
L 230.406487 63.981508 
L 230.881347 64.860486 
L 231.139192 65.569958 
L 231.197868 65.739465 
L 231.408617 66.618444 
L 231.526331 67.497422 
L 231.570651 68.376401 
L 231.555043 69.25538 
L 231.488441 70.134358 
L 231.376392 71.013337 
L 231.221843 71.892315 
L 231.139192 72.265393 
L 231.042124 72.771294 
L 230.840738 73.650273 
L 230.604817 74.529251 
L 230.367582 75.295485 
L 230.336895 75.40823 
L 230.072366 76.287209 
L 229.770236 77.166187 
L 229.595972 77.622391 
L 229.451003 78.045166 
L 229.11654 78.924145 
L 228.824362 79.601043 
L 228.74433 79.803123 
L 228.365659 80.682102 
L 228.052752 81.322839 
L 227.943282 81.56108 
L 227.506178 82.440059 
L 227.281142 82.855151 
L 227.038643 83.319038 
L 226.537467 84.198016 
L 226.509532 84.246735 
L 226.041562 85.076995 
L 225.737922 85.59238 
L 225.524543 85.955974 
L 225.004888 86.834952 
L 224.966312 86.904359 
L 224.514016 87.713931 
L 224.194702 88.299922 
L 224.032325 88.592909 
L 223.579162 89.471888 
L 223.423092 89.798859 
L 223.151555 90.350867 
L 222.734425 91.229845 
L 222.651482 91.415018 
L 222.322551 92.108824 
L 221.881607 92.987803 
L 221.879872 92.991211 
L 221.386146 93.866781 
L 221.108262 94.301623 
L 220.779176 94.74576 
L 220.336652 95.272421 
L 219.973666 95.624739 
L 219.565042 95.980194 
L 218.793432 96.491806 
L 218.770499 96.503717 
L 218.021822 96.869681 
L 217.250212 97.137625 
L 216.478602 97.324019 
L 216.139679 97.382696 
L 215.706992 97.458282 
L 214.935382 97.55555 
L 214.163772 97.62512 
L 213.392162 97.677741 
L 212.620552 97.721317 
L 211.848942 97.761311 
L 211.077332 97.801169 
L 210.305722 97.84274 
L 209.534112 97.886667 
L 208.762502 97.932742 
L 207.990892 97.9802 
L 207.219282 98.027942 
L 206.447672 98.074685 
L 205.676062 98.119027 
L 204.904452 98.159445 
L 204.132843 98.19422 
L 203.361233 98.221301 
L 202.589623 98.238144 
L 201.818013 98.241517 
L 201.046403 98.227336 
L 200.274793 98.190517 
L 199.503183 98.124892 
L 198.731573 98.023174 
L 197.959963 97.876975 
L 197.188353 97.676841 
L 196.416743 97.412277 
z
" style="fill:none;"/>
   </g>
   <g id="PathCollection_2">
    <path clip-path="url(#p0906d4cc7d)" d="M 196.416743 97.412277 
L 197.188353 97.676841 
L 197.959963 97.876975 
L 198.731573 98.023174 
L 199.503183 98.124892 
L 200.274793 98.190517 
L 201.046403 98.227336 
L 201.818013 98.241517 
L 202.589623 98.238144 
L 203.361233 98.221301 
L 204.132843 98.19422 
L 204.904452 98.159445 
L 205.676062 98.119027 
L 206.447672 98.074685 
L 207.219282 98.027942 
L 207.990892 97.9802 
L 208.762502 97.932742 
L 209.534112 97.886667 
L 210.305722 97.84274 
L 211.077332 97.801169 
L 211.848942 97.761311 
L 212.620552 97.721317 
L 213.392162 97.677741 
L 214.163772 97.62512 
L 214.935382 97.55555 
L 215.706992 97.458282 
L 216.139679 97.382696 
L 216.478602 97.324019 
L 217.250212 97.137625 
L 218.021822 96.869681 
L 218.770499 96.503717 
L 218.793432 96.491806 
L 219.565042 95.980194 
L 219.973666 95.624739 
L 220.336652 95.272421 
L 220.779176 94.74576 
L 221.108262 94.301623 
L 221.386146 93.866781 
L 221.879872 92.991211 
L 221.881607 92.987803 
L 222.322551 92.108824 
L 222.651482 91.415018 
L 222.734425 91.229845 
L 223.151555 90.350867 
L 223.423092 89.798859 
L 223.579162 89.471888 
L 224.032325 88.592909 
L 224.194702 88.299922 
L 224.514016 87.713931 
L 224.966312 86.904359 
L 225.004888 86.834952 
L 225.524543 85.955974 
L 225.737922 85.59238 
L 226.041562 85.076995 
L 226.509532 84.246735 
L 226.537467 84.198016 
L 227.038643 83.319038 
L 227.281142 82.855151 
L 227.506178 82.440059 
L 227.943282 81.56108 
L 228.052752 81.322839 
L 228.365659 80.682102 
L 228.74433 79.803123 
L 228.824362 79.601043 
L 229.11654 78.924145 
L 229.451003 78.045166 
L 229.595972 77.622391 
L 229.770236 77.166187 
L 230.072366 76.287209 
L 230.336895 75.40823 
L 230.367582 75.295485 
L 230.604817 74.529251 
L 230.840738 73.650273 
L 231.042124 72.771294 
L 231.139192 72.265393 
L 231.221843 71.892315 
L 231.376392 71.013337 
L 231.488441 70.134358 
L 231.555043 69.25538 
L 231.570651 68.376401 
L 231.526331 67.497422 
L 231.408617 66.618444 
L 231.197868 65.739465 
L 231.139192 65.569958 
L 230.881347 64.860486 
L 230.406487 63.981508 
L 230.367582 63.924946 
L 229.716473 63.102529 
L 229.595972 62.980704 
L 228.824362 62.330837 
L 228.665096 62.223551 
L 228.052752 61.855373 
L 227.281142 61.507039 
L 226.795768 61.344572 
L 226.509532 61.250978 
L 225.737922 61.062118 
L 224.966312 60.936605 
L 224.194702 60.863467 
L 223.423092 60.834524 
L 222.651482 60.843824 
L 221.879872 60.887227 
L 221.108262 60.962121 
L 220.336652 61.067227 
L 219.565042 61.202492 
L 218.905174 61.344572 
L 218.793432 61.364925 
L 218.021822 61.529771 
L 217.250212 61.722255 
L 216.478602 61.945841 
L 215.706992 62.20518 
L 215.657268 62.223551 
L 214.935382 62.453341 
L 214.163772 62.73413 
L 213.392162 63.057632 
L 213.293017 63.102529 
L 212.620552 63.368941 
L 211.848942 63.716325 
L 211.323168 63.981508 
L 211.077332 64.091269 
L 210.305722 64.463959 
L 209.587687 64.860486 
L 209.534112 64.886959 
L 208.762502 65.28711 
L 208.004547 65.739465 
L 207.990892 65.746841 
L 207.219282 66.179809 
L 206.536059 66.618444 
L 206.447672 66.67056 
L 205.676062 67.148369 
L 205.173003 67.497422 
L 204.904452 67.671885 
L 204.132843 68.216848 
L 203.922317 68.376401 
L 203.361233 68.784169 
L 202.778466 69.25538 
L 202.589623 69.405063 
L 201.818013 70.066527 
L 201.742689 70.134358 
L 201.046403 70.766544 
L 200.793053 71.013337 
L 200.274793 71.533977 
L 199.935779 71.892315 
L 199.503183 72.373929 
L 199.156861 72.771294 
L 198.731573 73.2948 
L 198.445403 73.650273 
L 197.959963 74.306695 
L 197.793482 74.529251 
L 197.194557 75.40823 
L 197.188353 75.418002 
L 196.612566 76.287209 
L 196.416743 76.61599 
L 196.069441 77.166187 
L 195.645133 77.912 
L 195.56382 78.045166 
L 195.06117 78.924145 
L 194.873523 79.282578 
L 194.576296 79.803123 
L 194.118769 80.682102 
L 194.101913 80.716515 
L 193.646477 81.56108 
L 193.330303 82.206302 
L 193.204127 82.440059 
L 192.76588 83.319038 
L 192.558693 83.777512 
L 192.34912 84.198016 
L 191.957611 85.076995 
L 191.787083 85.514627 
L 191.597646 85.955974 
L 191.279986 86.834952 
L 191.026137 87.713931 
L 191.015473 87.765513 
L 190.826979 88.592909 
L 190.71249 89.471888 
L 190.692623 90.350867 
L 190.779361 91.229845 
L 190.987268 92.108824 
L 191.015473 92.185302 
L 191.324223 92.987803 
L 191.787083 93.817402 
L 191.816879 93.866781 
L 192.4855 94.74576 
L 192.558693 94.827045 
L 193.330303 95.586709 
L 193.374665 95.624739 
L 194.101913 96.193963 
L 194.578218 96.503717 
L 194.873523 96.688179 
L 195.645133 97.092154 
L 196.346025 97.382696 
z
M 202.070679 93.866781 
L 201.818013 93.819456 
L 201.046403 93.640653 
L 200.274793 93.413144 
L 199.503183 93.125177 
L 199.196723 92.987803 
L 198.731573 92.760951 
L 197.959963 92.290347 
L 197.712449 92.108824 
L 197.188353 91.65072 
L 196.791204 91.229845 
L 196.416743 90.706637 
L 196.197322 90.350867 
L 195.827006 89.471888 
L 195.645133 88.700062 
L 195.62184 88.592909 
L 195.539434 87.713931 
L 195.556205 86.834952 
L 195.645133 86.030822 
L 195.652429 85.955974 
L 195.803627 85.076995 
L 196.005876 84.198016 
L 196.255225 83.319038 
L 196.416743 82.842306 
L 196.538317 82.440059 
L 196.846988 81.56108 
L 197.188353 80.715341 
L 197.200476 80.682102 
L 197.563206 79.803123 
L 197.959963 78.967188 
L 197.978792 78.924145 
L 198.408449 78.045166 
L 198.731573 77.468345 
L 198.891753 77.166187 
L 199.420247 76.287209 
L 199.503183 76.162352 
L 199.992422 75.40823 
L 200.274793 75.020821 
L 200.632077 74.529251 
L 201.046403 74.014401 
L 201.344916 73.650273 
L 201.818013 73.1191 
L 202.140281 72.771294 
L 202.589623 72.314981 
L 203.031259 71.892315 
L 203.361233 71.587993 
L 204.034259 71.013337 
L 204.132843 70.930216 
L 204.904452 70.31472 
L 205.149829 70.134358 
L 205.676062 69.741411 
L 206.40099 69.25538 
L 206.447672 69.222876 
L 207.219282 68.710417 
L 207.782175 68.376401 
L 207.990892 68.244861 
L 208.762502 67.789999 
L 209.313537 67.497422 
L 209.534112 67.370813 
L 210.305722 66.958078 
L 211.02027 66.618444 
L 211.077332 66.588717 
L 211.848942 66.211515 
L 212.620552 65.879343 
L 212.979174 65.739465 
L 213.392162 65.560685 
L 214.163772 65.262198 
L 214.935382 65.002303 
L 215.41563 64.860486 
L 215.706992 64.763674 
L 216.478602 64.541642 
L 217.250212 64.3559 
L 218.021822 64.20413 
L 218.793432 64.085232 
L 219.565042 63.999383 
L 219.840008 63.981508 
L 220.336652 63.944423 
L 221.108262 63.930185 
L 221.879872 63.963376 
L 222.046916 63.981508 
L 222.651482 64.045908 
L 223.423092 64.189221 
L 224.194702 64.410408 
L 224.966312 64.731066 
L 225.207361 64.860486 
L 225.737922 65.182156 
L 226.42293 65.739465 
L 226.509532 65.825465 
L 227.1601 66.618444 
L 227.281142 66.817157 
L 227.644159 67.497422 
L 227.957955 68.376401 
L 228.052752 68.794638 
L 228.153167 69.25538 
L 228.257737 70.134358 
L 228.286641 71.013337 
L 228.253232 71.892315 
L 228.166168 72.771294 
L 228.052752 73.504537 
L 228.032819 73.650273 
L 227.871305 74.529251 
L 227.670539 75.40823 
L 227.428005 76.287209 
L 227.281142 76.741429 
L 227.155751 77.166187 
L 226.85569 78.045166 
L 226.509532 78.906633 
L 226.502944 78.924145 
L 226.135197 79.803123 
L 225.737922 80.613345 
L 225.705462 80.682102 
L 225.251265 81.56108 
L 224.966312 82.051354 
L 224.742632 82.440059 
L 224.194702 83.301418 
L 224.183401 83.319038 
L 223.595832 84.198016 
L 223.423092 84.444356 
L 222.965818 85.076995 
L 222.651482 85.502163 
L 222.300504 85.955974 
L 221.879872 86.501369 
L 221.606821 86.834952 
L 221.108262 87.45871 
L 220.888448 87.713931 
L 220.336652 88.379644 
L 220.142874 88.592909 
L 219.565042 89.257984 
L 219.357115 89.471888 
L 218.793432 90.077148 
L 218.501054 90.350867 
L 218.021822 90.815067 
L 217.515612 91.229845 
L 217.250212 91.452196 
L 216.478602 91.993562 
L 216.282339 92.108824 
L 215.706992 92.454088 
L 214.935382 92.825271 
L 214.52198 92.987803 
L 214.163772 93.132961 
L 213.392162 93.39277 
L 212.620552 93.600755 
L 211.848942 93.768133 
L 211.290196 93.866781 
L 211.077332 93.906977 
L 210.305722 94.026711 
L 209.534112 94.120387 
L 208.762502 94.190732 
L 207.990892 94.239391 
L 207.219282 94.267179 
L 206.447672 94.274258 
L 205.676062 94.260231 
L 204.904452 94.224163 
L 204.132843 94.164523 
L 203.361233 94.079054 
L 202.589623 93.964575 
z
" style="fill:#fedecf;"/>
   </g>
   <g id="PathCollection_3">
    <path clip-path="url(#p0906d4cc7d)" d="M 202.589623 93.964575 
L 203.361233 94.079054 
L 204.132843 94.164523 
L 204.904452 94.224163 
L 205.676062 94.260231 
L 206.447672 94.274258 
L 207.219282 94.267179 
L 207.990892 94.239391 
L 208.762502 94.190732 
L 209.534112 94.120387 
L 210.305722 94.026711 
L 211.077332 93.906977 
L 211.290196 93.866781 
L 211.848942 93.768133 
L 212.620552 93.600755 
L 213.392162 93.39277 
L 214.163772 93.132961 
L 214.52198 92.987803 
L 214.935382 92.825271 
L 215.706992 92.454088 
L 216.282339 92.108824 
L 216.478602 91.993562 
L 217.250212 91.452196 
L 217.515612 91.229845 
L 218.021822 90.815067 
L 218.501054 90.350867 
L 218.793432 90.077148 
L 219.357115 89.471888 
L 219.565042 89.257984 
L 220.142874 88.592909 
L 220.336652 88.379644 
L 220.888448 87.713931 
L 221.108262 87.45871 
L 221.606821 86.834952 
L 221.879872 86.501369 
L 222.300504 85.955974 
L 222.651482 85.502163 
L 222.965818 85.076995 
L 223.423092 84.444356 
L 223.595832 84.198016 
L 224.183401 83.319038 
L 224.194702 83.301418 
L 224.742632 82.440059 
L 224.966312 82.051354 
L 225.251265 81.56108 
L 225.705462 80.682102 
L 225.737922 80.613345 
L 226.135197 79.803123 
L 226.502944 78.924145 
L 226.509532 78.906633 
L 226.85569 78.045166 
L 227.155751 77.166187 
L 227.281142 76.741429 
L 227.428005 76.287209 
L 227.670539 75.40823 
L 227.871305 74.529251 
L 228.032819 73.650273 
L 228.052752 73.504537 
L 228.166168 72.771294 
L 228.253232 71.892315 
L 228.286641 71.013337 
L 228.257737 70.134358 
L 228.153167 69.25538 
L 228.052752 68.794638 
L 227.957955 68.376401 
L 227.644159 67.497422 
L 227.281142 66.817157 
L 227.1601 66.618444 
L 226.509532 65.825465 
L 226.42293 65.739465 
L 225.737922 65.182156 
L 225.207361 64.860486 
L 224.966312 64.731066 
L 224.194702 64.410408 
L 223.423092 64.189221 
L 222.651482 64.045908 
L 222.046916 63.981508 
L 221.879872 63.963376 
L 221.108262 63.930185 
L 220.336652 63.944423 
L 219.840008 63.981508 
L 219.565042 63.999383 
L 218.793432 64.085232 
L 218.021822 64.20413 
L 217.250212 64.3559 
L 216.478602 64.541642 
L 215.706992 64.763674 
L 215.41563 64.860486 
L 214.935382 65.002303 
L 214.163772 65.262198 
L 213.392162 65.560685 
L 212.979174 65.739465 
L 212.620552 65.879343 
L 211.848942 66.211515 
L 211.077332 66.588717 
L 211.02027 66.618444 
L 210.305722 66.958078 
L 209.534112 67.370813 
L 209.313537 67.497422 
L 208.762502 67.789999 
L 207.990892 68.244861 
L 207.782175 68.376401 
L 207.219282 68.710417 
L 206.447672 69.222876 
L 206.40099 69.25538 
L 205.676062 69.741411 
L 205.149829 70.134358 
L 204.904452 70.31472 
L 204.132843 70.930216 
L 204.034259 71.013337 
L 203.361233 71.587993 
L 203.031259 71.892315 
L 202.589623 72.314981 
L 202.140281 72.771294 
L 201.818013 73.1191 
L 201.344916 73.650273 
L 201.046403 74.014401 
L 200.632077 74.529251 
L 200.274793 75.020821 
L 199.992422 75.40823 
L 199.503183 76.162352 
L 199.420247 76.287209 
L 198.891753 77.166187 
L 198.731573 77.468345 
L 198.408449 78.045166 
L 197.978792 78.924145 
L 197.959963 78.967188 
L 197.563206 79.803123 
L 197.200476 80.682102 
L 197.188353 80.715341 
L 196.846988 81.56108 
L 196.538317 82.440059 
L 196.416743 82.842306 
L 196.255225 83.319038 
L 196.005876 84.198016 
L 195.803627 85.076995 
L 195.652429 85.955974 
L 195.645133 86.030822 
L 195.556205 86.834952 
L 195.539434 87.713931 
L 195.62184 88.592909 
L 195.645133 88.700062 
L 195.827006 89.471888 
L 196.197322 90.350867 
L 196.416743 90.706637 
L 196.791204 91.229845 
L 197.188353 91.65072 
L 197.712449 92.108824 
L 197.959963 92.290347 
L 198.731573 92.760951 
L 199.196723 92.987803 
L 199.503183 93.125177 
L 200.274793 93.413144 
L 201.046403 93.640653 
L 201.818013 93.819456 
L 202.070679 93.866781 
z
M 204.110797 91.229845 
L 203.361233 91.0279 
L 202.589623 90.756756 
L 201.818013 90.406632 
L 201.713771 90.350867 
L 201.046403 89.951725 
L 200.419349 89.471888 
L 200.274793 89.338733 
L 199.610326 88.592909 
L 199.503183 88.431588 
L 199.093404 87.713931 
L 198.776958 86.834952 
L 198.731573 86.619494 
L 198.602382 85.955974 
L 198.537737 85.076995 
L 198.561149 84.198016 
L 198.657817 83.319038 
L 198.731573 82.92657 
L 198.812946 82.440059 
L 199.017586 81.56108 
L 199.277209 80.682102 
L 199.503183 80.05941 
L 199.588629 79.803123 
L 199.940514 78.924145 
L 200.274793 78.223534 
L 200.355288 78.045166 
L 200.817387 77.166187 
L 201.046403 76.790303 
L 201.346171 76.287209 
L 201.818013 75.601105 
L 201.950563 75.40823 
L 202.589623 74.587532 
L 202.635968 74.529251 
L 203.361233 73.705979 
L 203.412408 73.650273 
L 204.132843 72.924392 
L 204.294382 72.771294 
L 204.904452 72.221852 
L 205.300088 71.892315 
L 205.676062 71.586802 
L 206.447672 71.014926 
L 206.449932 71.013337 
L 207.219282 70.469793 
L 207.747584 70.134358 
L 207.990892 69.975592 
L 208.762502 69.508285 
L 209.221609 69.25538 
L 209.534112 69.074417 
L 210.305722 68.662973 
L 210.902171 68.376401 
L 211.077332 68.286333 
L 211.848942 67.920256 
L 212.620552 67.595866 
L 212.879427 67.497422 
L 213.392162 67.285585 
L 214.163772 67.004564 
L 214.935382 66.761434 
L 215.465008 66.618444 
L 215.706992 66.546473 
L 216.478602 66.355905 
L 217.250212 66.205508 
L 218.021822 66.095422 
L 218.793432 66.027377 
L 219.565042 66.004973 
L 220.336652 66.034136 
L 221.108262 66.123768 
L 221.879872 66.28672 
L 222.651482 66.541197 
L 222.825664 66.618444 
L 223.423092 66.915999 
L 224.194702 67.459821 
L 224.237831 67.497422 
L 224.966312 68.297564 
L 225.024885 68.376401 
L 225.520635 69.25538 
L 225.737922 69.843641 
L 225.83544 70.134358 
L 226.023813 71.013337 
L 226.113864 71.892315 
L 226.125943 72.771294 
L 226.073218 73.650273 
L 225.963454 74.529251 
L 225.800077 75.40823 
L 225.737922 75.661141 
L 225.596254 76.287209 
L 225.347875 77.166187 
L 225.044144 78.045166 
L 224.966312 78.238145 
L 224.702359 78.924145 
L 224.301806 79.803123 
L 224.194702 80.010867 
L 223.854786 80.682102 
L 223.423092 81.421839 
L 223.341707 81.56108 
L 222.775074 82.440059 
L 222.651482 82.617247 
L 222.147686 83.319038 
L 221.879872 83.668833 
L 221.45565 84.198016 
L 221.108262 84.61595 
L 220.700371 85.076995 
L 220.336652 85.484211 
L 219.880882 85.955974 
L 219.565042 86.287503 
L 218.991508 86.834952 
L 218.793432 87.030329 
L 218.021822 87.710457 
L 218.017473 87.713931 
L 217.250212 88.357124 
L 216.924187 88.592909 
L 216.478602 88.933395 
L 215.706992 89.432902 
L 215.638081 89.471888 
L 214.935382 89.894266 
L 214.163772 90.272434 
L 213.974919 90.350867 
L 213.392162 90.609314 
L 212.620552 90.888003 
L 211.848942 91.110049 
L 211.324037 91.229845 
L 211.077332 91.290799 
L 210.305722 91.438554 
L 209.534112 91.544418 
L 208.762502 91.611958 
L 207.990892 91.643186 
L 207.219282 91.638793 
L 206.447672 91.598255 
L 205.676062 91.519844 
L 204.904452 91.400518 
L 204.132843 91.235685 
z
" style="fill:#fcc2aa;"/>
   </g>
   <g id="PathCollection_4">
    <path clip-path="url(#p0906d4cc7d)" d="M 204.132843 91.235685 
L 204.904452 91.400518 
L 205.676062 91.519844 
L 206.447672 91.598255 
L 207.219282 91.638793 
L 207.990892 91.643186 
L 208.762502 91.611958 
L 209.534112 91.544418 
L 210.305722 91.438554 
L 211.077332 91.290799 
L 211.324037 91.229845 
L 211.848942 91.110049 
L 212.620552 90.888003 
L 213.392162 90.609314 
L 213.974919 90.350867 
L 214.163772 90.272434 
L 214.935382 89.894266 
L 215.638081 89.471888 
L 215.706992 89.432902 
L 216.478602 88.933395 
L 216.924187 88.592909 
L 217.250212 88.357124 
L 218.017473 87.713931 
L 218.021822 87.710457 
L 218.793432 87.030329 
L 218.991508 86.834952 
L 219.565042 86.287503 
L 219.880882 85.955974 
L 220.336652 85.484211 
L 220.700371 85.076995 
L 221.108262 84.61595 
L 221.45565 84.198016 
L 221.879872 83.668833 
L 222.147686 83.319038 
L 222.651482 82.617247 
L 222.775074 82.440059 
L 223.341707 81.56108 
L 223.423092 81.421839 
L 223.854786 80.682102 
L 224.194702 80.010867 
L 224.301806 79.803123 
L 224.702359 78.924145 
L 224.966312 78.238145 
L 225.044144 78.045166 
L 225.347875 77.166187 
L 225.596254 76.287209 
L 225.737922 75.661141 
L 225.800077 75.40823 
L 225.963454 74.529251 
L 226.073218 73.650273 
L 226.125943 72.771294 
L 226.113864 71.892315 
L 226.023813 71.013337 
L 225.83544 70.134358 
L 225.737922 69.843641 
L 225.520635 69.25538 
L 225.024885 68.376401 
L 224.966312 68.297564 
L 224.237831 67.497422 
L 224.194702 67.459821 
L 223.423092 66.915999 
L 222.825664 66.618444 
L 222.651482 66.541197 
L 221.879872 66.28672 
L 221.108262 66.123768 
L 220.336652 66.034136 
L 219.565042 66.004973 
L 218.793432 66.027377 
L 218.021822 66.095422 
L 217.250212 66.205508 
L 216.478602 66.355905 
L 215.706992 66.546473 
L 215.465008 66.618444 
L 214.935382 66.761434 
L 214.163772 67.004564 
L 213.392162 67.285585 
L 212.879427 67.497422 
L 212.620552 67.595866 
L 211.848942 67.920256 
L 211.077332 68.286333 
L 210.902171 68.376401 
L 210.305722 68.662973 
L 209.534112 69.074417 
L 209.221609 69.25538 
L 208.762502 69.508285 
L 207.990892 69.975592 
L 207.747584 70.134358 
L 207.219282 70.469793 
L 206.449932 71.013337 
L 206.447672 71.014926 
L 205.676062 71.586802 
L 205.300088 71.892315 
L 204.904452 72.221852 
L 204.294382 72.771294 
L 204.132843 72.924392 
L 203.412408 73.650273 
L 203.361233 73.705979 
L 202.635968 74.529251 
L 202.589623 74.587532 
L 201.950563 75.40823 
L 201.818013 75.601105 
L 201.346171 76.287209 
L 201.046403 76.790303 
L 200.817387 77.166187 
L 200.355288 78.045166 
L 200.274793 78.223534 
L 199.940514 78.924145 
L 199.588629 79.803123 
L 199.503183 80.05941 
L 199.277209 80.682102 
L 199.017586 81.56108 
L 198.812946 82.440059 
L 198.731573 82.92657 
L 198.657817 83.319038 
L 198.561149 84.198016 
L 198.537737 85.076995 
L 198.602382 85.955974 
L 198.731573 86.619494 
L 198.776958 86.834952 
L 199.093404 87.713931 
L 199.503183 88.431588 
L 199.610326 88.592909 
L 200.274793 89.338733 
L 200.419349 89.471888 
L 201.046403 89.951725 
L 201.713771 90.350867 
L 201.818013 90.406632 
L 202.589623 90.756756 
L 203.361233 91.0279 
L 204.110797 91.229845 
z
M 206.691361 89.471888 
L 206.447672 89.439864 
L 205.676062 89.284296 
L 204.904452 89.061698 
L 204.132843 88.758278 
L 203.799188 88.592909 
L 203.361233 88.353468 
L 202.589623 87.806269 
L 202.48162 87.713931 
L 201.818013 87.013645 
L 201.678139 86.834952 
L 201.167166 85.955974 
L 201.046403 85.642066 
L 200.852334 85.076995 
L 200.681956 84.198016 
L 200.624732 83.319038 
L 200.659758 82.440059 
L 200.774657 81.56108 
L 200.963875 80.682102 
L 201.046403 80.408832 
L 201.216249 79.803123 
L 201.535339 78.924145 
L 201.818013 78.298542 
L 201.927862 78.045166 
L 202.388933 77.166187 
L 202.589623 76.842199 
L 202.931366 76.287209 
L 203.361233 75.688739 
L 203.566001 75.40823 
L 204.132843 74.725497 
L 204.302006 74.529251 
L 204.904452 73.89751 
L 205.154112 73.650273 
L 205.676062 73.169476 
L 206.141788 72.771294 
L 206.447672 72.521029 
L 207.219282 71.940024 
L 207.286919 71.892315 
L 207.990892 71.402296 
L 208.611352 71.013337 
L 208.762502 70.917484 
L 209.534112 70.462675 
L 210.153471 70.134358 
L 210.305722 70.050712 
L 211.077332 69.659846 
L 211.848942 69.311909 
L 211.987046 69.25538 
L 212.620552 68.980994 
L 213.392162 68.686744 
L 214.163772 68.430704 
L 214.354731 68.376401 
L 214.935382 68.198854 
L 215.706992 68.005141 
L 216.478602 67.854089 
L 217.250212 67.747377 
L 218.021822 67.68863 
L 218.793432 67.683869 
L 219.565042 67.742206 
L 220.336652 67.876911 
L 221.108262 68.10699 
L 221.711942 68.376401 
L 221.879872 68.462865 
L 222.651482 69.007667 
L 222.916611 69.25538 
L 223.423092 69.875319 
L 223.595334 70.134358 
L 224.009751 71.013337 
L 224.194702 71.653461 
L 224.257349 71.892315 
L 224.384925 72.771294 
L 224.418228 73.650273 
L 224.3732 74.529251 
L 224.258861 75.40823 
L 224.194702 75.719963 
L 224.085366 76.287209 
L 223.855087 77.166187 
L 223.560985 78.045166 
L 223.423092 78.384066 
L 223.209428 78.924145 
L 222.792657 79.803123 
L 222.651482 80.061127 
L 222.311139 80.682102 
L 221.879872 81.365254 
L 221.753609 81.56108 
L 221.120079 82.440059 
L 221.108262 82.45536 
L 220.408007 83.319038 
L 220.336652 83.40219 
L 219.607004 84.198016 
L 219.565042 84.242502 
L 218.793432 85.002057 
L 218.710192 85.076995 
L 218.021822 85.697325 
L 217.700601 85.955974 
L 217.250212 86.327224 
L 216.547266 86.834952 
L 216.478602 86.88664 
L 215.706992 87.40674 
L 215.170804 87.713931 
L 214.935382 87.85674 
L 214.163772 88.260547 
L 213.392162 88.592441 
L 213.390871 88.592909 
L 212.620552 88.893719 
L 211.848942 89.132678 
L 211.077332 89.316998 
L 210.305722 89.452017 
L 210.132879 89.471888 
L 209.534112 89.547434 
L 208.762502 89.595189 
L 207.990892 89.593959 
L 207.219282 89.542571 
z
" style="fill:#fca588;"/>
   </g>
   <g id="PathCollection_5">
    <path clip-path="url(#p0906d4cc7d)" d="M 207.219282 89.542571 
L 207.990892 89.593959 
L 208.762502 89.595189 
L 209.534112 89.547434 
L 210.132879 89.471888 
L 210.305722 89.452017 
L 211.077332 89.316998 
L 211.848942 89.132678 
L 212.620552 88.893719 
L 213.390871 88.592909 
L 213.392162 88.592441 
L 214.163772 88.260547 
L 214.935382 87.85674 
L 215.170804 87.713931 
L 215.706992 87.40674 
L 216.478602 86.88664 
L 216.547266 86.834952 
L 217.250212 86.327224 
L 217.700601 85.955974 
L 218.021822 85.697325 
L 218.710192 85.076995 
L 218.793432 85.002057 
L 219.565042 84.242502 
L 219.607004 84.198016 
L 220.336652 83.40219 
L 220.408007 83.319038 
L 221.108262 82.45536 
L 221.120079 82.440059 
L 221.753609 81.56108 
L 221.879872 81.365254 
L 222.311139 80.682102 
L 222.651482 80.061127 
L 222.792657 79.803123 
L 223.209428 78.924145 
L 223.423092 78.384066 
L 223.560985 78.045166 
L 223.855087 77.166187 
L 224.085366 76.287209 
L 224.194702 75.719963 
L 224.258861 75.40823 
L 224.3732 74.529251 
L 224.418228 73.650273 
L 224.384925 72.771294 
L 224.257349 71.892315 
L 224.194702 71.653461 
L 224.009751 71.013337 
L 223.595334 70.134358 
L 223.423092 69.875319 
L 222.916611 69.25538 
L 222.651482 69.007667 
L 221.879872 68.462865 
L 221.711942 68.376401 
L 221.108262 68.10699 
L 220.336652 67.876911 
L 219.565042 67.742206 
L 218.793432 67.683869 
L 218.021822 67.68863 
L 217.250212 67.747377 
L 216.478602 67.854089 
L 215.706992 68.005141 
L 214.935382 68.198854 
L 214.354731 68.376401 
L 214.163772 68.430704 
L 213.392162 68.686744 
L 212.620552 68.980994 
L 211.987046 69.25538 
L 211.848942 69.311909 
L 211.077332 69.659846 
L 210.305722 70.050712 
L 210.153471 70.134358 
L 209.534112 70.462675 
L 208.762502 70.917484 
L 208.611352 71.013337 
L 207.990892 71.402296 
L 207.286919 71.892315 
L 207.219282 71.940024 
L 206.447672 72.521029 
L 206.141788 72.771294 
L 205.676062 73.169476 
L 205.154112 73.650273 
L 204.904452 73.89751 
L 204.302006 74.529251 
L 204.132843 74.725497 
L 203.566001 75.40823 
L 203.361233 75.688739 
L 202.931366 76.287209 
L 202.589623 76.842199 
L 202.388933 77.166187 
L 201.927862 78.045166 
L 201.818013 78.298542 
L 201.535339 78.924145 
L 201.216249 79.803123 
L 201.046403 80.408832 
L 200.963875 80.682102 
L 200.774657 81.56108 
L 200.659758 82.440059 
L 200.624732 83.319038 
L 200.681956 84.198016 
L 200.852334 85.076995 
L 201.046403 85.642066 
L 201.167166 85.955974 
L 201.678139 86.834952 
L 201.818013 87.013645 
L 202.48162 87.713931 
L 202.589623 87.806269 
L 203.361233 88.353468 
L 203.799188 88.592909 
L 204.132843 88.758278 
L 204.904452 89.061698 
L 205.676062 89.284296 
L 206.447672 89.439864 
L 206.691361 89.471888 
z
M 207.102373 87.713931 
L 206.447672 87.55615 
L 205.676062 87.282834 
L 204.904452 86.898646 
L 204.801851 86.834952 
L 204.132843 86.351214 
L 203.710162 85.955974 
L 203.361233 85.536442 
L 203.04577 85.076995 
L 202.63792 84.198016 
L 202.589623 84.02764 
L 202.409002 83.319038 
L 202.316072 82.440059 
L 202.334786 81.56108 
L 202.451068 80.682102 
L 202.589623 80.100716 
L 202.656455 79.803123 
L 202.943672 78.924145 
L 203.322202 78.045166 
L 203.361233 77.971951 
L 203.786281 77.166187 
L 204.132843 76.62556 
L 204.352389 76.287209 
L 204.904452 75.565009 
L 205.028455 75.40823 
L 205.676062 74.690267 
L 205.829423 74.529251 
L 206.447672 73.941211 
L 206.776505 73.650273 
L 207.219282 73.283961 
L 207.895529 72.771294 
L 207.990892 72.701643 
L 208.762502 72.177322 
L 209.225376 71.892315 
L 209.534112 71.703503 
L 210.305722 71.273251 
L 210.823242 71.013337 
L 211.077332 70.883203 
L 211.848942 70.526853 
L 212.620552 70.212338 
L 212.838431 70.134358 
L 213.392162 69.927623 
L 214.163772 69.682298 
L 214.935382 69.479702 
L 215.706992 69.320983 
L 216.167347 69.25538 
L 216.478602 69.20825 
L 217.250212 69.149372 
L 218.021822 69.153971 
L 218.793432 69.232901 
L 218.902896 69.25538 
L 219.565042 69.405594 
L 220.336652 69.700712 
L 221.072078 70.134358 
L 221.108262 70.160755 
L 221.879872 70.923739 
L 221.950202 71.013337 
L 222.450087 71.892315 
L 222.651482 72.473364 
L 222.741852 72.771294 
L 222.886605 73.650273 
L 222.921357 74.529251 
L 222.864654 75.40823 
L 222.726513 76.287209 
L 222.651482 76.591127 
L 222.514825 77.166187 
L 222.231369 78.045166 
L 221.879872 78.898744 
L 221.869504 78.924145 
L 221.435757 79.803123 
L 221.108262 80.361164 
L 220.915889 80.682102 
L 220.336652 81.519852 
L 220.306957 81.56108 
L 219.602171 82.440059 
L 219.565042 82.482899 
L 218.793432 83.314381 
L 218.78877 83.319038 
L 218.021822 84.049203 
L 217.8493 84.198016 
L 217.250212 84.704994 
L 216.755411 85.076995 
L 216.478602 85.286543 
L 215.706992 85.803182 
L 215.446097 85.955974 
L 214.935382 86.264789 
L 214.163772 86.661746 
L 213.764356 86.834952 
L 213.392162 87.005161 
L 212.620552 87.295761 
L 211.848942 87.52489 
L 211.077332 87.697615 
L 210.970932 87.713931 
L 210.305722 87.824181 
L 209.534112 87.893918 
L 208.762502 87.9054 
L 207.990892 87.856179 
L 207.219282 87.741193 
z
" style="fill:#fc8767;"/>
   </g>
   <g id="PathCollection_6">
    <path clip-path="url(#p0906d4cc7d)" d="M 207.219282 87.741193 
L 207.990892 87.856179 
L 208.762502 87.9054 
L 209.534112 87.893918 
L 210.305722 87.824181 
L 210.970932 87.713931 
L 211.077332 87.697615 
L 211.848942 87.52489 
L 212.620552 87.295761 
L 213.392162 87.005161 
L 213.764356 86.834952 
L 214.163772 86.661746 
L 214.935382 86.264789 
L 215.446097 85.955974 
L 215.706992 85.803182 
L 216.478602 85.286543 
L 216.755411 85.076995 
L 217.250212 84.704994 
L 217.8493 84.198016 
L 218.021822 84.049203 
L 218.78877 83.319038 
L 218.793432 83.314381 
L 219.565042 82.482899 
L 219.602171 82.440059 
L 220.306957 81.56108 
L 220.336652 81.519852 
L 220.915889 80.682102 
L 221.108262 80.361164 
L 221.435757 79.803123 
L 221.869504 78.924145 
L 221.879872 78.898744 
L 222.231369 78.045166 
L 222.514825 77.166187 
L 222.651482 76.591127 
L 222.726513 76.287209 
L 222.864654 75.40823 
L 222.921357 74.529251 
L 222.886605 73.650273 
L 222.741852 72.771294 
L 222.651482 72.473364 
L 222.450087 71.892315 
L 221.950202 71.013337 
L 221.879872 70.923739 
L 221.108262 70.160755 
L 221.072078 70.134358 
L 220.336652 69.700712 
L 219.565042 69.405594 
L 218.902896 69.25538 
L 218.793432 69.232901 
L 218.021822 69.153971 
L 217.250212 69.149372 
L 216.478602 69.20825 
L 216.167347 69.25538 
L 215.706992 69.320983 
L 214.935382 69.479702 
L 214.163772 69.682298 
L 213.392162 69.927623 
L 212.838431 70.134358 
L 212.620552 70.212338 
L 211.848942 70.526853 
L 211.077332 70.883203 
L 210.823242 71.013337 
L 210.305722 71.273251 
L 209.534112 71.703503 
L 209.225376 71.892315 
L 208.762502 72.177322 
L 207.990892 72.701643 
L 207.895529 72.771294 
L 207.219282 73.283961 
L 206.776505 73.650273 
L 206.447672 73.941211 
L 205.829423 74.529251 
L 205.676062 74.690267 
L 205.028455 75.40823 
L 204.904452 75.565009 
L 204.352389 76.287209 
L 204.132843 76.62556 
L 203.786281 77.166187 
L 203.361233 77.971951 
L 203.322202 78.045166 
L 202.943672 78.924145 
L 202.656455 79.803123 
L 202.589623 80.100716 
L 202.451068 80.682102 
L 202.334786 81.56108 
L 202.316072 82.440059 
L 202.409002 83.319038 
L 202.589623 84.02764 
L 202.63792 84.198016 
L 203.04577 85.076995 
L 203.361233 85.536442 
L 203.710162 85.955974 
L 204.132843 86.351214 
L 204.801851 86.834952 
L 204.904452 86.898646 
L 205.676062 87.282834 
L 206.447672 87.55615 
L 207.102373 87.713931 
z
M 206.94678 85.955974 
L 206.447672 85.742126 
L 205.676062 85.272971 
L 205.429187 85.076995 
L 204.904452 84.547793 
L 204.629753 84.198016 
L 204.160162 83.319038 
L 204.132843 83.23405 
L 203.90953 82.440059 
L 203.816776 81.56108 
L 203.854079 80.682102 
L 204.006265 79.803123 
L 204.132843 79.381157 
L 204.266261 78.924145 
L 204.631624 78.045166 
L 204.904452 77.54051 
L 205.108731 77.166187 
L 205.676062 76.328725 
L 205.705108 76.287209 
L 206.436233 75.40823 
L 206.447672 75.396165 
L 207.219282 74.627786 
L 207.325572 74.529251 
L 207.990892 73.969171 
L 208.404588 73.650273 
L 208.762502 73.391014 
L 209.534112 72.882517 
L 209.719627 72.771294 
L 210.305722 72.429887 
L 211.077332 72.028533 
L 211.371247 71.892315 
L 211.848942 71.670848 
L 212.620552 71.358359 
L 213.392162 71.090002 
L 213.659403 71.013337 
L 214.163772 70.864931 
L 214.935382 70.689252 
L 215.706992 70.567528 
L 216.478602 70.506314 
L 217.250212 70.515975 
L 218.021822 70.611925 
L 218.793432 70.81659 
L 219.251757 71.013337 
L 219.565042 71.177804 
L 220.336652 71.782944 
L 220.440787 71.892315 
L 221.031574 72.771294 
L 221.108262 72.956069 
L 221.349437 73.650273 
L 221.496241 74.529251 
L 221.514357 75.40823 
L 221.425706 76.287209 
L 221.241587 77.166187 
L 221.108262 77.589371 
L 220.965933 78.045166 
L 220.60053 78.924145 
L 220.336652 79.432336 
L 220.139982 79.803123 
L 219.579438 80.682102 
L 219.565042 80.701873 
L 218.906562 81.56108 
L 218.793432 81.693249 
L 218.10707 82.440059 
L 218.021822 82.525909 
L 217.250212 83.239308 
L 217.155073 83.319038 
L 216.478602 83.861528 
L 216.002859 84.198016 
L 215.706992 84.40431 
L 214.935382 84.875011 
L 214.549375 85.076995 
L 214.163772 85.281734 
L 213.392162 85.625305 
L 212.620552 85.903307 
L 212.432768 85.955974 
L 211.848942 86.126912 
L 211.077332 86.288131 
L 210.305722 86.385432 
L 209.534112 86.417364 
L 208.762502 86.379645 
L 207.990892 86.264628 
L 207.219282 86.060358 
z
" style="fill:#fb694a;"/>
   </g>
   <g id="PathCollection_7">
    <path clip-path="url(#p0906d4cc7d)" d="M 207.219282 86.060358 
L 207.990892 86.264628 
L 208.762502 86.379645 
L 209.534112 86.417364 
L 210.305722 86.385432 
L 211.077332 86.288131 
L 211.848942 86.126912 
L 212.432768 85.955974 
L 212.620552 85.903307 
L 213.392162 85.625305 
L 214.163772 85.281734 
L 214.549375 85.076995 
L 214.935382 84.875011 
L 215.706992 84.40431 
L 216.002859 84.198016 
L 216.478602 83.861528 
L 217.155073 83.319038 
L 217.250212 83.239308 
L 218.021822 82.525909 
L 218.10707 82.440059 
L 218.793432 81.693249 
L 218.906562 81.56108 
L 219.565042 80.701873 
L 219.579438 80.682102 
L 220.139982 79.803123 
L 220.336652 79.432336 
L 220.60053 78.924145 
L 220.965933 78.045166 
L 221.108262 77.589371 
L 221.241587 77.166187 
L 221.425706 76.287209 
L 221.514357 75.40823 
L 221.496241 74.529251 
L 221.349437 73.650273 
L 221.108262 72.956069 
L 221.031574 72.771294 
L 220.440787 71.892315 
L 220.336652 71.782944 
L 219.565042 71.177804 
L 219.251757 71.013337 
L 218.793432 70.81659 
L 218.021822 70.611925 
L 217.250212 70.515975 
L 216.478602 70.506314 
L 215.706992 70.567528 
L 214.935382 70.689252 
L 214.163772 70.864931 
L 213.659403 71.013337 
L 213.392162 71.090002 
L 212.620552 71.358359 
L 211.848942 71.670848 
L 211.371247 71.892315 
L 211.077332 72.028533 
L 210.305722 72.429887 
L 209.719627 72.771294 
L 209.534112 72.882517 
L 208.762502 73.391014 
L 208.404588 73.650273 
L 207.990892 73.969171 
L 207.325572 74.529251 
L 207.219282 74.627786 
L 206.447672 75.396165 
L 206.436233 75.40823 
L 205.705108 76.287209 
L 205.676062 76.328725 
L 205.108731 77.166187 
L 204.904452 77.54051 
L 204.631624 78.045166 
L 204.266261 78.924145 
L 204.132843 79.381157 
L 204.006265 79.803123 
L 203.854079 80.682102 
L 203.816776 81.56108 
L 203.90953 82.440059 
L 204.132843 83.23405 
L 204.160162 83.319038 
L 204.629753 84.198016 
L 204.904452 84.547793 
L 205.429187 85.076995 
L 205.676062 85.272971 
L 206.447672 85.742126 
L 206.94678 85.955974 
z
M 207.036684 84.198016 
L 206.447672 83.720712 
L 206.079966 83.319038 
L 205.676062 82.658453 
L 205.567515 82.440059 
L 205.321657 81.56108 
L 205.258834 80.682102 
L 205.348154 79.803123 
L 205.572883 78.924145 
L 205.676062 78.670608 
L 205.93281 78.045166 
L 206.424632 77.166187 
L 206.447672 77.133417 
L 207.068934 76.287209 
L 207.219282 76.115962 
L 207.881695 75.40823 
L 207.990892 75.306288 
L 208.762502 74.640535 
L 208.903625 74.529251 
L 209.534112 74.076986 
L 210.196042 73.650273 
L 210.305722 73.583567 
L 211.077332 73.164905 
L 211.848942 72.797257 
L 211.912763 72.771294 
L 212.620552 72.490096 
L 213.392162 72.235784 
L 214.163772 72.035091 
L 214.935382 71.893109 
L 214.944188 71.892315 
L 215.706992 71.823268 
L 216.478602 71.832876 
L 216.923443 71.892315 
L 217.250212 71.943683 
L 218.021822 72.199297 
L 218.793432 72.647153 
L 218.943188 72.771294 
L 219.565042 73.515437 
L 219.64953 73.650273 
L 219.988056 74.529251 
L 220.124119 75.40823 
L 220.105927 76.287209 
L 219.960879 77.166187 
L 219.702535 78.045166 
L 219.565042 78.372691 
L 219.328328 78.924145 
L 218.841105 79.803123 
L 218.793432 79.874213 
L 218.222143 80.682102 
L 218.021822 80.925649 
L 217.458763 81.56108 
L 217.250212 81.771442 
L 216.52032 82.440059 
L 216.478602 82.475476 
L 215.706992 83.063647 
L 215.323398 83.319038 
L 214.935382 83.56686 
L 214.163772 83.988103 
L 213.701926 84.198016 
L 213.392162 84.33758 
L 212.620552 84.614757 
L 211.848942 84.821803 
L 211.077332 84.958444 
L 210.305722 85.021279 
L 209.534112 85.003273 
L 208.762502 84.892802 
L 207.990892 84.672054 
L 207.219282 84.314393 
z
" style="fill:#f24734;"/>
   </g>
   <g id="PathCollection_8">
    <path clip-path="url(#p0906d4cc7d)" d="M 207.219282 84.314393 
L 207.990892 84.672054 
L 208.762502 84.892802 
L 209.534112 85.003273 
L 210.305722 85.021279 
L 211.077332 84.958444 
L 211.848942 84.821803 
L 212.620552 84.614757 
L 213.392162 84.33758 
L 213.701926 84.198016 
L 214.163772 83.988103 
L 214.935382 83.56686 
L 215.323398 83.319038 
L 215.706992 83.063647 
L 216.478602 82.475476 
L 216.52032 82.440059 
L 217.250212 81.771442 
L 217.458763 81.56108 
L 218.021822 80.925649 
L 218.222143 80.682102 
L 218.793432 79.874213 
L 218.841105 79.803123 
L 219.328328 78.924145 
L 219.565042 78.372691 
L 219.702535 78.045166 
L 219.960879 77.166187 
L 220.105927 76.287209 
L 220.124119 75.40823 
L 219.988056 74.529251 
L 219.64953 73.650273 
L 219.565042 73.515437 
L 218.943188 72.771294 
L 218.793432 72.647153 
L 218.021822 72.199297 
L 217.250212 71.943683 
L 216.923443 71.892315 
L 216.478602 71.832876 
L 215.706992 71.823268 
L 214.944188 71.892315 
L 214.935382 71.893109 
L 214.163772 72.035091 
L 213.392162 72.235784 
L 212.620552 72.490096 
L 211.912763 72.771294 
L 211.848942 72.797257 
L 211.077332 73.164905 
L 210.305722 73.583567 
L 210.196042 73.650273 
L 209.534112 74.076986 
L 208.903625 74.529251 
L 208.762502 74.640535 
L 207.990892 75.306288 
L 207.881695 75.40823 
L 207.219282 76.115962 
L 207.068934 76.287209 
L 206.447672 77.133417 
L 206.424632 77.166187 
L 205.93281 78.045166 
L 205.676062 78.670608 
L 205.572883 78.924145 
L 205.348154 79.803123 
L 205.258834 80.682102 
L 205.321657 81.56108 
L 205.567515 82.440059 
L 205.676062 82.658453 
L 206.079966 83.319038 
L 206.447672 83.720712 
L 207.036684 84.198016 
z
M 208.840017 83.319038 
L 208.762502 83.290657 
L 207.990892 82.831 
L 207.555175 82.440059 
L 207.219282 81.971122 
L 206.996205 81.56108 
L 206.771599 80.682102 
L 206.769295 79.803123 
L 206.950138 78.924145 
L 207.219282 78.239844 
L 207.298756 78.045166 
L 207.826009 77.166187 
L 207.990892 76.95402 
L 208.546061 76.287209 
L 208.762502 76.072427 
L 209.494006 75.40823 
L 209.534112 75.376523 
L 210.305722 74.829922 
L 210.785256 74.529251 
L 211.077332 74.362642 
L 211.848942 73.985082 
L 212.620552 73.666545 
L 212.671711 73.650273 
L 213.392162 73.433605 
L 214.163772 73.27087 
L 214.935382 73.187284 
L 215.706992 73.200156 
L 216.478602 73.336622 
L 217.250212 73.638402 
L 217.269778 73.650273 
L 218.021822 74.3161 
L 218.184513 74.529251 
L 218.559827 75.40823 
L 218.673051 76.287209 
L 218.593537 77.166187 
L 218.358787 78.045166 
L 218.021822 78.839216 
L 217.984002 78.924145 
L 217.447452 79.803123 
L 217.250212 80.063308 
L 216.741819 80.682102 
L 216.478602 80.95433 
L 215.826837 81.56108 
L 215.706992 81.660291 
L 214.935382 82.22037 
L 214.581289 82.440059 
L 214.163772 82.679582 
L 213.392162 83.042379 
L 212.640224 83.319038 
L 212.620552 83.325988 
L 211.848942 83.513708 
L 211.077332 83.615578 
L 210.305722 83.623404 
L 209.534112 83.523432 
z
" style="fill:#de2b25;"/>
   </g>
   <g id="PathCollection_9">
    <path clip-path="url(#p0906d4cc7d)" d="M 209.534112 83.523432 
L 210.305722 83.623404 
L 211.077332 83.615578 
L 211.848942 83.513708 
L 212.620552 83.325988 
L 212.640224 83.319038 
L 213.392162 83.042379 
L 214.163772 82.679582 
L 214.581289 82.440059 
L 214.935382 82.22037 
L 215.706992 81.660291 
L 215.826837 81.56108 
L 216.478602 80.95433 
L 216.741819 80.682102 
L 217.250212 80.063308 
L 217.447452 79.803123 
L 217.984002 78.924145 
L 218.021822 78.839216 
L 218.358787 78.045166 
L 218.593537 77.166187 
L 218.673051 76.287209 
L 218.559827 75.40823 
L 218.184513 74.529251 
L 218.021822 74.3161 
L 217.269778 73.650273 
L 217.250212 73.638402 
L 216.478602 73.336622 
L 215.706992 73.200156 
L 214.935382 73.187284 
L 214.163772 73.27087 
L 213.392162 73.433605 
L 212.671711 73.650273 
L 212.620552 73.666545 
L 211.848942 73.985082 
L 211.077332 74.362642 
L 210.785256 74.529251 
L 210.305722 74.829922 
L 209.534112 75.376523 
L 209.494006 75.40823 
L 208.762502 76.072427 
L 208.546061 76.287209 
L 207.990892 76.95402 
L 207.826009 77.166187 
L 207.298756 78.045166 
L 207.219282 78.239844 
L 206.950138 78.924145 
L 206.769295 79.803123 
L 206.771599 80.682102 
L 206.996205 81.56108 
L 207.219282 81.971122 
L 207.555175 82.440059 
L 207.990892 82.831 
L 208.762502 83.290657 
L 208.840017 83.319038 
z
M 209.366141 81.56108 
L 208.762502 80.884484 
L 208.641407 80.682102 
L 208.447068 79.803123 
L 208.54239 78.924145 
L 208.762502 78.341253 
L 208.883391 78.045166 
L 209.470982 77.166187 
L 209.534112 77.096546 
L 210.305722 76.332493 
L 210.358183 76.287209 
L 211.077332 75.788449 
L 211.718203 75.40823 
L 211.848942 75.341451 
L 212.620552 75.037391 
L 213.392162 74.820828 
L 214.163772 74.710196 
L 214.935382 74.737908 
L 215.706992 74.95892 
L 216.400833 75.40823 
L 216.478602 75.50333 
L 216.882063 76.287209 
L 216.967 77.166187 
L 216.793685 78.045166 
L 216.478602 78.781802 
L 216.412206 78.924145 
L 215.79571 79.803123 
L 215.706992 79.900962 
L 214.935382 80.652752 
L 214.899969 80.682102 
L 214.163772 81.184242 
L 213.489544 81.56108 
L 213.392162 81.608725 
L 212.620552 81.880345 
L 211.848942 82.045354 
L 211.077332 82.086882 
L 210.305722 81.977347 
L 209.534112 81.673195 
z
" style="fill:#c4161c;"/>
   </g>
   <g id="PathCollection_10">
    <path clip-path="url(#p0906d4cc7d)" d="M 209.534112 81.673195 
L 210.305722 81.977347 
L 211.077332 82.086882 
L 211.848942 82.045354 
L 212.620552 81.880345 
L 213.392162 81.608725 
L 213.489544 81.56108 
L 214.163772 81.184242 
L 214.899969 80.682102 
L 214.935382 80.652752 
L 215.706992 79.900962 
L 215.79571 79.803123 
L 216.412206 78.924145 
L 216.478602 78.781802 
L 216.793685 78.045166 
L 216.967 77.166187 
L 216.882063 76.287209 
L 216.478602 75.50333 
L 216.400833 75.40823 
L 215.706992 74.95892 
L 214.935382 74.737908 
L 214.163772 74.710196 
L 213.392162 74.820828 
L 212.620552 75.037391 
L 211.848942 75.341451 
L 211.718203 75.40823 
L 211.077332 75.788449 
L 210.358183 76.287209 
L 210.305722 76.332493 
L 209.534112 77.096546 
L 209.470982 77.166187 
L 208.883391 78.045166 
L 208.762502 78.341253 
L 208.54239 78.924145 
L 208.447068 79.803123 
L 208.641407 80.682102 
L 208.762502 80.884484 
L 209.366141 81.56108 
z
M 211.806034 79.803123 
L 211.077332 79.050688 
L 211.03189 78.924145 
L 211.077332 78.781248 
L 211.376334 78.045166 
L 211.848942 77.595057 
L 212.4785 77.166187 
L 212.620552 77.104849 
L 213.392162 77.003903 
L 213.980399 77.166187 
L 214.163772 77.38942 
L 214.335807 78.045166 
L 214.163772 78.442817 
L 213.893085 78.924145 
L 213.392162 79.337168 
L 212.620552 79.757515 
L 212.100582 79.803123 
L 211.848942 79.816622 
z
" style="fill:#a81016;"/>
   </g>
   <g id="PathCollection_11">
    <path clip-path="url(#p0906d4cc7d)" d="M 211.848942 79.816622 
L 212.100582 79.803123 
L 212.620552 79.757515 
L 213.392162 79.337168 
L 213.893085 78.924145 
L 214.163772 78.442817 
L 214.335807 78.045166 
L 214.163772 77.38942 
L 213.980399 77.166187 
L 213.392162 77.003903 
L 212.620552 77.104849 
L 212.4785 77.166187 
L 211.848942 77.595057 
L 211.376334 78.045166 
L 211.077332 78.781248 
L 211.03189 78.924145 
L 211.077332 79.050688 
L 211.806034 79.803123 
z
" style="fill:#7c0510;"/>
   </g>
   <g id="matplotlib.axis_1">
    <g id="xtick_1">
     <g id="line2d_1">
      <defs>
       <path d="M 0 0 
L 0 3.5 
" id="m2397185d41" style="stroke:#262626;stroke-width:0.8;"/>
      </defs>
      <g>
       <use style="fill:#262626;stroke:#262626;stroke-width:0.8;" x="67.334837" xlink:href="#m2397185d41" y="223"/>
      </g>
     </g>
     <g id="line2d_2">
      <defs>
       <path d="M 0 0 
L 0 -3.5 
" id="m1a681a3ab0" style="stroke:#262626;stroke-width:0.8;"/>
      </defs>
      <g>
       <use style="fill:#262626;stroke:#262626;stroke-width:0.8;" x="67.334837" xlink:href="#m1a681a3ab0" y="25.44"/>
      </g>
     </g>
     <g id="text_1">
      <!-- 0.0 -->
      <defs>
       <path d="M 31.78125 66.40625 
Q 24.171875 66.40625 20.328125 58.90625 
Q 16.5 51.421875 16.5 36.375 
Q 16.5 21.390625 20.328125 13.890625 
Q 24.171875 6.390625 31.78125 6.390625 
Q 39.453125 6.390625 43.28125 13.890625 
Q 47.125 21.390625 47.125 36.375 
Q 47.125 51.421875 43.28125 58.90625 
Q 39.453125 66.40625 31.78125 66.40625 
z
M 31.78125 74.21875 
Q 44.046875 74.21875 50.515625 64.515625 
Q 56.984375 54.828125 56.984375 36.375 
Q 56.984375 17.96875 50.515625 8.265625 
Q 44.046875 -1.421875 31.78125 -1.421875 
Q 19.53125 -1.421875 13.0625 8.265625 
Q 6.59375 17.96875 6.59375 36.375 
Q 6.59375 54.828125 13.0625 64.515625 
Q 19.53125 74.21875 31.78125 74.21875 
z
" id="DejaVuSans-30"/>
       <path d="M 10.6875 12.40625 
L 21 12.40625 
L 21 0 
L 10.6875 0 
z
" id="DejaVuSans-2e"/>
      </defs>
      <g style="fill:#262626;" transform="translate(58.588118 238.358281)scale(0.11 -0.11)">
       <use xlink:href="#DejaVuSans-30"/>
       <use x="63.623047" xlink:href="#DejaVuSans-2e"/>
       <use x="95.410156" xlink:href="#DejaVuSans-30"/>
      </g>
     </g>
    </g>
    <g id="xtick_2">
     <g id="line2d_3">
      <g>
       <use style="fill:#262626;stroke:#262626;stroke-width:0.8;" x="106.432402" xlink:href="#m2397185d41" y="223"/>
      </g>
     </g>
     <g id="line2d_4">
      <g>
       <use style="fill:#262626;stroke:#262626;stroke-width:0.8;" x="106.432402" xlink:href="#m1a681a3ab0" y="25.44"/>
      </g>
     </g>
     <g id="text_2">
      <!-- 1.0 -->
      <defs>
       <path d="M 12.40625 8.296875 
L 28.515625 8.296875 
L 28.515625 63.921875 
L 10.984375 60.40625 
L 10.984375 69.390625 
L 28.421875 72.90625 
L 38.28125 72.90625 
L 38.28125 8.296875 
L 54.390625 8.296875 
L 54.390625 0 
L 12.40625 0 
z
" id="DejaVuSans-31"/>
      </defs>
      <g style="fill:#262626;" transform="translate(97.685684 238.358281)scale(0.11 -0.11)">
       <use xlink:href="#DejaVuSans-31"/>
       <use x="63.623047" xlink:href="#DejaVuSans-2e"/>
       <use x="95.410156" xlink:href="#DejaVuSans-30"/>
      </g>
     </g>
    </g>
    <g id="xtick_3">
     <g id="line2d_5">
      <g>
       <use style="fill:#262626;stroke:#262626;stroke-width:0.8;" x="145.529968" xlink:href="#m2397185d41" y="223"/>
      </g>
     </g>
     <g id="line2d_6">
      <g>
       <use style="fill:#262626;stroke:#262626;stroke-width:0.8;" x="145.529968" xlink:href="#m1a681a3ab0" y="25.44"/>
      </g>
     </g>
     <g id="text_3">
      <!-- 2.0 -->
      <defs>
       <path d="M 19.1875 8.296875 
L 53.609375 8.296875 
L 53.609375 0 
L 7.328125 0 
L 7.328125 8.296875 
Q 12.9375 14.109375 22.625 23.890625 
Q 32.328125 33.6875 34.8125 36.53125 
Q 39.546875 41.84375 41.421875 45.53125 
Q 43.3125 49.21875 43.3125 52.78125 
Q 43.3125 58.59375 39.234375 62.25 
Q 35.15625 65.921875 28.609375 65.921875 
Q 23.96875 65.921875 18.8125 64.3125 
Q 13.671875 62.703125 7.8125 59.421875 
L 7.8125 69.390625 
Q 13.765625 71.78125 18.9375 73 
Q 24.125 74.21875 28.421875 74.21875 
Q 39.75 74.21875 46.484375 68.546875 
Q 53.21875 62.890625 53.21875 53.421875 
Q 53.21875 48.921875 51.53125 44.890625 
Q 49.859375 40.875 45.40625 35.40625 
Q 44.1875 33.984375 37.640625 27.21875 
Q 31.109375 20.453125 19.1875 8.296875 
z
" id="DejaVuSans-32"/>
      </defs>
      <g style="fill:#262626;" transform="translate(136.783249 238.358281)scale(0.11 -0.11)">
       <use xlink:href="#DejaVuSans-32"/>
       <use x="63.623047" xlink:href="#DejaVuSans-2e"/>
       <use x="95.410156" xlink:href="#DejaVuSans-30"/>
      </g>
     </g>
    </g>
    <g id="xtick_4">
     <g id="line2d_7">
      <g>
       <use style="fill:#262626;stroke:#262626;stroke-width:0.8;" x="184.627533" xlink:href="#m2397185d41" y="223"/>
      </g>
     </g>
     <g id="line2d_8">
      <g>
       <use style="fill:#262626;stroke:#262626;stroke-width:0.8;" x="184.627533" xlink:href="#m1a681a3ab0" y="25.44"/>
      </g>
     </g>
     <g id="text_4">
      <!-- 3.0 -->
      <defs>
       <path d="M 40.578125 39.3125 
Q 47.65625 37.796875 51.625 33 
Q 55.609375 28.21875 55.609375 21.1875 
Q 55.609375 10.40625 48.1875 4.484375 
Q 40.765625 -1.421875 27.09375 -1.421875 
Q 22.515625 -1.421875 17.65625 -0.515625 
Q 12.796875 0.390625 7.625 2.203125 
L 7.625 11.71875 
Q 11.71875 9.328125 16.59375 8.109375 
Q 21.484375 6.890625 26.8125 6.890625 
Q 36.078125 6.890625 40.9375 10.546875 
Q 45.796875 14.203125 45.796875 21.1875 
Q 45.796875 27.640625 41.28125 31.265625 
Q 36.765625 34.90625 28.71875 34.90625 
L 20.21875 34.90625 
L 20.21875 43.015625 
L 29.109375 43.015625 
Q 36.375 43.015625 40.234375 45.921875 
Q 44.09375 48.828125 44.09375 54.296875 
Q 44.09375 59.90625 40.109375 62.90625 
Q 36.140625 65.921875 28.71875 65.921875 
Q 24.65625 65.921875 20.015625 65.03125 
Q 15.375 64.15625 9.8125 62.3125 
L 9.8125 71.09375 
Q 15.4375 72.65625 20.34375 73.4375 
Q 25.25 74.21875 29.59375 74.21875 
Q 40.828125 74.21875 47.359375 69.109375 
Q 53.90625 64.015625 53.90625 55.328125 
Q 53.90625 49.265625 50.4375 45.09375 
Q 46.96875 40.921875 40.578125 39.3125 
z
" id="DejaVuSans-33"/>
      </defs>
      <g style="fill:#262626;" transform="translate(175.880814 238.358281)scale(0.11 -0.11)">
       <use xlink:href="#DejaVuSans-33"/>
       <use x="63.623047" xlink:href="#DejaVuSans-2e"/>
       <use x="95.410156" xlink:href="#DejaVuSans-30"/>
      </g>
     </g>
    </g>
    <g id="xtick_5">
     <g id="line2d_9">
      <g>
       <use style="fill:#262626;stroke:#262626;stroke-width:0.8;" x="223.725099" xlink:href="#m2397185d41" y="223"/>
      </g>
     </g>
     <g id="line2d_10">
      <g>
       <use style="fill:#262626;stroke:#262626;stroke-width:0.8;" x="223.725099" xlink:href="#m1a681a3ab0" y="25.44"/>
      </g>
     </g>
     <g id="text_5">
      <!-- 4.0 -->
      <defs>
       <path d="M 37.796875 64.3125 
L 12.890625 25.390625 
L 37.796875 25.390625 
z
M 35.203125 72.90625 
L 47.609375 72.90625 
L 47.609375 25.390625 
L 58.015625 25.390625 
L 58.015625 17.1875 
L 47.609375 17.1875 
L 47.609375 0 
L 37.796875 0 
L 37.796875 17.1875 
L 4.890625 17.1875 
L 4.890625 26.703125 
z
" id="DejaVuSans-34"/>
      </defs>
      <g style="fill:#262626;" transform="translate(214.97838 238.358281)scale(0.11 -0.11)">
       <use xlink:href="#DejaVuSans-34"/>
       <use x="63.623047" xlink:href="#DejaVuSans-2e"/>
       <use x="95.410156" xlink:href="#DejaVuSans-30"/>
      </g>
     </g>
    </g>
    <g id="text_6">
     <!-- log10 counts (Control) -->
     <defs>
      <path d="M 9.421875 75.984375 
L 18.40625 75.984375 
L 18.40625 0 
L 9.421875 0 
z
" id="DejaVuSans-6c"/>
      <path d="M 30.609375 48.390625 
Q 23.390625 48.390625 19.1875 42.75 
Q 14.984375 37.109375 14.984375 27.296875 
Q 14.984375 17.484375 19.15625 11.84375 
Q 23.34375 6.203125 30.609375 6.203125 
Q 37.796875 6.203125 41.984375 11.859375 
Q 46.1875 17.53125 46.1875 27.296875 
Q 46.1875 37.015625 41.984375 42.703125 
Q 37.796875 48.390625 30.609375 48.390625 
z
M 30.609375 56 
Q 42.328125 56 49.015625 48.375 
Q 55.71875 40.765625 55.71875 27.296875 
Q 55.71875 13.875 49.015625 6.21875 
Q 42.328125 -1.421875 30.609375 -1.421875 
Q 18.84375 -1.421875 12.171875 6.21875 
Q 5.515625 13.875 5.515625 27.296875 
Q 5.515625 40.765625 12.171875 48.375 
Q 18.84375 56 30.609375 56 
z
" id="DejaVuSans-6f"/>
      <path d="M 45.40625 27.984375 
Q 45.40625 37.75 41.375 43.109375 
Q 37.359375 48.484375 30.078125 48.484375 
Q 22.859375 48.484375 18.828125 43.109375 
Q 14.796875 37.75 14.796875 27.984375 
Q 14.796875 18.265625 18.828125 12.890625 
Q 22.859375 7.515625 30.078125 7.515625 
Q 37.359375 7.515625 41.375 12.890625 
Q 45.40625 18.265625 45.40625 27.984375 
z
M 54.390625 6.78125 
Q 54.390625 -7.171875 48.1875 -13.984375 
Q 42 -20.796875 29.203125 -20.796875 
Q 24.46875 -20.796875 20.265625 -20.09375 
Q 16.0625 -19.390625 12.109375 -17.921875 
L 12.109375 -9.1875 
Q 16.0625 -11.328125 19.921875 -12.34375 
Q 23.78125 -13.375 27.78125 -13.375 
Q 36.625 -13.375 41.015625 -8.765625 
Q 45.40625 -4.15625 45.40625 5.171875 
L 45.40625 9.625 
Q 42.625 4.78125 38.28125 2.390625 
Q 33.9375 0 27.875 0 
Q 17.828125 0 11.671875 7.65625 
Q 5.515625 15.328125 5.515625 27.984375 
Q 5.515625 40.671875 11.671875 48.328125 
Q 17.828125 56 27.875 56 
Q 33.9375 56 38.28125 53.609375 
Q 42.625 51.21875 45.40625 46.390625 
L 45.40625 54.6875 
L 54.390625 54.6875 
z
" id="DejaVuSans-67"/>
      <path id="DejaVuSans-20"/>
      <path d="M 48.78125 52.59375 
L 48.78125 44.1875 
Q 44.96875 46.296875 41.140625 47.34375 
Q 37.3125 48.390625 33.40625 48.390625 
Q 24.65625 48.390625 19.8125 42.84375 
Q 14.984375 37.3125 14.984375 27.296875 
Q 14.984375 17.28125 19.8125 11.734375 
Q 24.65625 6.203125 33.40625 6.203125 
Q 37.3125 6.203125 41.140625 7.25 
Q 44.96875 8.296875 48.78125 10.40625 
L 48.78125 2.09375 
Q 45.015625 0.34375 40.984375 -0.53125 
Q 36.96875 -1.421875 32.421875 -1.421875 
Q 20.0625 -1.421875 12.78125 6.34375 
Q 5.515625 14.109375 5.515625 27.296875 
Q 5.515625 40.671875 12.859375 48.328125 
Q 20.21875 56 33.015625 56 
Q 37.15625 56 41.109375 55.140625 
Q 45.0625 54.296875 48.78125 52.59375 
z
" id="DejaVuSans-63"/>
      <path d="M 8.5 21.578125 
L 8.5 54.6875 
L 17.484375 54.6875 
L 17.484375 21.921875 
Q 17.484375 14.15625 20.5 10.265625 
Q 23.53125 6.390625 29.59375 6.390625 
Q 36.859375 6.390625 41.078125 11.03125 
Q 45.3125 15.671875 45.3125 23.6875 
L 45.3125 54.6875 
L 54.296875 54.6875 
L 54.296875 0 
L 45.3125 0 
L 45.3125 8.40625 
Q 42.046875 3.421875 37.71875 1 
Q 33.40625 -1.421875 27.6875 -1.421875 
Q 18.265625 -1.421875 13.375 4.4375 
Q 8.5 10.296875 8.5 21.578125 
z
M 31.109375 56 
z
" id="DejaVuSans-75"/>
      <path d="M 54.890625 33.015625 
L 54.890625 0 
L 45.90625 0 
L 45.90625 32.71875 
Q 45.90625 40.484375 42.875 44.328125 
Q 39.84375 48.1875 33.796875 48.1875 
Q 26.515625 48.1875 22.3125 43.546875 
Q 18.109375 38.921875 18.109375 30.90625 
L 18.109375 0 
L 9.078125 0 
L 9.078125 54.6875 
L 18.109375 54.6875 
L 18.109375 46.1875 
Q 21.34375 51.125 25.703125 53.5625 
Q 30.078125 56 35.796875 56 
Q 45.21875 56 50.046875 50.171875 
Q 54.890625 44.34375 54.890625 33.015625 
z
" id="DejaVuSans-6e"/>
      <path d="M 18.3125 70.21875 
L 18.3125 54.6875 
L 36.8125 54.6875 
L 36.8125 47.703125 
L 18.3125 47.703125 
L 18.3125 18.015625 
Q 18.3125 11.328125 20.140625 9.421875 
Q 21.96875 7.515625 27.59375 7.515625 
L 36.8125 7.515625 
L 36.8125 0 
L 27.59375 0 
Q 17.1875 0 13.234375 3.875 
Q 9.28125 7.765625 9.28125 18.015625 
L 9.28125 47.703125 
L 2.6875 47.703125 
L 2.6875 54.6875 
L 9.28125 54.6875 
L 9.28125 70.21875 
z
" id="DejaVuSans-74"/>
      <path d="M 44.28125 53.078125 
L 44.28125 44.578125 
Q 40.484375 46.53125 36.375 47.5 
Q 32.28125 48.484375 27.875 48.484375 
Q 21.1875 48.484375 17.84375 46.4375 
Q 14.5 44.390625 14.5 40.28125 
Q 14.5 37.15625 16.890625 35.375 
Q 19.28125 33.59375 26.515625 31.984375 
L 29.59375 31.296875 
Q 39.15625 29.25 43.1875 25.515625 
Q 47.21875 21.78125 47.21875 15.09375 
Q 47.21875 7.46875 41.1875 3.015625 
Q 35.15625 -1.421875 24.609375 -1.421875 
Q 20.21875 -1.421875 15.453125 -0.5625 
Q 10.6875 0.296875 5.421875 2 
L 5.421875 11.28125 
Q 10.40625 8.6875 15.234375 7.390625 
Q 20.0625 6.109375 24.8125 6.109375 
Q 31.15625 6.109375 34.5625 8.28125 
Q 37.984375 10.453125 37.984375 14.40625 
Q 37.984375 18.0625 35.515625 20.015625 
Q 33.0625 21.96875 24.703125 23.78125 
L 21.578125 24.515625 
Q 13.234375 26.265625 9.515625 29.90625 
Q 5.8125 33.546875 5.8125 39.890625 
Q 5.8125 47.609375 11.28125 51.796875 
Q 16.75 56 26.8125 56 
Q 31.78125 56 36.171875 55.265625 
Q 40.578125 54.546875 44.28125 53.078125 
z
" id="DejaVuSans-73"/>
      <path d="M 31 75.875 
Q 24.46875 64.65625 21.28125 53.65625 
Q 18.109375 42.671875 18.109375 31.390625 
Q 18.109375 20.125 21.3125 9.0625 
Q 24.515625 -2 31 -13.1875 
L 23.1875 -13.1875 
Q 15.875 -1.703125 12.234375 9.375 
Q 8.59375 20.453125 8.59375 31.390625 
Q 8.59375 42.28125 12.203125 53.3125 
Q 15.828125 64.359375 23.1875 75.875 
z
" id="DejaVuSans-28"/>
      <path d="M 64.40625 67.28125 
L 64.40625 56.890625 
Q 59.421875 61.53125 53.78125 63.8125 
Q 48.140625 66.109375 41.796875 66.109375 
Q 29.296875 66.109375 22.65625 58.46875 
Q 16.015625 50.828125 16.015625 36.375 
Q 16.015625 21.96875 22.65625 14.328125 
Q 29.296875 6.6875 41.796875 6.6875 
Q 48.140625 6.6875 53.78125 8.984375 
Q 59.421875 11.28125 64.40625 15.921875 
L 64.40625 5.609375 
Q 59.234375 2.09375 53.4375 0.328125 
Q 47.65625 -1.421875 41.21875 -1.421875 
Q 24.65625 -1.421875 15.125 8.703125 
Q 5.609375 18.84375 5.609375 36.375 
Q 5.609375 53.953125 15.125 64.078125 
Q 24.65625 74.21875 41.21875 74.21875 
Q 47.75 74.21875 53.53125 72.484375 
Q 59.328125 70.75 64.40625 67.28125 
z
" id="DejaVuSans-43"/>
      <path d="M 41.109375 46.296875 
Q 39.59375 47.171875 37.8125 47.578125 
Q 36.03125 48 33.890625 48 
Q 26.265625 48 22.1875 43.046875 
Q 18.109375 38.09375 18.109375 28.8125 
L 18.109375 0 
L 9.078125 0 
L 9.078125 54.6875 
L 18.109375 54.6875 
L 18.109375 46.1875 
Q 20.953125 51.171875 25.484375 53.578125 
Q 30.03125 56 36.53125 56 
Q 37.453125 56 38.578125 55.875 
Q 39.703125 55.765625 41.0625 55.515625 
z
" id="DejaVuSans-72"/>
      <path d="M 8.015625 75.875 
L 15.828125 75.875 
Q 23.140625 64.359375 26.78125 53.3125 
Q 30.421875 42.28125 30.421875 31.390625 
Q 30.421875 20.453125 26.78125 9.375 
Q 23.140625 -1.703125 15.828125 -13.1875 
L 8.015625 -13.1875 
Q 14.5 -2 17.703125 9.0625 
Q 20.90625 20.125 20.90625 31.390625 
Q 20.90625 42.671875 17.703125 53.65625 
Q 14.5 64.65625 8.015625 75.875 
z
" id="DejaVuSans-29"/>
     </defs>
     <g transform="translate(83.294531 253.004219)scale(0.11 -0.11)">
      <use xlink:href="#DejaVuSans-6c"/>
      <use x="27.783203" xlink:href="#DejaVuSans-6f"/>
      <use x="88.964844" xlink:href="#DejaVuSans-67"/>
      <use x="152.441406" xlink:href="#DejaVuSans-31"/>
      <use x="216.064453" xlink:href="#DejaVuSans-30"/>
      <use x="279.6875" xlink:href="#DejaVuSans-20"/>
      <use x="311.474609" xlink:href="#DejaVuSans-63"/>
      <use x="366.455078" xlink:href="#DejaVuSans-6f"/>
      <use x="427.636719" xlink:href="#DejaVuSans-75"/>
      <use x="491.015625" xlink:href="#DejaVuSans-6e"/>
      <use x="554.394531" xlink:href="#DejaVuSans-74"/>
      <use x="593.603516" xlink:href="#DejaVuSans-73"/>
      <use x="645.703125" xlink:href="#DejaVuSans-20"/>
      <use x="677.490234" xlink:href="#DejaVuSans-28"/>
      <use x="716.503906" xlink:href="#DejaVuSans-43"/>
      <use x="786.328125" xlink:href="#DejaVuSans-6f"/>
      <use x="847.509766" xlink:href="#DejaVuSans-6e"/>
      <use x="910.888672" xlink:href="#DejaVuSans-74"/>
      <use x="950.097656" xlink:href="#DejaVuSans-72"/>
      <use x="991.179688" xlink:href="#DejaVuSans-6f"/>
      <use x="1052.361328" xlink:href="#DejaVuSans-6c"/>
      <use x="1080.144531" xlink:href="#DejaVuSans-29"/>
     </g>
    </g>
   </g>
   <g id="matplotlib.axis_2">
    <g id="ytick_1">
     <g id="line2d_11">
      <defs>
       <path d="M 0 0 
L -3.5 0 
" id="m4d66541883" style="stroke:#262626;stroke-width:0.8;"/>
      </defs>
      <g>
       <use style="fill:#262626;stroke:#262626;stroke-width:0.8;" x="51.01625" xlink:href="#m4d66541883" y="208.365926"/>
      </g>
     </g>
     <g id="line2d_12">
      <defs>
       <path d="M 0 0 
L 3.5 0 
" id="m2a87d14d41" style="stroke:#262626;stroke-width:0.8;"/>
      </defs>
      <g>
       <use style="fill:#262626;stroke:#262626;stroke-width:0.8;" x="238.68" xlink:href="#m2a87d14d41" y="208.365926"/>
      </g>
     </g>
     <g id="text_7">
      <!-- 0.0 -->
      <g style="fill:#262626;" transform="translate(26.522813 212.545067)scale(0.11 -0.11)">
       <use xlink:href="#DejaVuSans-30"/>
       <use x="63.623047" xlink:href="#DejaVuSans-2e"/>
       <use x="95.410156" xlink:href="#DejaVuSans-30"/>
      </g>
     </g>
    </g>
    <g id="ytick_2">
     <g id="line2d_13">
      <g>
       <use style="fill:#262626;stroke:#262626;stroke-width:0.8;" x="51.01625" xlink:href="#m4d66541883" y="173.647593"/>
      </g>
     </g>
     <g id="line2d_14">
      <g>
       <use style="fill:#262626;stroke:#262626;stroke-width:0.8;" x="238.68" xlink:href="#m2a87d14d41" y="173.647593"/>
      </g>
     </g>
     <g id="text_8">
      <!-- 1.0 -->
      <g style="fill:#262626;" transform="translate(26.522813 177.826733)scale(0.11 -0.11)">
       <use xlink:href="#DejaVuSans-31"/>
       <use x="63.623047" xlink:href="#DejaVuSans-2e"/>
       <use x="95.410156" xlink:href="#DejaVuSans-30"/>
      </g>
     </g>
    </g>
    <g id="ytick_3">
     <g id="line2d_15">
      <g>
       <use style="fill:#262626;stroke:#262626;stroke-width:0.8;" x="51.01625" xlink:href="#m4d66541883" y="138.929259"/>
      </g>
     </g>
     <g id="line2d_16">
      <g>
       <use style="fill:#262626;stroke:#262626;stroke-width:0.8;" x="238.68" xlink:href="#m2a87d14d41" y="138.929259"/>
      </g>
     </g>
     <g id="text_9">
      <!-- 2.0 -->
      <g style="fill:#262626;" transform="translate(26.522813 143.1084)scale(0.11 -0.11)">
       <use xlink:href="#DejaVuSans-32"/>
       <use x="63.623047" xlink:href="#DejaVuSans-2e"/>
       <use x="95.410156" xlink:href="#DejaVuSans-30"/>
      </g>
     </g>
    </g>
    <g id="ytick_4">
     <g id="line2d_17">
      <g>
       <use style="fill:#262626;stroke:#262626;stroke-width:0.8;" x="51.01625" xlink:href="#m4d66541883" y="104.210926"/>
      </g>
     </g>
     <g id="line2d_18">
      <g>
       <use style="fill:#262626;stroke:#262626;stroke-width:0.8;" x="238.68" xlink:href="#m2a87d14d41" y="104.210926"/>
      </g>
     </g>
     <g id="text_10">
      <!-- 3.0 -->
      <g style="fill:#262626;" transform="translate(26.522813 108.390067)scale(0.11 -0.11)">
       <use xlink:href="#DejaVuSans-33"/>
       <use x="63.623047" xlink:href="#DejaVuSans-2e"/>
       <use x="95.410156" xlink:href="#DejaVuSans-30"/>
      </g>
     </g>
    </g>
    <g id="ytick_5">
     <g id="line2d_19">
      <g>
       <use style="fill:#262626;stroke:#262626;stroke-width:0.8;" x="51.01625" xlink:href="#m4d66541883" y="69.492593"/>
      </g>
     </g>
     <g id="line2d_20">
      <g>
       <use style="fill:#262626;stroke:#262626;stroke-width:0.8;" x="238.68" xlink:href="#m2a87d14d41" y="69.492593"/>
      </g>
     </g>
     <g id="text_11">
      <!-- 4.0 -->
      <g style="fill:#262626;" transform="translate(26.522813 73.671734)scale(0.11 -0.11)">
       <use xlink:href="#DejaVuSans-34"/>
       <use x="63.623047" xlink:href="#DejaVuSans-2e"/>
       <use x="95.410156" xlink:href="#DejaVuSans-30"/>
      </g>
     </g>
    </g>
    <g id="ytick_6">
     <g id="line2d_21">
      <g>
       <use style="fill:#262626;stroke:#262626;stroke-width:0.8;" x="51.01625" xlink:href="#m4d66541883" y="34.77426"/>
      </g>
     </g>
     <g id="line2d_22">
      <g>
       <use style="fill:#262626;stroke:#262626;stroke-width:0.8;" x="238.68" xlink:href="#m2a87d14d41" y="34.77426"/>
      </g>
     </g>
     <g id="text_12">
      <!-- 5.0 -->
      <defs>
       <path d="M 10.796875 72.90625 
L 49.515625 72.90625 
L 49.515625 64.59375 
L 19.828125 64.59375 
L 19.828125 46.734375 
Q 21.96875 47.46875 24.109375 47.828125 
Q 26.265625 48.1875 28.421875 48.1875 
Q 40.625 48.1875 47.75 41.5 
Q 54.890625 34.8125 54.890625 23.390625 
Q 54.890625 11.625 47.5625 5.09375 
Q 40.234375 -1.421875 26.90625 -1.421875 
Q 22.3125 -1.421875 17.546875 -0.640625 
Q 12.796875 0.140625 7.71875 1.703125 
L 7.71875 11.625 
Q 12.109375 9.234375 16.796875 8.0625 
Q 21.484375 6.890625 26.703125 6.890625 
Q 35.15625 6.890625 40.078125 11.328125 
Q 45.015625 15.765625 45.015625 23.390625 
Q 45.015625 31 40.078125 35.4375 
Q 35.15625 39.890625 26.703125 39.890625 
Q 22.75 39.890625 18.8125 39.015625 
Q 14.890625 38.140625 10.796875 36.28125 
z
" id="DejaVuSans-35"/>
      </defs>
      <g style="fill:#262626;" transform="translate(26.522813 38.9534)scale(0.11 -0.11)">
       <use xlink:href="#DejaVuSans-35"/>
       <use x="63.623047" xlink:href="#DejaVuSans-2e"/>
       <use x="95.410156" xlink:href="#DejaVuSans-30"/>
      </g>
     </g>
    </g>
    <g id="text_13">
     <!-- log10 counts (CD107a_positive_2) -->
     <defs>
      <path d="M 19.671875 64.796875 
L 19.671875 8.109375 
L 31.59375 8.109375 
Q 46.6875 8.109375 53.6875 14.9375 
Q 60.6875 21.78125 60.6875 36.53125 
Q 60.6875 51.171875 53.6875 57.984375 
Q 46.6875 64.796875 31.59375 64.796875 
z
M 9.8125 72.90625 
L 30.078125 72.90625 
Q 51.265625 72.90625 61.171875 64.09375 
Q 71.09375 55.28125 71.09375 36.53125 
Q 71.09375 17.671875 61.125 8.828125 
Q 51.171875 0 30.078125 0 
L 9.8125 0 
z
" id="DejaVuSans-44"/>
      <path d="M 8.203125 72.90625 
L 55.078125 72.90625 
L 55.078125 68.703125 
L 28.609375 0 
L 18.3125 0 
L 43.21875 64.59375 
L 8.203125 64.59375 
z
" id="DejaVuSans-37"/>
      <path d="M 34.28125 27.484375 
Q 23.390625 27.484375 19.1875 25 
Q 14.984375 22.515625 14.984375 16.5 
Q 14.984375 11.71875 18.140625 8.90625 
Q 21.296875 6.109375 26.703125 6.109375 
Q 34.1875 6.109375 38.703125 11.40625 
Q 43.21875 16.703125 43.21875 25.484375 
L 43.21875 27.484375 
z
M 52.203125 31.203125 
L 52.203125 0 
L 43.21875 0 
L 43.21875 8.296875 
Q 40.140625 3.328125 35.546875 0.953125 
Q 30.953125 -1.421875 24.3125 -1.421875 
Q 15.921875 -1.421875 10.953125 3.296875 
Q 6 8.015625 6 15.921875 
Q 6 25.140625 12.171875 29.828125 
Q 18.359375 34.515625 30.609375 34.515625 
L 43.21875 34.515625 
L 43.21875 35.40625 
Q 43.21875 41.609375 39.140625 45 
Q 35.0625 48.390625 27.6875 48.390625 
Q 23 48.390625 18.546875 47.265625 
Q 14.109375 46.140625 10.015625 43.890625 
L 10.015625 52.203125 
Q 14.9375 54.109375 19.578125 55.046875 
Q 24.21875 56 28.609375 56 
Q 40.484375 56 46.34375 49.84375 
Q 52.203125 43.703125 52.203125 31.203125 
z
" id="DejaVuSans-61"/>
      <path d="M 50.984375 -16.609375 
L 50.984375 -23.578125 
L -0.984375 -23.578125 
L -0.984375 -16.609375 
z
" id="DejaVuSans-5f"/>
      <path d="M 18.109375 8.203125 
L 18.109375 -20.796875 
L 9.078125 -20.796875 
L 9.078125 54.6875 
L 18.109375 54.6875 
L 18.109375 46.390625 
Q 20.953125 51.265625 25.265625 53.625 
Q 29.59375 56 35.59375 56 
Q 45.5625 56 51.78125 48.09375 
Q 58.015625 40.1875 58.015625 27.296875 
Q 58.015625 14.40625 51.78125 6.484375 
Q 45.5625 -1.421875 35.59375 -1.421875 
Q 29.59375 -1.421875 25.265625 0.953125 
Q 20.953125 3.328125 18.109375 8.203125 
z
M 48.6875 27.296875 
Q 48.6875 37.203125 44.609375 42.84375 
Q 40.53125 48.484375 33.40625 48.484375 
Q 26.265625 48.484375 22.1875 42.84375 
Q 18.109375 37.203125 18.109375 27.296875 
Q 18.109375 17.390625 22.1875 11.75 
Q 26.265625 6.109375 33.40625 6.109375 
Q 40.53125 6.109375 44.609375 11.75 
Q 48.6875 17.390625 48.6875 27.296875 
z
" id="DejaVuSans-70"/>
      <path d="M 9.421875 54.6875 
L 18.40625 54.6875 
L 18.40625 0 
L 9.421875 0 
z
M 9.421875 75.984375 
L 18.40625 75.984375 
L 18.40625 64.59375 
L 9.421875 64.59375 
z
" id="DejaVuSans-69"/>
      <path d="M 2.984375 54.6875 
L 12.5 54.6875 
L 29.59375 8.796875 
L 46.6875 54.6875 
L 56.203125 54.6875 
L 35.6875 0 
L 23.484375 0 
z
" id="DejaVuSans-76"/>
      <path d="M 56.203125 29.59375 
L 56.203125 25.203125 
L 14.890625 25.203125 
Q 15.484375 15.921875 20.484375 11.0625 
Q 25.484375 6.203125 34.421875 6.203125 
Q 39.59375 6.203125 44.453125 7.46875 
Q 49.3125 8.734375 54.109375 11.28125 
L 54.109375 2.78125 
Q 49.265625 0.734375 44.1875 -0.34375 
Q 39.109375 -1.421875 33.890625 -1.421875 
Q 20.796875 -1.421875 13.15625 6.1875 
Q 5.515625 13.8125 5.515625 26.8125 
Q 5.515625 40.234375 12.765625 48.109375 
Q 20.015625 56 32.328125 56 
Q 43.359375 56 49.78125 48.890625 
Q 56.203125 41.796875 56.203125 29.59375 
z
M 47.21875 32.234375 
Q 47.125 39.59375 43.09375 43.984375 
Q 39.0625 48.390625 32.421875 48.390625 
Q 24.90625 48.390625 20.390625 44.140625 
Q 15.875 39.890625 15.1875 32.171875 
z
" id="DejaVuSans-65"/>
     </defs>
     <g transform="translate(19.929219 218.290625)rotate(-90)scale(0.11 -0.11)">
      <use xlink:href="#DejaVuSans-6c"/>
      <use x="27.783203" xlink:href="#DejaVuSans-6f"/>
      <use x="88.964844" xlink:href="#DejaVuSans-67"/>
      <use x="152.441406" xlink:href="#DejaVuSans-31"/>
      <use x="216.064453" xlink:href="#DejaVuSans-30"/>
      <use x="279.6875" xlink:href="#DejaVuSans-20"/>
      <use x="311.474609" xlink:href="#DejaVuSans-63"/>
      <use x="366.455078" xlink:href="#DejaVuSans-6f"/>
      <use x="427.636719" xlink:href="#DejaVuSans-75"/>
      <use x="491.015625" xlink:href="#DejaVuSans-6e"/>
      <use x="554.394531" xlink:href="#DejaVuSans-74"/>
      <use x="593.603516" xlink:href="#DejaVuSans-73"/>
      <use x="645.703125" xlink:href="#DejaVuSans-20"/>
      <use x="677.490234" xlink:href="#DejaVuSans-28"/>
      <use x="716.503906" xlink:href="#DejaVuSans-43"/>
      <use x="786.328125" xlink:href="#DejaVuSans-44"/>
      <use x="863.330078" xlink:href="#DejaVuSans-31"/>
      <use x="926.953125" xlink:href="#DejaVuSans-30"/>
      <use x="990.576172" xlink:href="#DejaVuSans-37"/>
      <use x="1054.199219" xlink:href="#DejaVuSans-61"/>
      <use x="1115.478516" xlink:href="#DejaVuSans-5f"/>
      <use x="1165.478516" xlink:href="#DejaVuSans-70"/>
      <use x="1228.955078" xlink:href="#DejaVuSans-6f"/>
      <use x="1290.136719" xlink:href="#DejaVuSans-73"/>
      <use x="1342.236328" xlink:href="#DejaVuSans-69"/>
      <use x="1370.019531" xlink:href="#DejaVuSans-74"/>
      <use x="1409.228516" xlink:href="#DejaVuSans-69"/>
      <use x="1437.011719" xlink:href="#DejaVuSans-76"/>
      <use x="1496.191406" xlink:href="#DejaVuSans-65"/>
      <use x="1557.714844" xlink:href="#DejaVuSans-5f"/>
      <use x="1607.714844" xlink:href="#DejaVuSans-32"/>
      <use x="1671.337891" xlink:href="#DejaVuSans-29"/>
     </g>
    </g>
   </g>
   <g id="line2d_23">
    <path clip-path="url(#p0906d4cc7d)" d="M 51.01625 222.856704 
L 238.68 56.212757 
" style="fill:none;opacity:0.75;stroke:#808080;stroke-dasharray:5.55,2.4;stroke-dashoffset:0;stroke-width:1.5;"/>
   </g>
   <g id="patch_3">
    <path d="M 51.01625 223 
L 51.01625 25.44 
" style="fill:none;stroke:#000000;stroke-linecap:square;stroke-linejoin:miter;stroke-width:0.8;"/>
   </g>
   <g id="patch_4">
    <path d="M 238.68 223 
L 238.68 25.44 
" style="fill:none;stroke:#000000;stroke-linecap:square;stroke-linejoin:miter;stroke-width:0.8;"/>
   </g>
   <g id="patch_5">
    <path d="M 51.01625 223 
L 238.68 223 
" style="fill:none;stroke:#000000;stroke-linecap:square;stroke-linejoin:miter;stroke-width:0.8;"/>
   </g>
   <g id="patch_6">
    <path d="M 51.01625 25.44 
L 238.68 25.44 
" style="fill:none;stroke:#000000;stroke-linecap:square;stroke-linejoin:miter;stroke-width:0.8;"/>
   </g>
   <g id="text_14">
    <!-- sgRNA Density -->
    <defs>
     <path d="M 44.390625 34.1875 
Q 47.5625 33.109375 50.5625 29.59375 
Q 53.5625 26.078125 56.59375 19.921875 
L 66.609375 0 
L 56 0 
L 46.6875 18.703125 
Q 43.0625 26.03125 39.671875 28.421875 
Q 36.28125 30.8125 30.421875 30.8125 
L 19.671875 30.8125 
L 19.671875 0 
L 9.8125 0 
L 9.8125 72.90625 
L 32.078125 72.90625 
Q 44.578125 72.90625 50.734375 67.671875 
Q 56.890625 62.453125 56.890625 51.90625 
Q 56.890625 45.015625 53.6875 40.46875 
Q 50.484375 35.9375 44.390625 34.1875 
z
M 19.671875 64.796875 
L 19.671875 38.921875 
L 32.078125 38.921875 
Q 39.203125 38.921875 42.84375 42.21875 
Q 46.484375 45.515625 46.484375 51.90625 
Q 46.484375 58.296875 42.84375 61.546875 
Q 39.203125 64.796875 32.078125 64.796875 
z
" id="DejaVuSans-52"/>
     <path d="M 9.8125 72.90625 
L 23.09375 72.90625 
L 55.421875 11.921875 
L 55.421875 72.90625 
L 64.984375 72.90625 
L 64.984375 0 
L 51.703125 0 
L 19.390625 60.984375 
L 19.390625 0 
L 9.8125 0 
z
" id="DejaVuSans-4e"/>
     <path d="M 34.1875 63.1875 
L 20.796875 26.90625 
L 47.609375 26.90625 
z
M 28.609375 72.90625 
L 39.796875 72.90625 
L 67.578125 0 
L 57.328125 0 
L 50.6875 18.703125 
L 17.828125 18.703125 
L 11.1875 0 
L 0.78125 0 
z
" id="DejaVuSans-41"/>
     <path d="M 32.171875 -5.078125 
Q 28.375 -14.84375 24.75 -17.8125 
Q 21.140625 -20.796875 15.09375 -20.796875 
L 7.90625 -20.796875 
L 7.90625 -13.28125 
L 13.1875 -13.28125 
Q 16.890625 -13.28125 18.9375 -11.515625 
Q 21 -9.765625 23.484375 -3.21875 
L 25.09375 0.875 
L 2.984375 54.6875 
L 12.5 54.6875 
L 29.59375 11.921875 
L 46.6875 54.6875 
L 56.203125 54.6875 
z
" id="DejaVuSans-79"/>
    </defs>
    <g transform="translate(100.434063 19.44)scale(0.12 -0.12)">
     <use xlink:href="#DejaVuSans-73"/>
     <use x="52.099609" xlink:href="#DejaVuSans-67"/>
     <use x="115.576172" xlink:href="#DejaVuSans-52"/>
     <use x="185.058594" xlink:href="#DejaVuSans-4e"/>
     <use x="259.863281" xlink:href="#DejaVuSans-41"/>
     <use x="328.271484" xlink:href="#DejaVuSans-20"/>
     <use x="360.058594" xlink:href="#DejaVuSans-44"/>
     <use x="437.060547" xlink:href="#DejaVuSans-65"/>
     <use x="498.583984" xlink:href="#DejaVuSans-6e"/>
     <use x="561.962891" xlink:href="#DejaVuSans-73"/>
     <use x="614.0625" xlink:href="#DejaVuSans-69"/>
     <use x="641.845703" xlink:href="#DejaVuSans-74"/>
     <use x="681.054688" xlink:href="#DejaVuSans-79"/>
    </g>
   </g>
  </g>
 </g>
 <defs>
  <clipPath id="p0906d4cc7d">
   <rect height="197.56" width="187.66375" x="51.01625" y="25.44"/>
  </clipPath>
 </defs>
</svg>
